<?xml version="1.0" encoding="utf-8" standalone="no"?>
<!DOCTYPE svg PUBLIC "-//W3C//DTD SVG 1.1//EN"
  "http://www.w3.org/Graphics/SVG/1.1/DTD/svg11.dtd">
<svg xmlns:xlink="http://www.w3.org/1999/xlink" width="1152pt" height="648pt" viewBox="0 0 1152 648" xmlns="http://www.w3.org/2000/svg" version="1.1">
 <metadata>
  <rdf:RDF xmlns:dc="http://purl.org/dc/elements/1.1/" xmlns:cc="http://creativecommons.org/ns#" xmlns:rdf="http://www.w3.org/1999/02/22-rdf-syntax-ns#">
   <cc:Work>
    <dc:type rdf:resource="http://purl.org/dc/dcmitype/StillImage"/>
    <dc:date>2025-06-11T15:56:46.627078</dc:date>
    <dc:format>image/svg+xml</dc:format>
    <dc:creator>
     <cc:Agent>
      <dc:title>Matplotlib v3.8.4, https://matplotlib.org/</dc:title>
     </cc:Agent>
    </dc:creator>
   </cc:Work>
  </rdf:RDF>
 </metadata>
 <defs>
  <style type="text/css">*{stroke-linejoin: round; stroke-linecap: butt}</style>
 </defs>
 <g id="figure_1">
  <g id="patch_1">
   <path d="M 0 648 
L 1152 648 
L 1152 0 
L 0 0 
z
" style="fill: #ffffff"/>
  </g>
  <g id="axes_1">
   <g id="patch_2">
    <path d="M 144 576.72 
L 1036.8 576.72 
L 1036.8 77.76 
L 144 77.76 
z
" style="fill: #ffffff"/>
   </g>
   <g id="matplotlib.axis_1">
    <g id="xtick_1">
     <g id="line2d_1">
      <path d="M 233.938084 576.72 
L 233.938084 77.76 
" clip-path="url(#p73f75766bf)" style="fill: none; stroke: #b0b0b0; stroke-width: 0.8; stroke-linecap: square"/>
     </g>
     <g id="line2d_2">
      <defs>
       <path id="ma7dce81227" d="M 0 0 
L 0 3.5 
" style="stroke: #000000; stroke-width: 0.8"/>
      </defs>
      <g>
       <use xlink:href="#ma7dce81227" x="233.938084" y="576.72" style="stroke: #000000; stroke-width: 0.8"/>
      </g>
     </g>
     <g id="text_1">
      <!-- 176 -->
      <g transform="translate(224.394334 591.318438) scale(0.1 -0.1)">
       <defs>
        <path id="DejaVuSans-31" d="M 794 531 
L 1825 531 
L 1825 4091 
L 703 3866 
L 703 4441 
L 1819 4666 
L 2450 4666 
L 2450 531 
L 3481 531 
L 3481 0 
L 794 0 
L 794 531 
z
" transform="scale(0.015625)"/>
        <path id="DejaVuSans-37" d="M 525 4666 
L 3525 4666 
L 3525 4397 
L 1831 0 
L 1172 0 
L 2766 4134 
L 525 4134 
L 525 4666 
z
" transform="scale(0.015625)"/>
        <path id="DejaVuSans-36" d="M 2113 2584 
Q 1688 2584 1439 2293 
Q 1191 2003 1191 1497 
Q 1191 994 1439 701 
Q 1688 409 2113 409 
Q 2538 409 2786 701 
Q 3034 994 3034 1497 
Q 3034 2003 2786 2293 
Q 2538 2584 2113 2584 
z
M 3366 4563 
L 3366 3988 
Q 3128 4100 2886 4159 
Q 2644 4219 2406 4219 
Q 1781 4219 1451 3797 
Q 1122 3375 1075 2522 
Q 1259 2794 1537 2939 
Q 1816 3084 2150 3084 
Q 2853 3084 3261 2657 
Q 3669 2231 3669 1497 
Q 3669 778 3244 343 
Q 2819 -91 2113 -91 
Q 1303 -91 875 529 
Q 447 1150 447 2328 
Q 447 3434 972 4092 
Q 1497 4750 2381 4750 
Q 2619 4750 2861 4703 
Q 3103 4656 3366 4563 
z
" transform="scale(0.015625)"/>
       </defs>
       <use xlink:href="#DejaVuSans-31"/>
       <use xlink:href="#DejaVuSans-37" x="63.623047"/>
       <use xlink:href="#DejaVuSans-36" x="127.246094"/>
      </g>
     </g>
    </g>
    <g id="xtick_2">
     <g id="line2d_3">
      <path d="M 343.618673 576.72 
L 343.618673 77.76 
" clip-path="url(#p73f75766bf)" style="fill: none; stroke: #b0b0b0; stroke-width: 0.8; stroke-linecap: square"/>
     </g>
     <g id="line2d_4">
      <g>
       <use xlink:href="#ma7dce81227" x="343.618673" y="576.72" style="stroke: #000000; stroke-width: 0.8"/>
      </g>
     </g>
     <g id="text_2">
      <!-- 178 -->
      <g transform="translate(334.074923 591.318438) scale(0.1 -0.1)">
       <defs>
        <path id="DejaVuSans-38" d="M 2034 2216 
Q 1584 2216 1326 1975 
Q 1069 1734 1069 1313 
Q 1069 891 1326 650 
Q 1584 409 2034 409 
Q 2484 409 2743 651 
Q 3003 894 3003 1313 
Q 3003 1734 2745 1975 
Q 2488 2216 2034 2216 
z
M 1403 2484 
Q 997 2584 770 2862 
Q 544 3141 544 3541 
Q 544 4100 942 4425 
Q 1341 4750 2034 4750 
Q 2731 4750 3128 4425 
Q 3525 4100 3525 3541 
Q 3525 3141 3298 2862 
Q 3072 2584 2669 2484 
Q 3125 2378 3379 2068 
Q 3634 1759 3634 1313 
Q 3634 634 3220 271 
Q 2806 -91 2034 -91 
Q 1263 -91 848 271 
Q 434 634 434 1313 
Q 434 1759 690 2068 
Q 947 2378 1403 2484 
z
M 1172 3481 
Q 1172 3119 1398 2916 
Q 1625 2713 2034 2713 
Q 2441 2713 2670 2916 
Q 2900 3119 2900 3481 
Q 2900 3844 2670 4047 
Q 2441 4250 2034 4250 
Q 1625 4250 1398 4047 
Q 1172 3844 1172 3481 
z
" transform="scale(0.015625)"/>
       </defs>
       <use xlink:href="#DejaVuSans-31"/>
       <use xlink:href="#DejaVuSans-37" x="63.623047"/>
       <use xlink:href="#DejaVuSans-38" x="127.246094"/>
      </g>
     </g>
    </g>
    <g id="xtick_3">
     <g id="line2d_5">
      <path d="M 453.299263 576.72 
L 453.299263 77.76 
" clip-path="url(#p73f75766bf)" style="fill: none; stroke: #b0b0b0; stroke-width: 0.8; stroke-linecap: square"/>
     </g>
     <g id="line2d_6">
      <g>
       <use xlink:href="#ma7dce81227" x="453.299263" y="576.72" style="stroke: #000000; stroke-width: 0.8"/>
      </g>
     </g>
     <g id="text_3">
      <!-- 180 -->
      <g transform="translate(443.755513 591.318438) scale(0.1 -0.1)">
       <defs>
        <path id="DejaVuSans-30" d="M 2034 4250 
Q 1547 4250 1301 3770 
Q 1056 3291 1056 2328 
Q 1056 1369 1301 889 
Q 1547 409 2034 409 
Q 2525 409 2770 889 
Q 3016 1369 3016 2328 
Q 3016 3291 2770 3770 
Q 2525 4250 2034 4250 
z
M 2034 4750 
Q 2819 4750 3233 4129 
Q 3647 3509 3647 2328 
Q 3647 1150 3233 529 
Q 2819 -91 2034 -91 
Q 1250 -91 836 529 
Q 422 1150 422 2328 
Q 422 3509 836 4129 
Q 1250 4750 2034 4750 
z
" transform="scale(0.015625)"/>
       </defs>
       <use xlink:href="#DejaVuSans-31"/>
       <use xlink:href="#DejaVuSans-38" x="63.623047"/>
       <use xlink:href="#DejaVuSans-30" x="127.246094"/>
      </g>
     </g>
    </g>
    <g id="xtick_4">
     <g id="line2d_7">
      <path d="M 562.979853 576.72 
L 562.979853 77.76 
" clip-path="url(#p73f75766bf)" style="fill: none; stroke: #b0b0b0; stroke-width: 0.8; stroke-linecap: square"/>
     </g>
     <g id="line2d_8">
      <g>
       <use xlink:href="#ma7dce81227" x="562.979853" y="576.72" style="stroke: #000000; stroke-width: 0.8"/>
      </g>
     </g>
     <g id="text_4">
      <!-- 182 -->
      <g transform="translate(553.436103 591.318438) scale(0.1 -0.1)">
       <defs>
        <path id="DejaVuSans-32" d="M 1228 531 
L 3431 531 
L 3431 0 
L 469 0 
L 469 531 
Q 828 903 1448 1529 
Q 2069 2156 2228 2338 
Q 2531 2678 2651 2914 
Q 2772 3150 2772 3378 
Q 2772 3750 2511 3984 
Q 2250 4219 1831 4219 
Q 1534 4219 1204 4116 
Q 875 4013 500 3803 
L 500 4441 
Q 881 4594 1212 4672 
Q 1544 4750 1819 4750 
Q 2544 4750 2975 4387 
Q 3406 4025 3406 3419 
Q 3406 3131 3298 2873 
Q 3191 2616 2906 2266 
Q 2828 2175 2409 1742 
Q 1991 1309 1228 531 
z
" transform="scale(0.015625)"/>
       </defs>
       <use xlink:href="#DejaVuSans-31"/>
       <use xlink:href="#DejaVuSans-38" x="63.623047"/>
       <use xlink:href="#DejaVuSans-32" x="127.246094"/>
      </g>
     </g>
    </g>
    <g id="xtick_5">
     <g id="line2d_9">
      <path d="M 672.660442 576.72 
L 672.660442 77.76 
" clip-path="url(#p73f75766bf)" style="fill: none; stroke: #b0b0b0; stroke-width: 0.8; stroke-linecap: square"/>
     </g>
     <g id="line2d_10">
      <g>
       <use xlink:href="#ma7dce81227" x="672.660442" y="576.72" style="stroke: #000000; stroke-width: 0.8"/>
      </g>
     </g>
     <g id="text_5">
      <!-- 184 -->
      <g transform="translate(663.116692 591.318438) scale(0.1 -0.1)">
       <defs>
        <path id="DejaVuSans-34" d="M 2419 4116 
L 825 1625 
L 2419 1625 
L 2419 4116 
z
M 2253 4666 
L 3047 4666 
L 3047 1625 
L 3713 1625 
L 3713 1100 
L 3047 1100 
L 3047 0 
L 2419 0 
L 2419 1100 
L 313 1100 
L 313 1709 
L 2253 4666 
z
" transform="scale(0.015625)"/>
       </defs>
       <use xlink:href="#DejaVuSans-31"/>
       <use xlink:href="#DejaVuSans-38" x="63.623047"/>
       <use xlink:href="#DejaVuSans-34" x="127.246094"/>
      </g>
     </g>
    </g>
    <g id="xtick_6">
     <g id="line2d_11">
      <path d="M 782.341032 576.72 
L 782.341032 77.76 
" clip-path="url(#p73f75766bf)" style="fill: none; stroke: #b0b0b0; stroke-width: 0.8; stroke-linecap: square"/>
     </g>
     <g id="line2d_12">
      <g>
       <use xlink:href="#ma7dce81227" x="782.341032" y="576.72" style="stroke: #000000; stroke-width: 0.8"/>
      </g>
     </g>
     <g id="text_6">
      <!-- 186 -->
      <g transform="translate(772.797282 591.318438) scale(0.1 -0.1)">
       <use xlink:href="#DejaVuSans-31"/>
       <use xlink:href="#DejaVuSans-38" x="63.623047"/>
       <use xlink:href="#DejaVuSans-36" x="127.246094"/>
      </g>
     </g>
    </g>
    <g id="xtick_7">
     <g id="line2d_13">
      <path d="M 892.021622 576.72 
L 892.021622 77.76 
" clip-path="url(#p73f75766bf)" style="fill: none; stroke: #b0b0b0; stroke-width: 0.8; stroke-linecap: square"/>
     </g>
     <g id="line2d_14">
      <g>
       <use xlink:href="#ma7dce81227" x="892.021622" y="576.72" style="stroke: #000000; stroke-width: 0.8"/>
      </g>
     </g>
     <g id="text_7">
      <!-- 188 -->
      <g transform="translate(882.477872 591.318438) scale(0.1 -0.1)">
       <use xlink:href="#DejaVuSans-31"/>
       <use xlink:href="#DejaVuSans-38" x="63.623047"/>
       <use xlink:href="#DejaVuSans-38" x="127.246094"/>
      </g>
     </g>
    </g>
    <g id="xtick_8">
     <g id="line2d_15">
      <path d="M 1001.702211 576.72 
L 1001.702211 77.76 
" clip-path="url(#p73f75766bf)" style="fill: none; stroke: #b0b0b0; stroke-width: 0.8; stroke-linecap: square"/>
     </g>
     <g id="line2d_16">
      <g>
       <use xlink:href="#ma7dce81227" x="1001.702211" y="576.72" style="stroke: #000000; stroke-width: 0.8"/>
      </g>
     </g>
     <g id="text_8">
      <!-- 190 -->
      <g transform="translate(992.158461 591.318438) scale(0.1 -0.1)">
       <defs>
        <path id="DejaVuSans-39" d="M 703 97 
L 703 672 
Q 941 559 1184 500 
Q 1428 441 1663 441 
Q 2288 441 2617 861 
Q 2947 1281 2994 2138 
Q 2813 1869 2534 1725 
Q 2256 1581 1919 1581 
Q 1219 1581 811 2004 
Q 403 2428 403 3163 
Q 403 3881 828 4315 
Q 1253 4750 1959 4750 
Q 2769 4750 3195 4129 
Q 3622 3509 3622 2328 
Q 3622 1225 3098 567 
Q 2575 -91 1691 -91 
Q 1453 -91 1209 -44 
Q 966 3 703 97 
z
M 1959 2075 
Q 2384 2075 2632 2365 
Q 2881 2656 2881 3163 
Q 2881 3666 2632 3958 
Q 2384 4250 1959 4250 
Q 1534 4250 1286 3958 
Q 1038 3666 1038 3163 
Q 1038 2656 1286 2365 
Q 1534 2075 1959 2075 
z
" transform="scale(0.015625)"/>
       </defs>
       <use xlink:href="#DejaVuSans-31"/>
       <use xlink:href="#DejaVuSans-39" x="63.623047"/>
       <use xlink:href="#DejaVuSans-30" x="127.246094"/>
      </g>
     </g>
    </g>
    <g id="text_9">
     <!-- Frequency (GHz) -->
     <g transform="translate(548.821094 604.996562) scale(0.1 -0.1)">
      <defs>
       <path id="DejaVuSans-46" d="M 628 4666 
L 3309 4666 
L 3309 4134 
L 1259 4134 
L 1259 2759 
L 3109 2759 
L 3109 2228 
L 1259 2228 
L 1259 0 
L 628 0 
L 628 4666 
z
" transform="scale(0.015625)"/>
       <path id="DejaVuSans-72" d="M 2631 2963 
Q 2534 3019 2420 3045 
Q 2306 3072 2169 3072 
Q 1681 3072 1420 2755 
Q 1159 2438 1159 1844 
L 1159 0 
L 581 0 
L 581 3500 
L 1159 3500 
L 1159 2956 
Q 1341 3275 1631 3429 
Q 1922 3584 2338 3584 
Q 2397 3584 2469 3576 
Q 2541 3569 2628 3553 
L 2631 2963 
z
" transform="scale(0.015625)"/>
       <path id="DejaVuSans-65" d="M 3597 1894 
L 3597 1613 
L 953 1613 
Q 991 1019 1311 708 
Q 1631 397 2203 397 
Q 2534 397 2845 478 
Q 3156 559 3463 722 
L 3463 178 
Q 3153 47 2828 -22 
Q 2503 -91 2169 -91 
Q 1331 -91 842 396 
Q 353 884 353 1716 
Q 353 2575 817 3079 
Q 1281 3584 2069 3584 
Q 2775 3584 3186 3129 
Q 3597 2675 3597 1894 
z
M 3022 2063 
Q 3016 2534 2758 2815 
Q 2500 3097 2075 3097 
Q 1594 3097 1305 2825 
Q 1016 2553 972 2059 
L 3022 2063 
z
" transform="scale(0.015625)"/>
       <path id="DejaVuSans-71" d="M 947 1747 
Q 947 1113 1208 752 
Q 1469 391 1925 391 
Q 2381 391 2643 752 
Q 2906 1113 2906 1747 
Q 2906 2381 2643 2742 
Q 2381 3103 1925 3103 
Q 1469 3103 1208 2742 
Q 947 2381 947 1747 
z
M 2906 525 
Q 2725 213 2448 61 
Q 2172 -91 1784 -91 
Q 1150 -91 751 415 
Q 353 922 353 1747 
Q 353 2572 751 3078 
Q 1150 3584 1784 3584 
Q 2172 3584 2448 3432 
Q 2725 3281 2906 2969 
L 2906 3500 
L 3481 3500 
L 3481 -1331 
L 2906 -1331 
L 2906 525 
z
" transform="scale(0.015625)"/>
       <path id="DejaVuSans-75" d="M 544 1381 
L 544 3500 
L 1119 3500 
L 1119 1403 
Q 1119 906 1312 657 
Q 1506 409 1894 409 
Q 2359 409 2629 706 
Q 2900 1003 2900 1516 
L 2900 3500 
L 3475 3500 
L 3475 0 
L 2900 0 
L 2900 538 
Q 2691 219 2414 64 
Q 2138 -91 1772 -91 
Q 1169 -91 856 284 
Q 544 659 544 1381 
z
M 1991 3584 
L 1991 3584 
z
" transform="scale(0.015625)"/>
       <path id="DejaVuSans-6e" d="M 3513 2113 
L 3513 0 
L 2938 0 
L 2938 2094 
Q 2938 2591 2744 2837 
Q 2550 3084 2163 3084 
Q 1697 3084 1428 2787 
Q 1159 2491 1159 1978 
L 1159 0 
L 581 0 
L 581 3500 
L 1159 3500 
L 1159 2956 
Q 1366 3272 1645 3428 
Q 1925 3584 2291 3584 
Q 2894 3584 3203 3211 
Q 3513 2838 3513 2113 
z
" transform="scale(0.015625)"/>
       <path id="DejaVuSans-63" d="M 3122 3366 
L 3122 2828 
Q 2878 2963 2633 3030 
Q 2388 3097 2138 3097 
Q 1578 3097 1268 2742 
Q 959 2388 959 1747 
Q 959 1106 1268 751 
Q 1578 397 2138 397 
Q 2388 397 2633 464 
Q 2878 531 3122 666 
L 3122 134 
Q 2881 22 2623 -34 
Q 2366 -91 2075 -91 
Q 1284 -91 818 406 
Q 353 903 353 1747 
Q 353 2603 823 3093 
Q 1294 3584 2113 3584 
Q 2378 3584 2631 3529 
Q 2884 3475 3122 3366 
z
" transform="scale(0.015625)"/>
       <path id="DejaVuSans-79" d="M 2059 -325 
Q 1816 -950 1584 -1140 
Q 1353 -1331 966 -1331 
L 506 -1331 
L 506 -850 
L 844 -850 
Q 1081 -850 1212 -737 
Q 1344 -625 1503 -206 
L 1606 56 
L 191 3500 
L 800 3500 
L 1894 763 
L 2988 3500 
L 3597 3500 
L 2059 -325 
z
" transform="scale(0.015625)"/>
       <path id="DejaVuSans-20" transform="scale(0.015625)"/>
       <path id="DejaVuSans-28" d="M 1984 4856 
Q 1566 4138 1362 3434 
Q 1159 2731 1159 2009 
Q 1159 1288 1364 580 
Q 1569 -128 1984 -844 
L 1484 -844 
Q 1016 -109 783 600 
Q 550 1309 550 2009 
Q 550 2706 781 3412 
Q 1013 4119 1484 4856 
L 1984 4856 
z
" transform="scale(0.015625)"/>
       <path id="DejaVuSans-47" d="M 3809 666 
L 3809 1919 
L 2778 1919 
L 2778 2438 
L 4434 2438 
L 4434 434 
Q 4069 175 3628 42 
Q 3188 -91 2688 -91 
Q 1594 -91 976 548 
Q 359 1188 359 2328 
Q 359 3472 976 4111 
Q 1594 4750 2688 4750 
Q 3144 4750 3555 4637 
Q 3966 4525 4313 4306 
L 4313 3634 
Q 3963 3931 3569 4081 
Q 3175 4231 2741 4231 
Q 1884 4231 1454 3753 
Q 1025 3275 1025 2328 
Q 1025 1384 1454 906 
Q 1884 428 2741 428 
Q 3075 428 3337 486 
Q 3600 544 3809 666 
z
" transform="scale(0.015625)"/>
       <path id="DejaVuSans-48" d="M 628 4666 
L 1259 4666 
L 1259 2753 
L 3553 2753 
L 3553 4666 
L 4184 4666 
L 4184 0 
L 3553 0 
L 3553 2222 
L 1259 2222 
L 1259 0 
L 628 0 
L 628 4666 
z
" transform="scale(0.015625)"/>
       <path id="DejaVuSans-7a" d="M 353 3500 
L 3084 3500 
L 3084 2975 
L 922 459 
L 3084 459 
L 3084 0 
L 275 0 
L 275 525 
L 2438 3041 
L 353 3041 
L 353 3500 
z
" transform="scale(0.015625)"/>
       <path id="DejaVuSans-29" d="M 513 4856 
L 1013 4856 
Q 1481 4119 1714 3412 
Q 1947 2706 1947 2009 
Q 1947 1309 1714 600 
Q 1481 -109 1013 -844 
L 513 -844 
Q 928 -128 1133 580 
Q 1338 1288 1338 2009 
Q 1338 2731 1133 3434 
Q 928 4138 513 4856 
z
" transform="scale(0.015625)"/>
      </defs>
      <use xlink:href="#DejaVuSans-46"/>
      <use xlink:href="#DejaVuSans-72" x="50.269531"/>
      <use xlink:href="#DejaVuSans-65" x="89.132812"/>
      <use xlink:href="#DejaVuSans-71" x="150.65625"/>
      <use xlink:href="#DejaVuSans-75" x="214.132812"/>
      <use xlink:href="#DejaVuSans-65" x="277.511719"/>
      <use xlink:href="#DejaVuSans-6e" x="339.035156"/>
      <use xlink:href="#DejaVuSans-63" x="402.414062"/>
      <use xlink:href="#DejaVuSans-79" x="457.394531"/>
      <use xlink:href="#DejaVuSans-20" x="516.574219"/>
      <use xlink:href="#DejaVuSans-28" x="548.361328"/>
      <use xlink:href="#DejaVuSans-47" x="587.375"/>
      <use xlink:href="#DejaVuSans-48" x="664.865234"/>
      <use xlink:href="#DejaVuSans-7a" x="740.060547"/>
      <use xlink:href="#DejaVuSans-29" x="792.550781"/>
     </g>
    </g>
   </g>
   <g id="matplotlib.axis_2">
    <g id="ytick_1">
     <g id="line2d_17">
      <path d="M 144 513.722938 
L 1036.8 513.722938 
" clip-path="url(#p73f75766bf)" style="fill: none; stroke: #b0b0b0; stroke-width: 0.8; stroke-linecap: square"/>
     </g>
     <g id="line2d_18">
      <defs>
       <path id="mb73e8fc692" d="M 0 0 
L -3.5 0 
" style="stroke: #000000; stroke-width: 0.8"/>
      </defs>
      <g>
       <use xlink:href="#mb73e8fc692" x="144" y="513.722938" style="stroke: #000000; stroke-width: 0.8"/>
      </g>
     </g>
     <g id="text_10">
      <!-- 50 -->
      <g transform="translate(124.275 517.522156) scale(0.1 -0.1)">
       <defs>
        <path id="DejaVuSans-35" d="M 691 4666 
L 3169 4666 
L 3169 4134 
L 1269 4134 
L 1269 2991 
Q 1406 3038 1543 3061 
Q 1681 3084 1819 3084 
Q 2600 3084 3056 2656 
Q 3513 2228 3513 1497 
Q 3513 744 3044 326 
Q 2575 -91 1722 -91 
Q 1428 -91 1123 -41 
Q 819 9 494 109 
L 494 744 
Q 775 591 1075 516 
Q 1375 441 1709 441 
Q 2250 441 2565 725 
Q 2881 1009 2881 1497 
Q 2881 1984 2565 2268 
Q 2250 2553 1709 2553 
Q 1456 2553 1204 2497 
Q 953 2441 691 2322 
L 691 4666 
z
" transform="scale(0.015625)"/>
       </defs>
       <use xlink:href="#DejaVuSans-35"/>
       <use xlink:href="#DejaVuSans-30" x="63.623047"/>
      </g>
     </g>
    </g>
    <g id="ytick_2">
     <g id="line2d_19">
      <path d="M 144 419.595361 
L 1036.8 419.595361 
" clip-path="url(#p73f75766bf)" style="fill: none; stroke: #b0b0b0; stroke-width: 0.8; stroke-linecap: square"/>
     </g>
     <g id="line2d_20">
      <g>
       <use xlink:href="#mb73e8fc692" x="144" y="419.595361" style="stroke: #000000; stroke-width: 0.8"/>
      </g>
     </g>
     <g id="text_11">
      <!-- 100 -->
      <g transform="translate(117.9125 423.39458) scale(0.1 -0.1)">
       <use xlink:href="#DejaVuSans-31"/>
       <use xlink:href="#DejaVuSans-30" x="63.623047"/>
       <use xlink:href="#DejaVuSans-30" x="127.246094"/>
      </g>
     </g>
    </g>
    <g id="ytick_3">
     <g id="line2d_21">
      <path d="M 144 325.467785 
L 1036.8 325.467785 
" clip-path="url(#p73f75766bf)" style="fill: none; stroke: #b0b0b0; stroke-width: 0.8; stroke-linecap: square"/>
     </g>
     <g id="line2d_22">
      <g>
       <use xlink:href="#mb73e8fc692" x="144" y="325.467785" style="stroke: #000000; stroke-width: 0.8"/>
      </g>
     </g>
     <g id="text_12">
      <!-- 150 -->
      <g transform="translate(117.9125 329.267004) scale(0.1 -0.1)">
       <use xlink:href="#DejaVuSans-31"/>
       <use xlink:href="#DejaVuSans-35" x="63.623047"/>
       <use xlink:href="#DejaVuSans-30" x="127.246094"/>
      </g>
     </g>
    </g>
    <g id="ytick_4">
     <g id="line2d_23">
      <path d="M 144 231.340208 
L 1036.8 231.340208 
" clip-path="url(#p73f75766bf)" style="fill: none; stroke: #b0b0b0; stroke-width: 0.8; stroke-linecap: square"/>
     </g>
     <g id="line2d_24">
      <g>
       <use xlink:href="#mb73e8fc692" x="144" y="231.340208" style="stroke: #000000; stroke-width: 0.8"/>
      </g>
     </g>
     <g id="text_13">
      <!-- 200 -->
      <g transform="translate(117.9125 235.139427) scale(0.1 -0.1)">
       <use xlink:href="#DejaVuSans-32"/>
       <use xlink:href="#DejaVuSans-30" x="63.623047"/>
       <use xlink:href="#DejaVuSans-30" x="127.246094"/>
      </g>
     </g>
    </g>
    <g id="ytick_5">
     <g id="line2d_25">
      <path d="M 144 137.212632 
L 1036.8 137.212632 
" clip-path="url(#p73f75766bf)" style="fill: none; stroke: #b0b0b0; stroke-width: 0.8; stroke-linecap: square"/>
     </g>
     <g id="line2d_26">
      <g>
       <use xlink:href="#mb73e8fc692" x="144" y="137.212632" style="stroke: #000000; stroke-width: 0.8"/>
      </g>
     </g>
     <g id="text_14">
      <!-- 250 -->
      <g transform="translate(117.9125 141.011851) scale(0.1 -0.1)">
       <use xlink:href="#DejaVuSans-32"/>
       <use xlink:href="#DejaVuSans-35" x="63.623047"/>
       <use xlink:href="#DejaVuSans-30" x="127.246094"/>
      </g>
     </g>
    </g>
    <g id="text_15">
     <!-- Brightness Temperature (K) -->
     <g transform="translate(111.832812 395.900937) rotate(-90) scale(0.1 -0.1)">
      <defs>
       <path id="DejaVuSans-42" d="M 1259 2228 
L 1259 519 
L 2272 519 
Q 2781 519 3026 730 
Q 3272 941 3272 1375 
Q 3272 1813 3026 2020 
Q 2781 2228 2272 2228 
L 1259 2228 
z
M 1259 4147 
L 1259 2741 
L 2194 2741 
Q 2656 2741 2882 2914 
Q 3109 3088 3109 3444 
Q 3109 3797 2882 3972 
Q 2656 4147 2194 4147 
L 1259 4147 
z
M 628 4666 
L 2241 4666 
Q 2963 4666 3353 4366 
Q 3744 4066 3744 3513 
Q 3744 3084 3544 2831 
Q 3344 2578 2956 2516 
Q 3422 2416 3680 2098 
Q 3938 1781 3938 1306 
Q 3938 681 3513 340 
Q 3088 0 2303 0 
L 628 0 
L 628 4666 
z
" transform="scale(0.015625)"/>
       <path id="DejaVuSans-69" d="M 603 3500 
L 1178 3500 
L 1178 0 
L 603 0 
L 603 3500 
z
M 603 4863 
L 1178 4863 
L 1178 4134 
L 603 4134 
L 603 4863 
z
" transform="scale(0.015625)"/>
       <path id="DejaVuSans-67" d="M 2906 1791 
Q 2906 2416 2648 2759 
Q 2391 3103 1925 3103 
Q 1463 3103 1205 2759 
Q 947 2416 947 1791 
Q 947 1169 1205 825 
Q 1463 481 1925 481 
Q 2391 481 2648 825 
Q 2906 1169 2906 1791 
z
M 3481 434 
Q 3481 -459 3084 -895 
Q 2688 -1331 1869 -1331 
Q 1566 -1331 1297 -1286 
Q 1028 -1241 775 -1147 
L 775 -588 
Q 1028 -725 1275 -790 
Q 1522 -856 1778 -856 
Q 2344 -856 2625 -561 
Q 2906 -266 2906 331 
L 2906 616 
Q 2728 306 2450 153 
Q 2172 0 1784 0 
Q 1141 0 747 490 
Q 353 981 353 1791 
Q 353 2603 747 3093 
Q 1141 3584 1784 3584 
Q 2172 3584 2450 3431 
Q 2728 3278 2906 2969 
L 2906 3500 
L 3481 3500 
L 3481 434 
z
" transform="scale(0.015625)"/>
       <path id="DejaVuSans-68" d="M 3513 2113 
L 3513 0 
L 2938 0 
L 2938 2094 
Q 2938 2591 2744 2837 
Q 2550 3084 2163 3084 
Q 1697 3084 1428 2787 
Q 1159 2491 1159 1978 
L 1159 0 
L 581 0 
L 581 4863 
L 1159 4863 
L 1159 2956 
Q 1366 3272 1645 3428 
Q 1925 3584 2291 3584 
Q 2894 3584 3203 3211 
Q 3513 2838 3513 2113 
z
" transform="scale(0.015625)"/>
       <path id="DejaVuSans-74" d="M 1172 4494 
L 1172 3500 
L 2356 3500 
L 2356 3053 
L 1172 3053 
L 1172 1153 
Q 1172 725 1289 603 
Q 1406 481 1766 481 
L 2356 481 
L 2356 0 
L 1766 0 
Q 1100 0 847 248 
Q 594 497 594 1153 
L 594 3053 
L 172 3053 
L 172 3500 
L 594 3500 
L 594 4494 
L 1172 4494 
z
" transform="scale(0.015625)"/>
       <path id="DejaVuSans-73" d="M 2834 3397 
L 2834 2853 
Q 2591 2978 2328 3040 
Q 2066 3103 1784 3103 
Q 1356 3103 1142 2972 
Q 928 2841 928 2578 
Q 928 2378 1081 2264 
Q 1234 2150 1697 2047 
L 1894 2003 
Q 2506 1872 2764 1633 
Q 3022 1394 3022 966 
Q 3022 478 2636 193 
Q 2250 -91 1575 -91 
Q 1294 -91 989 -36 
Q 684 19 347 128 
L 347 722 
Q 666 556 975 473 
Q 1284 391 1588 391 
Q 1994 391 2212 530 
Q 2431 669 2431 922 
Q 2431 1156 2273 1281 
Q 2116 1406 1581 1522 
L 1381 1569 
Q 847 1681 609 1914 
Q 372 2147 372 2553 
Q 372 3047 722 3315 
Q 1072 3584 1716 3584 
Q 2034 3584 2315 3537 
Q 2597 3491 2834 3397 
z
" transform="scale(0.015625)"/>
       <path id="DejaVuSans-54" d="M -19 4666 
L 3928 4666 
L 3928 4134 
L 2272 4134 
L 2272 0 
L 1638 0 
L 1638 4134 
L -19 4134 
L -19 4666 
z
" transform="scale(0.015625)"/>
       <path id="DejaVuSans-6d" d="M 3328 2828 
Q 3544 3216 3844 3400 
Q 4144 3584 4550 3584 
Q 5097 3584 5394 3201 
Q 5691 2819 5691 2113 
L 5691 0 
L 5113 0 
L 5113 2094 
Q 5113 2597 4934 2840 
Q 4756 3084 4391 3084 
Q 3944 3084 3684 2787 
Q 3425 2491 3425 1978 
L 3425 0 
L 2847 0 
L 2847 2094 
Q 2847 2600 2669 2842 
Q 2491 3084 2119 3084 
Q 1678 3084 1418 2786 
Q 1159 2488 1159 1978 
L 1159 0 
L 581 0 
L 581 3500 
L 1159 3500 
L 1159 2956 
Q 1356 3278 1631 3431 
Q 1906 3584 2284 3584 
Q 2666 3584 2933 3390 
Q 3200 3197 3328 2828 
z
" transform="scale(0.015625)"/>
       <path id="DejaVuSans-70" d="M 1159 525 
L 1159 -1331 
L 581 -1331 
L 581 3500 
L 1159 3500 
L 1159 2969 
Q 1341 3281 1617 3432 
Q 1894 3584 2278 3584 
Q 2916 3584 3314 3078 
Q 3713 2572 3713 1747 
Q 3713 922 3314 415 
Q 2916 -91 2278 -91 
Q 1894 -91 1617 61 
Q 1341 213 1159 525 
z
M 3116 1747 
Q 3116 2381 2855 2742 
Q 2594 3103 2138 3103 
Q 1681 3103 1420 2742 
Q 1159 2381 1159 1747 
Q 1159 1113 1420 752 
Q 1681 391 2138 391 
Q 2594 391 2855 752 
Q 3116 1113 3116 1747 
z
" transform="scale(0.015625)"/>
       <path id="DejaVuSans-61" d="M 2194 1759 
Q 1497 1759 1228 1600 
Q 959 1441 959 1056 
Q 959 750 1161 570 
Q 1363 391 1709 391 
Q 2188 391 2477 730 
Q 2766 1069 2766 1631 
L 2766 1759 
L 2194 1759 
z
M 3341 1997 
L 3341 0 
L 2766 0 
L 2766 531 
Q 2569 213 2275 61 
Q 1981 -91 1556 -91 
Q 1019 -91 701 211 
Q 384 513 384 1019 
Q 384 1609 779 1909 
Q 1175 2209 1959 2209 
L 2766 2209 
L 2766 2266 
Q 2766 2663 2505 2880 
Q 2244 3097 1772 3097 
Q 1472 3097 1187 3025 
Q 903 2953 641 2809 
L 641 3341 
Q 956 3463 1253 3523 
Q 1550 3584 1831 3584 
Q 2591 3584 2966 3190 
Q 3341 2797 3341 1997 
z
" transform="scale(0.015625)"/>
       <path id="DejaVuSans-4b" d="M 628 4666 
L 1259 4666 
L 1259 2694 
L 3353 4666 
L 4166 4666 
L 1850 2491 
L 4331 0 
L 3500 0 
L 1259 2247 
L 1259 0 
L 628 0 
L 628 4666 
z
" transform="scale(0.015625)"/>
      </defs>
      <use xlink:href="#DejaVuSans-42"/>
      <use xlink:href="#DejaVuSans-72" x="68.603516"/>
      <use xlink:href="#DejaVuSans-69" x="109.716797"/>
      <use xlink:href="#DejaVuSans-67" x="137.5"/>
      <use xlink:href="#DejaVuSans-68" x="200.976562"/>
      <use xlink:href="#DejaVuSans-74" x="264.355469"/>
      <use xlink:href="#DejaVuSans-6e" x="303.564453"/>
      <use xlink:href="#DejaVuSans-65" x="366.943359"/>
      <use xlink:href="#DejaVuSans-73" x="428.466797"/>
      <use xlink:href="#DejaVuSans-73" x="480.566406"/>
      <use xlink:href="#DejaVuSans-20" x="532.666016"/>
      <use xlink:href="#DejaVuSans-54" x="564.453125"/>
      <use xlink:href="#DejaVuSans-65" x="608.537109"/>
      <use xlink:href="#DejaVuSans-6d" x="670.060547"/>
      <use xlink:href="#DejaVuSans-70" x="767.472656"/>
      <use xlink:href="#DejaVuSans-65" x="830.949219"/>
      <use xlink:href="#DejaVuSans-72" x="892.472656"/>
      <use xlink:href="#DejaVuSans-61" x="933.585938"/>
      <use xlink:href="#DejaVuSans-74" x="994.865234"/>
      <use xlink:href="#DejaVuSans-75" x="1034.074219"/>
      <use xlink:href="#DejaVuSans-72" x="1097.453125"/>
      <use xlink:href="#DejaVuSans-65" x="1136.316406"/>
      <use xlink:href="#DejaVuSans-20" x="1197.839844"/>
      <use xlink:href="#DejaVuSans-28" x="1229.626953"/>
      <use xlink:href="#DejaVuSans-4b" x="1268.640625"/>
      <use xlink:href="#DejaVuSans-29" x="1334.216797"/>
     </g>
    </g>
   </g>
   <g id="line2d_27">
    <path d="M 184.581818 554.04 
L 190.065848 551.125057 
L 195.549877 552.0659 
L 201.033907 549.755859 
L 206.517936 549.19851 
L 212.001966 549.564874 
L 217.485995 548.758502 
L 222.970025 547.550186 
L 228.454054 546.518698 
L 233.938084 545.937065 
L 239.422113 545.075327 
L 250.390172 543.035169 
L 266.84226 539.512482 
L 277.810319 536.845207 
L 288.778378 533.93034 
L 299.746437 530.751426 
L 310.714496 527.272847 
L 321.682555 523.481238 
L 332.650614 519.331623 
L 343.618673 514.792961 
L 354.586732 509.819128 
L 360.070762 507.151007 
L 365.554791 504.350843 
L 371.038821 501.395971 
L 382.00688 495.095843 
L 387.490909 491.733211 
L 392.974939 488.18142 
L 398.458968 484.445082 
L 403.942998 480.516329 
L 409.427027 476.384524 
L 414.911057 472.038352 
L 420.395086 467.465296 
L 425.879115 462.652233 
L 431.363145 457.58559 
L 436.847174 452.250589 
L 442.331204 446.630194 
L 447.815233 440.69562 
L 453.299263 434.068135 
L 458.783292 427.928739 
L 464.267322 421.064015 
L 469.751351 413.82647 
L 475.235381 406.215503 
L 480.71941 398.22313 
L 486.20344 389.837681 
L 491.687469 381.052754 
L 497.171499 371.862514 
L 502.655528 362.265267 
L 508.139558 352.259693 
L 513.623587 341.87441 
L 519.107617 331.116945 
L 524.591646 320.007821 
L 530.075676 308.585063 
L 541.043735 285.016271 
L 562.979853 237.067683 
L 568.463882 225.486791 
L 573.947912 214.283539 
L 579.431941 203.681761 
L 584.915971 193.685036 
L 590.4 184.441708 
L 595.884029 176.043458 
L 601.368059 168.570293 
L 606.852088 162.082079 
L 612.336118 156.620797 
L 617.820147 152.212426 
L 623.304177 148.861484 
L 628.788206 146.487399 
L 634.272236 143.641357 
L 639.756265 146.554982 
L 645.240295 149.2331 
L 650.724324 152.821243 
L 656.208354 157.437071 
L 661.692383 163.0659 
L 667.176413 169.67968 
L 672.660442 177.211204 
L 678.144472 185.559944 
L 689.112531 203.411239 
L 694.59656 210.885345 
L 700.08059 225.216457 
L 705.564619 236.968849 
L 711.048649 248.069879 
L 716.532678 259.78255 
L 722.016708 272.107427 
L 732.984767 295.378587 
L 738.468796 306.652812 
L 743.952826 317.631664 
L 749.436855 328.305166 
L 754.920885 338.529869 
L 765.888943 358.233782 
L 771.372973 367.487464 
L 776.857002 376.340916 
L 782.341032 384.802985 
L 787.825061 392.884214 
L 793.309091 400.594204 
L 798.79312 407.942556 
L 804.27715 414.939623 
L 809.761179 421.602199 
L 815.245209 427.952309 
L 820.729238 433.987562 
L 826.213268 439.726671 
L 831.697297 445.182456 
L 837.181327 450.361355 
L 848.149386 459.931004 
L 853.633415 464.476707 
L 859.117445 468.743868 
L 864.601474 472.797359 
L 870.085504 476.643902 
L 875.569533 480.321466 
L 881.053563 483.799555 
L 886.537592 486.985529 
L 892.021622 490.341252 
L 897.505651 493.398949 
L 902.989681 496.305138 
L 908.47371 499.076254 
L 919.441769 504.255944 
L 930.409828 508.986607 
L 935.893857 511.19292 
L 952.345946 517.288227 
L 963.314005 520.942052 
L 974.282064 524.316337 
L 985.250123 527.413323 
L 996.218182 530.28412 
L 996.218182 530.28412 
" clip-path="url(#p73f75766bf)" style="fill: none; stroke: #0000ff; stroke-width: 1.5; stroke-linecap: square"/>
   </g>
   <g id="line2d_28">
    <path d="M 184.581818 515.879758 
L 190.065848 512.521813 
L 195.549877 512.642202 
L 201.033907 509.794015 
L 206.517936 508.509362 
L 212.001966 508.03142 
L 217.485995 506.468695 
L 222.970025 504.518164 
L 228.454054 502.699074 
L 233.938084 501.252954 
L 239.422113 499.525167 
L 250.390172 495.690071 
L 266.84226 489.265148 
L 277.810319 484.509296 
L 288.778378 479.3685 
L 299.746437 473.815669 
L 310.714496 467.806489 
L 316.198526 464.625278 
L 321.682555 461.315075 
L 327.166585 457.871418 
L 332.650614 454.288094 
L 338.134644 450.558138 
L 343.618673 446.683979 
L 349.102703 442.649483 
L 354.586732 438.448814 
L 360.070762 434.075044 
L 365.554791 429.518949 
L 371.038821 424.7608 
L 382.00688 414.691503 
L 387.490909 409.363694 
L 392.974939 403.802072 
L 398.458968 398.009837 
L 403.942998 391.981531 
L 409.427027 385.70981 
L 414.911057 379.187334 
L 420.395086 372.407325 
L 425.879115 365.363382 
L 431.363145 358.050234 
L 436.847174 350.462986 
L 442.331204 342.597498 
L 447.815233 334.443226 
L 453.299263 325.761086 
L 458.783292 317.347022 
L 464.267322 308.413186 
L 469.751351 299.213533 
L 480.71941 280.109777 
L 491.687469 260.230032 
L 508.139558 229.580399 
L 519.107617 209.203473 
L 524.591646 199.223126 
L 530.075676 189.482052 
L 535.559705 180.062893 
L 541.043735 171.043966 
L 546.527764 162.503771 
L 552.011794 154.515728 
L 557.495823 147.14328 
L 562.979853 140.43669 
L 568.463882 134.429091 
L 573.947912 129.133474 
L 579.431941 124.565651 
L 584.915971 120.677805 
L 590.4 117.437558 
L 595.884029 114.789561 
L 601.368059 112.670749 
L 606.852088 111.01448 
L 612.336118 109.755618 
L 617.820147 108.835427 
L 623.304177 108.204207 
L 628.788206 107.82092 
L 634.272236 107.563387 
L 639.756265 107.856312 
L 645.240295 108.295135 
L 650.724324 108.982454 
L 656.208354 109.96364 
L 661.692383 111.286697 
L 667.176413 113.008855 
L 672.660442 115.188097 
L 678.144472 117.879581 
L 683.628501 121.11644 
L 689.112531 124.818854 
L 694.59656 128.712912 
L 705.564619 140.617791 
L 711.048649 147.026561 
L 716.532678 154.17348 
L 722.016708 162.075867 
L 727.500737 170.331043 
L 732.984767 178.986074 
L 738.468796 187.987494 
L 749.436855 206.739213 
L 760.404914 225.975313 
L 771.372973 245.473841 
L 782.341032 264.569878 
L 793.309091 283.053522 
L 798.79312 292.001666 
L 804.27715 300.728046 
L 809.761179 309.221742 
L 815.245209 317.478989 
L 820.729238 325.482845 
L 826.213268 333.232745 
L 831.697297 340.72643 
L 837.181327 347.959193 
L 848.149386 361.643648 
L 853.633415 368.196433 
L 859.117445 374.466459 
L 864.601474 380.49759 
L 870.085504 386.293025 
L 875.569533 391.880061 
L 881.053563 397.235355 
L 892.021622 407.391156 
L 897.505651 412.188839 
L 902.989681 416.793748 
L 908.47371 421.219871 
L 913.95774 425.476509 
L 919.441769 429.574635 
L 924.925799 433.514608 
L 930.409828 437.304109 
L 935.893857 440.945962 
L 946.861916 447.829342 
L 957.829975 454.231203 
L 968.798034 460.163951 
L 979.766093 465.672674 
L 990.734152 470.791444 
L 996.218182 473.218599 
L 996.218182 473.218599 
" clip-path="url(#p73f75766bf)" style="fill: none; stroke: #ffa500; stroke-width: 1.5; stroke-linecap: square"/>
   </g>
   <g id="line2d_29">
    <path d="M 184.581818 480.04426 
L 190.065848 476.338232 
L 195.549877 475.773861 
L 201.033907 472.49986 
L 206.517936 470.623483 
L 212.001966 469.453552 
L 217.485995 467.283385 
L 228.454054 462.300949 
L 233.938084 460.168884 
L 239.422113 457.760837 
L 250.390172 452.53252 
L 261.358231 446.881044 
L 272.32629 440.800855 
L 283.294349 434.262772 
L 294.262408 427.258607 
L 305.230467 419.750446 
L 316.198526 411.704835 
L 321.682555 407.470223 
L 327.166585 403.08689 
L 332.650614 398.549753 
L 338.134644 393.852975 
L 343.618673 388.999381 
L 349.102703 383.975604 
L 354.586732 378.778067 
L 360.070762 373.402253 
L 365.554791 367.841761 
L 371.038821 362.082847 
L 382.00688 350.021528 
L 387.490909 343.711215 
L 392.974939 337.189492 
L 398.458968 330.463888 
L 403.942998 323.534969 
L 409.427027 316.404052 
L 414.911057 309.072832 
L 420.395086 301.544697 
L 431.363145 285.919895 
L 442.331204 269.595162 
L 447.815233 261.195405 
L 453.299263 252.500841 
L 458.783292 244.056091 
L 491.687469 191.852184 
L 497.171499 183.452992 
L 502.655528 175.272553 
L 508.139558 167.366025 
L 513.623587 159.793838 
L 519.107617 152.608327 
L 524.591646 145.860885 
L 530.075676 139.59839 
L 535.559705 133.860937 
L 541.043735 128.676767 
L 546.527764 124.062821 
L 552.011794 120.022866 
L 557.495823 116.545793 
L 562.979853 113.606942 
L 568.463882 111.168661 
L 573.947912 109.182946 
L 579.431941 107.599155 
L 584.915971 106.354977 
L 590.4 105.394499 
L 595.884029 104.664446 
L 601.368059 104.117376 
L 606.852088 103.713569 
L 617.820147 103.216764 
L 628.788206 103.006482 
L 639.756265 103.018343 
L 650.724324 103.25705 
L 661.692383 103.789247 
L 667.176413 104.214328 
L 672.660442 104.784552 
L 678.144472 105.537197 
L 683.628501 106.513111 
L 689.112531 107.736393 
L 694.59656 109.184075 
L 700.08059 111.29931 
L 705.564619 113.722719 
L 711.048649 116.556712 
L 716.532678 119.922902 
L 722.016708 123.871554 
L 727.500737 128.302892 
L 732.984767 133.243837 
L 738.468796 138.681775 
L 743.952826 144.586775 
L 749.436855 150.92702 
L 754.920885 157.635492 
L 760.404914 164.698261 
L 765.888943 172.114573 
L 771.372973 179.743613 
L 782.341032 195.535208 
L 798.79312 219.898625 
L 815.245209 244.185987 
L 826.213268 259.961392 
L 837.181327 275.214954 
L 848.149386 289.826378 
L 853.633415 296.935646 
L 859.117445 303.837833 
L 864.601474 310.556282 
L 870.085504 317.086289 
L 875.569533 323.441971 
L 881.053563 329.600927 
L 892.021622 341.417891 
L 897.505651 347.067428 
L 902.989681 352.535675 
L 908.47371 357.831293 
L 913.95774 362.960116 
L 919.441769 367.929111 
L 924.925799 372.737524 
L 930.409828 377.390627 
L 935.893857 381.889737 
L 946.861916 390.459488 
L 957.829975 398.499865 
L 968.798034 406.021035 
L 979.766093 413.062719 
L 990.734152 419.655923 
L 996.218182 422.797337 
L 996.218182 422.797337 
" clip-path="url(#p73f75766bf)" style="fill: none; stroke: #008000; stroke-width: 1.5; stroke-linecap: square"/>
   </g>
   <g id="line2d_30">
    <path d="M 184.581818 446.500618 
L 190.065848 442.538318 
L 195.549877 441.410255 
L 201.033907 437.815881 
L 206.517936 435.470504 
L 212.001966 433.74443 
L 217.485995 431.10097 
L 228.454054 425.190191 
L 233.938084 422.530334 
L 239.422113 419.606242 
L 250.390172 413.337195 
L 261.358231 406.619498 
L 272.32629 399.448295 
L 283.294349 391.798358 
L 294.262408 383.66423 
L 305.230467 375.015788 
L 316.198526 365.828748 
L 327.166585 356.079955 
L 338.134644 345.7423 
L 349.102703 334.805993 
L 360.070762 323.245244 
L 365.554791 317.22748 
L 371.038821 311.043487 
L 382.00688 298.234041 
L 392.974939 284.832722 
L 403.942998 270.848376 
L 414.911057 256.353671 
L 425.879115 241.439533 
L 442.331204 218.566532 
L 458.783292 195.644019 
L 469.751351 180.748519 
L 475.235381 173.517262 
L 480.71941 166.485932 
L 486.20344 159.695192 
L 491.687469 153.187023 
L 497.171499 147.001147 
L 502.655528 141.176344 
L 508.139558 135.746501 
L 513.623587 130.743432 
L 519.107617 126.188975 
L 524.591646 122.097626 
L 530.075676 118.475597 
L 535.559705 115.319311 
L 541.043735 112.614084 
L 546.527764 110.33582 
L 552.011794 108.451386 
L 557.495823 106.920872 
L 562.979853 105.699661 
L 568.463882 104.741065 
L 573.947912 103.99934 
L 579.431941 103.432504 
L 590.4 102.675342 
L 601.368059 102.241602 
L 617.820147 101.919309 
L 634.272236 101.83177 
L 650.724324 101.937381 
L 667.176413 102.280006 
L 678.144472 102.7305 
L 689.112531 103.495946 
L 694.59656 104.037179 
L 700.08059 104.806955 
L 705.564619 105.759338 
L 711.048649 106.944027 
L 716.532678 108.425595 
L 722.016708 110.254682 
L 727.500737 112.432418 
L 732.984767 114.995512 
L 738.468796 117.964672 
L 743.952826 121.349876 
L 749.436855 125.154325 
L 754.920885 129.36051 
L 760.404914 133.968431 
L 765.888943 138.981854 
L 771.372973 144.330936 
L 776.857002 149.99911 
L 782.341032 155.953809 
L 787.825061 162.160205 
L 793.309091 168.582718 
L 804.27715 181.933585 
L 815.245209 195.738147 
L 848.149386 237.581808 
L 859.117445 251.164982 
L 870.085504 264.31837 
L 881.053563 277.001119 
L 892.021622 289.190452 
L 902.989681 300.845329 
L 913.95774 311.938263 
L 924.925799 322.479799 
L 935.893857 332.467864 
L 946.861916 341.922415 
L 957.829975 350.875453 
L 968.798034 359.327733 
L 979.766093 367.305986 
L 990.734152 374.832992 
L 996.218182 378.437514 
L 996.218182 378.437514 
" clip-path="url(#p73f75766bf)" style="fill: none; stroke: #ff0000; stroke-width: 1.5; stroke-linecap: square"/>
   </g>
   <g id="line2d_31">
    <path d="M 184.581818 415.119595 
L 190.065848 410.983253 
L 195.549877 409.398897 
L 201.033907 405.577506 
L 206.517936 402.871526 
L 212.001966 400.708663 
L 217.485995 397.709382 
L 228.454054 391.117816 
L 233.938084 388.067141 
L 239.422113 384.768346 
L 250.390172 377.759795 
L 261.358231 370.305644 
L 272.32629 362.404199 
L 283.294349 354.037952 
L 294.262408 345.207279 
L 305.230467 335.893355 
L 316.198526 326.084697 
L 327.166585 315.773586 
L 338.134644 304.952115 
L 349.102703 293.631203 
L 360.070762 281.813297 
L 371.038821 269.5144 
L 382.00688 256.796823 
L 392.974939 243.715161 
L 409.427027 223.552846 
L 436.847174 189.581262 
L 447.815233 176.355208 
L 453.299263 169.854193 
L 464.267322 157.606877 
L 469.751351 151.766638 
L 475.235381 146.18299 
L 480.71941 140.88662 
L 486.20344 135.905388 
L 491.687469 131.26471 
L 497.171499 126.985483 
L 502.655528 123.084083 
L 508.139558 119.5703 
L 513.623587 116.448277 
L 519.107617 113.713494 
L 524.591646 111.354281 
L 530.075676 109.351622 
L 535.559705 107.680293 
L 541.043735 106.308854 
L 546.527764 105.202102 
L 552.011794 104.323139 
L 557.495823 103.634125 
L 562.979853 103.099669 
L 573.947912 102.369427 
L 584.915971 101.930416 
L 601.368059 101.558047 
L 623.304177 101.342119 
L 645.240295 101.349837 
L 667.176413 101.580261 
L 683.628501 101.962419 
L 694.59656 102.398418 
L 705.564619 103.131107 
L 711.048649 103.652009 
L 716.532678 104.318997 
L 722.016708 105.168405 
L 727.500737 106.222445 
L 732.984767 107.51557 
L 738.468796 109.077711 
L 743.952826 110.934472 
L 749.436855 113.107501 
L 754.920885 115.606588 
L 760.404914 118.44717 
L 765.888943 121.644496 
L 771.372973 125.17428 
L 776.857002 129.034075 
L 782.341032 133.210327 
L 787.825061 137.684964 
L 793.309091 142.437089 
L 798.79312 147.442605 
L 804.27715 152.67591 
L 809.761179 158.110837 
L 820.729238 169.481071 
L 831.697297 181.339828 
L 848.149386 199.610555 
L 870.085504 224.126083 
L 881.053563 236.136573 
L 897.505651 253.64562 
L 908.47371 264.874099 
L 919.441769 275.704982 
L 930.409828 286.112669 
L 941.377887 296.044069 
L 952.345946 305.614961 
L 963.314005 314.709379 
L 974.282064 323.376835 
L 985.250123 331.614504 
L 996.218182 339.448365 
L 996.218182 339.448365 
" clip-path="url(#p73f75766bf)" style="fill: none; stroke: #800080; stroke-width: 1.5; stroke-linecap: square"/>
   </g>
   <g id="line2d_32">
    <path d="M 184.581818 385.896559 
L 190.065848 381.659124 
L 195.549877 379.715766 
L 201.033907 375.750548 
L 206.517936 372.780258 
L 212.001966 370.287383 
L 217.485995 367.036029 
L 228.454054 359.980225 
L 233.938084 356.65771 
L 239.422113 353.106653 
L 250.390172 345.61711 
L 261.358231 337.705499 
L 272.32629 329.375774 
L 283.294349 320.618709 
L 294.262408 311.442964 
L 305.230467 301.841763 
L 316.198526 291.817365 
L 327.166585 281.377487 
L 338.134644 270.533802 
L 349.102703 259.316242 
L 360.070762 247.752293 
L 371.038821 235.884688 
L 392.974939 211.574923 
L 414.911057 187.12265 
L 425.879115 175.18219 
L 436.847174 163.656457 
L 442.331204 158.10726 
L 453.299263 147.509436 
L 458.783292 142.612166 
L 464.267322 137.915012 
L 469.751351 133.485933 
L 475.235381 129.345637 
L 480.71941 125.511633 
L 486.20344 121.996533 
L 491.687469 118.808997 
L 497.171499 115.952978 
L 502.655528 113.426405 
L 508.139558 111.221373 
L 513.623587 109.325643 
L 519.107617 107.720015 
L 524.591646 106.381333 
L 530.075676 105.282299 
L 535.559705 104.393735 
L 541.043735 103.685142 
L 546.527764 103.126025 
L 557.495823 102.345519 
L 568.463882 101.863962 
L 584.915971 101.436623 
L 606.852088 101.133532 
L 634.272236 101.013802 
L 661.692383 101.147275 
L 683.628501 101.457331 
L 700.08059 101.884858 
L 711.048649 102.358132 
L 722.016708 103.111717 
L 727.500737 103.64335 
L 732.984767 104.309396 
L 738.468796 105.136025 
L 743.952826 106.148461 
L 749.436855 107.371555 
L 754.920885 108.825261 
L 760.404914 110.531229 
L 765.888943 112.511109 
L 771.372973 114.765276 
L 776.857002 117.303144 
L 782.341032 120.126218 
L 787.825061 123.231487 
L 793.309091 126.611984 
L 798.79312 130.256981 
L 804.27715 134.152733 
L 809.761179 138.283051 
L 815.245209 142.631368 
L 820.729238 147.176601 
L 826.213268 151.898793 
L 837.181327 161.790283 
L 848.149386 172.136222 
L 864.601474 188.228461 
L 902.989681 226.097867 
L 913.95774 236.597045 
L 924.925799 246.841138 
L 935.893857 256.784398 
L 946.861916 266.402919 
L 957.829975 275.687851 
L 968.798034 284.614346 
L 979.766093 293.180144 
L 990.734152 301.384491 
L 996.218182 305.35404 
L 996.218182 305.35404 
" clip-path="url(#p73f75766bf)" style="fill: none; stroke: #a52a2a; stroke-width: 1.5; stroke-linecap: square"/>
   </g>
   <g id="line2d_33">
    <path d="M 184.581818 358.767109 
L 190.065848 354.492588 
L 195.549877 352.276636 
L 201.033907 348.239316 
L 206.517936 345.089619 
L 212.001966 342.359355 
L 217.485995 338.945724 
L 228.454054 331.61168 
L 233.938084 328.11917 
L 244.906143 320.594235 
L 255.874201 312.616923 
L 266.84226 304.321837 
L 277.810319 295.619742 
L 288.778378 286.555068 
L 299.746437 277.135722 
L 310.714496 267.368668 
L 321.682555 257.27725 
L 332.650614 246.882554 
L 343.618673 236.222041 
L 360.070762 219.836124 
L 403.942998 175.620637 
L 414.911057 165.023942 
L 425.879115 154.88339 
L 431.363145 150.032808 
L 436.847174 145.355232 
L 442.331204 140.869865 
L 447.815233 136.594402 
L 453.299263 132.518302 
L 458.783292 128.752445 
L 464.267322 125.214943 
L 469.751351 121.946833 
L 475.235381 118.95753 
L 480.71941 116.251739 
L 486.20344 113.830024 
L 491.687469 111.688622 
L 497.171499 109.819248 
L 502.655528 108.209667 
L 508.139558 106.842934 
L 513.623587 105.699472 
L 519.107617 104.755938 
L 524.591646 103.988233 
L 530.075676 103.370756 
L 541.043735 102.489157 
L 552.011794 101.934369 
L 568.463882 101.438317 
L 590.4 101.06576 
L 617.820147 100.838536 
L 645.240295 100.823852 
L 672.660442 101.015873 
L 694.59656 101.33873 
L 711.048649 101.744985 
L 722.016708 102.174018 
L 732.984767 102.833664 
L 743.952826 103.857019 
L 749.436855 104.554505 
L 754.920885 105.402594 
L 760.404914 106.422372 
L 765.888943 107.635488 
L 771.372973 109.053803 
L 776.857002 110.692187 
L 782.341032 112.560808 
L 787.825061 114.666442 
L 793.309091 117.012478 
L 798.79312 119.598727 
L 804.27715 122.421425 
L 809.761179 125.474358 
L 815.245209 128.749433 
L 820.729238 132.234036 
L 826.213268 135.915931 
L 831.697297 139.780621 
L 837.181327 143.811728 
L 842.665356 147.984215 
L 853.633415 156.756529 
L 864.601474 165.93265 
L 875.569533 175.396613 
L 892.021622 189.89659 
L 919.441769 214.121451 
L 935.893857 228.296311 
L 952.345946 242.009004 
L 963.314005 250.839677 
L 974.282064 259.400392 
L 985.250123 267.667617 
L 996.218182 275.642294 
L 996.218182 275.642294 
" clip-path="url(#p73f75766bf)" style="fill: none; stroke: #ffc0cb; stroke-width: 1.5; stroke-linecap: square"/>
   </g>
   <g id="line2d_34">
    <path d="M 184.581818 333.6422 
L 190.065848 329.385939 
L 195.549877 326.972885 
L 201.033907 322.925399 
L 206.517936 319.66915 
L 212.001966 316.782445 
L 217.485995 313.283347 
L 228.454054 305.828254 
L 233.938084 302.251783 
L 244.906143 294.617283 
L 255.874201 286.582742 
L 266.84226 278.272783 
L 277.810319 269.61794 
L 288.778378 260.665655 
L 299.746437 251.433246 
L 310.714496 241.938974 
L 321.682555 232.217101 
L 338.134644 217.284702 
L 365.554791 191.930122 
L 382.00688 176.841283 
L 392.974939 167.042979 
L 403.942998 157.575627 
L 414.911057 148.568371 
L 420.395086 144.277848 
L 425.879115 140.15073 
L 431.363145 136.202831 
L 436.847174 132.448835 
L 442.331204 128.902297 
L 447.815233 125.574887 
L 453.299263 122.458511 
L 458.783292 119.622635 
L 464.267322 117.010595 
L 469.751351 114.64404 
L 475.235381 112.523157 
L 480.71941 110.643806 
L 486.20344 108.998079 
L 491.687469 107.575435 
L 497.171499 106.361189 
L 502.655528 105.338587 
L 508.139558 104.488615 
L 513.623587 103.790942 
L 524.591646 102.767963 
L 535.559705 102.10907 
L 546.527764 101.680037 
L 562.979853 101.270205 
L 590.4 100.872046 
L 623.304177 100.663835 
L 656.208354 100.71184 
L 689.112531 101.014931 
L 711.048649 101.392383 
L 727.500737 101.860009 
L 738.468796 102.354931 
L 749.436855 103.104375 
L 760.404914 104.230141 
L 765.888943 104.978079 
L 771.372973 105.869843 
L 776.857002 106.921625 
L 782.341032 108.146789 
L 787.825061 109.556821 
L 793.309091 111.161131 
L 798.79312 112.965933 
L 804.27715 114.974616 
L 809.761179 117.188496 
L 815.245209 119.606069 
L 820.729238 122.223004 
L 826.213268 125.033088 
L 831.697297 128.028416 
L 837.181327 131.199009 
L 842.665356 134.527361 
L 848.149386 138.019682 
L 859.117445 145.418486 
L 870.085504 153.270232 
L 881.053563 161.47778 
L 892.021622 169.950391 
L 913.95774 187.316364 
L 935.893857 204.742956 
L 957.829975 221.784377 
L 968.798034 230.059697 
L 979.766093 238.132831 
L 990.734152 245.982882 
L 996.218182 249.82084 
L 996.218182 249.82084 
" clip-path="url(#p73f75766bf)" style="fill: none; stroke: #808080; stroke-width: 1.5; stroke-linecap: square"/>
   </g>
   <g id="line2d_35">
    <path d="M 184.581818 310.450483 
L 190.065848 306.258982 
L 195.549877 303.714902 
L 201.033907 299.709774 
L 206.517936 296.409284 
L 212.001966 293.435041 
L 217.485995 289.915234 
L 228.454054 282.470684 
L 233.938084 278.8816 
L 244.906143 271.281739 
L 255.874201 263.339066 
L 266.84226 255.169169 
L 277.810319 246.719713 
L 288.778378 238.041151 
L 305.230467 224.649056 
L 321.682555 210.906241 
L 371.038821 169.303735 
L 382.00688 160.448213 
L 392.974939 151.936068 
L 403.942998 143.864816 
L 409.427027 140.029494 
L 414.911057 136.345152 
L 420.395086 132.824781 
L 425.879115 129.479863 
L 431.363145 126.321695 
L 436.847174 123.3595 
L 442.331204 120.601186 
L 447.815233 118.052587 
L 453.299263 115.70561 
L 458.783292 113.601106 
L 464.267322 111.698035 
L 469.751351 110.004868 
L 475.235381 108.515581 
L 480.71941 107.220386 
L 486.20344 106.107986 
L 491.687469 105.163698 
L 497.171499 104.371897 
L 502.655528 103.71564 
L 513.623587 102.738595 
L 524.591646 102.095516 
L 535.559705 101.66893 
L 552.011794 101.254768 
L 579.431941 100.837218 
L 612.336118 100.579685 
L 645.240295 100.54787 
L 678.144472 100.735749 
L 711.048649 101.156499 
L 732.984767 101.651234 
L 743.952826 102.046381 
L 754.920885 102.626019 
L 765.888943 103.485404 
L 776.857002 104.733535 
L 782.341032 105.537761 
L 787.825061 106.479414 
L 793.309091 107.569599 
L 798.79312 108.817919 
L 804.27715 110.232092 
L 809.761179 111.817577 
L 815.245209 113.578139 
L 820.729238 115.51472 
L 826.213268 117.626566 
L 831.697297 119.91123 
L 837.181327 122.36363 
L 842.665356 124.9736 
L 848.149386 127.746222 
L 853.633415 130.669071 
L 859.117445 133.726147 
L 870.085504 140.213043 
L 881.053563 147.128407 
L 892.021622 154.393927 
L 902.989681 161.923945 
L 919.441769 173.540229 
L 968.798034 208.756179 
L 985.250123 220.09874 
L 996.218182 227.462152 
L 996.218182 227.462152 
" clip-path="url(#p73f75766bf)" style="fill: none; stroke: #808000; stroke-width: 1.5; stroke-linecap: square"/>
   </g>
   <g id="line2d_36">
    <path d="M 184.581818 289.11628 
L 190.065848 285.028319 
L 195.549877 282.410631 
L 201.033907 278.491159 
L 206.517936 275.199141 
L 212.001966 272.195718 
L 217.485995 268.709233 
L 228.454054 261.383095 
L 233.938084 257.839945 
L 244.906143 250.391253 
L 255.874201 242.658108 
L 266.84226 234.748191 
L 283.294349 222.49937 
L 299.746437 209.920914 
L 327.166585 188.560543 
L 349.102703 171.572963 
L 360.070762 163.290301 
L 371.038821 155.248982 
L 382.00688 147.541439 
L 392.974939 140.2554 
L 398.458968 136.796212 
L 403.942998 133.474638 
L 409.427027 130.301409 
L 414.911057 127.286126 
L 420.395086 124.437826 
L 425.879115 121.763849 
L 431.363145 119.270786 
L 436.847174 116.963155 
L 442.331204 114.844155 
L 447.815233 112.914539 
L 453.299263 111.165273 
L 458.783292 109.618756 
L 464.267322 108.243364 
L 469.751351 107.039284 
L 475.235381 105.997292 
L 480.71941 105.105527 
L 486.20344 104.350624 
L 497.171499 103.194549 
L 508.139558 102.409902 
L 519.107617 101.884482 
L 535.559705 101.385417 
L 557.495823 100.978221 
L 590.4 100.609806 
L 623.304177 100.449413 
L 656.208354 100.486499 
L 689.112531 100.717112 
L 722.016708 101.156311 
L 743.952826 101.654622 
L 754.920885 102.046381 
L 765.888943 102.611523 
L 776.857002 103.431563 
L 787.825061 104.598556 
L 793.309091 105.340846 
L 798.79312 106.202867 
L 804.27715 107.19403 
L 809.761179 108.322055 
L 815.245209 109.59353 
L 820.729238 111.012974 
L 826.213268 112.58321 
L 831.697297 114.305557 
L 837.181327 116.179449 
L 842.665356 118.199803 
L 848.149386 120.371703 
L 853.633415 122.688182 
L 859.117445 125.1387 
L 870.085504 130.421139 
L 881.053563 136.162545 
L 892.021622 142.300228 
L 902.989681 148.762839 
L 913.95774 155.477523 
L 930.409828 165.88408 
L 957.829975 183.636353 
L 979.766093 197.784292 
L 996.218182 208.174847 
L 996.218182 208.174847 
" clip-path="url(#p73f75766bf)" style="fill: none; stroke: #00ffff; stroke-width: 1.5; stroke-linecap: square"/>
   </g>
   <g id="patch_3">
    <path d="M 144 576.72 
L 144 77.76 
" style="fill: none; stroke: #000000; stroke-width: 0.8; stroke-linejoin: miter; stroke-linecap: square"/>
   </g>
   <g id="patch_4">
    <path d="M 1036.8 576.72 
L 1036.8 77.76 
" style="fill: none; stroke: #000000; stroke-width: 0.8; stroke-linejoin: miter; stroke-linecap: square"/>
   </g>
   <g id="patch_5">
    <path d="M 144 576.72 
L 1036.8 576.72 
" style="fill: none; stroke: #000000; stroke-width: 0.8; stroke-linejoin: miter; stroke-linecap: square"/>
   </g>
   <g id="patch_6">
    <path d="M 144 77.76 
L 1036.8 77.76 
" style="fill: none; stroke: #000000; stroke-width: 0.8; stroke-linejoin: miter; stroke-linecap: square"/>
   </g>
   <g id="text_16">
    <!-- ACT focus -->
    <g transform="translate(560.62875 71.76) scale(0.12 -0.12)">
     <defs>
      <path id="DejaVuSans-41" d="M 2188 4044 
L 1331 1722 
L 3047 1722 
L 2188 4044 
z
M 1831 4666 
L 2547 4666 
L 4325 0 
L 3669 0 
L 3244 1197 
L 1141 1197 
L 716 0 
L 50 0 
L 1831 4666 
z
" transform="scale(0.015625)"/>
      <path id="DejaVuSans-43" d="M 4122 4306 
L 4122 3641 
Q 3803 3938 3442 4084 
Q 3081 4231 2675 4231 
Q 1875 4231 1450 3742 
Q 1025 3253 1025 2328 
Q 1025 1406 1450 917 
Q 1875 428 2675 428 
Q 3081 428 3442 575 
Q 3803 722 4122 1019 
L 4122 359 
Q 3791 134 3420 21 
Q 3050 -91 2638 -91 
Q 1578 -91 968 557 
Q 359 1206 359 2328 
Q 359 3453 968 4101 
Q 1578 4750 2638 4750 
Q 3056 4750 3426 4639 
Q 3797 4528 4122 4306 
z
" transform="scale(0.015625)"/>
      <path id="DejaVuSans-66" d="M 2375 4863 
L 2375 4384 
L 1825 4384 
Q 1516 4384 1395 4259 
Q 1275 4134 1275 3809 
L 1275 3500 
L 2222 3500 
L 2222 3053 
L 1275 3053 
L 1275 0 
L 697 0 
L 697 3053 
L 147 3053 
L 147 3500 
L 697 3500 
L 697 3744 
Q 697 4328 969 4595 
Q 1241 4863 1831 4863 
L 2375 4863 
z
" transform="scale(0.015625)"/>
      <path id="DejaVuSans-6f" d="M 1959 3097 
Q 1497 3097 1228 2736 
Q 959 2375 959 1747 
Q 959 1119 1226 758 
Q 1494 397 1959 397 
Q 2419 397 2687 759 
Q 2956 1122 2956 1747 
Q 2956 2369 2687 2733 
Q 2419 3097 1959 3097 
z
M 1959 3584 
Q 2709 3584 3137 3096 
Q 3566 2609 3566 1747 
Q 3566 888 3137 398 
Q 2709 -91 1959 -91 
Q 1206 -91 779 398 
Q 353 888 353 1747 
Q 353 2609 779 3096 
Q 1206 3584 1959 3584 
z
" transform="scale(0.015625)"/>
     </defs>
     <use xlink:href="#DejaVuSans-41"/>
     <use xlink:href="#DejaVuSans-43" x="66.658203"/>
     <use xlink:href="#DejaVuSans-54" x="136.482422"/>
     <use xlink:href="#DejaVuSans-20" x="197.566406"/>
     <use xlink:href="#DejaVuSans-66" x="229.353516"/>
     <use xlink:href="#DejaVuSans-6f" x="264.558594"/>
     <use xlink:href="#DejaVuSans-63" x="325.740234"/>
     <use xlink:href="#DejaVuSans-75" x="380.720703"/>
     <use xlink:href="#DejaVuSans-73" x="444.099609"/>
    </g>
   </g>
   <g id="legend_1">
    <g id="patch_7">
     <path d="M 151 232.54125 
L 263.1125 232.54125 
Q 265.1125 232.54125 265.1125 230.54125 
L 265.1125 84.76 
Q 265.1125 82.76 263.1125 82.76 
L 151 82.76 
Q 149 82.76 149 84.76 
L 149 230.54125 
Q 149 232.54125 151 232.54125 
z
" style="fill: #ffffff; opacity: 0.8; stroke: #cccccc; stroke-linejoin: miter"/>
    </g>
    <g id="line2d_37">
     <path d="M 153 90.858438 
L 163 90.858438 
L 173 90.858438 
" style="fill: none; stroke: #0000ff; stroke-width: 1.5; stroke-linecap: square"/>
    </g>
    <g id="text_17">
     <!-- ~1.00mm pwv -->
     <g transform="translate(181 94.358438) scale(0.1 -0.1)">
      <defs>
       <path id="DejaVuSans-7e" d="M 4684 2553 
L 4684 1997 
Q 4356 1750 4076 1644 
Q 3797 1538 3494 1538 
Q 3150 1538 2694 1722 
Q 2659 1734 2644 1741 
Q 2622 1750 2575 1766 
Q 2091 1959 1797 1959 
Q 1522 1959 1253 1839 
Q 984 1719 678 1459 
L 678 2016 
Q 1006 2263 1286 2370 
Q 1566 2478 1869 2478 
Q 2213 2478 2672 2291 
Q 2703 2278 2719 2272 
Q 2744 2263 2788 2247 
Q 3272 2053 3566 2053 
Q 3834 2053 4098 2172 
Q 4363 2291 4684 2553 
z
" transform="scale(0.015625)"/>
       <path id="DejaVuSans-2e" d="M 684 794 
L 1344 794 
L 1344 0 
L 684 0 
L 684 794 
z
" transform="scale(0.015625)"/>
       <path id="DejaVuSans-77" d="M 269 3500 
L 844 3500 
L 1563 769 
L 2278 3500 
L 2956 3500 
L 3675 769 
L 4391 3500 
L 4966 3500 
L 4050 0 
L 3372 0 
L 2619 2869 
L 1863 0 
L 1184 0 
L 269 3500 
z
" transform="scale(0.015625)"/>
       <path id="DejaVuSans-76" d="M 191 3500 
L 800 3500 
L 1894 563 
L 2988 3500 
L 3597 3500 
L 2284 0 
L 1503 0 
L 191 3500 
z
" transform="scale(0.015625)"/>
      </defs>
      <use xlink:href="#DejaVuSans-7e"/>
      <use xlink:href="#DejaVuSans-31" x="83.789062"/>
      <use xlink:href="#DejaVuSans-2e" x="147.412109"/>
      <use xlink:href="#DejaVuSans-30" x="179.199219"/>
      <use xlink:href="#DejaVuSans-30" x="242.822266"/>
      <use xlink:href="#DejaVuSans-6d" x="306.445312"/>
      <use xlink:href="#DejaVuSans-6d" x="403.857422"/>
      <use xlink:href="#DejaVuSans-20" x="501.269531"/>
      <use xlink:href="#DejaVuSans-70" x="533.056641"/>
      <use xlink:href="#DejaVuSans-77" x="596.533203"/>
      <use xlink:href="#DejaVuSans-76" x="678.320312"/>
     </g>
    </g>
    <g id="line2d_38">
     <path d="M 153 105.536563 
L 163 105.536563 
L 173 105.536563 
" style="fill: none; stroke: #ffa500; stroke-width: 1.5; stroke-linecap: square"/>
    </g>
    <g id="text_18">
     <!-- ~2.00mm pwv -->
     <g transform="translate(181 109.036563) scale(0.1 -0.1)">
      <use xlink:href="#DejaVuSans-7e"/>
      <use xlink:href="#DejaVuSans-32" x="83.789062"/>
      <use xlink:href="#DejaVuSans-2e" x="147.412109"/>
      <use xlink:href="#DejaVuSans-30" x="179.199219"/>
      <use xlink:href="#DejaVuSans-30" x="242.822266"/>
      <use xlink:href="#DejaVuSans-6d" x="306.445312"/>
      <use xlink:href="#DejaVuSans-6d" x="403.857422"/>
      <use xlink:href="#DejaVuSans-20" x="501.269531"/>
      <use xlink:href="#DejaVuSans-70" x="533.056641"/>
      <use xlink:href="#DejaVuSans-77" x="596.533203"/>
      <use xlink:href="#DejaVuSans-76" x="678.320312"/>
     </g>
    </g>
    <g id="line2d_39">
     <path d="M 153 120.214688 
L 163 120.214688 
L 173 120.214688 
" style="fill: none; stroke: #008000; stroke-width: 1.5; stroke-linecap: square"/>
    </g>
    <g id="text_19">
     <!-- ~3.00mm pwv -->
     <g transform="translate(181 123.714688) scale(0.1 -0.1)">
      <defs>
       <path id="DejaVuSans-33" d="M 2597 2516 
Q 3050 2419 3304 2112 
Q 3559 1806 3559 1356 
Q 3559 666 3084 287 
Q 2609 -91 1734 -91 
Q 1441 -91 1130 -33 
Q 819 25 488 141 
L 488 750 
Q 750 597 1062 519 
Q 1375 441 1716 441 
Q 2309 441 2620 675 
Q 2931 909 2931 1356 
Q 2931 1769 2642 2001 
Q 2353 2234 1838 2234 
L 1294 2234 
L 1294 2753 
L 1863 2753 
Q 2328 2753 2575 2939 
Q 2822 3125 2822 3475 
Q 2822 3834 2567 4026 
Q 2313 4219 1838 4219 
Q 1578 4219 1281 4162 
Q 984 4106 628 3988 
L 628 4550 
Q 988 4650 1302 4700 
Q 1616 4750 1894 4750 
Q 2613 4750 3031 4423 
Q 3450 4097 3450 3541 
Q 3450 3153 3228 2886 
Q 3006 2619 2597 2516 
z
" transform="scale(0.015625)"/>
      </defs>
      <use xlink:href="#DejaVuSans-7e"/>
      <use xlink:href="#DejaVuSans-33" x="83.789062"/>
      <use xlink:href="#DejaVuSans-2e" x="147.412109"/>
      <use xlink:href="#DejaVuSans-30" x="179.199219"/>
      <use xlink:href="#DejaVuSans-30" x="242.822266"/>
      <use xlink:href="#DejaVuSans-6d" x="306.445312"/>
      <use xlink:href="#DejaVuSans-6d" x="403.857422"/>
      <use xlink:href="#DejaVuSans-20" x="501.269531"/>
      <use xlink:href="#DejaVuSans-70" x="533.056641"/>
      <use xlink:href="#DejaVuSans-77" x="596.533203"/>
      <use xlink:href="#DejaVuSans-76" x="678.320312"/>
     </g>
    </g>
    <g id="line2d_40">
     <path d="M 153 134.892813 
L 163 134.892813 
L 173 134.892813 
" style="fill: none; stroke: #ff0000; stroke-width: 1.5; stroke-linecap: square"/>
    </g>
    <g id="text_20">
     <!-- ~4.00mm pwv -->
     <g transform="translate(181 138.392813) scale(0.1 -0.1)">
      <use xlink:href="#DejaVuSans-7e"/>
      <use xlink:href="#DejaVuSans-34" x="83.789062"/>
      <use xlink:href="#DejaVuSans-2e" x="147.412109"/>
      <use xlink:href="#DejaVuSans-30" x="179.199219"/>
      <use xlink:href="#DejaVuSans-30" x="242.822266"/>
      <use xlink:href="#DejaVuSans-6d" x="306.445312"/>
      <use xlink:href="#DejaVuSans-6d" x="403.857422"/>
      <use xlink:href="#DejaVuSans-20" x="501.269531"/>
      <use xlink:href="#DejaVuSans-70" x="533.056641"/>
      <use xlink:href="#DejaVuSans-77" x="596.533203"/>
      <use xlink:href="#DejaVuSans-76" x="678.320312"/>
     </g>
    </g>
    <g id="line2d_41">
     <path d="M 153 149.570938 
L 163 149.570938 
L 173 149.570938 
" style="fill: none; stroke: #800080; stroke-width: 1.5; stroke-linecap: square"/>
    </g>
    <g id="text_21">
     <!-- ~5.00mm pwv -->
     <g transform="translate(181 153.070938) scale(0.1 -0.1)">
      <use xlink:href="#DejaVuSans-7e"/>
      <use xlink:href="#DejaVuSans-35" x="83.789062"/>
      <use xlink:href="#DejaVuSans-2e" x="147.412109"/>
      <use xlink:href="#DejaVuSans-30" x="179.199219"/>
      <use xlink:href="#DejaVuSans-30" x="242.822266"/>
      <use xlink:href="#DejaVuSans-6d" x="306.445312"/>
      <use xlink:href="#DejaVuSans-6d" x="403.857422"/>
      <use xlink:href="#DejaVuSans-20" x="501.269531"/>
      <use xlink:href="#DejaVuSans-70" x="533.056641"/>
      <use xlink:href="#DejaVuSans-77" x="596.533203"/>
      <use xlink:href="#DejaVuSans-76" x="678.320312"/>
     </g>
    </g>
    <g id="line2d_42">
     <path d="M 153 164.249063 
L 163 164.249063 
L 173 164.249063 
" style="fill: none; stroke: #a52a2a; stroke-width: 1.5; stroke-linecap: square"/>
    </g>
    <g id="text_22">
     <!-- ~6.00mm pwv -->
     <g transform="translate(181 167.749063) scale(0.1 -0.1)">
      <use xlink:href="#DejaVuSans-7e"/>
      <use xlink:href="#DejaVuSans-36" x="83.789062"/>
      <use xlink:href="#DejaVuSans-2e" x="147.412109"/>
      <use xlink:href="#DejaVuSans-30" x="179.199219"/>
      <use xlink:href="#DejaVuSans-30" x="242.822266"/>
      <use xlink:href="#DejaVuSans-6d" x="306.445312"/>
      <use xlink:href="#DejaVuSans-6d" x="403.857422"/>
      <use xlink:href="#DejaVuSans-20" x="501.269531"/>
      <use xlink:href="#DejaVuSans-70" x="533.056641"/>
      <use xlink:href="#DejaVuSans-77" x="596.533203"/>
      <use xlink:href="#DejaVuSans-76" x="678.320312"/>
     </g>
    </g>
    <g id="line2d_43">
     <path d="M 153 178.927188 
L 163 178.927188 
L 173 178.927188 
" style="fill: none; stroke: #ffc0cb; stroke-width: 1.5; stroke-linecap: square"/>
    </g>
    <g id="text_23">
     <!-- ~7.00mm pwv -->
     <g transform="translate(181 182.427188) scale(0.1 -0.1)">
      <use xlink:href="#DejaVuSans-7e"/>
      <use xlink:href="#DejaVuSans-37" x="83.789062"/>
      <use xlink:href="#DejaVuSans-2e" x="147.412109"/>
      <use xlink:href="#DejaVuSans-30" x="179.199219"/>
      <use xlink:href="#DejaVuSans-30" x="242.822266"/>
      <use xlink:href="#DejaVuSans-6d" x="306.445312"/>
      <use xlink:href="#DejaVuSans-6d" x="403.857422"/>
      <use xlink:href="#DejaVuSans-20" x="501.269531"/>
      <use xlink:href="#DejaVuSans-70" x="533.056641"/>
      <use xlink:href="#DejaVuSans-77" x="596.533203"/>
      <use xlink:href="#DejaVuSans-76" x="678.320312"/>
     </g>
    </g>
    <g id="line2d_44">
     <path d="M 153 193.605313 
L 163 193.605313 
L 173 193.605313 
" style="fill: none; stroke: #808080; stroke-width: 1.5; stroke-linecap: square"/>
    </g>
    <g id="text_24">
     <!-- ~8.00mm pwv -->
     <g transform="translate(181 197.105313) scale(0.1 -0.1)">
      <use xlink:href="#DejaVuSans-7e"/>
      <use xlink:href="#DejaVuSans-38" x="83.789062"/>
      <use xlink:href="#DejaVuSans-2e" x="147.412109"/>
      <use xlink:href="#DejaVuSans-30" x="179.199219"/>
      <use xlink:href="#DejaVuSans-30" x="242.822266"/>
      <use xlink:href="#DejaVuSans-6d" x="306.445312"/>
      <use xlink:href="#DejaVuSans-6d" x="403.857422"/>
      <use xlink:href="#DejaVuSans-20" x="501.269531"/>
      <use xlink:href="#DejaVuSans-70" x="533.056641"/>
      <use xlink:href="#DejaVuSans-77" x="596.533203"/>
      <use xlink:href="#DejaVuSans-76" x="678.320312"/>
     </g>
    </g>
    <g id="line2d_45">
     <path d="M 153 208.283438 
L 163 208.283438 
L 173 208.283438 
" style="fill: none; stroke: #808000; stroke-width: 1.5; stroke-linecap: square"/>
    </g>
    <g id="text_25">
     <!-- ~9.00mm pwv -->
     <g transform="translate(181 211.783438) scale(0.1 -0.1)">
      <use xlink:href="#DejaVuSans-7e"/>
      <use xlink:href="#DejaVuSans-39" x="83.789062"/>
      <use xlink:href="#DejaVuSans-2e" x="147.412109"/>
      <use xlink:href="#DejaVuSans-30" x="179.199219"/>
      <use xlink:href="#DejaVuSans-30" x="242.822266"/>
      <use xlink:href="#DejaVuSans-6d" x="306.445312"/>
      <use xlink:href="#DejaVuSans-6d" x="403.857422"/>
      <use xlink:href="#DejaVuSans-20" x="501.269531"/>
      <use xlink:href="#DejaVuSans-70" x="533.056641"/>
      <use xlink:href="#DejaVuSans-77" x="596.533203"/>
      <use xlink:href="#DejaVuSans-76" x="678.320312"/>
     </g>
    </g>
    <g id="line2d_46">
     <path d="M 153 222.961563 
L 163 222.961563 
L 173 222.961563 
" style="fill: none; stroke: #00ffff; stroke-width: 1.5; stroke-linecap: square"/>
    </g>
    <g id="text_26">
     <!-- ~10.00mm pwv -->
     <g transform="translate(181 226.461563) scale(0.1 -0.1)">
      <use xlink:href="#DejaVuSans-7e"/>
      <use xlink:href="#DejaVuSans-31" x="83.789062"/>
      <use xlink:href="#DejaVuSans-30" x="147.412109"/>
      <use xlink:href="#DejaVuSans-2e" x="211.035156"/>
      <use xlink:href="#DejaVuSans-30" x="242.822266"/>
      <use xlink:href="#DejaVuSans-30" x="306.445312"/>
      <use xlink:href="#DejaVuSans-6d" x="370.068359"/>
      <use xlink:href="#DejaVuSans-6d" x="467.480469"/>
      <use xlink:href="#DejaVuSans-20" x="564.892578"/>
      <use xlink:href="#DejaVuSans-70" x="596.679688"/>
      <use xlink:href="#DejaVuSans-77" x="660.15625"/>
      <use xlink:href="#DejaVuSans-76" x="741.943359"/>
     </g>
    </g>
   </g>
  </g>
 </g>
 <defs>
  <clipPath id="p73f75766bf">
   <rect x="144" y="77.76" width="892.8" height="498.96"/>
  </clipPath>
 </defs>
</svg>
