<?xml version="1.0" encoding="utf-8" standalone="no"?>
<!DOCTYPE svg PUBLIC "-//W3C//DTD SVG 1.1//EN"
  "http://www.w3.org/Graphics/SVG/1.1/DTD/svg11.dtd">
<svg xmlns:xlink="http://www.w3.org/1999/xlink" width="1658.88pt" height="933.12pt" viewBox="0 0 1658.88 933.12" xmlns="http://www.w3.org/2000/svg" version="1.1">
 <metadata>
  <rdf:RDF xmlns:dc="http://purl.org/dc/elements/1.1/" xmlns:cc="http://creativecommons.org/ns#" xmlns:rdf="http://www.w3.org/1999/02/22-rdf-syntax-ns#">
   <cc:Work>
    <dc:type rdf:resource="http://purl.org/dc/dcmitype/StillImage"/>
    <dc:date>2025-07-14T13:29:33.451824</dc:date>
    <dc:format>image/svg+xml</dc:format>
    <dc:creator>
     <cc:Agent>
      <dc:title>Matplotlib v3.8.4, https://matplotlib.org/</dc:title>
     </cc:Agent>
    </dc:creator>
   </cc:Work>
  </rdf:RDF>
 </metadata>
 <defs>
  <style type="text/css">*{stroke-linejoin: round; stroke-linecap: butt}</style>
 </defs>
 <g id="figure_1">
  <g id="patch_1">
   <path d="M 0 933.12 
L 1658.88 933.12 
L 1658.88 0 
L 0 0 
z
" style="fill: #ffffff"/>
  </g>
  <g id="axes_1">
   <g id="patch_2">
    <path d="M 207.36 830.4768 
L 1492.992 830.4768 
L 1492.992 111.9744 
L 207.36 111.9744 
z
" style="fill: #ffffff"/>
   </g>
   <g id="matplotlib.axis_1">
    <g id="xtick_1">
     <g id="line2d_1">
      <path d="M 207.36 830.4768 
L 207.36 111.9744 
" clip-path="url(#p920dfcc52c)" style="fill: none; stroke: #b0b0b0; stroke-width: 0.8; stroke-linecap: square"/>
     </g>
     <g id="line2d_2">
      <defs>
       <path id="m027ac9fcf0" d="M 0 0 
L 0 3.5 
" style="stroke: #000000; stroke-width: 0.8"/>
      </defs>
      <g>
       <use xlink:href="#m027ac9fcf0" x="207.36" y="830.4768" style="stroke: #000000; stroke-width: 0.8"/>
      </g>
     </g>
     <g id="text_1">
      <!-- 300 -->
      <g transform="translate(197.81625 845.075238) scale(0.1 -0.1)">
       <defs>
        <path id="DejaVuSans-33" d="M 2597 2516 
Q 3050 2419 3304 2112 
Q 3559 1806 3559 1356 
Q 3559 666 3084 287 
Q 2609 -91 1734 -91 
Q 1441 -91 1130 -33 
Q 819 25 488 141 
L 488 750 
Q 750 597 1062 519 
Q 1375 441 1716 441 
Q 2309 441 2620 675 
Q 2931 909 2931 1356 
Q 2931 1769 2642 2001 
Q 2353 2234 1838 2234 
L 1294 2234 
L 1294 2753 
L 1863 2753 
Q 2328 2753 2575 2939 
Q 2822 3125 2822 3475 
Q 2822 3834 2567 4026 
Q 2313 4219 1838 4219 
Q 1578 4219 1281 4162 
Q 984 4106 628 3988 
L 628 4550 
Q 988 4650 1302 4700 
Q 1616 4750 1894 4750 
Q 2613 4750 3031 4423 
Q 3450 4097 3450 3541 
Q 3450 3153 3228 2886 
Q 3006 2619 2597 2516 
z
" transform="scale(0.015625)"/>
        <path id="DejaVuSans-30" d="M 2034 4250 
Q 1547 4250 1301 3770 
Q 1056 3291 1056 2328 
Q 1056 1369 1301 889 
Q 1547 409 2034 409 
Q 2525 409 2770 889 
Q 3016 1369 3016 2328 
Q 3016 3291 2770 3770 
Q 2525 4250 2034 4250 
z
M 2034 4750 
Q 2819 4750 3233 4129 
Q 3647 3509 3647 2328 
Q 3647 1150 3233 529 
Q 2819 -91 2034 -91 
Q 1250 -91 836 529 
Q 422 1150 422 2328 
Q 422 3509 836 4129 
Q 1250 4750 2034 4750 
z
" transform="scale(0.015625)"/>
       </defs>
       <use xlink:href="#DejaVuSans-33"/>
       <use xlink:href="#DejaVuSans-30" x="63.623047"/>
       <use xlink:href="#DejaVuSans-30" x="127.246094"/>
      </g>
     </g>
    </g>
    <g id="xtick_2">
     <g id="line2d_3">
      <path d="M 464.4864 830.4768 
L 464.4864 111.9744 
" clip-path="url(#p920dfcc52c)" style="fill: none; stroke: #b0b0b0; stroke-width: 0.8; stroke-linecap: square"/>
     </g>
     <g id="line2d_4">
      <g>
       <use xlink:href="#m027ac9fcf0" x="464.4864" y="830.4768" style="stroke: #000000; stroke-width: 0.8"/>
      </g>
     </g>
     <g id="text_2">
      <!-- 320 -->
      <g transform="translate(454.94265 845.075238) scale(0.1 -0.1)">
       <defs>
        <path id="DejaVuSans-32" d="M 1228 531 
L 3431 531 
L 3431 0 
L 469 0 
L 469 531 
Q 828 903 1448 1529 
Q 2069 2156 2228 2338 
Q 2531 2678 2651 2914 
Q 2772 3150 2772 3378 
Q 2772 3750 2511 3984 
Q 2250 4219 1831 4219 
Q 1534 4219 1204 4116 
Q 875 4013 500 3803 
L 500 4441 
Q 881 4594 1212 4672 
Q 1544 4750 1819 4750 
Q 2544 4750 2975 4387 
Q 3406 4025 3406 3419 
Q 3406 3131 3298 2873 
Q 3191 2616 2906 2266 
Q 2828 2175 2409 1742 
Q 1991 1309 1228 531 
z
" transform="scale(0.015625)"/>
       </defs>
       <use xlink:href="#DejaVuSans-33"/>
       <use xlink:href="#DejaVuSans-32" x="63.623047"/>
       <use xlink:href="#DejaVuSans-30" x="127.246094"/>
      </g>
     </g>
    </g>
    <g id="xtick_3">
     <g id="line2d_5">
      <path d="M 721.6128 830.4768 
L 721.6128 111.9744 
" clip-path="url(#p920dfcc52c)" style="fill: none; stroke: #b0b0b0; stroke-width: 0.8; stroke-linecap: square"/>
     </g>
     <g id="line2d_6">
      <g>
       <use xlink:href="#m027ac9fcf0" x="721.6128" y="830.4768" style="stroke: #000000; stroke-width: 0.8"/>
      </g>
     </g>
     <g id="text_3">
      <!-- 340 -->
      <g transform="translate(712.06905 845.075238) scale(0.1 -0.1)">
       <defs>
        <path id="DejaVuSans-34" d="M 2419 4116 
L 825 1625 
L 2419 1625 
L 2419 4116 
z
M 2253 4666 
L 3047 4666 
L 3047 1625 
L 3713 1625 
L 3713 1100 
L 3047 1100 
L 3047 0 
L 2419 0 
L 2419 1100 
L 313 1100 
L 313 1709 
L 2253 4666 
z
" transform="scale(0.015625)"/>
       </defs>
       <use xlink:href="#DejaVuSans-33"/>
       <use xlink:href="#DejaVuSans-34" x="63.623047"/>
       <use xlink:href="#DejaVuSans-30" x="127.246094"/>
      </g>
     </g>
    </g>
    <g id="xtick_4">
     <g id="line2d_7">
      <path d="M 978.7392 830.4768 
L 978.7392 111.9744 
" clip-path="url(#p920dfcc52c)" style="fill: none; stroke: #b0b0b0; stroke-width: 0.8; stroke-linecap: square"/>
     </g>
     <g id="line2d_8">
      <g>
       <use xlink:href="#m027ac9fcf0" x="978.7392" y="830.4768" style="stroke: #000000; stroke-width: 0.8"/>
      </g>
     </g>
     <g id="text_4">
      <!-- 360 -->
      <g transform="translate(969.19545 845.075238) scale(0.1 -0.1)">
       <defs>
        <path id="DejaVuSans-36" d="M 2113 2584 
Q 1688 2584 1439 2293 
Q 1191 2003 1191 1497 
Q 1191 994 1439 701 
Q 1688 409 2113 409 
Q 2538 409 2786 701 
Q 3034 994 3034 1497 
Q 3034 2003 2786 2293 
Q 2538 2584 2113 2584 
z
M 3366 4563 
L 3366 3988 
Q 3128 4100 2886 4159 
Q 2644 4219 2406 4219 
Q 1781 4219 1451 3797 
Q 1122 3375 1075 2522 
Q 1259 2794 1537 2939 
Q 1816 3084 2150 3084 
Q 2853 3084 3261 2657 
Q 3669 2231 3669 1497 
Q 3669 778 3244 343 
Q 2819 -91 2113 -91 
Q 1303 -91 875 529 
Q 447 1150 447 2328 
Q 447 3434 972 4092 
Q 1497 4750 2381 4750 
Q 2619 4750 2861 4703 
Q 3103 4656 3366 4563 
z
" transform="scale(0.015625)"/>
       </defs>
       <use xlink:href="#DejaVuSans-33"/>
       <use xlink:href="#DejaVuSans-36" x="63.623047"/>
       <use xlink:href="#DejaVuSans-30" x="127.246094"/>
      </g>
     </g>
    </g>
    <g id="xtick_5">
     <g id="line2d_9">
      <path d="M 1235.8656 830.4768 
L 1235.8656 111.9744 
" clip-path="url(#p920dfcc52c)" style="fill: none; stroke: #b0b0b0; stroke-width: 0.8; stroke-linecap: square"/>
     </g>
     <g id="line2d_10">
      <g>
       <use xlink:href="#m027ac9fcf0" x="1235.8656" y="830.4768" style="stroke: #000000; stroke-width: 0.8"/>
      </g>
     </g>
     <g id="text_5">
      <!-- 380 -->
      <g transform="translate(1226.32185 845.075238) scale(0.1 -0.1)">
       <defs>
        <path id="DejaVuSans-38" d="M 2034 2216 
Q 1584 2216 1326 1975 
Q 1069 1734 1069 1313 
Q 1069 891 1326 650 
Q 1584 409 2034 409 
Q 2484 409 2743 651 
Q 3003 894 3003 1313 
Q 3003 1734 2745 1975 
Q 2488 2216 2034 2216 
z
M 1403 2484 
Q 997 2584 770 2862 
Q 544 3141 544 3541 
Q 544 4100 942 4425 
Q 1341 4750 2034 4750 
Q 2731 4750 3128 4425 
Q 3525 4100 3525 3541 
Q 3525 3141 3298 2862 
Q 3072 2584 2669 2484 
Q 3125 2378 3379 2068 
Q 3634 1759 3634 1313 
Q 3634 634 3220 271 
Q 2806 -91 2034 -91 
Q 1263 -91 848 271 
Q 434 634 434 1313 
Q 434 1759 690 2068 
Q 947 2378 1403 2484 
z
M 1172 3481 
Q 1172 3119 1398 2916 
Q 1625 2713 2034 2713 
Q 2441 2713 2670 2916 
Q 2900 3119 2900 3481 
Q 2900 3844 2670 4047 
Q 2441 4250 2034 4250 
Q 1625 4250 1398 4047 
Q 1172 3844 1172 3481 
z
" transform="scale(0.015625)"/>
       </defs>
       <use xlink:href="#DejaVuSans-33"/>
       <use xlink:href="#DejaVuSans-38" x="63.623047"/>
       <use xlink:href="#DejaVuSans-30" x="127.246094"/>
      </g>
     </g>
    </g>
    <g id="xtick_6">
     <g id="line2d_11">
      <path d="M 1492.992 830.4768 
L 1492.992 111.9744 
" clip-path="url(#p920dfcc52c)" style="fill: none; stroke: #b0b0b0; stroke-width: 0.8; stroke-linecap: square"/>
     </g>
     <g id="line2d_12">
      <g>
       <use xlink:href="#m027ac9fcf0" x="1492.992" y="830.4768" style="stroke: #000000; stroke-width: 0.8"/>
      </g>
     </g>
     <g id="text_6">
      <!-- 400 -->
      <g transform="translate(1483.44825 845.075238) scale(0.1 -0.1)">
       <use xlink:href="#DejaVuSans-34"/>
       <use xlink:href="#DejaVuSans-30" x="63.623047"/>
       <use xlink:href="#DejaVuSans-30" x="127.246094"/>
      </g>
     </g>
    </g>
    <g id="text_7">
     <!-- Frequency (GHz) -->
     <g transform="translate(808.597094 858.753363) scale(0.1 -0.1)">
      <defs>
       <path id="DejaVuSans-46" d="M 628 4666 
L 3309 4666 
L 3309 4134 
L 1259 4134 
L 1259 2759 
L 3109 2759 
L 3109 2228 
L 1259 2228 
L 1259 0 
L 628 0 
L 628 4666 
z
" transform="scale(0.015625)"/>
       <path id="DejaVuSans-72" d="M 2631 2963 
Q 2534 3019 2420 3045 
Q 2306 3072 2169 3072 
Q 1681 3072 1420 2755 
Q 1159 2438 1159 1844 
L 1159 0 
L 581 0 
L 581 3500 
L 1159 3500 
L 1159 2956 
Q 1341 3275 1631 3429 
Q 1922 3584 2338 3584 
Q 2397 3584 2469 3576 
Q 2541 3569 2628 3553 
L 2631 2963 
z
" transform="scale(0.015625)"/>
       <path id="DejaVuSans-65" d="M 3597 1894 
L 3597 1613 
L 953 1613 
Q 991 1019 1311 708 
Q 1631 397 2203 397 
Q 2534 397 2845 478 
Q 3156 559 3463 722 
L 3463 178 
Q 3153 47 2828 -22 
Q 2503 -91 2169 -91 
Q 1331 -91 842 396 
Q 353 884 353 1716 
Q 353 2575 817 3079 
Q 1281 3584 2069 3584 
Q 2775 3584 3186 3129 
Q 3597 2675 3597 1894 
z
M 3022 2063 
Q 3016 2534 2758 2815 
Q 2500 3097 2075 3097 
Q 1594 3097 1305 2825 
Q 1016 2553 972 2059 
L 3022 2063 
z
" transform="scale(0.015625)"/>
       <path id="DejaVuSans-71" d="M 947 1747 
Q 947 1113 1208 752 
Q 1469 391 1925 391 
Q 2381 391 2643 752 
Q 2906 1113 2906 1747 
Q 2906 2381 2643 2742 
Q 2381 3103 1925 3103 
Q 1469 3103 1208 2742 
Q 947 2381 947 1747 
z
M 2906 525 
Q 2725 213 2448 61 
Q 2172 -91 1784 -91 
Q 1150 -91 751 415 
Q 353 922 353 1747 
Q 353 2572 751 3078 
Q 1150 3584 1784 3584 
Q 2172 3584 2448 3432 
Q 2725 3281 2906 2969 
L 2906 3500 
L 3481 3500 
L 3481 -1331 
L 2906 -1331 
L 2906 525 
z
" transform="scale(0.015625)"/>
       <path id="DejaVuSans-75" d="M 544 1381 
L 544 3500 
L 1119 3500 
L 1119 1403 
Q 1119 906 1312 657 
Q 1506 409 1894 409 
Q 2359 409 2629 706 
Q 2900 1003 2900 1516 
L 2900 3500 
L 3475 3500 
L 3475 0 
L 2900 0 
L 2900 538 
Q 2691 219 2414 64 
Q 2138 -91 1772 -91 
Q 1169 -91 856 284 
Q 544 659 544 1381 
z
M 1991 3584 
L 1991 3584 
z
" transform="scale(0.015625)"/>
       <path id="DejaVuSans-6e" d="M 3513 2113 
L 3513 0 
L 2938 0 
L 2938 2094 
Q 2938 2591 2744 2837 
Q 2550 3084 2163 3084 
Q 1697 3084 1428 2787 
Q 1159 2491 1159 1978 
L 1159 0 
L 581 0 
L 581 3500 
L 1159 3500 
L 1159 2956 
Q 1366 3272 1645 3428 
Q 1925 3584 2291 3584 
Q 2894 3584 3203 3211 
Q 3513 2838 3513 2113 
z
" transform="scale(0.015625)"/>
       <path id="DejaVuSans-63" d="M 3122 3366 
L 3122 2828 
Q 2878 2963 2633 3030 
Q 2388 3097 2138 3097 
Q 1578 3097 1268 2742 
Q 959 2388 959 1747 
Q 959 1106 1268 751 
Q 1578 397 2138 397 
Q 2388 397 2633 464 
Q 2878 531 3122 666 
L 3122 134 
Q 2881 22 2623 -34 
Q 2366 -91 2075 -91 
Q 1284 -91 818 406 
Q 353 903 353 1747 
Q 353 2603 823 3093 
Q 1294 3584 2113 3584 
Q 2378 3584 2631 3529 
Q 2884 3475 3122 3366 
z
" transform="scale(0.015625)"/>
       <path id="DejaVuSans-79" d="M 2059 -325 
Q 1816 -950 1584 -1140 
Q 1353 -1331 966 -1331 
L 506 -1331 
L 506 -850 
L 844 -850 
Q 1081 -850 1212 -737 
Q 1344 -625 1503 -206 
L 1606 56 
L 191 3500 
L 800 3500 
L 1894 763 
L 2988 3500 
L 3597 3500 
L 2059 -325 
z
" transform="scale(0.015625)"/>
       <path id="DejaVuSans-20" transform="scale(0.015625)"/>
       <path id="DejaVuSans-28" d="M 1984 4856 
Q 1566 4138 1362 3434 
Q 1159 2731 1159 2009 
Q 1159 1288 1364 580 
Q 1569 -128 1984 -844 
L 1484 -844 
Q 1016 -109 783 600 
Q 550 1309 550 2009 
Q 550 2706 781 3412 
Q 1013 4119 1484 4856 
L 1984 4856 
z
" transform="scale(0.015625)"/>
       <path id="DejaVuSans-47" d="M 3809 666 
L 3809 1919 
L 2778 1919 
L 2778 2438 
L 4434 2438 
L 4434 434 
Q 4069 175 3628 42 
Q 3188 -91 2688 -91 
Q 1594 -91 976 548 
Q 359 1188 359 2328 
Q 359 3472 976 4111 
Q 1594 4750 2688 4750 
Q 3144 4750 3555 4637 
Q 3966 4525 4313 4306 
L 4313 3634 
Q 3963 3931 3569 4081 
Q 3175 4231 2741 4231 
Q 1884 4231 1454 3753 
Q 1025 3275 1025 2328 
Q 1025 1384 1454 906 
Q 1884 428 2741 428 
Q 3075 428 3337 486 
Q 3600 544 3809 666 
z
" transform="scale(0.015625)"/>
       <path id="DejaVuSans-48" d="M 628 4666 
L 1259 4666 
L 1259 2753 
L 3553 2753 
L 3553 4666 
L 4184 4666 
L 4184 0 
L 3553 0 
L 3553 2222 
L 1259 2222 
L 1259 0 
L 628 0 
L 628 4666 
z
" transform="scale(0.015625)"/>
       <path id="DejaVuSans-7a" d="M 353 3500 
L 3084 3500 
L 3084 2975 
L 922 459 
L 3084 459 
L 3084 0 
L 275 0 
L 275 525 
L 2438 3041 
L 353 3041 
L 353 3500 
z
" transform="scale(0.015625)"/>
       <path id="DejaVuSans-29" d="M 513 4856 
L 1013 4856 
Q 1481 4119 1714 3412 
Q 1947 2706 1947 2009 
Q 1947 1309 1714 600 
Q 1481 -109 1013 -844 
L 513 -844 
Q 928 -128 1133 580 
Q 1338 1288 1338 2009 
Q 1338 2731 1133 3434 
Q 928 4138 513 4856 
z
" transform="scale(0.015625)"/>
      </defs>
      <use xlink:href="#DejaVuSans-46"/>
      <use xlink:href="#DejaVuSans-72" x="50.269531"/>
      <use xlink:href="#DejaVuSans-65" x="89.132812"/>
      <use xlink:href="#DejaVuSans-71" x="150.65625"/>
      <use xlink:href="#DejaVuSans-75" x="214.132812"/>
      <use xlink:href="#DejaVuSans-65" x="277.511719"/>
      <use xlink:href="#DejaVuSans-6e" x="339.035156"/>
      <use xlink:href="#DejaVuSans-63" x="402.414062"/>
      <use xlink:href="#DejaVuSans-79" x="457.394531"/>
      <use xlink:href="#DejaVuSans-20" x="516.574219"/>
      <use xlink:href="#DejaVuSans-28" x="548.361328"/>
      <use xlink:href="#DejaVuSans-47" x="587.375"/>
      <use xlink:href="#DejaVuSans-48" x="664.865234"/>
      <use xlink:href="#DejaVuSans-7a" x="740.060547"/>
      <use xlink:href="#DejaVuSans-29" x="792.550781"/>
     </g>
    </g>
   </g>
   <g id="matplotlib.axis_2">
    <g id="ytick_1">
     <g id="line2d_13">
      <path d="M 207.36 806.595313 
L 1492.992 806.595313 
" clip-path="url(#p920dfcc52c)" style="fill: none; stroke: #b0b0b0; stroke-width: 0.8; stroke-linecap: square"/>
     </g>
     <g id="line2d_14">
      <defs>
       <path id="m92f03adf29" d="M 0 0 
L -3.5 0 
" style="stroke: #000000; stroke-width: 0.8"/>
      </defs>
      <g>
       <use xlink:href="#m92f03adf29" x="207.36" y="806.595313" style="stroke: #000000; stroke-width: 0.8"/>
      </g>
     </g>
     <g id="text_8">
      <!-- 0 -->
      <g transform="translate(193.9975 810.394532) scale(0.1 -0.1)">
       <use xlink:href="#DejaVuSans-30"/>
      </g>
     </g>
    </g>
    <g id="ytick_2">
     <g id="line2d_15">
      <path d="M 207.36 684.003545 
L 1492.992 684.003545 
" clip-path="url(#p920dfcc52c)" style="fill: none; stroke: #b0b0b0; stroke-width: 0.8; stroke-linecap: square"/>
     </g>
     <g id="line2d_16">
      <g>
       <use xlink:href="#m92f03adf29" x="207.36" y="684.003545" style="stroke: #000000; stroke-width: 0.8"/>
      </g>
     </g>
     <g id="text_9">
      <!-- 50 -->
      <g transform="translate(187.635 687.802763) scale(0.1 -0.1)">
       <defs>
        <path id="DejaVuSans-35" d="M 691 4666 
L 3169 4666 
L 3169 4134 
L 1269 4134 
L 1269 2991 
Q 1406 3038 1543 3061 
Q 1681 3084 1819 3084 
Q 2600 3084 3056 2656 
Q 3513 2228 3513 1497 
Q 3513 744 3044 326 
Q 2575 -91 1722 -91 
Q 1428 -91 1123 -41 
Q 819 9 494 109 
L 494 744 
Q 775 591 1075 516 
Q 1375 441 1709 441 
Q 2250 441 2565 725 
Q 2881 1009 2881 1497 
Q 2881 1984 2565 2268 
Q 2250 2553 1709 2553 
Q 1456 2553 1204 2497 
Q 953 2441 691 2322 
L 691 4666 
z
" transform="scale(0.015625)"/>
       </defs>
       <use xlink:href="#DejaVuSans-35"/>
       <use xlink:href="#DejaVuSans-30" x="63.623047"/>
      </g>
     </g>
    </g>
    <g id="ytick_3">
     <g id="line2d_17">
      <path d="M 207.36 561.411776 
L 1492.992 561.411776 
" clip-path="url(#p920dfcc52c)" style="fill: none; stroke: #b0b0b0; stroke-width: 0.8; stroke-linecap: square"/>
     </g>
     <g id="line2d_18">
      <g>
       <use xlink:href="#m92f03adf29" x="207.36" y="561.411776" style="stroke: #000000; stroke-width: 0.8"/>
      </g>
     </g>
     <g id="text_10">
      <!-- 100 -->
      <g transform="translate(181.2725 565.210995) scale(0.1 -0.1)">
       <defs>
        <path id="DejaVuSans-31" d="M 794 531 
L 1825 531 
L 1825 4091 
L 703 3866 
L 703 4441 
L 1819 4666 
L 2450 4666 
L 2450 531 
L 3481 531 
L 3481 0 
L 794 0 
L 794 531 
z
" transform="scale(0.015625)"/>
       </defs>
       <use xlink:href="#DejaVuSans-31"/>
       <use xlink:href="#DejaVuSans-30" x="63.623047"/>
       <use xlink:href="#DejaVuSans-30" x="127.246094"/>
      </g>
     </g>
    </g>
    <g id="ytick_4">
     <g id="line2d_19">
      <path d="M 207.36 438.820008 
L 1492.992 438.820008 
" clip-path="url(#p920dfcc52c)" style="fill: none; stroke: #b0b0b0; stroke-width: 0.8; stroke-linecap: square"/>
     </g>
     <g id="line2d_20">
      <g>
       <use xlink:href="#m92f03adf29" x="207.36" y="438.820008" style="stroke: #000000; stroke-width: 0.8"/>
      </g>
     </g>
     <g id="text_11">
      <!-- 150 -->
      <g transform="translate(181.2725 442.619227) scale(0.1 -0.1)">
       <use xlink:href="#DejaVuSans-31"/>
       <use xlink:href="#DejaVuSans-35" x="63.623047"/>
       <use xlink:href="#DejaVuSans-30" x="127.246094"/>
      </g>
     </g>
    </g>
    <g id="ytick_5">
     <g id="line2d_21">
      <path d="M 207.36 316.22824 
L 1492.992 316.22824 
" clip-path="url(#p920dfcc52c)" style="fill: none; stroke: #b0b0b0; stroke-width: 0.8; stroke-linecap: square"/>
     </g>
     <g id="line2d_22">
      <g>
       <use xlink:href="#m92f03adf29" x="207.36" y="316.22824" style="stroke: #000000; stroke-width: 0.8"/>
      </g>
     </g>
     <g id="text_12">
      <!-- 200 -->
      <g transform="translate(181.2725 320.027459) scale(0.1 -0.1)">
       <use xlink:href="#DejaVuSans-32"/>
       <use xlink:href="#DejaVuSans-30" x="63.623047"/>
       <use xlink:href="#DejaVuSans-30" x="127.246094"/>
      </g>
     </g>
    </g>
    <g id="ytick_6">
     <g id="line2d_23">
      <path d="M 207.36 193.636472 
L 1492.992 193.636472 
" clip-path="url(#p920dfcc52c)" style="fill: none; stroke: #b0b0b0; stroke-width: 0.8; stroke-linecap: square"/>
     </g>
     <g id="line2d_24">
      <g>
       <use xlink:href="#m92f03adf29" x="207.36" y="193.636472" style="stroke: #000000; stroke-width: 0.8"/>
      </g>
     </g>
     <g id="text_13">
      <!-- 250 -->
      <g transform="translate(181.2725 197.435691) scale(0.1 -0.1)">
       <use xlink:href="#DejaVuSans-32"/>
       <use xlink:href="#DejaVuSans-35" x="63.623047"/>
       <use xlink:href="#DejaVuSans-30" x="127.246094"/>
      </g>
     </g>
    </g>
    <g id="text_14">
     <!-- Brightness Temperature (K) -->
     <g transform="translate(175.192812 539.886538) rotate(-90) scale(0.1 -0.1)">
      <defs>
       <path id="DejaVuSans-42" d="M 1259 2228 
L 1259 519 
L 2272 519 
Q 2781 519 3026 730 
Q 3272 941 3272 1375 
Q 3272 1813 3026 2020 
Q 2781 2228 2272 2228 
L 1259 2228 
z
M 1259 4147 
L 1259 2741 
L 2194 2741 
Q 2656 2741 2882 2914 
Q 3109 3088 3109 3444 
Q 3109 3797 2882 3972 
Q 2656 4147 2194 4147 
L 1259 4147 
z
M 628 4666 
L 2241 4666 
Q 2963 4666 3353 4366 
Q 3744 4066 3744 3513 
Q 3744 3084 3544 2831 
Q 3344 2578 2956 2516 
Q 3422 2416 3680 2098 
Q 3938 1781 3938 1306 
Q 3938 681 3513 340 
Q 3088 0 2303 0 
L 628 0 
L 628 4666 
z
" transform="scale(0.015625)"/>
       <path id="DejaVuSans-69" d="M 603 3500 
L 1178 3500 
L 1178 0 
L 603 0 
L 603 3500 
z
M 603 4863 
L 1178 4863 
L 1178 4134 
L 603 4134 
L 603 4863 
z
" transform="scale(0.015625)"/>
       <path id="DejaVuSans-67" d="M 2906 1791 
Q 2906 2416 2648 2759 
Q 2391 3103 1925 3103 
Q 1463 3103 1205 2759 
Q 947 2416 947 1791 
Q 947 1169 1205 825 
Q 1463 481 1925 481 
Q 2391 481 2648 825 
Q 2906 1169 2906 1791 
z
M 3481 434 
Q 3481 -459 3084 -895 
Q 2688 -1331 1869 -1331 
Q 1566 -1331 1297 -1286 
Q 1028 -1241 775 -1147 
L 775 -588 
Q 1028 -725 1275 -790 
Q 1522 -856 1778 -856 
Q 2344 -856 2625 -561 
Q 2906 -266 2906 331 
L 2906 616 
Q 2728 306 2450 153 
Q 2172 0 1784 0 
Q 1141 0 747 490 
Q 353 981 353 1791 
Q 353 2603 747 3093 
Q 1141 3584 1784 3584 
Q 2172 3584 2450 3431 
Q 2728 3278 2906 2969 
L 2906 3500 
L 3481 3500 
L 3481 434 
z
" transform="scale(0.015625)"/>
       <path id="DejaVuSans-68" d="M 3513 2113 
L 3513 0 
L 2938 0 
L 2938 2094 
Q 2938 2591 2744 2837 
Q 2550 3084 2163 3084 
Q 1697 3084 1428 2787 
Q 1159 2491 1159 1978 
L 1159 0 
L 581 0 
L 581 4863 
L 1159 4863 
L 1159 2956 
Q 1366 3272 1645 3428 
Q 1925 3584 2291 3584 
Q 2894 3584 3203 3211 
Q 3513 2838 3513 2113 
z
" transform="scale(0.015625)"/>
       <path id="DejaVuSans-74" d="M 1172 4494 
L 1172 3500 
L 2356 3500 
L 2356 3053 
L 1172 3053 
L 1172 1153 
Q 1172 725 1289 603 
Q 1406 481 1766 481 
L 2356 481 
L 2356 0 
L 1766 0 
Q 1100 0 847 248 
Q 594 497 594 1153 
L 594 3053 
L 172 3053 
L 172 3500 
L 594 3500 
L 594 4494 
L 1172 4494 
z
" transform="scale(0.015625)"/>
       <path id="DejaVuSans-73" d="M 2834 3397 
L 2834 2853 
Q 2591 2978 2328 3040 
Q 2066 3103 1784 3103 
Q 1356 3103 1142 2972 
Q 928 2841 928 2578 
Q 928 2378 1081 2264 
Q 1234 2150 1697 2047 
L 1894 2003 
Q 2506 1872 2764 1633 
Q 3022 1394 3022 966 
Q 3022 478 2636 193 
Q 2250 -91 1575 -91 
Q 1294 -91 989 -36 
Q 684 19 347 128 
L 347 722 
Q 666 556 975 473 
Q 1284 391 1588 391 
Q 1994 391 2212 530 
Q 2431 669 2431 922 
Q 2431 1156 2273 1281 
Q 2116 1406 1581 1522 
L 1381 1569 
Q 847 1681 609 1914 
Q 372 2147 372 2553 
Q 372 3047 722 3315 
Q 1072 3584 1716 3584 
Q 2034 3584 2315 3537 
Q 2597 3491 2834 3397 
z
" transform="scale(0.015625)"/>
       <path id="DejaVuSans-54" d="M -19 4666 
L 3928 4666 
L 3928 4134 
L 2272 4134 
L 2272 0 
L 1638 0 
L 1638 4134 
L -19 4134 
L -19 4666 
z
" transform="scale(0.015625)"/>
       <path id="DejaVuSans-6d" d="M 3328 2828 
Q 3544 3216 3844 3400 
Q 4144 3584 4550 3584 
Q 5097 3584 5394 3201 
Q 5691 2819 5691 2113 
L 5691 0 
L 5113 0 
L 5113 2094 
Q 5113 2597 4934 2840 
Q 4756 3084 4391 3084 
Q 3944 3084 3684 2787 
Q 3425 2491 3425 1978 
L 3425 0 
L 2847 0 
L 2847 2094 
Q 2847 2600 2669 2842 
Q 2491 3084 2119 3084 
Q 1678 3084 1418 2786 
Q 1159 2488 1159 1978 
L 1159 0 
L 581 0 
L 581 3500 
L 1159 3500 
L 1159 2956 
Q 1356 3278 1631 3431 
Q 1906 3584 2284 3584 
Q 2666 3584 2933 3390 
Q 3200 3197 3328 2828 
z
" transform="scale(0.015625)"/>
       <path id="DejaVuSans-70" d="M 1159 525 
L 1159 -1331 
L 581 -1331 
L 581 3500 
L 1159 3500 
L 1159 2969 
Q 1341 3281 1617 3432 
Q 1894 3584 2278 3584 
Q 2916 3584 3314 3078 
Q 3713 2572 3713 1747 
Q 3713 922 3314 415 
Q 2916 -91 2278 -91 
Q 1894 -91 1617 61 
Q 1341 213 1159 525 
z
M 3116 1747 
Q 3116 2381 2855 2742 
Q 2594 3103 2138 3103 
Q 1681 3103 1420 2742 
Q 1159 2381 1159 1747 
Q 1159 1113 1420 752 
Q 1681 391 2138 391 
Q 2594 391 2855 752 
Q 3116 1113 3116 1747 
z
" transform="scale(0.015625)"/>
       <path id="DejaVuSans-61" d="M 2194 1759 
Q 1497 1759 1228 1600 
Q 959 1441 959 1056 
Q 959 750 1161 570 
Q 1363 391 1709 391 
Q 2188 391 2477 730 
Q 2766 1069 2766 1631 
L 2766 1759 
L 2194 1759 
z
M 3341 1997 
L 3341 0 
L 2766 0 
L 2766 531 
Q 2569 213 2275 61 
Q 1981 -91 1556 -91 
Q 1019 -91 701 211 
Q 384 513 384 1019 
Q 384 1609 779 1909 
Q 1175 2209 1959 2209 
L 2766 2209 
L 2766 2266 
Q 2766 2663 2505 2880 
Q 2244 3097 1772 3097 
Q 1472 3097 1187 3025 
Q 903 2953 641 2809 
L 641 3341 
Q 956 3463 1253 3523 
Q 1550 3584 1831 3584 
Q 2591 3584 2966 3190 
Q 3341 2797 3341 1997 
z
" transform="scale(0.015625)"/>
       <path id="DejaVuSans-4b" d="M 628 4666 
L 1259 4666 
L 1259 2694 
L 3353 4666 
L 4166 4666 
L 1850 2491 
L 4331 0 
L 3500 0 
L 1259 2247 
L 1259 0 
L 628 0 
L 628 4666 
z
" transform="scale(0.015625)"/>
      </defs>
      <use xlink:href="#DejaVuSans-42"/>
      <use xlink:href="#DejaVuSans-72" x="68.603516"/>
      <use xlink:href="#DejaVuSans-69" x="109.716797"/>
      <use xlink:href="#DejaVuSans-67" x="137.5"/>
      <use xlink:href="#DejaVuSans-68" x="200.976562"/>
      <use xlink:href="#DejaVuSans-74" x="264.355469"/>
      <use xlink:href="#DejaVuSans-6e" x="303.564453"/>
      <use xlink:href="#DejaVuSans-65" x="366.943359"/>
      <use xlink:href="#DejaVuSans-73" x="428.466797"/>
      <use xlink:href="#DejaVuSans-73" x="480.566406"/>
      <use xlink:href="#DejaVuSans-20" x="532.666016"/>
      <use xlink:href="#DejaVuSans-54" x="564.453125"/>
      <use xlink:href="#DejaVuSans-65" x="608.537109"/>
      <use xlink:href="#DejaVuSans-6d" x="670.060547"/>
      <use xlink:href="#DejaVuSans-70" x="767.472656"/>
      <use xlink:href="#DejaVuSans-65" x="830.949219"/>
      <use xlink:href="#DejaVuSans-72" x="892.472656"/>
      <use xlink:href="#DejaVuSans-61" x="933.585938"/>
      <use xlink:href="#DejaVuSans-74" x="994.865234"/>
      <use xlink:href="#DejaVuSans-75" x="1034.074219"/>
      <use xlink:href="#DejaVuSans-72" x="1097.453125"/>
      <use xlink:href="#DejaVuSans-65" x="1136.316406"/>
      <use xlink:href="#DejaVuSans-20" x="1197.839844"/>
      <use xlink:href="#DejaVuSans-28" x="1229.626953"/>
      <use xlink:href="#DejaVuSans-4b" x="1268.640625"/>
      <use xlink:href="#DejaVuSans-29" x="1334.216797"/>
     </g>
    </g>
   </g>
   <g id="line2d_25">
    <path d="M 200.93184 736.091904 
L 207.36 737.253952 
L 213.78816 734.900607 
L 220.21632 733.622636 
L 226.64448 726.178129 
L 233.07264 724.519658 
L 239.5008 733.978765 
L 245.92896 728.79355 
L 252.35712 733.390619 
L 258.78528 735.057009 
L 265.21344 734.475385 
L 271.6416 733.483299 
L 278.06976 734.514418 
L 284.49792 734.391924 
L 290.92608 734.114009 
L 297.35424 733.700311 
L 303.7824 733.083085 
L 310.21056 732.740907 
L 316.63872 731.972306 
L 323.06688 731.489319 
L 329.49504 730.676756 
L 335.9232 725.436522 
L 342.35136 729.014069 
L 348.77952 728.588283 
L 355.20768 727.946441 
L 361.63584 727.151238 
L 368.064 726.123968 
L 374.49216 724.944439 
L 380.92032 723.599607 
L 387.34848 722.06162 
L 393.77664 721.159908 
L 400.2048 719.508278 
L 406.63296 716.3205 
L 413.06112 705.384236 
L 419.48928 705.469756 
L 425.91744 709.524454 
L 432.3456 707.666257 
L 438.77376 704.525774 
L 445.20192 700.003045 
L 451.63008 694.064651 
L 458.05824 685.645465 
L 464.4864 595.546425 
L 470.91456 661.634568 
L 477.34272 647.241216 
L 483.77088 633.844265 
L 490.19904 614.28085 
L 496.6272 587.220605 
L 503.05536 546.811832 
L 509.48352 491.251772 
L 515.91168 421.592677 
L 522.33984 349.616353 
L 528.768 302.410922 
L 535.19616 318.417484 
L 541.62432 380.13729 
L 548.05248 447.918769 
L 554.48064 499.535298 
L 560.9088 563.275564 
L 567.33696 598.667415 
L 573.76512 626.570454 
L 580.19328 645.852864 
L 586.62144 660.040801 
L 593.0496 670.726562 
L 599.47776 678.889433 
L 605.90592 685.145217 
L 612.33408 689.933505 
L 618.76224 693.176179 
L 625.1904 689.910629 
L 631.61856 690.315304 
L 638.04672 700.962228 
L 644.47488 703.228263 
L 650.90304 704.757546 
L 657.3312 705.162859 
L 663.75936 705.798498 
L 670.18752 707.550726 
L 676.61568 708.539527 
L 683.04384 709.22891 
L 695.90016 710.143199 
L 708.75648 710.567244 
L 721.6128 710.719969 
L 734.46912 710.601104 
L 740.89728 710.4613 
L 747.32544 710.178236 
L 753.7536 709.775791 
L 760.18176 707.807237 
L 766.60992 700.344047 
L 773.03808 708.646721 
L 779.46624 708.108298 
L 785.8944 705.036443 
L 792.32256 706.879071 
L 798.75072 706.739414 
L 805.17888 706.927764 
L 811.60704 706.640728 
L 818.0352 706.220336 
L 830.89152 705.089353 
L 850.176 702.509017 
L 856.60416 701.325761 
L 863.03232 699.224171 
L 869.46048 694.322952 
L 875.88864 691.943887 
L 882.3168 682.226528 
L 888.74496 691.963281 
L 895.17312 696.062872 
L 901.60128 695.883275 
L 908.02944 694.537537 
L 914.4576 661.279934 
L 920.88576 692.334538 
L 927.31392 691.467643 
L 940.17024 688.701212 
L 946.5984 678.722659 
L 953.02656 680.860929 
L 959.45472 678.01479 
L 965.88288 663.827244 
L 972.31104 673.709735 
L 978.7392 677.334847 
L 985.16736 677.002206 
L 991.59552 674.865407 
L 998.02368 670.817746 
L 1004.45184 669.115412 
L 1010.88 666.259367 
L 1017.30816 662.124886 
L 1023.73632 637.844581 
L 1030.16448 650.490143 
L 1036.59264 589.097264 
L 1043.0208 639.464582 
L 1049.44896 632.086666 
L 1055.87712 619.971854 
L 1062.30528 599.864842 
L 1068.73344 568.982603 
L 1075.1616 515.184627 
L 1081.58976 400.624827 
L 1088.01792 225.295551 
L 1094.44608 392.707605 
L 1100.87424 494.204762 
L 1107.3024 534.525931 
L 1113.73056 547.807523 
L 1120.15872 516.480422 
L 1126.58688 542.678283 
L 1133.01504 532.557597 
L 1139.4432 518.199894 
L 1145.87136 499.662548 
L 1152.29952 478.595398 
L 1158.72768 453.175014 
L 1165.15584 423.415617 
L 1171.584 386.390451 
L 1178.01216 350.879049 
L 1184.44032 309.414099 
L 1190.86848 266.902461 
L 1197.29664 225.627529 
L 1203.7248 190.407895 
L 1210.15296 165.395251 
L 1216.58112 152.624867 
L 1223.00928 148.281195 
L 1229.43744 147.060427 
L 1235.8656 146.681128 
L 1242.29376 146.759832 
L 1248.72192 147.33822 
L 1255.15008 149.158707 
L 1261.57824 155.458698 
L 1268.0064 171.379201 
L 1274.43456 198.895659 
L 1280.86272 235.224749 
L 1293.71904 316.372408 
L 1300.1472 354.714945 
L 1306.57536 389.50747 
L 1313.00352 420.626409 
L 1319.43168 448.061221 
L 1325.85984 468.544344 
L 1332.288 490.528971 
L 1338.71616 511.067996 
L 1345.14432 526.662895 
L 1351.57248 539.305784 
L 1358.00064 549.457363 
L 1364.4288 557.266458 
L 1370.85696 564.500206 
L 1383.71328 584.033317 
L 1390.14144 592.56438 
L 1396.5696 591.415621 
L 1402.99776 604.538482 
L 1409.42592 612.141255 
L 1415.85408 617.123238 
L 1422.28224 621.251172 
L 1428.7104 621.479953 
L 1435.13856 627.860291 
L 1441.56672 630.398357 
L 1447.99488 608.605562 
L 1454.42304 622.623734 
L 1460.8512 637.197934 
L 1467.27936 639.170288 
L 1473.70752 640.646637 
L 1480.13568 641.619893 
L 1486.56384 641.524541 
L 1492.992 626.399315 
L 1499.42016 640.30235 
L 1499.42016 640.30235 
" clip-path="url(#p920dfcc52c)" style="fill: none; stroke: #0343df; stroke-width: 1.5; stroke-linecap: square"/>
   </g>
   <g id="line2d_26">
    <path d="M 200.93184 738.639459 
L 207.36 739.865058 
L 213.78816 737.55614 
L 220.21632 736.331914 
L 226.64448 728.906114 
L 233.07264 727.304575 
L 239.5008 736.895591 
L 245.92896 731.752278 
L 252.35712 736.463161 
L 258.78528 738.232013 
L 265.21344 737.74503 
L 271.6416 736.848148 
L 278.06976 737.981117 
L 284.49792 737.954637 
L 290.92608 737.782714 
L 297.35424 737.485944 
L 303.7824 736.996558 
L 310.21056 736.799259 
L 316.63872 736.189169 
L 323.06688 735.890265 
L 329.49504 735.287727 
L 335.9232 730.240428 
L 342.35136 734.115161 
L 348.77952 733.884296 
L 361.63584 732.900105 
L 374.49216 731.393109 
L 380.92032 730.488651 
L 387.34848 729.342688 
L 393.77664 728.805736 
L 400.2048 727.587762 
L 406.63296 724.920975 
L 413.06112 714.482212 
L 419.48928 715.416655 
L 425.91744 720.583653 
L 432.3456 719.872106 
L 438.77376 718.087121 
L 445.20192 715.248288 
L 451.63008 711.460227 
L 458.05824 705.83503 
L 464.4864 615.683103 
L 470.91456 690.590842 
L 477.34272 681.612858 
L 483.77088 672.933876 
L 490.19904 659.564949 
L 496.6272 641.917717 
L 503.05536 613.983859 
L 509.48352 573.629248 
L 515.91168 519.151207 
L 522.33984 456.421244 
L 528.768 409.857703 
L 535.19616 426.056979 
L 541.62432 483.130067 
L 548.05248 536.761269 
L 554.48064 570.774747 
L 560.9088 623.644262 
L 567.33696 647.647975 
L 573.76512 666.988322 
L 580.19328 679.601005 
L 586.62144 688.677503 
L 593.0496 695.416397 
L 599.47776 700.495276 
L 605.90592 704.309841 
L 612.33408 707.142667 
L 618.76224 708.789835 
L 625.1904 704.055365 
L 631.61856 703.370837 
L 638.04672 713.399236 
L 644.47488 714.985231 
L 650.90304 715.96469 
L 657.3312 715.916634 
L 663.75936 716.153334 
L 670.18752 717.504173 
L 676.61568 718.11441 
L 683.04384 718.477159 
L 702.32832 718.952619 
L 715.18464 719.020976 
L 728.04096 718.857095 
L 740.89728 718.552283 
L 753.7536 717.844536 
L 760.18176 715.858256 
L 766.60992 708.297163 
L 773.03808 716.78397 
L 779.46624 716.290097 
L 785.8944 713.229545 
L 792.32256 715.180985 
L 798.75072 715.126088 
L 805.17888 715.415797 
L 811.60704 715.232081 
L 818.0352 714.923199 
L 830.89152 714.042279 
L 850.176 711.901778 
L 856.60416 710.881422 
L 863.03232 708.935621 
L 869.46048 704.143607 
L 875.88864 701.937347 
L 882.3168 692.249557 
L 888.74496 702.444926 
L 895.17312 706.905967 
L 901.60128 707.009925 
L 908.02944 705.938032 
L 914.4576 672.212815 
L 920.88576 704.352062 
L 927.31392 703.830556 
L 940.17024 701.79492 
L 946.5984 691.977256 
L 953.02656 694.641543 
L 959.45472 692.209813 
L 965.88288 678.120709 
L 972.31104 688.872792 
L 978.7392 693.230537 
L 985.16736 693.550599 
L 991.59552 692.053067 
L 998.02368 688.624715 
L 1004.45184 687.685981 
L 1010.88 685.611998 
L 1017.30816 682.273946 
L 1023.73632 657.967309 
L 1030.16448 672.300052 
L 1036.59264 609.162447 
L 1043.0208 663.302184 
L 1049.44896 656.992778 
L 1055.87712 645.784237 
L 1062.30528 626.188507 
L 1068.73344 595.163252 
L 1075.1616 539.588235 
L 1081.58976 418.425887 
L 1088.01792 230.450044 
L 1094.44608 412.951429 
L 1100.87424 525.963631 
L 1107.3024 573.581094 
L 1113.73056 592.42335 
L 1120.15872 561.938333 
L 1126.58688 597.284408 
L 1133.01504 592.429014 
L 1139.4432 583.604908 
L 1145.87136 570.853083 
L 1152.29952 556.166565 
L 1158.72768 537.274928 
L 1165.15584 513.967536 
L 1171.584 481.629544 
L 1178.01216 451.802722 
L 1184.44032 412.293601 
L 1190.86848 367.724383 
L 1197.29664 317.605926 
L 1203.7248 265.436509 
L 1210.15296 215.608595 
L 1216.58112 177.768929 
L 1223.00928 157.361813 
L 1229.43744 150.160527 
L 1235.8656 148.537412 
L 1242.29376 148.803682 
L 1248.72192 151.592644 
L 1255.15008 162.217918 
L 1261.57824 188.030841 
L 1268.0064 229.482795 
L 1274.43456 279.625771 
L 1280.86272 330.886047 
L 1287.29088 378.531583 
L 1293.71904 420.450613 
L 1300.1472 456.361419 
L 1306.57536 486.645019 
L 1313.00352 512.226978 
L 1319.43168 533.682254 
L 1325.85984 547.395369 
L 1332.288 564.26103 
L 1338.71616 580.37839 
L 1345.14432 591.584479 
L 1351.57248 600.384729 
L 1358.00064 607.384719 
L 1364.4288 612.653002 
L 1370.85696 617.48785 
L 1377.28512 623.970552 
L 1383.71328 630.219667 
L 1390.14144 635.608458 
L 1396.5696 630.994987 
L 1402.99776 642.502431 
L 1409.42592 648.322745 
L 1415.85408 651.58702 
L 1422.28224 654.167258 
L 1428.7104 652.767849 
L 1435.13856 658.123098 
L 1441.56672 659.510715 
L 1447.99488 635.189587 
L 1454.42304 649.027402 
L 1460.8512 663.502866 
L 1467.27936 664.709733 
L 1473.70752 665.470489 
L 1480.13568 665.771819 
L 1486.56384 665.014006 
L 1492.992 648.537648 
L 1499.42016 662.593603 
L 1499.42016 662.593603 
" clip-path="url(#p920dfcc52c)" style="fill: none; stroke-dasharray: 5.55,2.4; stroke-dashoffset: 0; stroke: #15b01a; stroke-width: 1.5"/>
   </g>
   <g id="line2d_27">
    <path d="M 200.93184 741.064275 
L 207.36 742.353549 
L 213.78816 740.089524 
L 220.21632 738.919434 
L 226.64448 731.513494 
L 233.07264 729.969426 
L 239.5008 739.69191 
L 245.92896 734.591381 
L 252.35712 739.41647 
L 258.78528 741.288643 
L 265.21344 740.897305 
L 271.6416 740.096683 
L 278.06976 741.332604 
L 284.49792 741.403291 
L 290.92608 741.338685 
L 297.35424 741.160387 
L 303.7824 740.800679 
L 310.21056 740.750465 
L 316.63872 740.30146 
L 323.06688 740.189804 
L 329.49504 739.801139 
L 335.9232 734.95006 
L 342.35136 739.128527 
L 348.77952 739.096727 
L 361.63584 738.575638 
L 380.92032 737.334691 
L 387.34848 736.592201 
L 393.77664 736.431459 
L 400.2048 735.66119 
L 406.63296 733.532531 
L 413.06112 723.605712 
L 419.48928 725.422963 
L 425.91744 731.754975 
L 432.3456 732.247059 
L 438.77376 731.891175 
L 445.20192 730.837597 
L 451.63008 729.346439 
L 458.05824 726.734475 
L 464.4864 636.620331 
L 470.91456 721.183078 
L 477.34272 718.387839 
L 483.77088 715.230022 
L 496.6272 703.568431 
L 503.05536 692.690741 
L 509.48352 676.157083 
L 515.91168 652.274172 
L 522.33984 621.612793 
L 528.768 595.737545 
L 535.19616 604.502685 
L 541.62432 633.044795 
L 548.05248 652.442466 
L 554.48064 656.664796 
L 560.9088 692.947816 
L 567.33696 702.043781 
L 573.76512 710.876003 
L 580.19328 715.658578 
L 586.62144 718.908584 
L 593.0496 721.241383 
L 599.47776 722.929741 
L 605.90592 724.091175 
L 612.33408 724.817581 
L 618.76224 724.757682 
L 625.1904 718.457544 
L 631.61856 716.620654 
L 638.04672 726.001498 
L 644.47488 726.872783 
L 650.90304 727.275472 
L 657.3312 726.752152 
L 663.75936 726.571526 
L 670.18752 727.503664 
L 676.61568 727.71923 
L 683.04384 727.741762 
L 689.472 727.624295 
L 695.90016 727.661881 
L 740.89728 726.612373 
L 753.7536 725.880598 
L 760.18176 723.875071 
L 766.60992 716.211786 
L 773.03808 724.889321 
L 779.46624 724.441003 
L 785.8944 721.391214 
L 792.32256 723.455169 
L 798.75072 723.487681 
L 805.17888 723.882009 
L 811.60704 723.804948 
L 818.0352 723.611204 
L 830.89152 722.988757 
L 850.176 721.303561 
L 856.60416 720.452014 
L 863.03232 718.667544 
L 869.46048 713.988314 
L 875.88864 711.961554 
L 882.3168 702.305294 
L 888.74496 712.977447 
L 895.17312 717.816487 
L 901.60128 718.216848 
L 908.02944 717.43128 
L 914.4576 683.223052 
L 920.88576 716.491883 
L 927.31392 716.333152 
L 940.17024 715.066631 
L 946.5984 705.417531 
L 953.02656 708.637355 
L 959.45472 706.644209 
L 965.88288 692.662888 
L 972.31104 704.334924 
L 978.7392 709.473259 
L 985.16736 710.490992 
L 991.59552 709.678355 
L 998.02368 706.91526 
L 1004.45184 706.799508 
L 1010.88 705.571311 
L 1017.30816 703.097973 
L 1023.73632 678.783244 
L 1030.16448 694.94128 
L 1036.59264 630.003121 
L 1043.0208 688.183899 
L 1049.44896 683.06866 
L 1055.87712 672.89342 
L 1062.30528 653.925213 
L 1068.73344 622.849573 
L 1075.1616 565.500187 
L 1081.58976 437.40628 
L 1088.01792 235.935781 
L 1094.44608 434.803902 
L 1100.87424 560.544807 
L 1107.3024 616.505964 
L 1113.73056 641.974036 
L 1120.15872 612.960732 
L 1126.58688 659.480704 
L 1133.01504 661.701552 
L 1139.4432 660.692965 
L 1145.87136 656.636379 
L 1152.29952 652.190515 
L 1158.72768 644.892774 
L 1165.15584 634.758995 
L 1171.584 615.558378 
L 1178.01216 603.877467 
L 1184.44032 582.173403 
L 1190.86848 556.305339 
L 1197.29664 522.348645 
L 1203.7248 479.80685 
L 1210.15296 422.174743 
L 1223.00928 284.212664 
L 1229.43744 225.880068 
L 1235.8656 195.34442 
L 1242.29376 201.562275 
L 1248.72192 242.438539 
L 1255.15008 307.044646 
L 1261.57824 377.992425 
L 1268.0064 442.079723 
L 1274.43456 494.220209 
L 1280.86272 534.883408 
L 1287.29088 566.213966 
L 1293.71904 590.244355 
L 1300.1472 608.934672 
L 1306.57536 623.52753 
L 1313.00352 635.101762 
L 1319.43168 644.106299 
L 1325.85984 645.909795 
L 1332.288 654.072642 
L 1338.71616 663.092209 
L 1345.14432 667.773204 
L 1351.57248 671.105321 
L 1358.00064 673.757129 
L 1364.4288 675.60672 
L 1370.85696 677.275095 
L 1377.28512 679.531323 
L 1383.71328 681.306943 
L 1390.14144 682.807441 
L 1396.5696 674.053139 
L 1402.99776 683.57467 
L 1409.42592 687.270909 
L 1415.85408 688.519139 
L 1422.28224 689.29973 
L 1428.7104 686.033248 
L 1435.13856 690.20453 
L 1441.56672 690.282205 
L 1447.99488 663.169539 
L 1454.42304 676.76889 
L 1460.8512 691.10661 
L 1467.27936 691.456805 
L 1473.70752 691.419979 
L 1480.13568 690.975167 
L 1486.56384 689.485039 
L 1492.992 671.543489 
L 1499.42016 685.746505 
L 1499.42016 685.746505 
" clip-path="url(#p920dfcc52c)" style="fill: none; stroke: #00035b; stroke-width: 1.5; stroke-linecap: square"/>
   </g>
   <g id="patch_3">
    <path d="M 207.36 830.4768 
L 207.36 111.9744 
" style="fill: none; stroke: #000000; stroke-width: 0.8; stroke-linejoin: miter; stroke-linecap: square"/>
   </g>
   <g id="patch_4">
    <path d="M 1492.992 830.4768 
L 1492.992 111.9744 
" style="fill: none; stroke: #000000; stroke-width: 0.8; stroke-linejoin: miter; stroke-linecap: square"/>
   </g>
   <g id="patch_5">
    <path d="M 207.36 830.4768 
L 1492.992 830.4768 
" style="fill: none; stroke: #000000; stroke-width: 0.8; stroke-linejoin: miter; stroke-linecap: square"/>
   </g>
   <g id="patch_6">
    <path d="M 207.36 111.9744 
L 1492.992 111.9744 
" style="fill: none; stroke: #000000; stroke-width: 0.8; stroke-linejoin: miter; stroke-linecap: square"/>
   </g>
   <g id="text_15">
    <!-- ACT Data -->
    <g transform="translate(822.089438 105.9744) scale(0.12 -0.12)">
     <defs>
      <path id="DejaVuSans-41" d="M 2188 4044 
L 1331 1722 
L 3047 1722 
L 2188 4044 
z
M 1831 4666 
L 2547 4666 
L 4325 0 
L 3669 0 
L 3244 1197 
L 1141 1197 
L 716 0 
L 50 0 
L 1831 4666 
z
" transform="scale(0.015625)"/>
      <path id="DejaVuSans-43" d="M 4122 4306 
L 4122 3641 
Q 3803 3938 3442 4084 
Q 3081 4231 2675 4231 
Q 1875 4231 1450 3742 
Q 1025 3253 1025 2328 
Q 1025 1406 1450 917 
Q 1875 428 2675 428 
Q 3081 428 3442 575 
Q 3803 722 4122 1019 
L 4122 359 
Q 3791 134 3420 21 
Q 3050 -91 2638 -91 
Q 1578 -91 968 557 
Q 359 1206 359 2328 
Q 359 3453 968 4101 
Q 1578 4750 2638 4750 
Q 3056 4750 3426 4639 
Q 3797 4528 4122 4306 
z
" transform="scale(0.015625)"/>
      <path id="DejaVuSans-44" d="M 1259 4147 
L 1259 519 
L 2022 519 
Q 2988 519 3436 956 
Q 3884 1394 3884 2338 
Q 3884 3275 3436 3711 
Q 2988 4147 2022 4147 
L 1259 4147 
z
M 628 4666 
L 1925 4666 
Q 3281 4666 3915 4102 
Q 4550 3538 4550 2338 
Q 4550 1131 3912 565 
Q 3275 0 1925 0 
L 628 0 
L 628 4666 
z
" transform="scale(0.015625)"/>
     </defs>
     <use xlink:href="#DejaVuSans-41"/>
     <use xlink:href="#DejaVuSans-43" x="66.658203"/>
     <use xlink:href="#DejaVuSans-54" x="136.482422"/>
     <use xlink:href="#DejaVuSans-20" x="197.566406"/>
     <use xlink:href="#DejaVuSans-44" x="229.353516"/>
     <use xlink:href="#DejaVuSans-61" x="306.355469"/>
     <use xlink:href="#DejaVuSans-74" x="367.634766"/>
     <use xlink:href="#DejaVuSans-61" x="406.84375"/>
    </g>
   </g>
   <g id="legend_1">
    <g id="patch_7">
     <path d="M 214.36 164.008775 
L 459.91 164.008775 
Q 461.91 164.008775 461.91 162.008775 
L 461.91 118.9744 
Q 461.91 116.9744 459.91 116.9744 
L 214.36 116.9744 
Q 212.36 116.9744 212.36 118.9744 
L 212.36 162.008775 
Q 212.36 164.008775 214.36 164.008775 
z
" style="fill: #ffffff; opacity: 0.8; stroke: #cccccc; stroke-linejoin: miter"/>
    </g>
    <g id="line2d_28">
     <path d="M 216.36 125.072837 
L 226.36 125.072837 
L 236.36 125.072837 
" style="fill: none; stroke: #0343df; stroke-width: 1.5; stroke-linecap: square"/>
    </g>
    <g id="text_16">
     <!-- ~0.50 mm pwv with ~0.50 mm pwv as ice -->
     <g transform="translate(244.36 128.572837) scale(0.1 -0.1)">
      <defs>
       <path id="DejaVuSans-7e" d="M 4684 2553 
L 4684 1997 
Q 4356 1750 4076 1644 
Q 3797 1538 3494 1538 
Q 3150 1538 2694 1722 
Q 2659 1734 2644 1741 
Q 2622 1750 2575 1766 
Q 2091 1959 1797 1959 
Q 1522 1959 1253 1839 
Q 984 1719 678 1459 
L 678 2016 
Q 1006 2263 1286 2370 
Q 1566 2478 1869 2478 
Q 2213 2478 2672 2291 
Q 2703 2278 2719 2272 
Q 2744 2263 2788 2247 
Q 3272 2053 3566 2053 
Q 3834 2053 4098 2172 
Q 4363 2291 4684 2553 
z
" transform="scale(0.015625)"/>
       <path id="DejaVuSans-2e" d="M 684 794 
L 1344 794 
L 1344 0 
L 684 0 
L 684 794 
z
" transform="scale(0.015625)"/>
       <path id="DejaVuSans-77" d="M 269 3500 
L 844 3500 
L 1563 769 
L 2278 3500 
L 2956 3500 
L 3675 769 
L 4391 3500 
L 4966 3500 
L 4050 0 
L 3372 0 
L 2619 2869 
L 1863 0 
L 1184 0 
L 269 3500 
z
" transform="scale(0.015625)"/>
       <path id="DejaVuSans-76" d="M 191 3500 
L 800 3500 
L 1894 563 
L 2988 3500 
L 3597 3500 
L 2284 0 
L 1503 0 
L 191 3500 
z
" transform="scale(0.015625)"/>
      </defs>
      <use xlink:href="#DejaVuSans-7e"/>
      <use xlink:href="#DejaVuSans-30" x="83.789062"/>
      <use xlink:href="#DejaVuSans-2e" x="147.412109"/>
      <use xlink:href="#DejaVuSans-35" x="179.199219"/>
      <use xlink:href="#DejaVuSans-30" x="242.822266"/>
      <use xlink:href="#DejaVuSans-20" x="306.445312"/>
      <use xlink:href="#DejaVuSans-6d" x="338.232422"/>
      <use xlink:href="#DejaVuSans-6d" x="435.644531"/>
      <use xlink:href="#DejaVuSans-20" x="533.056641"/>
      <use xlink:href="#DejaVuSans-70" x="564.84375"/>
      <use xlink:href="#DejaVuSans-77" x="628.320312"/>
      <use xlink:href="#DejaVuSans-76" x="710.107422"/>
      <use xlink:href="#DejaVuSans-20" x="769.287109"/>
      <use xlink:href="#DejaVuSans-77" x="801.074219"/>
      <use xlink:href="#DejaVuSans-69" x="882.861328"/>
      <use xlink:href="#DejaVuSans-74" x="910.644531"/>
      <use xlink:href="#DejaVuSans-68" x="949.853516"/>
      <use xlink:href="#DejaVuSans-20" x="1013.232422"/>
      <use xlink:href="#DejaVuSans-7e" x="1045.019531"/>
      <use xlink:href="#DejaVuSans-30" x="1128.808594"/>
      <use xlink:href="#DejaVuSans-2e" x="1192.431641"/>
      <use xlink:href="#DejaVuSans-35" x="1224.21875"/>
      <use xlink:href="#DejaVuSans-30" x="1287.841797"/>
      <use xlink:href="#DejaVuSans-20" x="1351.464844"/>
      <use xlink:href="#DejaVuSans-6d" x="1383.251953"/>
      <use xlink:href="#DejaVuSans-6d" x="1480.664062"/>
      <use xlink:href="#DejaVuSans-20" x="1578.076172"/>
      <use xlink:href="#DejaVuSans-70" x="1609.863281"/>
      <use xlink:href="#DejaVuSans-77" x="1673.339844"/>
      <use xlink:href="#DejaVuSans-76" x="1755.126953"/>
      <use xlink:href="#DejaVuSans-20" x="1814.306641"/>
      <use xlink:href="#DejaVuSans-61" x="1846.09375"/>
      <use xlink:href="#DejaVuSans-73" x="1907.373047"/>
      <use xlink:href="#DejaVuSans-20" x="1959.472656"/>
      <use xlink:href="#DejaVuSans-69" x="1991.259766"/>
      <use xlink:href="#DejaVuSans-63" x="2019.042969"/>
      <use xlink:href="#DejaVuSans-65" x="2074.023438"/>
     </g>
    </g>
    <g id="line2d_29">
     <path d="M 216.36 139.750963 
L 226.36 139.750963 
L 236.36 139.750963 
" style="fill: none; stroke-dasharray: 5.55,2.4; stroke-dashoffset: 0; stroke: #15b01a; stroke-width: 1.5"/>
    </g>
    <g id="text_17">
     <!-- ~0.30 mm pwv with ~0.70 mm pwv as ice -->
     <g transform="translate(244.36 143.250963) scale(0.1 -0.1)">
      <defs>
       <path id="DejaVuSans-37" d="M 525 4666 
L 3525 4666 
L 3525 4397 
L 1831 0 
L 1172 0 
L 2766 4134 
L 525 4134 
L 525 4666 
z
" transform="scale(0.015625)"/>
      </defs>
      <use xlink:href="#DejaVuSans-7e"/>
      <use xlink:href="#DejaVuSans-30" x="83.789062"/>
      <use xlink:href="#DejaVuSans-2e" x="147.412109"/>
      <use xlink:href="#DejaVuSans-33" x="179.199219"/>
      <use xlink:href="#DejaVuSans-30" x="242.822266"/>
      <use xlink:href="#DejaVuSans-20" x="306.445312"/>
      <use xlink:href="#DejaVuSans-6d" x="338.232422"/>
      <use xlink:href="#DejaVuSans-6d" x="435.644531"/>
      <use xlink:href="#DejaVuSans-20" x="533.056641"/>
      <use xlink:href="#DejaVuSans-70" x="564.84375"/>
      <use xlink:href="#DejaVuSans-77" x="628.320312"/>
      <use xlink:href="#DejaVuSans-76" x="710.107422"/>
      <use xlink:href="#DejaVuSans-20" x="769.287109"/>
      <use xlink:href="#DejaVuSans-77" x="801.074219"/>
      <use xlink:href="#DejaVuSans-69" x="882.861328"/>
      <use xlink:href="#DejaVuSans-74" x="910.644531"/>
      <use xlink:href="#DejaVuSans-68" x="949.853516"/>
      <use xlink:href="#DejaVuSans-20" x="1013.232422"/>
      <use xlink:href="#DejaVuSans-7e" x="1045.019531"/>
      <use xlink:href="#DejaVuSans-30" x="1128.808594"/>
      <use xlink:href="#DejaVuSans-2e" x="1192.431641"/>
      <use xlink:href="#DejaVuSans-37" x="1224.21875"/>
      <use xlink:href="#DejaVuSans-30" x="1287.841797"/>
      <use xlink:href="#DejaVuSans-20" x="1351.464844"/>
      <use xlink:href="#DejaVuSans-6d" x="1383.251953"/>
      <use xlink:href="#DejaVuSans-6d" x="1480.664062"/>
      <use xlink:href="#DejaVuSans-20" x="1578.076172"/>
      <use xlink:href="#DejaVuSans-70" x="1609.863281"/>
      <use xlink:href="#DejaVuSans-77" x="1673.339844"/>
      <use xlink:href="#DejaVuSans-76" x="1755.126953"/>
      <use xlink:href="#DejaVuSans-20" x="1814.306641"/>
      <use xlink:href="#DejaVuSans-61" x="1846.09375"/>
      <use xlink:href="#DejaVuSans-73" x="1907.373047"/>
      <use xlink:href="#DejaVuSans-20" x="1959.472656"/>
      <use xlink:href="#DejaVuSans-69" x="1991.259766"/>
      <use xlink:href="#DejaVuSans-63" x="2019.042969"/>
      <use xlink:href="#DejaVuSans-65" x="2074.023438"/>
     </g>
    </g>
    <g id="line2d_30">
     <path d="M 216.36 154.429088 
L 226.36 154.429088 
L 236.36 154.429088 
" style="fill: none; stroke: #00035b; stroke-width: 1.5; stroke-linecap: square"/>
    </g>
    <g id="text_18">
     <!-- ~0.10 mm pwv with ~0.90 mm pwv as ice -->
     <g transform="translate(244.36 157.929088) scale(0.1 -0.1)">
      <defs>
       <path id="DejaVuSans-39" d="M 703 97 
L 703 672 
Q 941 559 1184 500 
Q 1428 441 1663 441 
Q 2288 441 2617 861 
Q 2947 1281 2994 2138 
Q 2813 1869 2534 1725 
Q 2256 1581 1919 1581 
Q 1219 1581 811 2004 
Q 403 2428 403 3163 
Q 403 3881 828 4315 
Q 1253 4750 1959 4750 
Q 2769 4750 3195 4129 
Q 3622 3509 3622 2328 
Q 3622 1225 3098 567 
Q 2575 -91 1691 -91 
Q 1453 -91 1209 -44 
Q 966 3 703 97 
z
M 1959 2075 
Q 2384 2075 2632 2365 
Q 2881 2656 2881 3163 
Q 2881 3666 2632 3958 
Q 2384 4250 1959 4250 
Q 1534 4250 1286 3958 
Q 1038 3666 1038 3163 
Q 1038 2656 1286 2365 
Q 1534 2075 1959 2075 
z
" transform="scale(0.015625)"/>
      </defs>
      <use xlink:href="#DejaVuSans-7e"/>
      <use xlink:href="#DejaVuSans-30" x="83.789062"/>
      <use xlink:href="#DejaVuSans-2e" x="147.412109"/>
      <use xlink:href="#DejaVuSans-31" x="179.199219"/>
      <use xlink:href="#DejaVuSans-30" x="242.822266"/>
      <use xlink:href="#DejaVuSans-20" x="306.445312"/>
      <use xlink:href="#DejaVuSans-6d" x="338.232422"/>
      <use xlink:href="#DejaVuSans-6d" x="435.644531"/>
      <use xlink:href="#DejaVuSans-20" x="533.056641"/>
      <use xlink:href="#DejaVuSans-70" x="564.84375"/>
      <use xlink:href="#DejaVuSans-77" x="628.320312"/>
      <use xlink:href="#DejaVuSans-76" x="710.107422"/>
      <use xlink:href="#DejaVuSans-20" x="769.287109"/>
      <use xlink:href="#DejaVuSans-77" x="801.074219"/>
      <use xlink:href="#DejaVuSans-69" x="882.861328"/>
      <use xlink:href="#DejaVuSans-74" x="910.644531"/>
      <use xlink:href="#DejaVuSans-68" x="949.853516"/>
      <use xlink:href="#DejaVuSans-20" x="1013.232422"/>
      <use xlink:href="#DejaVuSans-7e" x="1045.019531"/>
      <use xlink:href="#DejaVuSans-30" x="1128.808594"/>
      <use xlink:href="#DejaVuSans-2e" x="1192.431641"/>
      <use xlink:href="#DejaVuSans-39" x="1224.21875"/>
      <use xlink:href="#DejaVuSans-30" x="1287.841797"/>
      <use xlink:href="#DejaVuSans-20" x="1351.464844"/>
      <use xlink:href="#DejaVuSans-6d" x="1383.251953"/>
      <use xlink:href="#DejaVuSans-6d" x="1480.664062"/>
      <use xlink:href="#DejaVuSans-20" x="1578.076172"/>
      <use xlink:href="#DejaVuSans-70" x="1609.863281"/>
      <use xlink:href="#DejaVuSans-77" x="1673.339844"/>
      <use xlink:href="#DejaVuSans-76" x="1755.126953"/>
      <use xlink:href="#DejaVuSans-20" x="1814.306641"/>
      <use xlink:href="#DejaVuSans-61" x="1846.09375"/>
      <use xlink:href="#DejaVuSans-73" x="1907.373047"/>
      <use xlink:href="#DejaVuSans-20" x="1959.472656"/>
      <use xlink:href="#DejaVuSans-69" x="1991.259766"/>
      <use xlink:href="#DejaVuSans-63" x="2019.042969"/>
      <use xlink:href="#DejaVuSans-65" x="2074.023438"/>
     </g>
    </g>
   </g>
  </g>
 </g>
 <defs>
  <clipPath id="p920dfcc52c">
   <rect x="207.36" y="111.9744" width="1285.632" height="718.5024"/>
  </clipPath>
 </defs>
</svg>
