<?xml version="1.0" encoding="utf-8" standalone="no"?>
<!DOCTYPE svg PUBLIC "-//W3C//DTD SVG 1.1//EN"
  "http://www.w3.org/Graphics/SVG/1.1/DTD/svg11.dtd">
<svg xmlns:xlink="http://www.w3.org/1999/xlink" width="1152pt" height="648pt" viewBox="0 0 1152 648" xmlns="http://www.w3.org/2000/svg" version="1.1">
 <metadata>
  <rdf:RDF xmlns:dc="http://purl.org/dc/elements/1.1/" xmlns:cc="http://creativecommons.org/ns#" xmlns:rdf="http://www.w3.org/1999/02/22-rdf-syntax-ns#">
   <cc:Work>
    <dc:type rdf:resource="http://purl.org/dc/dcmitype/StillImage"/>
    <dc:date>2025-06-13T16:08:40.315557</dc:date>
    <dc:format>image/svg+xml</dc:format>
    <dc:creator>
     <cc:Agent>
      <dc:title>Matplotlib v3.8.4, https://matplotlib.org/</dc:title>
     </cc:Agent>
    </dc:creator>
   </cc:Work>
  </rdf:RDF>
 </metadata>
 <defs>
  <style type="text/css">*{stroke-linejoin: round; stroke-linecap: butt}</style>
 </defs>
 <g id="figure_1">
  <g id="patch_1">
   <path d="M 0 648 
L 1152 648 
L 1152 0 
L 0 0 
z
" style="fill: #ffffff"/>
  </g>
  <g id="axes_1">
   <g id="patch_2">
    <path d="M 144 576.72 
L 1036.8 576.72 
L 1036.8 77.76 
L 144 77.76 
z
" style="fill: #ffffff"/>
   </g>
   <g id="matplotlib.axis_1">
    <g id="xtick_1">
     <g id="line2d_1">
      <path d="M 203.52 576.72 
L 203.52 77.76 
" clip-path="url(#p97226914ed)" style="fill: none; stroke: #b0b0b0; stroke-width: 0.8; stroke-linecap: square"/>
     </g>
     <g id="line2d_2">
      <defs>
       <path id="m51a1ef8b19" d="M 0 0 
L 0 3.5 
" style="stroke: #000000; stroke-width: 0.8"/>
      </defs>
      <g>
       <use xlink:href="#m51a1ef8b19" x="203.52" y="576.72" style="stroke: #000000; stroke-width: 0.8"/>
      </g>
     </g>
     <g id="text_1">
      <!-- 176 -->
      <g transform="translate(193.97625 591.318438) scale(0.1 -0.1)">
       <defs>
        <path id="DejaVuSans-31" d="M 794 531 
L 1825 531 
L 1825 4091 
L 703 3866 
L 703 4441 
L 1819 4666 
L 2450 4666 
L 2450 531 
L 3481 531 
L 3481 0 
L 794 0 
L 794 531 
z
" transform="scale(0.015625)"/>
        <path id="DejaVuSans-37" d="M 525 4666 
L 3525 4666 
L 3525 4397 
L 1831 0 
L 1172 0 
L 2766 4134 
L 525 4134 
L 525 4666 
z
" transform="scale(0.015625)"/>
        <path id="DejaVuSans-36" d="M 2113 2584 
Q 1688 2584 1439 2293 
Q 1191 2003 1191 1497 
Q 1191 994 1439 701 
Q 1688 409 2113 409 
Q 2538 409 2786 701 
Q 3034 994 3034 1497 
Q 3034 2003 2786 2293 
Q 2538 2584 2113 2584 
z
M 3366 4563 
L 3366 3988 
Q 3128 4100 2886 4159 
Q 2644 4219 2406 4219 
Q 1781 4219 1451 3797 
Q 1122 3375 1075 2522 
Q 1259 2794 1537 2939 
Q 1816 3084 2150 3084 
Q 2853 3084 3261 2657 
Q 3669 2231 3669 1497 
Q 3669 778 3244 343 
Q 2819 -91 2113 -91 
Q 1303 -91 875 529 
Q 447 1150 447 2328 
Q 447 3434 972 4092 
Q 1497 4750 2381 4750 
Q 2619 4750 2861 4703 
Q 3103 4656 3366 4563 
z
" transform="scale(0.015625)"/>
       </defs>
       <use xlink:href="#DejaVuSans-31"/>
       <use xlink:href="#DejaVuSans-37" x="63.623047"/>
       <use xlink:href="#DejaVuSans-36" x="127.246094"/>
      </g>
     </g>
    </g>
    <g id="xtick_2">
     <g id="line2d_3">
      <path d="M 322.56 576.72 
L 322.56 77.76 
" clip-path="url(#p97226914ed)" style="fill: none; stroke: #b0b0b0; stroke-width: 0.8; stroke-linecap: square"/>
     </g>
     <g id="line2d_4">
      <g>
       <use xlink:href="#m51a1ef8b19" x="322.56" y="576.72" style="stroke: #000000; stroke-width: 0.8"/>
      </g>
     </g>
     <g id="text_2">
      <!-- 178 -->
      <g transform="translate(313.01625 591.318438) scale(0.1 -0.1)">
       <defs>
        <path id="DejaVuSans-38" d="M 2034 2216 
Q 1584 2216 1326 1975 
Q 1069 1734 1069 1313 
Q 1069 891 1326 650 
Q 1584 409 2034 409 
Q 2484 409 2743 651 
Q 3003 894 3003 1313 
Q 3003 1734 2745 1975 
Q 2488 2216 2034 2216 
z
M 1403 2484 
Q 997 2584 770 2862 
Q 544 3141 544 3541 
Q 544 4100 942 4425 
Q 1341 4750 2034 4750 
Q 2731 4750 3128 4425 
Q 3525 4100 3525 3541 
Q 3525 3141 3298 2862 
Q 3072 2584 2669 2484 
Q 3125 2378 3379 2068 
Q 3634 1759 3634 1313 
Q 3634 634 3220 271 
Q 2806 -91 2034 -91 
Q 1263 -91 848 271 
Q 434 634 434 1313 
Q 434 1759 690 2068 
Q 947 2378 1403 2484 
z
M 1172 3481 
Q 1172 3119 1398 2916 
Q 1625 2713 2034 2713 
Q 2441 2713 2670 2916 
Q 2900 3119 2900 3481 
Q 2900 3844 2670 4047 
Q 2441 4250 2034 4250 
Q 1625 4250 1398 4047 
Q 1172 3844 1172 3481 
z
" transform="scale(0.015625)"/>
       </defs>
       <use xlink:href="#DejaVuSans-31"/>
       <use xlink:href="#DejaVuSans-37" x="63.623047"/>
       <use xlink:href="#DejaVuSans-38" x="127.246094"/>
      </g>
     </g>
    </g>
    <g id="xtick_3">
     <g id="line2d_5">
      <path d="M 441.6 576.72 
L 441.6 77.76 
" clip-path="url(#p97226914ed)" style="fill: none; stroke: #b0b0b0; stroke-width: 0.8; stroke-linecap: square"/>
     </g>
     <g id="line2d_6">
      <g>
       <use xlink:href="#m51a1ef8b19" x="441.6" y="576.72" style="stroke: #000000; stroke-width: 0.8"/>
      </g>
     </g>
     <g id="text_3">
      <!-- 180 -->
      <g transform="translate(432.05625 591.318438) scale(0.1 -0.1)">
       <defs>
        <path id="DejaVuSans-30" d="M 2034 4250 
Q 1547 4250 1301 3770 
Q 1056 3291 1056 2328 
Q 1056 1369 1301 889 
Q 1547 409 2034 409 
Q 2525 409 2770 889 
Q 3016 1369 3016 2328 
Q 3016 3291 2770 3770 
Q 2525 4250 2034 4250 
z
M 2034 4750 
Q 2819 4750 3233 4129 
Q 3647 3509 3647 2328 
Q 3647 1150 3233 529 
Q 2819 -91 2034 -91 
Q 1250 -91 836 529 
Q 422 1150 422 2328 
Q 422 3509 836 4129 
Q 1250 4750 2034 4750 
z
" transform="scale(0.015625)"/>
       </defs>
       <use xlink:href="#DejaVuSans-31"/>
       <use xlink:href="#DejaVuSans-38" x="63.623047"/>
       <use xlink:href="#DejaVuSans-30" x="127.246094"/>
      </g>
     </g>
    </g>
    <g id="xtick_4">
     <g id="line2d_7">
      <path d="M 560.64 576.72 
L 560.64 77.76 
" clip-path="url(#p97226914ed)" style="fill: none; stroke: #b0b0b0; stroke-width: 0.8; stroke-linecap: square"/>
     </g>
     <g id="line2d_8">
      <g>
       <use xlink:href="#m51a1ef8b19" x="560.64" y="576.72" style="stroke: #000000; stroke-width: 0.8"/>
      </g>
     </g>
     <g id="text_4">
      <!-- 182 -->
      <g transform="translate(551.09625 591.318438) scale(0.1 -0.1)">
       <defs>
        <path id="DejaVuSans-32" d="M 1228 531 
L 3431 531 
L 3431 0 
L 469 0 
L 469 531 
Q 828 903 1448 1529 
Q 2069 2156 2228 2338 
Q 2531 2678 2651 2914 
Q 2772 3150 2772 3378 
Q 2772 3750 2511 3984 
Q 2250 4219 1831 4219 
Q 1534 4219 1204 4116 
Q 875 4013 500 3803 
L 500 4441 
Q 881 4594 1212 4672 
Q 1544 4750 1819 4750 
Q 2544 4750 2975 4387 
Q 3406 4025 3406 3419 
Q 3406 3131 3298 2873 
Q 3191 2616 2906 2266 
Q 2828 2175 2409 1742 
Q 1991 1309 1228 531 
z
" transform="scale(0.015625)"/>
       </defs>
       <use xlink:href="#DejaVuSans-31"/>
       <use xlink:href="#DejaVuSans-38" x="63.623047"/>
       <use xlink:href="#DejaVuSans-32" x="127.246094"/>
      </g>
     </g>
    </g>
    <g id="xtick_5">
     <g id="line2d_9">
      <path d="M 679.68 576.72 
L 679.68 77.76 
" clip-path="url(#p97226914ed)" style="fill: none; stroke: #b0b0b0; stroke-width: 0.8; stroke-linecap: square"/>
     </g>
     <g id="line2d_10">
      <g>
       <use xlink:href="#m51a1ef8b19" x="679.68" y="576.72" style="stroke: #000000; stroke-width: 0.8"/>
      </g>
     </g>
     <g id="text_5">
      <!-- 184 -->
      <g transform="translate(670.13625 591.318438) scale(0.1 -0.1)">
       <defs>
        <path id="DejaVuSans-34" d="M 2419 4116 
L 825 1625 
L 2419 1625 
L 2419 4116 
z
M 2253 4666 
L 3047 4666 
L 3047 1625 
L 3713 1625 
L 3713 1100 
L 3047 1100 
L 3047 0 
L 2419 0 
L 2419 1100 
L 313 1100 
L 313 1709 
L 2253 4666 
z
" transform="scale(0.015625)"/>
       </defs>
       <use xlink:href="#DejaVuSans-31"/>
       <use xlink:href="#DejaVuSans-38" x="63.623047"/>
       <use xlink:href="#DejaVuSans-34" x="127.246094"/>
      </g>
     </g>
    </g>
    <g id="xtick_6">
     <g id="line2d_11">
      <path d="M 798.72 576.72 
L 798.72 77.76 
" clip-path="url(#p97226914ed)" style="fill: none; stroke: #b0b0b0; stroke-width: 0.8; stroke-linecap: square"/>
     </g>
     <g id="line2d_12">
      <g>
       <use xlink:href="#m51a1ef8b19" x="798.72" y="576.72" style="stroke: #000000; stroke-width: 0.8"/>
      </g>
     </g>
     <g id="text_6">
      <!-- 186 -->
      <g transform="translate(789.17625 591.318438) scale(0.1 -0.1)">
       <use xlink:href="#DejaVuSans-31"/>
       <use xlink:href="#DejaVuSans-38" x="63.623047"/>
       <use xlink:href="#DejaVuSans-36" x="127.246094"/>
      </g>
     </g>
    </g>
    <g id="xtick_7">
     <g id="line2d_13">
      <path d="M 917.76 576.72 
L 917.76 77.76 
" clip-path="url(#p97226914ed)" style="fill: none; stroke: #b0b0b0; stroke-width: 0.8; stroke-linecap: square"/>
     </g>
     <g id="line2d_14">
      <g>
       <use xlink:href="#m51a1ef8b19" x="917.76" y="576.72" style="stroke: #000000; stroke-width: 0.8"/>
      </g>
     </g>
     <g id="text_7">
      <!-- 188 -->
      <g transform="translate(908.21625 591.318438) scale(0.1 -0.1)">
       <use xlink:href="#DejaVuSans-31"/>
       <use xlink:href="#DejaVuSans-38" x="63.623047"/>
       <use xlink:href="#DejaVuSans-38" x="127.246094"/>
      </g>
     </g>
    </g>
    <g id="xtick_8">
     <g id="line2d_15">
      <path d="M 1036.8 576.72 
L 1036.8 77.76 
" clip-path="url(#p97226914ed)" style="fill: none; stroke: #b0b0b0; stroke-width: 0.8; stroke-linecap: square"/>
     </g>
     <g id="line2d_16">
      <g>
       <use xlink:href="#m51a1ef8b19" x="1036.8" y="576.72" style="stroke: #000000; stroke-width: 0.8"/>
      </g>
     </g>
     <g id="text_8">
      <!-- 190 -->
      <g transform="translate(1027.25625 591.318438) scale(0.1 -0.1)">
       <defs>
        <path id="DejaVuSans-39" d="M 703 97 
L 703 672 
Q 941 559 1184 500 
Q 1428 441 1663 441 
Q 2288 441 2617 861 
Q 2947 1281 2994 2138 
Q 2813 1869 2534 1725 
Q 2256 1581 1919 1581 
Q 1219 1581 811 2004 
Q 403 2428 403 3163 
Q 403 3881 828 4315 
Q 1253 4750 1959 4750 
Q 2769 4750 3195 4129 
Q 3622 3509 3622 2328 
Q 3622 1225 3098 567 
Q 2575 -91 1691 -91 
Q 1453 -91 1209 -44 
Q 966 3 703 97 
z
M 1959 2075 
Q 2384 2075 2632 2365 
Q 2881 2656 2881 3163 
Q 2881 3666 2632 3958 
Q 2384 4250 1959 4250 
Q 1534 4250 1286 3958 
Q 1038 3666 1038 3163 
Q 1038 2656 1286 2365 
Q 1534 2075 1959 2075 
z
" transform="scale(0.015625)"/>
       </defs>
       <use xlink:href="#DejaVuSans-31"/>
       <use xlink:href="#DejaVuSans-39" x="63.623047"/>
       <use xlink:href="#DejaVuSans-30" x="127.246094"/>
      </g>
     </g>
    </g>
    <g id="text_9">
     <!-- Frequency (GHz) -->
     <g transform="translate(548.821094 604.996562) scale(0.1 -0.1)">
      <defs>
       <path id="DejaVuSans-46" d="M 628 4666 
L 3309 4666 
L 3309 4134 
L 1259 4134 
L 1259 2759 
L 3109 2759 
L 3109 2228 
L 1259 2228 
L 1259 0 
L 628 0 
L 628 4666 
z
" transform="scale(0.015625)"/>
       <path id="DejaVuSans-72" d="M 2631 2963 
Q 2534 3019 2420 3045 
Q 2306 3072 2169 3072 
Q 1681 3072 1420 2755 
Q 1159 2438 1159 1844 
L 1159 0 
L 581 0 
L 581 3500 
L 1159 3500 
L 1159 2956 
Q 1341 3275 1631 3429 
Q 1922 3584 2338 3584 
Q 2397 3584 2469 3576 
Q 2541 3569 2628 3553 
L 2631 2963 
z
" transform="scale(0.015625)"/>
       <path id="DejaVuSans-65" d="M 3597 1894 
L 3597 1613 
L 953 1613 
Q 991 1019 1311 708 
Q 1631 397 2203 397 
Q 2534 397 2845 478 
Q 3156 559 3463 722 
L 3463 178 
Q 3153 47 2828 -22 
Q 2503 -91 2169 -91 
Q 1331 -91 842 396 
Q 353 884 353 1716 
Q 353 2575 817 3079 
Q 1281 3584 2069 3584 
Q 2775 3584 3186 3129 
Q 3597 2675 3597 1894 
z
M 3022 2063 
Q 3016 2534 2758 2815 
Q 2500 3097 2075 3097 
Q 1594 3097 1305 2825 
Q 1016 2553 972 2059 
L 3022 2063 
z
" transform="scale(0.015625)"/>
       <path id="DejaVuSans-71" d="M 947 1747 
Q 947 1113 1208 752 
Q 1469 391 1925 391 
Q 2381 391 2643 752 
Q 2906 1113 2906 1747 
Q 2906 2381 2643 2742 
Q 2381 3103 1925 3103 
Q 1469 3103 1208 2742 
Q 947 2381 947 1747 
z
M 2906 525 
Q 2725 213 2448 61 
Q 2172 -91 1784 -91 
Q 1150 -91 751 415 
Q 353 922 353 1747 
Q 353 2572 751 3078 
Q 1150 3584 1784 3584 
Q 2172 3584 2448 3432 
Q 2725 3281 2906 2969 
L 2906 3500 
L 3481 3500 
L 3481 -1331 
L 2906 -1331 
L 2906 525 
z
" transform="scale(0.015625)"/>
       <path id="DejaVuSans-75" d="M 544 1381 
L 544 3500 
L 1119 3500 
L 1119 1403 
Q 1119 906 1312 657 
Q 1506 409 1894 409 
Q 2359 409 2629 706 
Q 2900 1003 2900 1516 
L 2900 3500 
L 3475 3500 
L 3475 0 
L 2900 0 
L 2900 538 
Q 2691 219 2414 64 
Q 2138 -91 1772 -91 
Q 1169 -91 856 284 
Q 544 659 544 1381 
z
M 1991 3584 
L 1991 3584 
z
" transform="scale(0.015625)"/>
       <path id="DejaVuSans-6e" d="M 3513 2113 
L 3513 0 
L 2938 0 
L 2938 2094 
Q 2938 2591 2744 2837 
Q 2550 3084 2163 3084 
Q 1697 3084 1428 2787 
Q 1159 2491 1159 1978 
L 1159 0 
L 581 0 
L 581 3500 
L 1159 3500 
L 1159 2956 
Q 1366 3272 1645 3428 
Q 1925 3584 2291 3584 
Q 2894 3584 3203 3211 
Q 3513 2838 3513 2113 
z
" transform="scale(0.015625)"/>
       <path id="DejaVuSans-63" d="M 3122 3366 
L 3122 2828 
Q 2878 2963 2633 3030 
Q 2388 3097 2138 3097 
Q 1578 3097 1268 2742 
Q 959 2388 959 1747 
Q 959 1106 1268 751 
Q 1578 397 2138 397 
Q 2388 397 2633 464 
Q 2878 531 3122 666 
L 3122 134 
Q 2881 22 2623 -34 
Q 2366 -91 2075 -91 
Q 1284 -91 818 406 
Q 353 903 353 1747 
Q 353 2603 823 3093 
Q 1294 3584 2113 3584 
Q 2378 3584 2631 3529 
Q 2884 3475 3122 3366 
z
" transform="scale(0.015625)"/>
       <path id="DejaVuSans-79" d="M 2059 -325 
Q 1816 -950 1584 -1140 
Q 1353 -1331 966 -1331 
L 506 -1331 
L 506 -850 
L 844 -850 
Q 1081 -850 1212 -737 
Q 1344 -625 1503 -206 
L 1606 56 
L 191 3500 
L 800 3500 
L 1894 763 
L 2988 3500 
L 3597 3500 
L 2059 -325 
z
" transform="scale(0.015625)"/>
       <path id="DejaVuSans-20" transform="scale(0.015625)"/>
       <path id="DejaVuSans-28" d="M 1984 4856 
Q 1566 4138 1362 3434 
Q 1159 2731 1159 2009 
Q 1159 1288 1364 580 
Q 1569 -128 1984 -844 
L 1484 -844 
Q 1016 -109 783 600 
Q 550 1309 550 2009 
Q 550 2706 781 3412 
Q 1013 4119 1484 4856 
L 1984 4856 
z
" transform="scale(0.015625)"/>
       <path id="DejaVuSans-47" d="M 3809 666 
L 3809 1919 
L 2778 1919 
L 2778 2438 
L 4434 2438 
L 4434 434 
Q 4069 175 3628 42 
Q 3188 -91 2688 -91 
Q 1594 -91 976 548 
Q 359 1188 359 2328 
Q 359 3472 976 4111 
Q 1594 4750 2688 4750 
Q 3144 4750 3555 4637 
Q 3966 4525 4313 4306 
L 4313 3634 
Q 3963 3931 3569 4081 
Q 3175 4231 2741 4231 
Q 1884 4231 1454 3753 
Q 1025 3275 1025 2328 
Q 1025 1384 1454 906 
Q 1884 428 2741 428 
Q 3075 428 3337 486 
Q 3600 544 3809 666 
z
" transform="scale(0.015625)"/>
       <path id="DejaVuSans-48" d="M 628 4666 
L 1259 4666 
L 1259 2753 
L 3553 2753 
L 3553 4666 
L 4184 4666 
L 4184 0 
L 3553 0 
L 3553 2222 
L 1259 2222 
L 1259 0 
L 628 0 
L 628 4666 
z
" transform="scale(0.015625)"/>
       <path id="DejaVuSans-7a" d="M 353 3500 
L 3084 3500 
L 3084 2975 
L 922 459 
L 3084 459 
L 3084 0 
L 275 0 
L 275 525 
L 2438 3041 
L 353 3041 
L 353 3500 
z
" transform="scale(0.015625)"/>
       <path id="DejaVuSans-29" d="M 513 4856 
L 1013 4856 
Q 1481 4119 1714 3412 
Q 1947 2706 1947 2009 
Q 1947 1309 1714 600 
Q 1481 -109 1013 -844 
L 513 -844 
Q 928 -128 1133 580 
Q 1338 1288 1338 2009 
Q 1338 2731 1133 3434 
Q 928 4138 513 4856 
z
" transform="scale(0.015625)"/>
      </defs>
      <use xlink:href="#DejaVuSans-46"/>
      <use xlink:href="#DejaVuSans-72" x="50.269531"/>
      <use xlink:href="#DejaVuSans-65" x="89.132812"/>
      <use xlink:href="#DejaVuSans-71" x="150.65625"/>
      <use xlink:href="#DejaVuSans-75" x="214.132812"/>
      <use xlink:href="#DejaVuSans-65" x="277.511719"/>
      <use xlink:href="#DejaVuSans-6e" x="339.035156"/>
      <use xlink:href="#DejaVuSans-63" x="402.414062"/>
      <use xlink:href="#DejaVuSans-79" x="457.394531"/>
      <use xlink:href="#DejaVuSans-20" x="516.574219"/>
      <use xlink:href="#DejaVuSans-28" x="548.361328"/>
      <use xlink:href="#DejaVuSans-47" x="587.375"/>
      <use xlink:href="#DejaVuSans-48" x="664.865234"/>
      <use xlink:href="#DejaVuSans-7a" x="740.060547"/>
      <use xlink:href="#DejaVuSans-29" x="792.550781"/>
     </g>
    </g>
   </g>
   <g id="matplotlib.axis_2">
    <g id="ytick_1">
     <g id="line2d_17">
      <path d="M 144 560.162937 
L 1036.8 560.162937 
" clip-path="url(#p97226914ed)" style="fill: none; stroke: #b0b0b0; stroke-width: 0.8; stroke-linecap: square"/>
     </g>
     <g id="line2d_18">
      <defs>
       <path id="m5619bc59d0" d="M 0 0 
L -3.5 0 
" style="stroke: #000000; stroke-width: 0.8"/>
      </defs>
      <g>
       <use xlink:href="#m5619bc59d0" x="144" y="560.162937" style="stroke: #000000; stroke-width: 0.8"/>
      </g>
     </g>
     <g id="text_10">
      <!-- 0 -->
      <g transform="translate(130.6375 563.962155) scale(0.1 -0.1)">
       <use xlink:href="#DejaVuSans-30"/>
      </g>
     </g>
    </g>
    <g id="ytick_2">
     <g id="line2d_19">
      <path d="M 144 474.881681 
L 1036.8 474.881681 
" clip-path="url(#p97226914ed)" style="fill: none; stroke: #b0b0b0; stroke-width: 0.8; stroke-linecap: square"/>
     </g>
     <g id="line2d_20">
      <g>
       <use xlink:href="#m5619bc59d0" x="144" y="474.881681" style="stroke: #000000; stroke-width: 0.8"/>
      </g>
     </g>
     <g id="text_11">
      <!-- 50 -->
      <g transform="translate(124.275 478.6809) scale(0.1 -0.1)">
       <defs>
        <path id="DejaVuSans-35" d="M 691 4666 
L 3169 4666 
L 3169 4134 
L 1269 4134 
L 1269 2991 
Q 1406 3038 1543 3061 
Q 1681 3084 1819 3084 
Q 2600 3084 3056 2656 
Q 3513 2228 3513 1497 
Q 3513 744 3044 326 
Q 2575 -91 1722 -91 
Q 1428 -91 1123 -41 
Q 819 9 494 109 
L 494 744 
Q 775 591 1075 516 
Q 1375 441 1709 441 
Q 2250 441 2565 725 
Q 2881 1009 2881 1497 
Q 2881 1984 2565 2268 
Q 2250 2553 1709 2553 
Q 1456 2553 1204 2497 
Q 953 2441 691 2322 
L 691 4666 
z
" transform="scale(0.015625)"/>
       </defs>
       <use xlink:href="#DejaVuSans-35"/>
       <use xlink:href="#DejaVuSans-30" x="63.623047"/>
      </g>
     </g>
    </g>
    <g id="ytick_3">
     <g id="line2d_21">
      <path d="M 144 389.600425 
L 1036.8 389.600425 
" clip-path="url(#p97226914ed)" style="fill: none; stroke: #b0b0b0; stroke-width: 0.8; stroke-linecap: square"/>
     </g>
     <g id="line2d_22">
      <g>
       <use xlink:href="#m5619bc59d0" x="144" y="389.600425" style="stroke: #000000; stroke-width: 0.8"/>
      </g>
     </g>
     <g id="text_12">
      <!-- 100 -->
      <g transform="translate(117.9125 393.399644) scale(0.1 -0.1)">
       <use xlink:href="#DejaVuSans-31"/>
       <use xlink:href="#DejaVuSans-30" x="63.623047"/>
       <use xlink:href="#DejaVuSans-30" x="127.246094"/>
      </g>
     </g>
    </g>
    <g id="ytick_4">
     <g id="line2d_23">
      <path d="M 144 304.319169 
L 1036.8 304.319169 
" clip-path="url(#p97226914ed)" style="fill: none; stroke: #b0b0b0; stroke-width: 0.8; stroke-linecap: square"/>
     </g>
     <g id="line2d_24">
      <g>
       <use xlink:href="#m5619bc59d0" x="144" y="304.319169" style="stroke: #000000; stroke-width: 0.8"/>
      </g>
     </g>
     <g id="text_13">
      <!-- 150 -->
      <g transform="translate(117.9125 308.118388) scale(0.1 -0.1)">
       <use xlink:href="#DejaVuSans-31"/>
       <use xlink:href="#DejaVuSans-35" x="63.623047"/>
       <use xlink:href="#DejaVuSans-30" x="127.246094"/>
      </g>
     </g>
    </g>
    <g id="ytick_5">
     <g id="line2d_25">
      <path d="M 144 219.037913 
L 1036.8 219.037913 
" clip-path="url(#p97226914ed)" style="fill: none; stroke: #b0b0b0; stroke-width: 0.8; stroke-linecap: square"/>
     </g>
     <g id="line2d_26">
      <g>
       <use xlink:href="#m5619bc59d0" x="144" y="219.037913" style="stroke: #000000; stroke-width: 0.8"/>
      </g>
     </g>
     <g id="text_14">
      <!-- 200 -->
      <g transform="translate(117.9125 222.837132) scale(0.1 -0.1)">
       <use xlink:href="#DejaVuSans-32"/>
       <use xlink:href="#DejaVuSans-30" x="63.623047"/>
       <use xlink:href="#DejaVuSans-30" x="127.246094"/>
      </g>
     </g>
    </g>
    <g id="ytick_6">
     <g id="line2d_27">
      <path d="M 144 133.756658 
L 1036.8 133.756658 
" clip-path="url(#p97226914ed)" style="fill: none; stroke: #b0b0b0; stroke-width: 0.8; stroke-linecap: square"/>
     </g>
     <g id="line2d_28">
      <g>
       <use xlink:href="#m5619bc59d0" x="144" y="133.756658" style="stroke: #000000; stroke-width: 0.8"/>
      </g>
     </g>
     <g id="text_15">
      <!-- 250 -->
      <g transform="translate(117.9125 137.555876) scale(0.1 -0.1)">
       <use xlink:href="#DejaVuSans-32"/>
       <use xlink:href="#DejaVuSans-35" x="63.623047"/>
       <use xlink:href="#DejaVuSans-30" x="127.246094"/>
      </g>
     </g>
    </g>
    <g id="text_16">
     <!-- Brightness Temperature (K) -->
     <g transform="translate(111.832812 395.900937) rotate(-90) scale(0.1 -0.1)">
      <defs>
       <path id="DejaVuSans-42" d="M 1259 2228 
L 1259 519 
L 2272 519 
Q 2781 519 3026 730 
Q 3272 941 3272 1375 
Q 3272 1813 3026 2020 
Q 2781 2228 2272 2228 
L 1259 2228 
z
M 1259 4147 
L 1259 2741 
L 2194 2741 
Q 2656 2741 2882 2914 
Q 3109 3088 3109 3444 
Q 3109 3797 2882 3972 
Q 2656 4147 2194 4147 
L 1259 4147 
z
M 628 4666 
L 2241 4666 
Q 2963 4666 3353 4366 
Q 3744 4066 3744 3513 
Q 3744 3084 3544 2831 
Q 3344 2578 2956 2516 
Q 3422 2416 3680 2098 
Q 3938 1781 3938 1306 
Q 3938 681 3513 340 
Q 3088 0 2303 0 
L 628 0 
L 628 4666 
z
" transform="scale(0.015625)"/>
       <path id="DejaVuSans-69" d="M 603 3500 
L 1178 3500 
L 1178 0 
L 603 0 
L 603 3500 
z
M 603 4863 
L 1178 4863 
L 1178 4134 
L 603 4134 
L 603 4863 
z
" transform="scale(0.015625)"/>
       <path id="DejaVuSans-67" d="M 2906 1791 
Q 2906 2416 2648 2759 
Q 2391 3103 1925 3103 
Q 1463 3103 1205 2759 
Q 947 2416 947 1791 
Q 947 1169 1205 825 
Q 1463 481 1925 481 
Q 2391 481 2648 825 
Q 2906 1169 2906 1791 
z
M 3481 434 
Q 3481 -459 3084 -895 
Q 2688 -1331 1869 -1331 
Q 1566 -1331 1297 -1286 
Q 1028 -1241 775 -1147 
L 775 -588 
Q 1028 -725 1275 -790 
Q 1522 -856 1778 -856 
Q 2344 -856 2625 -561 
Q 2906 -266 2906 331 
L 2906 616 
Q 2728 306 2450 153 
Q 2172 0 1784 0 
Q 1141 0 747 490 
Q 353 981 353 1791 
Q 353 2603 747 3093 
Q 1141 3584 1784 3584 
Q 2172 3584 2450 3431 
Q 2728 3278 2906 2969 
L 2906 3500 
L 3481 3500 
L 3481 434 
z
" transform="scale(0.015625)"/>
       <path id="DejaVuSans-68" d="M 3513 2113 
L 3513 0 
L 2938 0 
L 2938 2094 
Q 2938 2591 2744 2837 
Q 2550 3084 2163 3084 
Q 1697 3084 1428 2787 
Q 1159 2491 1159 1978 
L 1159 0 
L 581 0 
L 581 4863 
L 1159 4863 
L 1159 2956 
Q 1366 3272 1645 3428 
Q 1925 3584 2291 3584 
Q 2894 3584 3203 3211 
Q 3513 2838 3513 2113 
z
" transform="scale(0.015625)"/>
       <path id="DejaVuSans-74" d="M 1172 4494 
L 1172 3500 
L 2356 3500 
L 2356 3053 
L 1172 3053 
L 1172 1153 
Q 1172 725 1289 603 
Q 1406 481 1766 481 
L 2356 481 
L 2356 0 
L 1766 0 
Q 1100 0 847 248 
Q 594 497 594 1153 
L 594 3053 
L 172 3053 
L 172 3500 
L 594 3500 
L 594 4494 
L 1172 4494 
z
" transform="scale(0.015625)"/>
       <path id="DejaVuSans-73" d="M 2834 3397 
L 2834 2853 
Q 2591 2978 2328 3040 
Q 2066 3103 1784 3103 
Q 1356 3103 1142 2972 
Q 928 2841 928 2578 
Q 928 2378 1081 2264 
Q 1234 2150 1697 2047 
L 1894 2003 
Q 2506 1872 2764 1633 
Q 3022 1394 3022 966 
Q 3022 478 2636 193 
Q 2250 -91 1575 -91 
Q 1294 -91 989 -36 
Q 684 19 347 128 
L 347 722 
Q 666 556 975 473 
Q 1284 391 1588 391 
Q 1994 391 2212 530 
Q 2431 669 2431 922 
Q 2431 1156 2273 1281 
Q 2116 1406 1581 1522 
L 1381 1569 
Q 847 1681 609 1914 
Q 372 2147 372 2553 
Q 372 3047 722 3315 
Q 1072 3584 1716 3584 
Q 2034 3584 2315 3537 
Q 2597 3491 2834 3397 
z
" transform="scale(0.015625)"/>
       <path id="DejaVuSans-54" d="M -19 4666 
L 3928 4666 
L 3928 4134 
L 2272 4134 
L 2272 0 
L 1638 0 
L 1638 4134 
L -19 4134 
L -19 4666 
z
" transform="scale(0.015625)"/>
       <path id="DejaVuSans-6d" d="M 3328 2828 
Q 3544 3216 3844 3400 
Q 4144 3584 4550 3584 
Q 5097 3584 5394 3201 
Q 5691 2819 5691 2113 
L 5691 0 
L 5113 0 
L 5113 2094 
Q 5113 2597 4934 2840 
Q 4756 3084 4391 3084 
Q 3944 3084 3684 2787 
Q 3425 2491 3425 1978 
L 3425 0 
L 2847 0 
L 2847 2094 
Q 2847 2600 2669 2842 
Q 2491 3084 2119 3084 
Q 1678 3084 1418 2786 
Q 1159 2488 1159 1978 
L 1159 0 
L 581 0 
L 581 3500 
L 1159 3500 
L 1159 2956 
Q 1356 3278 1631 3431 
Q 1906 3584 2284 3584 
Q 2666 3584 2933 3390 
Q 3200 3197 3328 2828 
z
" transform="scale(0.015625)"/>
       <path id="DejaVuSans-70" d="M 1159 525 
L 1159 -1331 
L 581 -1331 
L 581 3500 
L 1159 3500 
L 1159 2969 
Q 1341 3281 1617 3432 
Q 1894 3584 2278 3584 
Q 2916 3584 3314 3078 
Q 3713 2572 3713 1747 
Q 3713 922 3314 415 
Q 2916 -91 2278 -91 
Q 1894 -91 1617 61 
Q 1341 213 1159 525 
z
M 3116 1747 
Q 3116 2381 2855 2742 
Q 2594 3103 2138 3103 
Q 1681 3103 1420 2742 
Q 1159 2381 1159 1747 
Q 1159 1113 1420 752 
Q 1681 391 2138 391 
Q 2594 391 2855 752 
Q 3116 1113 3116 1747 
z
" transform="scale(0.015625)"/>
       <path id="DejaVuSans-61" d="M 2194 1759 
Q 1497 1759 1228 1600 
Q 959 1441 959 1056 
Q 959 750 1161 570 
Q 1363 391 1709 391 
Q 2188 391 2477 730 
Q 2766 1069 2766 1631 
L 2766 1759 
L 2194 1759 
z
M 3341 1997 
L 3341 0 
L 2766 0 
L 2766 531 
Q 2569 213 2275 61 
Q 1981 -91 1556 -91 
Q 1019 -91 701 211 
Q 384 513 384 1019 
Q 384 1609 779 1909 
Q 1175 2209 1959 2209 
L 2766 2209 
L 2766 2266 
Q 2766 2663 2505 2880 
Q 2244 3097 1772 3097 
Q 1472 3097 1187 3025 
Q 903 2953 641 2809 
L 641 3341 
Q 956 3463 1253 3523 
Q 1550 3584 1831 3584 
Q 2591 3584 2966 3190 
Q 3341 2797 3341 1997 
z
" transform="scale(0.015625)"/>
       <path id="DejaVuSans-4b" d="M 628 4666 
L 1259 4666 
L 1259 2694 
L 3353 4666 
L 4166 4666 
L 1850 2491 
L 4331 0 
L 3500 0 
L 1259 2247 
L 1259 0 
L 628 0 
L 628 4666 
z
" transform="scale(0.015625)"/>
      </defs>
      <use xlink:href="#DejaVuSans-42"/>
      <use xlink:href="#DejaVuSans-72" x="68.603516"/>
      <use xlink:href="#DejaVuSans-69" x="109.716797"/>
      <use xlink:href="#DejaVuSans-67" x="137.5"/>
      <use xlink:href="#DejaVuSans-68" x="200.976562"/>
      <use xlink:href="#DejaVuSans-74" x="264.355469"/>
      <use xlink:href="#DejaVuSans-6e" x="303.564453"/>
      <use xlink:href="#DejaVuSans-65" x="366.943359"/>
      <use xlink:href="#DejaVuSans-73" x="428.466797"/>
      <use xlink:href="#DejaVuSans-73" x="480.566406"/>
      <use xlink:href="#DejaVuSans-20" x="532.666016"/>
      <use xlink:href="#DejaVuSans-54" x="564.453125"/>
      <use xlink:href="#DejaVuSans-65" x="608.537109"/>
      <use xlink:href="#DejaVuSans-6d" x="670.060547"/>
      <use xlink:href="#DejaVuSans-70" x="767.472656"/>
      <use xlink:href="#DejaVuSans-65" x="830.949219"/>
      <use xlink:href="#DejaVuSans-72" x="892.472656"/>
      <use xlink:href="#DejaVuSans-61" x="933.585938"/>
      <use xlink:href="#DejaVuSans-74" x="994.865234"/>
      <use xlink:href="#DejaVuSans-75" x="1034.074219"/>
      <use xlink:href="#DejaVuSans-72" x="1097.453125"/>
      <use xlink:href="#DejaVuSans-65" x="1136.316406"/>
      <use xlink:href="#DejaVuSans-20" x="1197.839844"/>
      <use xlink:href="#DejaVuSans-28" x="1229.626953"/>
      <use xlink:href="#DejaVuSans-4b" x="1268.640625"/>
      <use xlink:href="#DejaVuSans-29" x="1334.216797"/>
     </g>
    </g>
   </g>
   <g id="line2d_29">
    <path d="M 143.4048 512.604582 
L 148.1664 511.810068 
L 150.5472 511.248423 
L 152.3328 510.596976 
L 153.5232 509.855456 
L 154.1184 509.243017 
L 154.7136 508.168797 
L 155.3088 507.603706 
L 155.904 508.768665 
L 156.4992 509.284293 
L 157.6896 509.723082 
L 158.88 509.84396 
L 160.6656 509.76956 
L 163.0464 509.410168 
L 164.832 508.962936 
L 166.6176 508.267519 
L 167.808 507.528147 
L 168.4032 506.998585 
L 168.9984 506.279476 
L 169.5936 505.213784 
L 170.1888 503.324088 
L 170.784 502.843119 
L 171.3792 504.791335 
L 171.9744 505.770398 
L 172.5696 506.365883 
L 173.76 507.02318 
L 174.9504 507.326065 
L 176.736 507.472339 
L 179.1168 507.399526 
L 182.688 507.040799 
L 187.4496 506.339019 
L 191.616 505.529615 
L 193.4016 505.039777 
L 193.9968 504.804861 
L 194.592 504.41122 
L 195.1872 504.246473 
L 195.7824 504.520908 
L 196.9728 504.606701 
L 199.3536 504.472247 
L 202.9248 504.137194 
L 210.0672 503.202631 
L 218.4 501.912308 
L 223.1616 501.139438 
L 236.8512 498.701793 
L 248.16 496.45835 
L 260.064 493.87426 
L 271.968 491.054333 
L 282.6816 488.294171 
L 293.3952 485.307161 
L 303.5136 482.259618 
L 313.0368 479.170492 
L 322.56 475.850953 
L 332.0832 472.279971 
L 341.0112 468.679073 
L 349.344 465.072068 
L 355.296 462.278459 
L 357.6768 461.099053 
L 360.0576 460.046563 
L 366.0096 457.1054 
L 372.5568 453.691114 
L 379.6992 449.729953 
L 386.8416 445.52221 
L 393.984 441.052432 
L 401.1264 436.302897 
L 407.6736 431.686622 
L 414.2208 426.802599 
L 420.768 421.63476 
L 427.3152 416.163558 
L 433.2672 410.905832 
L 438.624 405.894773 
L 441.0048 403.468556 
L 441.6 402.713032 
L 442.7904 401.785581 
L 445.7664 398.942714 
L 451.1232 393.460442 
L 457.0752 387.0367 
L 463.0272 380.277649 
L 468.9792 373.175426 
L 474.9312 365.721503 
L 480.8832 357.907352 
L 486.8352 349.728368 
L 492.7872 341.180628 
L 498.7392 332.264302 
L 505.2864 322.042831 
L 511.8336 311.413376 
L 518.976 299.372345 
L 526.7136 285.865841 
L 535.0464 270.916036 
L 549.9264 243.665946 
L 561.2352 223.165185 
L 568.3776 210.646408 
L 573.7344 201.633033 
L 579.6864 192.118032 
L 584.448 184.921659 
L 589.2096 178.16346 
L 593.376 172.64184 
L 597.5424 167.514902 
L 601.1136 163.45142 
L 604.6848 159.706379 
L 608.256 156.288818 
L 611.8272 153.206583 
L 614.8032 150.89819 
L 617.7792 148.829096 
L 620.7552 147.000325 
L 623.7312 145.411535 
L 626.7072 144.058633 
L 629.6832 142.928486 
L 633.8496 141.629141 
L 636.2304 140.848476 
L 637.4208 140.219271 
L 638.016 139.581197 
L 638.6112 135.567008 
L 639.2064 139.658291 
L 639.8016 140.34327 
L 640.992 141.057074 
L 643.3728 142.003696 
L 648.1344 143.845771 
L 651.1104 145.224599 
L 654.0864 146.826181 
L 657.0624 148.660069 
L 660.0384 150.727798 
L 663.0144 153.028175 
L 666.5856 156.089431 
L 670.1568 159.472879 
L 673.728 163.17238 
L 677.8944 167.854833 
L 682.656 173.694893 
L 687.4176 179.95232 
L 698.1312 194.435295 
L 699.3216 195.652258 
L 699.9168 196.108513 
L 700.512 196.388576 
L 701.1072 196.364186 
L 702.2976 194.982971 
L 702.8928 198.317638 
L 703.488 200.505444 
L 704.6784 203.805999 
L 706.464 207.763049 
L 708.8448 212.385464 
L 713.6064 220.990001 
L 719.5584 231.313639 
L 721.9392 235.083752 
L 723.1296 236.596983 
L 723.7248 237.023901 
L 724.32 237.074558 
L 724.9152 239.323766 
L 726.1056 242.29974 
L 727.8912 245.991566 
L 731.4624 252.718381 
L 738.6048 265.570266 
L 747.5328 281.170255 
L 755.2704 294.268603 
L 762.4128 305.937978 
L 768.3648 315.255979 
L 771.3408 319.554324 
L 772.5312 321.001036 
L 773.7216 323.22807 
L 776.6976 327.878457 
L 782.0544 335.713758 
L 788.0064 344.023563 
L 793.9584 351.972459 
L 799.9104 359.569484 
L 805.8624 366.823337 
L 811.8144 373.742546 
L 817.7664 380.335469 
L 823.7184 386.611488 
L 830.2656 393.176575 
L 836.2176 398.841348 
L 842.7648 404.751408 
L 849.312 410.342771 
L 855.8592 415.62852 
L 861.8112 420.159036 
L 864.7872 422.254021 
L 866.5728 423.422357 
L 868.3584 424.864361 
L 873.7152 428.655795 
L 880.2624 432.991204 
L 887.4048 437.443448 
L 894.5472 441.623066 
L 905.2608 447.465207 
L 909.4272 449.511207 
L 911.2128 450.265315 
L 912.9984 451.323638 
L 917.1648 453.411255 
L 924.3072 456.736797 
L 932.64 460.371433 
L 941.568 464.009174 
L 950.496 467.412629 
L 960.0192 470.794747 
L 968.9472 473.730827 
L 989.7792 479.97113 
L 1001.088 482.985106 
L 1012.992 485.912624 
L 1025.4912 488.741556 
L 1037.3952 491.230695 
L 1037.3952 491.230695 
" clip-path="url(#p97226914ed)" style="fill: none; stroke: #0000ff; stroke-width: 1.5; stroke-linecap: square"/>
   </g>
   <g id="line2d_30">
    <path d="M 143.4048 478.609461 
L 148.1664 477.389393 
L 150.5472 476.625683 
L 152.3328 475.841965 
L 153.5232 475.039707 
L 154.1184 474.418894 
L 154.7136 473.378616 
L 155.3088 472.800682 
L 155.904 473.793441 
L 156.4992 474.196105 
L 157.6896 474.462677 
L 158.88 474.43977 
L 160.6656 474.171817 
L 163.0464 473.575837 
L 165.4272 472.720091 
L 166.6176 472.129723 
L 167.808 471.322007 
L 168.4032 470.773359 
L 168.9984 470.053193 
L 169.5936 469.019516 
L 170.1888 467.240583 
L 170.784 466.735718 
L 171.3792 468.426896 
L 171.9744 469.240957 
L 172.5696 469.707786 
L 173.76 470.158106 
L 174.9504 470.287034 
L 176.736 470.200269 
L 179.1168 469.839392 
L 182.688 469.065891 
L 188.0448 467.650513 
L 192.2112 466.332047 
L 193.9968 465.570929 
L 194.592 465.137274 
L 195.1872 464.908567 
L 195.7824 465.073125 
L 196.9728 464.986292 
L 199.9488 464.41808 
L 204.7104 463.28314 
L 212.448 461.186279 
L 221.9712 458.360928 
L 232.6848 454.93842 
L 241.6128 451.888882 
L 251.136 448.413262 
L 261.8496 444.239273 
L 271.968 440.020034 
L 280.896 436.056587 
L 289.824 431.853006 
L 298.1568 427.704158 
L 306.4896 423.318331 
L 314.8224 418.682578 
L 323.1552 413.783597 
L 330.8928 408.983592 
L 338.6304 403.924691 
L 346.368 398.591082 
L 353.5104 393.389795 
L 364.224 385.157272 
L 373.7472 377.331522 
L 380.8896 371.110084 
L 388.032 364.581804 
L 395.1744 357.735937 
L 402.3168 350.561225 
L 409.4592 343.047093 
L 416.6016 335.184332 
L 423.744 326.965266 
L 430.8864 318.382901 
L 437.4336 310.177139 
L 441.0048 305.476606 
L 441.6 304.584906 
L 443.3856 302.435306 
L 448.1472 296.164234 
L 455.2896 286.391003 
L 463.0272 275.425027 
L 471.36 263.224008 
L 480.8832 248.860257 
L 492.7872 230.460826 
L 516.5952 193.534042 
L 524.3328 181.984572 
L 530.88 172.579755 
L 536.832 164.408447 
L 542.1888 157.423229 
L 546.9504 151.548715 
L 551.712 146.020955 
L 555.8784 141.48928 
L 560.0448 137.257112 
L 564.2112 133.334857 
L 568.3776 129.726948 
L 572.544 126.436797 
L 576.7104 123.474638 
L 580.8768 120.81625 
L 585.0432 118.456689 
L 589.2096 116.382649 
L 593.376 114.576733 
L 597.5424 113.02052 
L 601.7088 111.693373 
L 606.4704 110.430358 
L 611.232 109.408859 
L 615.9936 108.600052 
L 621.3504 107.912344 
L 627.3024 107.388376 
L 633.8496 107.059531 
L 638.016 106.893915 
L 638.6112 106.616921 
L 639.2064 106.90449 
L 642.1824 107.073858 
L 649.3248 107.507599 
L 655.2768 108.106103 
L 660.6336 108.867494 
L 665.3952 109.747596 
L 670.1568 110.845166 
L 674.9184 112.187664 
L 679.0848 113.584229 
L 683.2512 115.206961 
L 687.4176 117.068139 
L 691.584 119.173222 
L 696.3456 121.840308 
L 699.9168 123.826338 
L 701.1072 124.308859 
L 702.2976 124.459977 
L 702.8928 125.370952 
L 704.0832 126.660575 
L 707.0592 129.341647 
L 713.6064 135.167721 
L 718.368 139.717135 
L 723.1296 144.312089 
L 724.32 145.113392 
L 725.5104 146.916579 
L 728.4864 150.547172 
L 735.6288 159.229316 
L 741.5808 166.858065 
L 748.128 175.646299 
L 755.2704 185.619089 
L 764.1984 198.481208 
L 771.936 209.583804 
L 772.5312 210.389541 
L 774.3168 213.271536 
L 781.4592 223.939198 
L 795.1488 244.002807 
L 805.2672 258.43666 
L 814.1952 270.778734 
L 822.528 281.904526 
L 830.2656 291.868959 
L 838.0032 301.459689 
L 845.1456 309.968541 
L 852.288 318.143772 
L 859.4304 325.977709 
L 864.7872 331.558685 
L 867.168 333.997899 
L 870.7392 337.693477 
L 875.5008 342.451489 
L 882.6432 349.268872 
L 889.7856 355.775321 
L 896.928 361.977315 
L 903.4752 367.428492 
L 908.832 371.659125 
L 912.9984 374.893843 
L 917.76 378.543199 
L 924.9024 383.73768 
L 932.64 389.087373 
L 940.3776 394.167304 
L 948.1152 399.005123 
L 956.448 403.944954 
L 964.7808 408.620704 
L 973.7088 413.351135 
L 981.4464 417.259456 
L 989.7792 421.259454 
L 999.3024 425.575368 
L 1008.8256 429.642687 
L 1018.3488 433.473657 
L 1029.0624 437.532823 
L 1037.3952 440.512431 
L 1037.3952 440.512431 
" clip-path="url(#p97226914ed)" style="fill: none; stroke: #ffa500; stroke-width: 1.5; stroke-linecap: square"/>
   </g>
   <g id="line2d_31">
    <path d="M 143.4048 446.616607 
L 148.7616 444.829624 
L 151.1424 443.850544 
L 152.3328 443.229167 
L 153.5232 442.381438 
L 154.1184 441.757861 
L 154.7136 440.75318 
L 155.3088 440.168594 
L 155.904 441.010473 
L 156.4992 441.315985 
L 157.6896 441.436999 
L 158.88 441.294375 
L 160.6656 440.867098 
L 163.0464 440.078537 
L 165.4272 439.052177 
L 167.2128 437.995252 
L 168.4032 436.972645 
L 168.9984 436.257254 
L 169.5936 435.258389 
L 170.1888 433.585785 
L 170.784 433.06533 
L 171.3792 434.529678 
L 171.9744 435.200551 
L 172.5696 435.557197 
L 173.76 435.832809 
L 174.9504 435.817084 
L 176.736 435.538845 
L 179.712 434.772473 
L 183.8784 433.433285 
L 189.2352 431.474784 
L 192.8064 429.971156 
L 193.9968 429.343111 
L 194.592 428.881006 
L 195.1872 428.60246 
L 195.7824 428.676041 
L 197.568 428.292087 
L 201.7344 426.978108 
L 208.2816 424.626972 
L 216.6144 421.380946 
L 225.5424 417.682349 
L 239.8272 411.343052 
L 248.7552 407.078767 
L 258.2784 402.274704 
L 267.2064 397.522457 
L 276.1344 392.518426 
L 285.0624 387.245468 
L 293.9904 381.694341 
L 302.3232 376.248109 
L 310.656 370.532218 
L 318.3936 364.972392 
L 326.1312 359.167297 
L 333.8688 353.096977 
L 341.6064 346.754269 
L 349.344 340.125869 
L 355.296 334.789139 
L 360.0576 330.457704 
L 366.6048 324.300567 
L 373.7472 317.324731 
L 381.4848 309.463335 
L 389.2224 301.290491 
L 396.96 292.808588 
L 405.2928 283.334352 
L 413.6256 273.518479 
L 422.5536 262.643584 
L 432.0768 250.670266 
L 440.4096 239.869054 
L 443.3856 235.997626 
L 451.1232 225.84114 
L 486.8352 178.674125 
L 494.5728 168.970482 
L 501.7152 160.374984 
L 507.6672 153.54822 
L 513.024 147.70543 
L 518.3808 142.184322 
L 523.1424 137.57197 
L 527.904 133.257592 
L 532.6656 129.257389 
L 536.832 126.023012 
L 540.9984 123.042091 
L 545.1648 120.316502 
L 549.3312 117.84471 
L 553.4976 115.622281 
L 557.664 113.641709 
L 561.8304 111.89259 
L 565.9968 110.361962 
L 570.7584 108.859136 
L 574.9248 107.74741 
L 579.6864 106.677983 
L 585.0432 105.701342 
L 590.9952 104.854158 
L 597.5424 104.156216 
L 605.28 103.574598 
L 614.208 103.141198 
L 624.9216 102.853971 
L 638.6112 102.718545 
L 642.7776 102.765449 
L 655.2768 102.976094 
L 665.3952 103.35082 
L 673.728 103.859608 
L 680.8704 104.498194 
L 687.4176 105.30052 
L 693.3696 106.251747 
L 702.2976 107.90228 
L 704.0832 108.556899 
L 711.8208 111.112608 
L 716.5824 112.959288 
L 721.9392 115.31271 
L 724.9152 116.709787 
L 735.6288 123.219988 
L 740.3904 126.542887 
L 745.152 130.160859 
L 749.9136 134.067423 
L 754.6752 138.249445 
L 760.032 143.263471 
L 765.3888 148.578369 
L 772.5312 155.932343 
L 775.5072 159.324831 
L 783.84 168.810494 
L 792.1728 178.662185 
L 802.8864 191.710047 
L 843.9552 242.144358 
L 854.0736 254.014144 
L 863.0016 264.14317 
L 876.6912 279.101502 
L 885.024 287.786374 
L 893.3568 296.142232 
L 902.2848 304.738924 
L 908.832 310.762509 
L 915.9744 317.198515 
L 923.712 323.88883 
L 932.0448 330.78109 
L 940.3776 337.368726 
L 948.1152 343.232153 
L 956.448 349.271772 
L 964.7808 355.037297 
L 973.1136 360.532309 
L 980.256 365.062449 
L 987.9936 369.781743 
L 996.9216 374.966673 
L 1005.8496 379.904799 
L 1015.3728 384.907568 
L 1024.896 389.655295 
L 1034.4192 394.164627 
L 1037.3952 395.526074 
L 1037.3952 395.526074 
" clip-path="url(#p97226914ed)" style="fill: none; stroke: #008000; stroke-width: 1.5; stroke-linecap: square"/>
   </g>
   <g id="line2d_32">
    <path d="M 143.4048 416.602927 
L 148.7616 414.503302 
L 151.1424 413.39937 
L 152.928 412.326805 
L 153.5232 411.849298 
L 154.1184 411.229167 
L 154.7136 410.263493 
L 155.3088 409.678805 
L 155.904 410.387168 
L 156.4992 410.608951 
L 157.6896 410.60774 
L 159.4752 410.200863 
L 161.856 409.365107 
L 164.2368 408.325068 
L 166.0224 407.372544 
L 167.2128 406.584358 
L 168.4032 405.544387 
L 168.9984 404.840168 
L 169.5936 403.88014 
L 170.1888 402.312347 
L 170.784 401.784336 
L 171.3792 403.046567 
L 171.9744 403.592521 
L 172.5696 403.854692 
L 173.76 403.983586 
L 174.9504 403.848996 
L 176.736 403.416278 
L 179.712 402.419306 
L 184.4736 400.529218 
L 189.8304 398.169162 
L 193.4016 396.375782 
L 195.1872 395.214934 
L 195.7824 395.21391 
L 197.568 394.669014 
L 201.7344 393.017952 
L 208.2816 390.151666 
L 216.6144 386.249383 
L 225.5424 381.836419 
L 238.6368 374.973837 
L 247.5648 369.994776 
L 257.088 364.415335 
L 266.016 358.92868 
L 274.3488 353.578817 
L 283.2768 347.584738 
L 292.2048 341.314349 
L 301.1328 334.758608 
L 309.4656 328.371383 
L 317.7984 321.719274 
L 325.536 315.309194 
L 333.8688 308.136358 
L 342.2016 300.684653 
L 350.5344 292.948108 
L 356.4864 287.171497 
L 358.8672 284.913249 
L 365.4144 278.451659 
L 373.152 270.590774 
L 382.6752 260.595811 
L 392.7936 249.631541 
L 403.5072 237.682272 
L 416.0064 223.388963 
L 434.4576 201.900475 
L 450.528 183.285794 
L 460.6464 171.877891 
L 468.9792 162.802942 
L 476.1216 155.337591 
L 482.6688 148.806753 
L 488.6208 143.171538 
L 493.9776 138.375661 
L 499.3344 133.864965 
L 504.6912 129.660769 
L 509.4528 126.19528 
L 514.2144 122.993822 
L 518.976 120.062194 
L 523.7376 117.402953 
L 528.4992 115.014737 
L 533.2608 112.892598 
L 538.0224 111.026986 
L 542.784 109.405789 
L 547.5456 108.012976 
L 552.9024 106.696403 
L 558.2592 105.616913 
L 564.2112 104.658523 
L 570.7584 103.847839 
L 577.9008 103.196461 
L 586.2336 102.663282 
L 596.352 102.241652 
L 609.4464 101.92287 
L 626.7072 101.730647 
L 646.944 101.726724 
L 665.9904 101.939074 
L 680.2752 102.304248 
L 690.9888 102.783699 
L 700.512 103.433543 
L 704.6784 103.831124 
L 712.416 104.80316 
L 718.368 105.769226 
L 724.9152 107.073347 
L 732.6528 109.153015 
L 737.4144 110.677844 
L 742.176 112.421505 
L 746.9376 114.395084 
L 751.6992 116.60745 
L 756.4608 119.061162 
L 761.2224 121.758267 
L 765.984 124.693819 
L 771.936 128.639441 
L 774.3168 130.377644 
L 780.2688 134.891751 
L 786.2208 139.707584 
L 792.1728 144.81576 
L 798.72 150.736497 
L 805.8624 157.508681 
L 813.6 165.151246 
L 823.1232 174.891901 
L 835.0272 187.413748 
L 876.096 230.896272 
L 887.4048 242.413335 
L 897.5232 252.412051 
L 906.4512 260.967637 
L 918.3552 271.991774 
L 927.2832 279.939134 
L 936.2112 287.600632 
L 945.7344 295.461687 
L 954.6624 302.53952 
L 963.5904 309.336436 
L 972.5184 315.843908 
L 979.6608 320.874819 
L 986.8032 325.754783 
L 995.7312 331.60269 
L 1004.6592 337.209762 
L 1014.1824 342.925311 
L 1023.7056 348.379901 
L 1033.2288 353.590074 
L 1037.3952 355.7934 
L 1037.3952 355.7934 
" clip-path="url(#p97226914ed)" style="fill: none; stroke: #ff0000; stroke-width: 1.5; stroke-linecap: square"/>
   </g>
   <g id="line2d_33">
    <path d="M 143.4048 388.461579 
L 148.7616 386.120609 
L 151.7376 384.58384 
L 152.928 383.803005 
L 154.1184 382.70987 
L 154.7136 381.786274 
L 155.3088 381.207385 
L 155.904 381.797702 
L 156.4992 381.947626 
L 157.6896 381.844777 
L 159.4752 381.323709 
L 161.856 380.362248 
L 164.832 378.89524 
L 166.6176 377.809439 
L 167.808 376.899999 
L 168.9984 375.651311 
L 169.5936 374.733685 
L 170.1888 373.269235 
L 170.784 372.740662 
L 171.3792 373.82271 
L 171.9744 374.259862 
L 172.5696 374.441511 
L 173.76 374.448334 
L 175.5456 374.05297 
L 177.9264 373.218407 
L 181.4976 371.708929 
L 186.8544 369.194156 
L 191.616 366.761422 
L 193.9968 365.358205 
L 194.592 364.870055 
L 195.1872 364.528248 
L 195.7824 364.467016 
L 197.568 363.798752 
L 202.3296 361.61197 
L 209.472 358.046019 
L 217.8048 353.641242 
L 229.7088 346.995956 
L 236.8512 342.84003 
L 246.3744 337.044487 
L 255.8976 330.978772 
L 264.8256 325.044391 
L 271.968 320.13509 
L 281.4912 313.33084 
L 291.0144 306.239191 
L 300.5376 298.857587 
L 310.0608 291.180568 
L 319.584 283.210182 
L 329.1072 274.949499 
L 338.6304 266.401076 
L 348.7488 257.013657 
L 356.4864 249.569968 
L 359.4624 246.742894 
L 368.3904 237.992355 
L 380.2944 226.030635 
L 395.1744 210.750963 
L 429.696 175.166677 
L 441.6 163.330492 
L 447.552 157.727342 
L 455.2896 150.624096 
L 462.432 144.382702 
L 468.9792 138.971948 
L 474.9312 134.341687 
L 480.8832 130.011105 
L 486.24 126.387163 
L 491.5968 123.035098 
L 496.9536 119.963779 
L 501.7152 117.473396 
L 506.4768 115.210714 
L 511.2384 113.173174 
L 516 111.35566 
L 521.3568 109.565265 
L 526.7136 108.02952 
L 532.0704 106.730516 
L 537.4272 105.646762 
L 543.3792 104.666198 
L 549.9264 103.820549 
L 557.0688 103.125166 
L 565.4016 102.543377 
L 575.52 102.069554 
L 588.6144 101.690223 
L 607.0656 101.39515 
L 630.8736 101.24352 
L 656.4672 101.300147 
L 679.0848 101.554626 
L 696.3456 101.957154 
L 708.2496 102.443768 
L 717.7728 103.05387 
L 725.5104 103.752324 
L 733.248 104.724019 
L 739.7952 105.785941 
L 745.7472 106.980731 
L 751.104 108.26592 
L 756.4608 109.767552 
L 761.8176 111.499614 
L 767.1744 113.471146 
L 772.5312 115.658611 
L 780.864 119.65165 
L 786.2208 122.516076 
L 791.5776 125.623896 
L 797.5296 129.35154 
L 803.4816 133.353107 
L 809.4336 137.610006 
L 815.9808 142.562118 
L 823.1232 148.25106 
L 830.8608 154.707022 
L 839.7888 162.465228 
L 849.9072 171.561156 
L 866.5728 186.90513 
L 871.9296 191.969984 
L 893.3568 211.953088 
L 908.2368 225.51963 
L 928.4736 243.358081 
L 939.1872 252.398065 
L 948.1152 259.714002 
L 958.2336 267.737433 
L 967.7568 275.021988 
L 979.0656 283.344585 
L 990.9696 291.734555 
L 1001.088 298.548187 
L 1011.2064 305.080731 
L 1020.7296 310.973324 
L 1031.4432 317.331042 
L 1037.3952 320.735129 
L 1037.3952 320.735129 
" clip-path="url(#p97226914ed)" style="fill: none; stroke: #800080; stroke-width: 1.5; stroke-linecap: square"/>
   </g>
   <g id="line2d_34">
    <path d="M 143.4048 362.196487 
L 148.7616 359.678644 
L 151.7376 358.064269 
L 152.928 357.268254 
L 154.1184 356.190299 
L 154.7136 355.31122 
L 155.3088 354.743247 
L 155.904 355.229521 
L 156.4992 355.318554 
L 157.6896 355.133153 
L 159.4752 354.523221 
L 162.4512 353.178506 
L 165.4272 351.559186 
L 167.2128 350.357402 
L 168.4032 349.323452 
L 168.9984 348.657576 
L 169.5936 347.784979 
L 170.1888 346.421843 
L 170.784 345.898898 
L 171.3792 346.8213 
L 171.9744 347.164472 
L 172.5696 347.278067 
L 173.76 347.18511 
L 175.5456 346.681098 
L 177.9264 345.732088 
L 182.0928 343.784094 
L 188.0448 340.730684 
L 192.8064 338.067862 
L 193.9968 337.301695 
L 195.1872 336.454681 
L 195.7824 336.345692 
L 197.568 335.587542 
L 202.3296 333.201713 
L 210.0672 329.030948 
L 218.4 324.301079 
L 234.4704 314.669755 
L 243.9936 308.631501 
L 253.5168 302.339962 
L 263.04 295.815775 
L 273.7536 288.178839 
L 283.872 280.678011 
L 293.9904 272.901725 
L 304.1088 264.853904 
L 314.8224 256.044691 
L 326.1312 246.443386 
L 338.0352 236.025598 
L 350.5344 224.784847 
L 367.2 209.446842 
L 411.84 168.157922 
L 421.9584 159.251148 
L 430.2912 152.193101 
L 438.0288 145.915718 
L 444.576 140.858028 
L 451.7184 135.645296 
L 458.2656 131.162402 
L 464.2176 127.357493 
L 470.1696 123.82719 
L 475.5264 120.89505 
L 480.8832 118.201868 
L 486.24 115.751397 
L 491.5968 113.543806 
L 496.9536 111.576368 
L 502.3104 109.8426 
L 507.6672 108.333633 
L 513.6192 106.904149 
L 519.5712 105.713963 
L 526.1184 104.651871 
L 532.6656 103.813726 
L 540.4032 103.061546 
L 548.736 102.476687 
L 559.4496 101.967217 
L 573.1392 101.561107 
L 592.1856 101.23141 
L 617.7792 101.008144 
L 646.3488 100.97062 
L 674.9184 101.145447 
L 698.7264 101.491006 
L 714.7968 101.919118 
L 726.7008 102.444621 
L 736.224 103.087642 
L 744.5568 103.879222 
L 751.6992 104.778428 
L 758.2464 105.817324 
L 764.7936 107.09262 
L 770.7456 108.473324 
L 776.1024 109.922593 
L 782.0544 111.764839 
L 788.0064 113.858153 
L 793.9584 116.209186 
L 799.9104 118.818452 
L 805.8624 121.682367 
L 811.8144 124.793939 
L 817.7664 128.142934 
L 824.3136 132.084974 
L 830.8608 136.279959 
L 838.0032 141.116771 
L 845.7408 146.627987 
L 854.0736 152.833392 
L 864.192 160.657606 
L 870.7392 165.875625 
L 890.3808 181.944831 
L 929.664 214.288259 
L 943.3536 225.209206 
L 955.8528 234.906708 
L 967.7568 243.8551 
L 980.256 252.934313 
L 989.7792 259.629744 
L 1001.088 267.305228 
L 1011.8016 274.304772 
L 1022.5152 281.037045 
L 1033.2288 287.511428 
L 1037.3952 289.958317 
L 1037.3952 289.958317 
" clip-path="url(#p97226914ed)" style="fill: none; stroke: #a52a2a; stroke-width: 1.5; stroke-linecap: square"/>
   </g>
   <g id="line2d_35">
    <path d="M 143.4048 337.758461 
L 149.3568 334.808583 
L 151.7376 333.459945 
L 153.5232 332.185502 
L 154.1184 331.606272 
L 154.7136 330.773415 
L 155.3088 330.220622 
L 155.904 330.616156 
L 156.4992 330.654192 
L 157.6896 330.402953 
L 159.4752 329.727184 
L 162.4512 328.304693 
L 165.4272 326.634545 
L 167.2128 325.425768 
L 168.4032 324.411433 
L 168.9984 323.7708 
L 169.5936 322.945448 
L 170.1888 321.680727 
L 170.784 321.168699 
L 171.3792 321.950045 
L 171.9744 322.212712 
L 173.1648 322.217317 
L 174.3552 321.930772 
L 176.1408 321.271036 
L 179.1168 319.914041 
L 183.8784 317.484889 
L 190.4256 313.886362 
L 193.9968 311.69958 
L 195.1872 310.85069 
L 196.3776 310.455497 
L 199.3536 308.960346 
L 204.1152 306.392015 
L 212.448 301.649525 
L 222.5664 295.622357 
L 233.28 288.972125 
L 243.3984 282.43924 
L 253.5168 275.655116 
L 263.6352 268.64312 
L 276.1344 259.657887 
L 287.4432 251.228858 
L 300.5376 241.140939 
L 313.0368 231.205502 
L 326.7264 220.030758 
L 342.7968 206.610729 
L 391.008 166.123453 
L 401.7216 157.546376 
L 410.6496 150.662814 
L 418.9824 144.511306 
L 426.72 139.079231 
L 433.8624 134.337935 
L 441.0048 129.874143 
L 444.576 127.780488 
L 451.1232 124.140002 
L 457.0752 121.080111 
L 463.0272 118.269923 
L 468.9792 115.715408 
L 474.9312 113.418443 
L 480.8832 111.377321 
L 486.8352 109.586244 
L 492.7872 108.03549 
L 498.7392 106.711242 
L 505.2864 105.495985 
L 511.8336 104.507916 
L 518.976 103.654762 
L 526.7136 102.95068 
L 535.6416 102.360704 
L 546.9504 101.855669 
L 561.8304 101.440861 
L 583.2576 101.088479 
L 613.0176 100.832294 
L 646.3488 100.77959 
L 678.4896 100.951176 
L 707.0592 101.314474 
L 725.5104 101.740027 
L 739.2 102.276958 
L 749.3184 102.888766 
L 758.2464 103.652033 
L 765.984 104.534012 
L 773.1264 105.562333 
L 780.2688 106.841382 
L 786.816 108.244258 
L 793.3632 109.888481 
L 799.3152 111.602634 
L 805.2672 113.532208 
L 811.2192 115.67959 
L 817.1712 118.044269 
L 823.7184 120.892151 
L 830.2656 123.991272 
L 836.8128 127.329521 
L 843.9552 131.226874 
L 851.0976 135.37035 
L 858.8352 140.108406 
L 867.7632 145.847152 
L 878.4768 153.100664 
L 889.7856 161.049559 
L 904.0704 171.394858 
L 924.9024 186.783519 
L 949.9008 205.170158 
L 965.376 216.280088 
L 979.0656 225.841481 
L 993.9456 235.912686 
L 1004.6592 242.930651 
L 1016.5632 250.475143 
L 1028.4672 257.753216 
L 1037.3952 263.033319 
L 1037.3952 263.033319 
" clip-path="url(#p97226914ed)" style="fill: none; stroke: #ffc0cb; stroke-width: 1.5; stroke-linecap: square"/>
   </g>
   <g id="line2d_36">
    <path d="M 143.4048 315.075694 
L 149.3568 312.050256 
L 152.3328 310.306596 
L 153.5232 309.429734 
L 154.1184 308.871653 
L 154.7136 308.086213 
L 155.3088 307.552182 
L 155.904 307.869087 
L 156.4992 307.864993 
L 157.6896 307.562757 
L 159.4752 306.840765 
L 162.4512 305.37154 
L 165.4272 303.680071 
L 167.2128 302.480335 
L 168.4032 301.494142 
L 168.9984 300.881993 
L 169.5936 300.10474 
L 170.1888 298.935705 
L 170.784 298.438686 
L 171.3792 299.096204 
L 171.9744 299.290304 
L 173.1648 299.21338 
L 174.9504 298.658882 
L 177.3312 297.622032 
L 181.4976 295.525137 
L 188.0448 291.952875 
L 192.8064 289.168784 
L 195.7824 287.381971 
L 198.1632 286.213788 
L 205.3056 282.274476 
L 214.8288 276.722667 
L 225.5424 270.212125 
L 239.8272 261.173676 
L 251.136 253.717536 
L 263.6352 245.193675 
L 277.92 235.112918 
L 291.0144 225.579668 
L 305.2992 214.90996 
L 323.1552 201.274681 
L 370.176 165.192352 
L 382.08 156.449829 
L 392.1984 149.296267 
L 401.1264 143.256478 
L 409.4592 137.895698 
L 417.1968 133.191755 
L 424.3392 129.110535 
L 430.8864 125.608204 
L 437.4336 122.347902 
L 443.9808 119.343443 
L 450.528 116.608814 
L 456.48 114.353296 
L 462.432 112.320702 
L 468.384 110.509158 
L 474.336 108.913375 
L 480.8832 107.396904 
L 487.4304 106.115809 
L 493.9776 105.050475 
L 501.12 104.108117 
L 508.8576 103.310397 
L 517.7856 102.624906 
L 527.904 102.077741 
L 540.4032 101.629332 
L 557.664 101.242667 
L 583.8528 100.892673 
L 617.184 100.667872 
L 651.1104 100.64928 
L 686.2272 100.847644 
L 718.368 101.250001 
L 738.6048 101.708473 
L 752.2944 102.230906 
L 763.008 102.853971 
L 772.5312 103.633783 
L 781.4592 104.626286 
L 789.1968 105.722662 
L 796.3392 106.958899 
L 803.4816 108.430683 
L 810.0288 110.000199 
L 816.576 111.788718 
L 823.1232 113.800844 
L 829.6704 116.037942 
L 836.2176 118.497453 
L 843.36 121.427376 
L 850.5024 124.604444 
L 857.6448 128.014159 
L 865.9776 132.235922 
L 878.4768 139.133641 
L 888 144.702677 
L 898.1184 150.876529 
L 911.2128 159.135336 
L 920.1408 164.974714 
L 940.9728 178.755312 
L 970.7328 198.43635 
L 986.8032 208.86096 
L 1001.6832 218.247868 
L 1015.968 226.989367 
L 1029.6576 235.090745 
L 1037.3952 239.542597 
L 1037.3952 239.542597 
" clip-path="url(#p97226914ed)" style="fill: none; stroke: #808080; stroke-width: 1.5; stroke-linecap: square"/>
   </g>
   <g id="line2d_37">
    <path d="M 143.4048 294.091388 
L 149.3568 291.03866 
L 152.3328 289.304892 
L 153.5232 288.450715 
L 154.1184 287.916684 
L 154.7136 287.179001 
L 155.3088 286.666632 
L 155.904 286.915653 
L 157.0944 286.734004 
L 158.88 286.054994 
L 161.856 284.610671 
L 165.4272 282.609461 
L 167.2128 281.432068 
L 168.4032 280.481182 
L 169.5936 279.171433 
L 170.1888 278.09433 
L 170.784 277.615902 
L 171.3792 278.164943 
L 171.9744 278.301393 
L 173.1648 278.159997 
L 174.9504 277.556547 
L 177.9264 276.196822 
L 182.688 273.728783 
L 189.8304 269.764398 
L 193.9968 267.246555 
L 195.1872 266.428196 
L 196.3776 265.963754 
L 199.9488 264.087396 
L 207.0912 260.0831 
L 217.2096 254.163045 
L 229.7088 246.574037 
L 239.8272 240.249409 
L 252.3264 232.192718 
L 268.992 221.106666 
L 284.4672 210.506377 
L 303.5136 197.166341 
L 351.1296 163.648591 
L 363.0336 155.598722 
L 373.7472 148.609923 
L 383.2704 142.654222 
L 392.1984 137.337447 
L 399.936 132.970706 
L 407.6736 128.854862 
L 414.816 125.298292 
L 421.9584 121.991426 
L 428.5056 119.191131 
L 435.0528 116.61956 
L 441.6 114.270914 
L 449.3376 111.826753 
L 455.8848 110.003781 
L 462.432 108.408681 
L 468.9792 107.032071 
L 476.1216 105.764109 
L 483.264 104.719755 
L 491.0016 103.81185 
L 499.3344 103.055917 
L 508.8576 102.418696 
L 520.1664 101.893875 
L 535.0464 101.449048 
L 556.4736 101.05863 
L 588.0192 100.716994 
L 623.7312 100.539267 
L 661.824 100.572527 
L 698.7264 100.820696 
L 731.4624 101.250172 
L 751.6992 101.718025 
L 765.3888 102.240799 
L 776.6976 102.891666 
L 786.2208 103.658344 
L 795.1488 104.607183 
L 803.4816 105.730679 
L 811.2192 107.005974 
L 818.3616 108.398788 
L 825.504 110.010092 
L 832.6464 111.848074 
L 839.7888 113.915291 
L 846.9312 116.211404 
L 854.0736 118.732147 
L 861.8112 121.706416 
L 869.5488 124.922372 
L 877.8816 128.646434 
L 886.2144 132.606213 
L 895.7376 137.388786 
L 907.0464 143.384229 
L 917.1648 148.987378 
L 930.8544 156.83803 
L 947.52 166.670106 
L 1007.6352 202.379585 
L 1023.7056 211.540327 
L 1037.3952 219.123195 
L 1037.3952 219.123195 
" clip-path="url(#p97226914ed)" style="fill: none; stroke: #808000; stroke-width: 1.5; stroke-linecap: square"/>
   </g>
   <g id="line2d_38">
    <path d="M 143.4048 274.744653 
L 149.952 271.38406 
L 152.3328 270.001139 
L 153.5232 269.175787 
L 154.1184 268.667681 
L 154.7136 267.978097 
L 155.3088 267.489436 
L 155.904 267.680295 
L 157.0944 267.455494 
L 158.88 266.754823 
L 161.856 265.308623 
L 165.4272 263.334192 
L 167.808 261.757512 
L 168.9984 260.730725 
L 169.5936 260.051375 
L 170.1888 259.062283 
L 170.784 258.605005 
L 171.3792 259.059895 
L 171.9744 259.148417 
L 173.1648 258.957216 
L 174.9504 258.322724 
L 177.9264 256.951231 
L 183.2832 254.180102 
L 191.0208 249.909046 
L 193.9968 248.124621 
L 195.1872 247.334575 
L 196.3776 246.855806 
L 200.544 244.675165 
L 208.8768 240.04678 
L 220.7808 233.177375 
L 233.8752 225.379939 
L 247.5648 216.989969 
L 263.6352 206.877659 
L 285.6576 192.692487 
L 332.0832 162.61737 
L 345.7728 154.073723 
L 357.6768 146.900546 
L 370.7712 139.432466 
L 379.6992 134.61851 
L 388.032 130.369968 
L 395.7696 126.660063 
L 403.5072 123.196109 
L 410.6496 120.231392 
L 417.792 117.501027 
L 424.9344 115.01269 
L 432.0768 112.770646 
L 439.2192 110.774212 
L 445.7664 109.161032 
L 452.9088 107.627334 
L 460.0512 106.318266 
L 467.7888 105.136098 
L 475.5264 104.176001 
L 483.8592 103.358836 
L 493.3824 102.654072 
L 504.096 102.087463 
L 517.1904 101.621145 
L 535.6416 101.208043 
L 564.2112 100.818308 
L 602.304 100.525281 
L 642.1824 100.441706 
L 683.2512 100.586513 
L 721.9392 100.938554 
L 750.5088 101.390374 
L 768.3648 101.874431 
L 781.4592 102.43831 
L 792.1728 103.106574 
L 801.696 103.909412 
L 810.624 104.880254 
L 818.9568 106.005966 
L 827.2896 107.366544 
L 835.0272 108.855725 
L 842.7648 110.571754 
L 850.5024 112.519749 
L 858.24 114.70022 
L 866.5728 117.294987 
L 876.096 120.597248 
L 884.4288 123.738669 
L 893.3568 127.354082 
L 902.2848 131.205554 
L 912.4032 135.815177 
L 924.9024 141.848484 
L 937.4016 148.153157 
L 951.6864 155.61322 
L 971.9232 166.454856 
L 1005.8496 184.814204 
L 1026.6816 195.873478 
L 1037.3952 201.440638 
L 1037.3952 201.440638 
" clip-path="url(#p97226914ed)" style="fill: none; stroke: #00ffff; stroke-width: 1.5; stroke-linecap: square"/>
   </g>
   <g id="patch_3">
    <path d="M 144 576.72 
L 144 77.76 
" style="fill: none; stroke: #000000; stroke-width: 0.8; stroke-linejoin: miter; stroke-linecap: square"/>
   </g>
   <g id="patch_4">
    <path d="M 1036.8 576.72 
L 1036.8 77.76 
" style="fill: none; stroke: #000000; stroke-width: 0.8; stroke-linejoin: miter; stroke-linecap: square"/>
   </g>
   <g id="patch_5">
    <path d="M 144 576.72 
L 1036.8 576.72 
" style="fill: none; stroke: #000000; stroke-width: 0.8; stroke-linejoin: miter; stroke-linecap: square"/>
   </g>
   <g id="patch_6">
    <path d="M 144 77.76 
L 1036.8 77.76 
" style="fill: none; stroke: #000000; stroke-width: 0.8; stroke-linejoin: miter; stroke-linecap: square"/>
   </g>
   <g id="text_17">
    <!-- ACT Data -->
    <g transform="translate(562.313437 71.76) scale(0.12 -0.12)">
     <defs>
      <path id="DejaVuSans-41" d="M 2188 4044 
L 1331 1722 
L 3047 1722 
L 2188 4044 
z
M 1831 4666 
L 2547 4666 
L 4325 0 
L 3669 0 
L 3244 1197 
L 1141 1197 
L 716 0 
L 50 0 
L 1831 4666 
z
" transform="scale(0.015625)"/>
      <path id="DejaVuSans-43" d="M 4122 4306 
L 4122 3641 
Q 3803 3938 3442 4084 
Q 3081 4231 2675 4231 
Q 1875 4231 1450 3742 
Q 1025 3253 1025 2328 
Q 1025 1406 1450 917 
Q 1875 428 2675 428 
Q 3081 428 3442 575 
Q 3803 722 4122 1019 
L 4122 359 
Q 3791 134 3420 21 
Q 3050 -91 2638 -91 
Q 1578 -91 968 557 
Q 359 1206 359 2328 
Q 359 3453 968 4101 
Q 1578 4750 2638 4750 
Q 3056 4750 3426 4639 
Q 3797 4528 4122 4306 
z
" transform="scale(0.015625)"/>
      <path id="DejaVuSans-44" d="M 1259 4147 
L 1259 519 
L 2022 519 
Q 2988 519 3436 956 
Q 3884 1394 3884 2338 
Q 3884 3275 3436 3711 
Q 2988 4147 2022 4147 
L 1259 4147 
z
M 628 4666 
L 1925 4666 
Q 3281 4666 3915 4102 
Q 4550 3538 4550 2338 
Q 4550 1131 3912 565 
Q 3275 0 1925 0 
L 628 0 
L 628 4666 
z
" transform="scale(0.015625)"/>
     </defs>
     <use xlink:href="#DejaVuSans-41"/>
     <use xlink:href="#DejaVuSans-43" x="66.658203"/>
     <use xlink:href="#DejaVuSans-54" x="136.482422"/>
     <use xlink:href="#DejaVuSans-20" x="197.566406"/>
     <use xlink:href="#DejaVuSans-44" x="229.353516"/>
     <use xlink:href="#DejaVuSans-61" x="306.355469"/>
     <use xlink:href="#DejaVuSans-74" x="367.634766"/>
     <use xlink:href="#DejaVuSans-61" x="406.84375"/>
    </g>
   </g>
   <g id="legend_1">
    <g id="patch_7">
     <path d="M 534.34375 571.72 
L 646.45625 571.72 
Q 648.45625 571.72 648.45625 569.72 
L 648.45625 423.93875 
Q 648.45625 421.93875 646.45625 421.93875 
L 534.34375 421.93875 
Q 532.34375 421.93875 532.34375 423.93875 
L 532.34375 569.72 
Q 532.34375 571.72 534.34375 571.72 
z
" style="fill: #ffffff; opacity: 0.8; stroke: #cccccc; stroke-linejoin: miter"/>
    </g>
    <g id="line2d_39">
     <path d="M 536.34375 430.037188 
L 546.34375 430.037188 
L 556.34375 430.037188 
" style="fill: none; stroke: #0000ff; stroke-width: 1.5; stroke-linecap: square"/>
    </g>
    <g id="text_18">
     <!-- ~1.00mm pwv -->
     <g transform="translate(564.34375 433.537188) scale(0.1 -0.1)">
      <defs>
       <path id="DejaVuSans-7e" d="M 4684 2553 
L 4684 1997 
Q 4356 1750 4076 1644 
Q 3797 1538 3494 1538 
Q 3150 1538 2694 1722 
Q 2659 1734 2644 1741 
Q 2622 1750 2575 1766 
Q 2091 1959 1797 1959 
Q 1522 1959 1253 1839 
Q 984 1719 678 1459 
L 678 2016 
Q 1006 2263 1286 2370 
Q 1566 2478 1869 2478 
Q 2213 2478 2672 2291 
Q 2703 2278 2719 2272 
Q 2744 2263 2788 2247 
Q 3272 2053 3566 2053 
Q 3834 2053 4098 2172 
Q 4363 2291 4684 2553 
z
" transform="scale(0.015625)"/>
       <path id="DejaVuSans-2e" d="M 684 794 
L 1344 794 
L 1344 0 
L 684 0 
L 684 794 
z
" transform="scale(0.015625)"/>
       <path id="DejaVuSans-77" d="M 269 3500 
L 844 3500 
L 1563 769 
L 2278 3500 
L 2956 3500 
L 3675 769 
L 4391 3500 
L 4966 3500 
L 4050 0 
L 3372 0 
L 2619 2869 
L 1863 0 
L 1184 0 
L 269 3500 
z
" transform="scale(0.015625)"/>
       <path id="DejaVuSans-76" d="M 191 3500 
L 800 3500 
L 1894 563 
L 2988 3500 
L 3597 3500 
L 2284 0 
L 1503 0 
L 191 3500 
z
" transform="scale(0.015625)"/>
      </defs>
      <use xlink:href="#DejaVuSans-7e"/>
      <use xlink:href="#DejaVuSans-31" x="83.789062"/>
      <use xlink:href="#DejaVuSans-2e" x="147.412109"/>
      <use xlink:href="#DejaVuSans-30" x="179.199219"/>
      <use xlink:href="#DejaVuSans-30" x="242.822266"/>
      <use xlink:href="#DejaVuSans-6d" x="306.445312"/>
      <use xlink:href="#DejaVuSans-6d" x="403.857422"/>
      <use xlink:href="#DejaVuSans-20" x="501.269531"/>
      <use xlink:href="#DejaVuSans-70" x="533.056641"/>
      <use xlink:href="#DejaVuSans-77" x="596.533203"/>
      <use xlink:href="#DejaVuSans-76" x="678.320312"/>
     </g>
    </g>
    <g id="line2d_40">
     <path d="M 536.34375 444.715313 
L 546.34375 444.715313 
L 556.34375 444.715313 
" style="fill: none; stroke: #ffa500; stroke-width: 1.5; stroke-linecap: square"/>
    </g>
    <g id="text_19">
     <!-- ~2.00mm pwv -->
     <g transform="translate(564.34375 448.215313) scale(0.1 -0.1)">
      <use xlink:href="#DejaVuSans-7e"/>
      <use xlink:href="#DejaVuSans-32" x="83.789062"/>
      <use xlink:href="#DejaVuSans-2e" x="147.412109"/>
      <use xlink:href="#DejaVuSans-30" x="179.199219"/>
      <use xlink:href="#DejaVuSans-30" x="242.822266"/>
      <use xlink:href="#DejaVuSans-6d" x="306.445312"/>
      <use xlink:href="#DejaVuSans-6d" x="403.857422"/>
      <use xlink:href="#DejaVuSans-20" x="501.269531"/>
      <use xlink:href="#DejaVuSans-70" x="533.056641"/>
      <use xlink:href="#DejaVuSans-77" x="596.533203"/>
      <use xlink:href="#DejaVuSans-76" x="678.320312"/>
     </g>
    </g>
    <g id="line2d_41">
     <path d="M 536.34375 459.393438 
L 546.34375 459.393438 
L 556.34375 459.393438 
" style="fill: none; stroke: #008000; stroke-width: 1.5; stroke-linecap: square"/>
    </g>
    <g id="text_20">
     <!-- ~3.00mm pwv -->
     <g transform="translate(564.34375 462.893438) scale(0.1 -0.1)">
      <defs>
       <path id="DejaVuSans-33" d="M 2597 2516 
Q 3050 2419 3304 2112 
Q 3559 1806 3559 1356 
Q 3559 666 3084 287 
Q 2609 -91 1734 -91 
Q 1441 -91 1130 -33 
Q 819 25 488 141 
L 488 750 
Q 750 597 1062 519 
Q 1375 441 1716 441 
Q 2309 441 2620 675 
Q 2931 909 2931 1356 
Q 2931 1769 2642 2001 
Q 2353 2234 1838 2234 
L 1294 2234 
L 1294 2753 
L 1863 2753 
Q 2328 2753 2575 2939 
Q 2822 3125 2822 3475 
Q 2822 3834 2567 4026 
Q 2313 4219 1838 4219 
Q 1578 4219 1281 4162 
Q 984 4106 628 3988 
L 628 4550 
Q 988 4650 1302 4700 
Q 1616 4750 1894 4750 
Q 2613 4750 3031 4423 
Q 3450 4097 3450 3541 
Q 3450 3153 3228 2886 
Q 3006 2619 2597 2516 
z
" transform="scale(0.015625)"/>
      </defs>
      <use xlink:href="#DejaVuSans-7e"/>
      <use xlink:href="#DejaVuSans-33" x="83.789062"/>
      <use xlink:href="#DejaVuSans-2e" x="147.412109"/>
      <use xlink:href="#DejaVuSans-30" x="179.199219"/>
      <use xlink:href="#DejaVuSans-30" x="242.822266"/>
      <use xlink:href="#DejaVuSans-6d" x="306.445312"/>
      <use xlink:href="#DejaVuSans-6d" x="403.857422"/>
      <use xlink:href="#DejaVuSans-20" x="501.269531"/>
      <use xlink:href="#DejaVuSans-70" x="533.056641"/>
      <use xlink:href="#DejaVuSans-77" x="596.533203"/>
      <use xlink:href="#DejaVuSans-76" x="678.320312"/>
     </g>
    </g>
    <g id="line2d_42">
     <path d="M 536.34375 474.071563 
L 546.34375 474.071563 
L 556.34375 474.071563 
" style="fill: none; stroke: #ff0000; stroke-width: 1.5; stroke-linecap: square"/>
    </g>
    <g id="text_21">
     <!-- ~4.00mm pwv -->
     <g transform="translate(564.34375 477.571563) scale(0.1 -0.1)">
      <use xlink:href="#DejaVuSans-7e"/>
      <use xlink:href="#DejaVuSans-34" x="83.789062"/>
      <use xlink:href="#DejaVuSans-2e" x="147.412109"/>
      <use xlink:href="#DejaVuSans-30" x="179.199219"/>
      <use xlink:href="#DejaVuSans-30" x="242.822266"/>
      <use xlink:href="#DejaVuSans-6d" x="306.445312"/>
      <use xlink:href="#DejaVuSans-6d" x="403.857422"/>
      <use xlink:href="#DejaVuSans-20" x="501.269531"/>
      <use xlink:href="#DejaVuSans-70" x="533.056641"/>
      <use xlink:href="#DejaVuSans-77" x="596.533203"/>
      <use xlink:href="#DejaVuSans-76" x="678.320312"/>
     </g>
    </g>
    <g id="line2d_43">
     <path d="M 536.34375 488.749688 
L 546.34375 488.749688 
L 556.34375 488.749688 
" style="fill: none; stroke: #800080; stroke-width: 1.5; stroke-linecap: square"/>
    </g>
    <g id="text_22">
     <!-- ~5.00mm pwv -->
     <g transform="translate(564.34375 492.249688) scale(0.1 -0.1)">
      <use xlink:href="#DejaVuSans-7e"/>
      <use xlink:href="#DejaVuSans-35" x="83.789062"/>
      <use xlink:href="#DejaVuSans-2e" x="147.412109"/>
      <use xlink:href="#DejaVuSans-30" x="179.199219"/>
      <use xlink:href="#DejaVuSans-30" x="242.822266"/>
      <use xlink:href="#DejaVuSans-6d" x="306.445312"/>
      <use xlink:href="#DejaVuSans-6d" x="403.857422"/>
      <use xlink:href="#DejaVuSans-20" x="501.269531"/>
      <use xlink:href="#DejaVuSans-70" x="533.056641"/>
      <use xlink:href="#DejaVuSans-77" x="596.533203"/>
      <use xlink:href="#DejaVuSans-76" x="678.320312"/>
     </g>
    </g>
    <g id="line2d_44">
     <path d="M 536.34375 503.427813 
L 546.34375 503.427813 
L 556.34375 503.427813 
" style="fill: none; stroke: #a52a2a; stroke-width: 1.5; stroke-linecap: square"/>
    </g>
    <g id="text_23">
     <!-- ~6.00mm pwv -->
     <g transform="translate(564.34375 506.927813) scale(0.1 -0.1)">
      <use xlink:href="#DejaVuSans-7e"/>
      <use xlink:href="#DejaVuSans-36" x="83.789062"/>
      <use xlink:href="#DejaVuSans-2e" x="147.412109"/>
      <use xlink:href="#DejaVuSans-30" x="179.199219"/>
      <use xlink:href="#DejaVuSans-30" x="242.822266"/>
      <use xlink:href="#DejaVuSans-6d" x="306.445312"/>
      <use xlink:href="#DejaVuSans-6d" x="403.857422"/>
      <use xlink:href="#DejaVuSans-20" x="501.269531"/>
      <use xlink:href="#DejaVuSans-70" x="533.056641"/>
      <use xlink:href="#DejaVuSans-77" x="596.533203"/>
      <use xlink:href="#DejaVuSans-76" x="678.320312"/>
     </g>
    </g>
    <g id="line2d_45">
     <path d="M 536.34375 518.105937 
L 546.34375 518.105937 
L 556.34375 518.105937 
" style="fill: none; stroke: #ffc0cb; stroke-width: 1.5; stroke-linecap: square"/>
    </g>
    <g id="text_24">
     <!-- ~7.00mm pwv -->
     <g transform="translate(564.34375 521.605937) scale(0.1 -0.1)">
      <use xlink:href="#DejaVuSans-7e"/>
      <use xlink:href="#DejaVuSans-37" x="83.789062"/>
      <use xlink:href="#DejaVuSans-2e" x="147.412109"/>
      <use xlink:href="#DejaVuSans-30" x="179.199219"/>
      <use xlink:href="#DejaVuSans-30" x="242.822266"/>
      <use xlink:href="#DejaVuSans-6d" x="306.445312"/>
      <use xlink:href="#DejaVuSans-6d" x="403.857422"/>
      <use xlink:href="#DejaVuSans-20" x="501.269531"/>
      <use xlink:href="#DejaVuSans-70" x="533.056641"/>
      <use xlink:href="#DejaVuSans-77" x="596.533203"/>
      <use xlink:href="#DejaVuSans-76" x="678.320312"/>
     </g>
    </g>
    <g id="line2d_46">
     <path d="M 536.34375 532.784063 
L 546.34375 532.784063 
L 556.34375 532.784063 
" style="fill: none; stroke: #808080; stroke-width: 1.5; stroke-linecap: square"/>
    </g>
    <g id="text_25">
     <!-- ~8.00mm pwv -->
     <g transform="translate(564.34375 536.284063) scale(0.1 -0.1)">
      <use xlink:href="#DejaVuSans-7e"/>
      <use xlink:href="#DejaVuSans-38" x="83.789062"/>
      <use xlink:href="#DejaVuSans-2e" x="147.412109"/>
      <use xlink:href="#DejaVuSans-30" x="179.199219"/>
      <use xlink:href="#DejaVuSans-30" x="242.822266"/>
      <use xlink:href="#DejaVuSans-6d" x="306.445312"/>
      <use xlink:href="#DejaVuSans-6d" x="403.857422"/>
      <use xlink:href="#DejaVuSans-20" x="501.269531"/>
      <use xlink:href="#DejaVuSans-70" x="533.056641"/>
      <use xlink:href="#DejaVuSans-77" x="596.533203"/>
      <use xlink:href="#DejaVuSans-76" x="678.320312"/>
     </g>
    </g>
    <g id="line2d_47">
     <path d="M 536.34375 547.462188 
L 546.34375 547.462188 
L 556.34375 547.462188 
" style="fill: none; stroke: #808000; stroke-width: 1.5; stroke-linecap: square"/>
    </g>
    <g id="text_26">
     <!-- ~9.00mm pwv -->
     <g transform="translate(564.34375 550.962188) scale(0.1 -0.1)">
      <use xlink:href="#DejaVuSans-7e"/>
      <use xlink:href="#DejaVuSans-39" x="83.789062"/>
      <use xlink:href="#DejaVuSans-2e" x="147.412109"/>
      <use xlink:href="#DejaVuSans-30" x="179.199219"/>
      <use xlink:href="#DejaVuSans-30" x="242.822266"/>
      <use xlink:href="#DejaVuSans-6d" x="306.445312"/>
      <use xlink:href="#DejaVuSans-6d" x="403.857422"/>
      <use xlink:href="#DejaVuSans-20" x="501.269531"/>
      <use xlink:href="#DejaVuSans-70" x="533.056641"/>
      <use xlink:href="#DejaVuSans-77" x="596.533203"/>
      <use xlink:href="#DejaVuSans-76" x="678.320312"/>
     </g>
    </g>
    <g id="line2d_48">
     <path d="M 536.34375 562.140312 
L 546.34375 562.140312 
L 556.34375 562.140312 
" style="fill: none; stroke: #00ffff; stroke-width: 1.5; stroke-linecap: square"/>
    </g>
    <g id="text_27">
     <!-- ~10.00mm pwv -->
     <g transform="translate(564.34375 565.640312) scale(0.1 -0.1)">
      <use xlink:href="#DejaVuSans-7e"/>
      <use xlink:href="#DejaVuSans-31" x="83.789062"/>
      <use xlink:href="#DejaVuSans-30" x="147.412109"/>
      <use xlink:href="#DejaVuSans-2e" x="211.035156"/>
      <use xlink:href="#DejaVuSans-30" x="242.822266"/>
      <use xlink:href="#DejaVuSans-30" x="306.445312"/>
      <use xlink:href="#DejaVuSans-6d" x="370.068359"/>
      <use xlink:href="#DejaVuSans-6d" x="467.480469"/>
      <use xlink:href="#DejaVuSans-20" x="564.892578"/>
      <use xlink:href="#DejaVuSans-70" x="596.679688"/>
      <use xlink:href="#DejaVuSans-77" x="660.15625"/>
      <use xlink:href="#DejaVuSans-76" x="741.943359"/>
     </g>
    </g>
   </g>
  </g>
 </g>
 <defs>
  <clipPath id="p97226914ed">
   <rect x="144" y="77.76" width="892.8" height="498.96"/>
  </clipPath>
 </defs>
</svg>
