<?xml version="1.0" encoding="utf-8" standalone="no"?>
<!DOCTYPE svg PUBLIC "-//W3C//DTD SVG 1.1//EN"
  "http://www.w3.org/Graphics/SVG/1.1/DTD/svg11.dtd">
<svg xmlns:xlink="http://www.w3.org/1999/xlink" width="1152pt" height="648pt" viewBox="0 0 1152 648" xmlns="http://www.w3.org/2000/svg" version="1.1">
 <metadata>
  <rdf:RDF xmlns:dc="http://purl.org/dc/elements/1.1/" xmlns:cc="http://creativecommons.org/ns#" xmlns:rdf="http://www.w3.org/1999/02/22-rdf-syntax-ns#">
   <cc:Work>
    <dc:type rdf:resource="http://purl.org/dc/dcmitype/StillImage"/>
    <dc:date>2025-06-13T16:08:45.153019</dc:date>
    <dc:format>image/svg+xml</dc:format>
    <dc:creator>
     <cc:Agent>
      <dc:title>Matplotlib v3.8.4, https://matplotlib.org/</dc:title>
     </cc:Agent>
    </dc:creator>
   </cc:Work>
  </rdf:RDF>
 </metadata>
 <defs>
  <style type="text/css">*{stroke-linejoin: round; stroke-linecap: butt}</style>
 </defs>
 <g id="figure_1">
  <g id="patch_1">
   <path d="M 0 648 
L 1152 648 
L 1152 0 
L 0 0 
z
" style="fill: #ffffff"/>
  </g>
  <g id="axes_1">
   <g id="patch_2">
    <path d="M 144 576.72 
L 1036.8 576.72 
L 1036.8 77.76 
L 144 77.76 
z
" style="fill: #ffffff"/>
   </g>
   <g id="matplotlib.axis_1">
    <g id="xtick_1">
     <g id="line2d_1">
      <path d="M 144 576.72 
L 144 77.76 
" clip-path="url(#p391e37da02)" style="fill: none; stroke: #b0b0b0; stroke-width: 0.8; stroke-linecap: square"/>
     </g>
     <g id="line2d_2">
      <defs>
       <path id="m4ac6309cda" d="M 0 0 
L 0 3.5 
" style="stroke: #000000; stroke-width: 0.8"/>
      </defs>
      <g>
       <use xlink:href="#m4ac6309cda" x="144" y="576.72" style="stroke: #000000; stroke-width: 0.8"/>
      </g>
     </g>
     <g id="text_1">
      <!-- 19 -->
      <g transform="translate(137.6375 591.318438) scale(0.1 -0.1)">
       <defs>
        <path id="DejaVuSans-31" d="M 794 531 
L 1825 531 
L 1825 4091 
L 703 3866 
L 703 4441 
L 1819 4666 
L 2450 4666 
L 2450 531 
L 3481 531 
L 3481 0 
L 794 0 
L 794 531 
z
" transform="scale(0.015625)"/>
        <path id="DejaVuSans-39" d="M 703 97 
L 703 672 
Q 941 559 1184 500 
Q 1428 441 1663 441 
Q 2288 441 2617 861 
Q 2947 1281 2994 2138 
Q 2813 1869 2534 1725 
Q 2256 1581 1919 1581 
Q 1219 1581 811 2004 
Q 403 2428 403 3163 
Q 403 3881 828 4315 
Q 1253 4750 1959 4750 
Q 2769 4750 3195 4129 
Q 3622 3509 3622 2328 
Q 3622 1225 3098 567 
Q 2575 -91 1691 -91 
Q 1453 -91 1209 -44 
Q 966 3 703 97 
z
M 1959 2075 
Q 2384 2075 2632 2365 
Q 2881 2656 2881 3163 
Q 2881 3666 2632 3958 
Q 2384 4250 1959 4250 
Q 1534 4250 1286 3958 
Q 1038 3666 1038 3163 
Q 1038 2656 1286 2365 
Q 1534 2075 1959 2075 
z
" transform="scale(0.015625)"/>
       </defs>
       <use xlink:href="#DejaVuSans-31"/>
       <use xlink:href="#DejaVuSans-39" x="63.623047"/>
      </g>
     </g>
    </g>
    <g id="xtick_2">
     <g id="line2d_3">
      <path d="M 292.8 576.72 
L 292.8 77.76 
" clip-path="url(#p391e37da02)" style="fill: none; stroke: #b0b0b0; stroke-width: 0.8; stroke-linecap: square"/>
     </g>
     <g id="line2d_4">
      <g>
       <use xlink:href="#m4ac6309cda" x="292.8" y="576.72" style="stroke: #000000; stroke-width: 0.8"/>
      </g>
     </g>
     <g id="text_2">
      <!-- 20 -->
      <g transform="translate(286.4375 591.318438) scale(0.1 -0.1)">
       <defs>
        <path id="DejaVuSans-32" d="M 1228 531 
L 3431 531 
L 3431 0 
L 469 0 
L 469 531 
Q 828 903 1448 1529 
Q 2069 2156 2228 2338 
Q 2531 2678 2651 2914 
Q 2772 3150 2772 3378 
Q 2772 3750 2511 3984 
Q 2250 4219 1831 4219 
Q 1534 4219 1204 4116 
Q 875 4013 500 3803 
L 500 4441 
Q 881 4594 1212 4672 
Q 1544 4750 1819 4750 
Q 2544 4750 2975 4387 
Q 3406 4025 3406 3419 
Q 3406 3131 3298 2873 
Q 3191 2616 2906 2266 
Q 2828 2175 2409 1742 
Q 1991 1309 1228 531 
z
" transform="scale(0.015625)"/>
        <path id="DejaVuSans-30" d="M 2034 4250 
Q 1547 4250 1301 3770 
Q 1056 3291 1056 2328 
Q 1056 1369 1301 889 
Q 1547 409 2034 409 
Q 2525 409 2770 889 
Q 3016 1369 3016 2328 
Q 3016 3291 2770 3770 
Q 2525 4250 2034 4250 
z
M 2034 4750 
Q 2819 4750 3233 4129 
Q 3647 3509 3647 2328 
Q 3647 1150 3233 529 
Q 2819 -91 2034 -91 
Q 1250 -91 836 529 
Q 422 1150 422 2328 
Q 422 3509 836 4129 
Q 1250 4750 2034 4750 
z
" transform="scale(0.015625)"/>
       </defs>
       <use xlink:href="#DejaVuSans-32"/>
       <use xlink:href="#DejaVuSans-30" x="63.623047"/>
      </g>
     </g>
    </g>
    <g id="xtick_3">
     <g id="line2d_5">
      <path d="M 441.6 576.72 
L 441.6 77.76 
" clip-path="url(#p391e37da02)" style="fill: none; stroke: #b0b0b0; stroke-width: 0.8; stroke-linecap: square"/>
     </g>
     <g id="line2d_6">
      <g>
       <use xlink:href="#m4ac6309cda" x="441.6" y="576.72" style="stroke: #000000; stroke-width: 0.8"/>
      </g>
     </g>
     <g id="text_3">
      <!-- 21 -->
      <g transform="translate(435.2375 591.318438) scale(0.1 -0.1)">
       <use xlink:href="#DejaVuSans-32"/>
       <use xlink:href="#DejaVuSans-31" x="63.623047"/>
      </g>
     </g>
    </g>
    <g id="xtick_4">
     <g id="line2d_7">
      <path d="M 590.4 576.72 
L 590.4 77.76 
" clip-path="url(#p391e37da02)" style="fill: none; stroke: #b0b0b0; stroke-width: 0.8; stroke-linecap: square"/>
     </g>
     <g id="line2d_8">
      <g>
       <use xlink:href="#m4ac6309cda" x="590.4" y="576.72" style="stroke: #000000; stroke-width: 0.8"/>
      </g>
     </g>
     <g id="text_4">
      <!-- 22 -->
      <g transform="translate(584.0375 591.318438) scale(0.1 -0.1)">
       <use xlink:href="#DejaVuSans-32"/>
       <use xlink:href="#DejaVuSans-32" x="63.623047"/>
      </g>
     </g>
    </g>
    <g id="xtick_5">
     <g id="line2d_9">
      <path d="M 739.2 576.72 
L 739.2 77.76 
" clip-path="url(#p391e37da02)" style="fill: none; stroke: #b0b0b0; stroke-width: 0.8; stroke-linecap: square"/>
     </g>
     <g id="line2d_10">
      <g>
       <use xlink:href="#m4ac6309cda" x="739.2" y="576.72" style="stroke: #000000; stroke-width: 0.8"/>
      </g>
     </g>
     <g id="text_5">
      <!-- 23 -->
      <g transform="translate(732.8375 591.318438) scale(0.1 -0.1)">
       <defs>
        <path id="DejaVuSans-33" d="M 2597 2516 
Q 3050 2419 3304 2112 
Q 3559 1806 3559 1356 
Q 3559 666 3084 287 
Q 2609 -91 1734 -91 
Q 1441 -91 1130 -33 
Q 819 25 488 141 
L 488 750 
Q 750 597 1062 519 
Q 1375 441 1716 441 
Q 2309 441 2620 675 
Q 2931 909 2931 1356 
Q 2931 1769 2642 2001 
Q 2353 2234 1838 2234 
L 1294 2234 
L 1294 2753 
L 1863 2753 
Q 2328 2753 2575 2939 
Q 2822 3125 2822 3475 
Q 2822 3834 2567 4026 
Q 2313 4219 1838 4219 
Q 1578 4219 1281 4162 
Q 984 4106 628 3988 
L 628 4550 
Q 988 4650 1302 4700 
Q 1616 4750 1894 4750 
Q 2613 4750 3031 4423 
Q 3450 4097 3450 3541 
Q 3450 3153 3228 2886 
Q 3006 2619 2597 2516 
z
" transform="scale(0.015625)"/>
       </defs>
       <use xlink:href="#DejaVuSans-32"/>
       <use xlink:href="#DejaVuSans-33" x="63.623047"/>
      </g>
     </g>
    </g>
    <g id="xtick_6">
     <g id="line2d_11">
      <path d="M 888 576.72 
L 888 77.76 
" clip-path="url(#p391e37da02)" style="fill: none; stroke: #b0b0b0; stroke-width: 0.8; stroke-linecap: square"/>
     </g>
     <g id="line2d_12">
      <g>
       <use xlink:href="#m4ac6309cda" x="888" y="576.72" style="stroke: #000000; stroke-width: 0.8"/>
      </g>
     </g>
     <g id="text_6">
      <!-- 24 -->
      <g transform="translate(881.6375 591.318438) scale(0.1 -0.1)">
       <defs>
        <path id="DejaVuSans-34" d="M 2419 4116 
L 825 1625 
L 2419 1625 
L 2419 4116 
z
M 2253 4666 
L 3047 4666 
L 3047 1625 
L 3713 1625 
L 3713 1100 
L 3047 1100 
L 3047 0 
L 2419 0 
L 2419 1100 
L 313 1100 
L 313 1709 
L 2253 4666 
z
" transform="scale(0.015625)"/>
       </defs>
       <use xlink:href="#DejaVuSans-32"/>
       <use xlink:href="#DejaVuSans-34" x="63.623047"/>
      </g>
     </g>
    </g>
    <g id="xtick_7">
     <g id="line2d_13">
      <path d="M 1036.8 576.72 
L 1036.8 77.76 
" clip-path="url(#p391e37da02)" style="fill: none; stroke: #b0b0b0; stroke-width: 0.8; stroke-linecap: square"/>
     </g>
     <g id="line2d_14">
      <g>
       <use xlink:href="#m4ac6309cda" x="1036.8" y="576.72" style="stroke: #000000; stroke-width: 0.8"/>
      </g>
     </g>
     <g id="text_7">
      <!-- 25 -->
      <g transform="translate(1030.4375 591.318438) scale(0.1 -0.1)">
       <defs>
        <path id="DejaVuSans-35" d="M 691 4666 
L 3169 4666 
L 3169 4134 
L 1269 4134 
L 1269 2991 
Q 1406 3038 1543 3061 
Q 1681 3084 1819 3084 
Q 2600 3084 3056 2656 
Q 3513 2228 3513 1497 
Q 3513 744 3044 326 
Q 2575 -91 1722 -91 
Q 1428 -91 1123 -41 
Q 819 9 494 109 
L 494 744 
Q 775 591 1075 516 
Q 1375 441 1709 441 
Q 2250 441 2565 725 
Q 2881 1009 2881 1497 
Q 2881 1984 2565 2268 
Q 2250 2553 1709 2553 
Q 1456 2553 1204 2497 
Q 953 2441 691 2322 
L 691 4666 
z
" transform="scale(0.015625)"/>
       </defs>
       <use xlink:href="#DejaVuSans-32"/>
       <use xlink:href="#DejaVuSans-35" x="63.623047"/>
      </g>
     </g>
    </g>
    <g id="text_8">
     <!-- Frequency (GHz) -->
     <g transform="translate(548.821094 604.996562) scale(0.1 -0.1)">
      <defs>
       <path id="DejaVuSans-46" d="M 628 4666 
L 3309 4666 
L 3309 4134 
L 1259 4134 
L 1259 2759 
L 3109 2759 
L 3109 2228 
L 1259 2228 
L 1259 0 
L 628 0 
L 628 4666 
z
" transform="scale(0.015625)"/>
       <path id="DejaVuSans-72" d="M 2631 2963 
Q 2534 3019 2420 3045 
Q 2306 3072 2169 3072 
Q 1681 3072 1420 2755 
Q 1159 2438 1159 1844 
L 1159 0 
L 581 0 
L 581 3500 
L 1159 3500 
L 1159 2956 
Q 1341 3275 1631 3429 
Q 1922 3584 2338 3584 
Q 2397 3584 2469 3576 
Q 2541 3569 2628 3553 
L 2631 2963 
z
" transform="scale(0.015625)"/>
       <path id="DejaVuSans-65" d="M 3597 1894 
L 3597 1613 
L 953 1613 
Q 991 1019 1311 708 
Q 1631 397 2203 397 
Q 2534 397 2845 478 
Q 3156 559 3463 722 
L 3463 178 
Q 3153 47 2828 -22 
Q 2503 -91 2169 -91 
Q 1331 -91 842 396 
Q 353 884 353 1716 
Q 353 2575 817 3079 
Q 1281 3584 2069 3584 
Q 2775 3584 3186 3129 
Q 3597 2675 3597 1894 
z
M 3022 2063 
Q 3016 2534 2758 2815 
Q 2500 3097 2075 3097 
Q 1594 3097 1305 2825 
Q 1016 2553 972 2059 
L 3022 2063 
z
" transform="scale(0.015625)"/>
       <path id="DejaVuSans-71" d="M 947 1747 
Q 947 1113 1208 752 
Q 1469 391 1925 391 
Q 2381 391 2643 752 
Q 2906 1113 2906 1747 
Q 2906 2381 2643 2742 
Q 2381 3103 1925 3103 
Q 1469 3103 1208 2742 
Q 947 2381 947 1747 
z
M 2906 525 
Q 2725 213 2448 61 
Q 2172 -91 1784 -91 
Q 1150 -91 751 415 
Q 353 922 353 1747 
Q 353 2572 751 3078 
Q 1150 3584 1784 3584 
Q 2172 3584 2448 3432 
Q 2725 3281 2906 2969 
L 2906 3500 
L 3481 3500 
L 3481 -1331 
L 2906 -1331 
L 2906 525 
z
" transform="scale(0.015625)"/>
       <path id="DejaVuSans-75" d="M 544 1381 
L 544 3500 
L 1119 3500 
L 1119 1403 
Q 1119 906 1312 657 
Q 1506 409 1894 409 
Q 2359 409 2629 706 
Q 2900 1003 2900 1516 
L 2900 3500 
L 3475 3500 
L 3475 0 
L 2900 0 
L 2900 538 
Q 2691 219 2414 64 
Q 2138 -91 1772 -91 
Q 1169 -91 856 284 
Q 544 659 544 1381 
z
M 1991 3584 
L 1991 3584 
z
" transform="scale(0.015625)"/>
       <path id="DejaVuSans-6e" d="M 3513 2113 
L 3513 0 
L 2938 0 
L 2938 2094 
Q 2938 2591 2744 2837 
Q 2550 3084 2163 3084 
Q 1697 3084 1428 2787 
Q 1159 2491 1159 1978 
L 1159 0 
L 581 0 
L 581 3500 
L 1159 3500 
L 1159 2956 
Q 1366 3272 1645 3428 
Q 1925 3584 2291 3584 
Q 2894 3584 3203 3211 
Q 3513 2838 3513 2113 
z
" transform="scale(0.015625)"/>
       <path id="DejaVuSans-63" d="M 3122 3366 
L 3122 2828 
Q 2878 2963 2633 3030 
Q 2388 3097 2138 3097 
Q 1578 3097 1268 2742 
Q 959 2388 959 1747 
Q 959 1106 1268 751 
Q 1578 397 2138 397 
Q 2388 397 2633 464 
Q 2878 531 3122 666 
L 3122 134 
Q 2881 22 2623 -34 
Q 2366 -91 2075 -91 
Q 1284 -91 818 406 
Q 353 903 353 1747 
Q 353 2603 823 3093 
Q 1294 3584 2113 3584 
Q 2378 3584 2631 3529 
Q 2884 3475 3122 3366 
z
" transform="scale(0.015625)"/>
       <path id="DejaVuSans-79" d="M 2059 -325 
Q 1816 -950 1584 -1140 
Q 1353 -1331 966 -1331 
L 506 -1331 
L 506 -850 
L 844 -850 
Q 1081 -850 1212 -737 
Q 1344 -625 1503 -206 
L 1606 56 
L 191 3500 
L 800 3500 
L 1894 763 
L 2988 3500 
L 3597 3500 
L 2059 -325 
z
" transform="scale(0.015625)"/>
       <path id="DejaVuSans-20" transform="scale(0.015625)"/>
       <path id="DejaVuSans-28" d="M 1984 4856 
Q 1566 4138 1362 3434 
Q 1159 2731 1159 2009 
Q 1159 1288 1364 580 
Q 1569 -128 1984 -844 
L 1484 -844 
Q 1016 -109 783 600 
Q 550 1309 550 2009 
Q 550 2706 781 3412 
Q 1013 4119 1484 4856 
L 1984 4856 
z
" transform="scale(0.015625)"/>
       <path id="DejaVuSans-47" d="M 3809 666 
L 3809 1919 
L 2778 1919 
L 2778 2438 
L 4434 2438 
L 4434 434 
Q 4069 175 3628 42 
Q 3188 -91 2688 -91 
Q 1594 -91 976 548 
Q 359 1188 359 2328 
Q 359 3472 976 4111 
Q 1594 4750 2688 4750 
Q 3144 4750 3555 4637 
Q 3966 4525 4313 4306 
L 4313 3634 
Q 3963 3931 3569 4081 
Q 3175 4231 2741 4231 
Q 1884 4231 1454 3753 
Q 1025 3275 1025 2328 
Q 1025 1384 1454 906 
Q 1884 428 2741 428 
Q 3075 428 3337 486 
Q 3600 544 3809 666 
z
" transform="scale(0.015625)"/>
       <path id="DejaVuSans-48" d="M 628 4666 
L 1259 4666 
L 1259 2753 
L 3553 2753 
L 3553 4666 
L 4184 4666 
L 4184 0 
L 3553 0 
L 3553 2222 
L 1259 2222 
L 1259 0 
L 628 0 
L 628 4666 
z
" transform="scale(0.015625)"/>
       <path id="DejaVuSans-7a" d="M 353 3500 
L 3084 3500 
L 3084 2975 
L 922 459 
L 3084 459 
L 3084 0 
L 275 0 
L 275 525 
L 2438 3041 
L 353 3041 
L 353 3500 
z
" transform="scale(0.015625)"/>
       <path id="DejaVuSans-29" d="M 513 4856 
L 1013 4856 
Q 1481 4119 1714 3412 
Q 1947 2706 1947 2009 
Q 1947 1309 1714 600 
Q 1481 -109 1013 -844 
L 513 -844 
Q 928 -128 1133 580 
Q 1338 1288 1338 2009 
Q 1338 2731 1133 3434 
Q 928 4138 513 4856 
z
" transform="scale(0.015625)"/>
      </defs>
      <use xlink:href="#DejaVuSans-46"/>
      <use xlink:href="#DejaVuSans-72" x="50.269531"/>
      <use xlink:href="#DejaVuSans-65" x="89.132812"/>
      <use xlink:href="#DejaVuSans-71" x="150.65625"/>
      <use xlink:href="#DejaVuSans-75" x="214.132812"/>
      <use xlink:href="#DejaVuSans-65" x="277.511719"/>
      <use xlink:href="#DejaVuSans-6e" x="339.035156"/>
      <use xlink:href="#DejaVuSans-63" x="402.414062"/>
      <use xlink:href="#DejaVuSans-79" x="457.394531"/>
      <use xlink:href="#DejaVuSans-20" x="516.574219"/>
      <use xlink:href="#DejaVuSans-28" x="548.361328"/>
      <use xlink:href="#DejaVuSans-47" x="587.375"/>
      <use xlink:href="#DejaVuSans-48" x="664.865234"/>
      <use xlink:href="#DejaVuSans-7a" x="740.060547"/>
      <use xlink:href="#DejaVuSans-29" x="792.550781"/>
     </g>
    </g>
   </g>
   <g id="matplotlib.axis_2">
    <g id="ytick_1">
     <g id="line2d_15">
      <path d="M 144 576.72 
L 1036.8 576.72 
" clip-path="url(#p391e37da02)" style="fill: none; stroke: #b0b0b0; stroke-width: 0.8; stroke-linecap: square"/>
     </g>
     <g id="line2d_16">
      <defs>
       <path id="m5ca857e3b1" d="M 0 0 
L -3.5 0 
" style="stroke: #000000; stroke-width: 0.8"/>
      </defs>
      <g>
       <use xlink:href="#m5ca857e3b1" x="144" y="576.72" style="stroke: #000000; stroke-width: 0.8"/>
      </g>
     </g>
     <g id="text_9">
      <!-- 0 -->
      <g transform="translate(130.6375 580.519219) scale(0.1 -0.1)">
       <use xlink:href="#DejaVuSans-30"/>
      </g>
     </g>
    </g>
    <g id="ytick_2">
     <g id="line2d_17">
      <path d="M 144 476.928 
L 1036.8 476.928 
" clip-path="url(#p391e37da02)" style="fill: none; stroke: #b0b0b0; stroke-width: 0.8; stroke-linecap: square"/>
     </g>
     <g id="line2d_18">
      <g>
       <use xlink:href="#m5ca857e3b1" x="144" y="476.928" style="stroke: #000000; stroke-width: 0.8"/>
      </g>
     </g>
     <g id="text_10">
      <!-- 10 -->
      <g transform="translate(124.275 480.727219) scale(0.1 -0.1)">
       <use xlink:href="#DejaVuSans-31"/>
       <use xlink:href="#DejaVuSans-30" x="63.623047"/>
      </g>
     </g>
    </g>
    <g id="ytick_3">
     <g id="line2d_19">
      <path d="M 144 377.136 
L 1036.8 377.136 
" clip-path="url(#p391e37da02)" style="fill: none; stroke: #b0b0b0; stroke-width: 0.8; stroke-linecap: square"/>
     </g>
     <g id="line2d_20">
      <g>
       <use xlink:href="#m5ca857e3b1" x="144" y="377.136" style="stroke: #000000; stroke-width: 0.8"/>
      </g>
     </g>
     <g id="text_11">
      <!-- 20 -->
      <g transform="translate(124.275 380.935219) scale(0.1 -0.1)">
       <use xlink:href="#DejaVuSans-32"/>
       <use xlink:href="#DejaVuSans-30" x="63.623047"/>
      </g>
     </g>
    </g>
    <g id="ytick_4">
     <g id="line2d_21">
      <path d="M 144 277.344 
L 1036.8 277.344 
" clip-path="url(#p391e37da02)" style="fill: none; stroke: #b0b0b0; stroke-width: 0.8; stroke-linecap: square"/>
     </g>
     <g id="line2d_22">
      <g>
       <use xlink:href="#m5ca857e3b1" x="144" y="277.344" style="stroke: #000000; stroke-width: 0.8"/>
      </g>
     </g>
     <g id="text_12">
      <!-- 30 -->
      <g transform="translate(124.275 281.143219) scale(0.1 -0.1)">
       <use xlink:href="#DejaVuSans-33"/>
       <use xlink:href="#DejaVuSans-30" x="63.623047"/>
      </g>
     </g>
    </g>
    <g id="ytick_5">
     <g id="line2d_23">
      <path d="M 144 177.552 
L 1036.8 177.552 
" clip-path="url(#p391e37da02)" style="fill: none; stroke: #b0b0b0; stroke-width: 0.8; stroke-linecap: square"/>
     </g>
     <g id="line2d_24">
      <g>
       <use xlink:href="#m5ca857e3b1" x="144" y="177.552" style="stroke: #000000; stroke-width: 0.8"/>
      </g>
     </g>
     <g id="text_13">
      <!-- 40 -->
      <g transform="translate(124.275 181.351219) scale(0.1 -0.1)">
       <use xlink:href="#DejaVuSans-34"/>
       <use xlink:href="#DejaVuSans-30" x="63.623047"/>
      </g>
     </g>
    </g>
    <g id="ytick_6">
     <g id="line2d_25">
      <path d="M 144 77.76 
L 1036.8 77.76 
" clip-path="url(#p391e37da02)" style="fill: none; stroke: #b0b0b0; stroke-width: 0.8; stroke-linecap: square"/>
     </g>
     <g id="line2d_26">
      <g>
       <use xlink:href="#m5ca857e3b1" x="144" y="77.76" style="stroke: #000000; stroke-width: 0.8"/>
      </g>
     </g>
     <g id="text_14">
      <!-- 50 -->
      <g transform="translate(124.275 81.559219) scale(0.1 -0.1)">
       <use xlink:href="#DejaVuSans-35"/>
       <use xlink:href="#DejaVuSans-30" x="63.623047"/>
      </g>
     </g>
    </g>
    <g id="text_15">
     <!-- Brightness Temperature (K) -->
     <g transform="translate(118.195312 395.900937) rotate(-90) scale(0.1 -0.1)">
      <defs>
       <path id="DejaVuSans-42" d="M 1259 2228 
L 1259 519 
L 2272 519 
Q 2781 519 3026 730 
Q 3272 941 3272 1375 
Q 3272 1813 3026 2020 
Q 2781 2228 2272 2228 
L 1259 2228 
z
M 1259 4147 
L 1259 2741 
L 2194 2741 
Q 2656 2741 2882 2914 
Q 3109 3088 3109 3444 
Q 3109 3797 2882 3972 
Q 2656 4147 2194 4147 
L 1259 4147 
z
M 628 4666 
L 2241 4666 
Q 2963 4666 3353 4366 
Q 3744 4066 3744 3513 
Q 3744 3084 3544 2831 
Q 3344 2578 2956 2516 
Q 3422 2416 3680 2098 
Q 3938 1781 3938 1306 
Q 3938 681 3513 340 
Q 3088 0 2303 0 
L 628 0 
L 628 4666 
z
" transform="scale(0.015625)"/>
       <path id="DejaVuSans-69" d="M 603 3500 
L 1178 3500 
L 1178 0 
L 603 0 
L 603 3500 
z
M 603 4863 
L 1178 4863 
L 1178 4134 
L 603 4134 
L 603 4863 
z
" transform="scale(0.015625)"/>
       <path id="DejaVuSans-67" d="M 2906 1791 
Q 2906 2416 2648 2759 
Q 2391 3103 1925 3103 
Q 1463 3103 1205 2759 
Q 947 2416 947 1791 
Q 947 1169 1205 825 
Q 1463 481 1925 481 
Q 2391 481 2648 825 
Q 2906 1169 2906 1791 
z
M 3481 434 
Q 3481 -459 3084 -895 
Q 2688 -1331 1869 -1331 
Q 1566 -1331 1297 -1286 
Q 1028 -1241 775 -1147 
L 775 -588 
Q 1028 -725 1275 -790 
Q 1522 -856 1778 -856 
Q 2344 -856 2625 -561 
Q 2906 -266 2906 331 
L 2906 616 
Q 2728 306 2450 153 
Q 2172 0 1784 0 
Q 1141 0 747 490 
Q 353 981 353 1791 
Q 353 2603 747 3093 
Q 1141 3584 1784 3584 
Q 2172 3584 2450 3431 
Q 2728 3278 2906 2969 
L 2906 3500 
L 3481 3500 
L 3481 434 
z
" transform="scale(0.015625)"/>
       <path id="DejaVuSans-68" d="M 3513 2113 
L 3513 0 
L 2938 0 
L 2938 2094 
Q 2938 2591 2744 2837 
Q 2550 3084 2163 3084 
Q 1697 3084 1428 2787 
Q 1159 2491 1159 1978 
L 1159 0 
L 581 0 
L 581 4863 
L 1159 4863 
L 1159 2956 
Q 1366 3272 1645 3428 
Q 1925 3584 2291 3584 
Q 2894 3584 3203 3211 
Q 3513 2838 3513 2113 
z
" transform="scale(0.015625)"/>
       <path id="DejaVuSans-74" d="M 1172 4494 
L 1172 3500 
L 2356 3500 
L 2356 3053 
L 1172 3053 
L 1172 1153 
Q 1172 725 1289 603 
Q 1406 481 1766 481 
L 2356 481 
L 2356 0 
L 1766 0 
Q 1100 0 847 248 
Q 594 497 594 1153 
L 594 3053 
L 172 3053 
L 172 3500 
L 594 3500 
L 594 4494 
L 1172 4494 
z
" transform="scale(0.015625)"/>
       <path id="DejaVuSans-73" d="M 2834 3397 
L 2834 2853 
Q 2591 2978 2328 3040 
Q 2066 3103 1784 3103 
Q 1356 3103 1142 2972 
Q 928 2841 928 2578 
Q 928 2378 1081 2264 
Q 1234 2150 1697 2047 
L 1894 2003 
Q 2506 1872 2764 1633 
Q 3022 1394 3022 966 
Q 3022 478 2636 193 
Q 2250 -91 1575 -91 
Q 1294 -91 989 -36 
Q 684 19 347 128 
L 347 722 
Q 666 556 975 473 
Q 1284 391 1588 391 
Q 1994 391 2212 530 
Q 2431 669 2431 922 
Q 2431 1156 2273 1281 
Q 2116 1406 1581 1522 
L 1381 1569 
Q 847 1681 609 1914 
Q 372 2147 372 2553 
Q 372 3047 722 3315 
Q 1072 3584 1716 3584 
Q 2034 3584 2315 3537 
Q 2597 3491 2834 3397 
z
" transform="scale(0.015625)"/>
       <path id="DejaVuSans-54" d="M -19 4666 
L 3928 4666 
L 3928 4134 
L 2272 4134 
L 2272 0 
L 1638 0 
L 1638 4134 
L -19 4134 
L -19 4666 
z
" transform="scale(0.015625)"/>
       <path id="DejaVuSans-6d" d="M 3328 2828 
Q 3544 3216 3844 3400 
Q 4144 3584 4550 3584 
Q 5097 3584 5394 3201 
Q 5691 2819 5691 2113 
L 5691 0 
L 5113 0 
L 5113 2094 
Q 5113 2597 4934 2840 
Q 4756 3084 4391 3084 
Q 3944 3084 3684 2787 
Q 3425 2491 3425 1978 
L 3425 0 
L 2847 0 
L 2847 2094 
Q 2847 2600 2669 2842 
Q 2491 3084 2119 3084 
Q 1678 3084 1418 2786 
Q 1159 2488 1159 1978 
L 1159 0 
L 581 0 
L 581 3500 
L 1159 3500 
L 1159 2956 
Q 1356 3278 1631 3431 
Q 1906 3584 2284 3584 
Q 2666 3584 2933 3390 
Q 3200 3197 3328 2828 
z
" transform="scale(0.015625)"/>
       <path id="DejaVuSans-70" d="M 1159 525 
L 1159 -1331 
L 581 -1331 
L 581 3500 
L 1159 3500 
L 1159 2969 
Q 1341 3281 1617 3432 
Q 1894 3584 2278 3584 
Q 2916 3584 3314 3078 
Q 3713 2572 3713 1747 
Q 3713 922 3314 415 
Q 2916 -91 2278 -91 
Q 1894 -91 1617 61 
Q 1341 213 1159 525 
z
M 3116 1747 
Q 3116 2381 2855 2742 
Q 2594 3103 2138 3103 
Q 1681 3103 1420 2742 
Q 1159 2381 1159 1747 
Q 1159 1113 1420 752 
Q 1681 391 2138 391 
Q 2594 391 2855 752 
Q 3116 1113 3116 1747 
z
" transform="scale(0.015625)"/>
       <path id="DejaVuSans-61" d="M 2194 1759 
Q 1497 1759 1228 1600 
Q 959 1441 959 1056 
Q 959 750 1161 570 
Q 1363 391 1709 391 
Q 2188 391 2477 730 
Q 2766 1069 2766 1631 
L 2766 1759 
L 2194 1759 
z
M 3341 1997 
L 3341 0 
L 2766 0 
L 2766 531 
Q 2569 213 2275 61 
Q 1981 -91 1556 -91 
Q 1019 -91 701 211 
Q 384 513 384 1019 
Q 384 1609 779 1909 
Q 1175 2209 1959 2209 
L 2766 2209 
L 2766 2266 
Q 2766 2663 2505 2880 
Q 2244 3097 1772 3097 
Q 1472 3097 1187 3025 
Q 903 2953 641 2809 
L 641 3341 
Q 956 3463 1253 3523 
Q 1550 3584 1831 3584 
Q 2591 3584 2966 3190 
Q 3341 2797 3341 1997 
z
" transform="scale(0.015625)"/>
       <path id="DejaVuSans-4b" d="M 628 4666 
L 1259 4666 
L 1259 2694 
L 3353 4666 
L 4166 4666 
L 1850 2491 
L 4331 0 
L 3500 0 
L 1259 2247 
L 1259 0 
L 628 0 
L 628 4666 
z
" transform="scale(0.015625)"/>
      </defs>
      <use xlink:href="#DejaVuSans-42"/>
      <use xlink:href="#DejaVuSans-72" x="68.603516"/>
      <use xlink:href="#DejaVuSans-69" x="109.716797"/>
      <use xlink:href="#DejaVuSans-67" x="137.5"/>
      <use xlink:href="#DejaVuSans-68" x="200.976562"/>
      <use xlink:href="#DejaVuSans-74" x="264.355469"/>
      <use xlink:href="#DejaVuSans-6e" x="303.564453"/>
      <use xlink:href="#DejaVuSans-65" x="366.943359"/>
      <use xlink:href="#DejaVuSans-73" x="428.466797"/>
      <use xlink:href="#DejaVuSans-73" x="480.566406"/>
      <use xlink:href="#DejaVuSans-20" x="532.666016"/>
      <use xlink:href="#DejaVuSans-54" x="564.453125"/>
      <use xlink:href="#DejaVuSans-65" x="608.537109"/>
      <use xlink:href="#DejaVuSans-6d" x="670.060547"/>
      <use xlink:href="#DejaVuSans-70" x="767.472656"/>
      <use xlink:href="#DejaVuSans-65" x="830.949219"/>
      <use xlink:href="#DejaVuSans-72" x="892.472656"/>
      <use xlink:href="#DejaVuSans-61" x="933.585938"/>
      <use xlink:href="#DejaVuSans-74" x="994.865234"/>
      <use xlink:href="#DejaVuSans-75" x="1034.074219"/>
      <use xlink:href="#DejaVuSans-72" x="1097.453125"/>
      <use xlink:href="#DejaVuSans-65" x="1136.316406"/>
      <use xlink:href="#DejaVuSans-20" x="1197.839844"/>
      <use xlink:href="#DejaVuSans-28" x="1229.626953"/>
      <use xlink:href="#DejaVuSans-4b" x="1268.640625"/>
      <use xlink:href="#DejaVuSans-29" x="1334.216797"/>
     </g>
    </g>
   </g>
   <g id="line2d_27">
    <path d="M 129.12 534.062742 
L 144 533.807125 
L 158.88 533.535152 
L 173.76 533.246144 
L 188.64 532.937787 
L 203.52 532.608224 
L 218.4 532.255449 
L 233.28 531.877168 
L 248.16 531.470824 
L 263.04 531.033666 
L 277.92 530.562558 
L 292.8 530.054077 
L 307.68 529.504653 
L 322.56 528.910272 
L 337.44 528.266314 
L 352.32 527.568668 
L 367.2 526.812544 
L 382.08 525.993741 
L 396.96 525.105751 
L 411.84 524.143806 
L 426.72 523.103904 
L 441.6 521.982451 
L 456.48 520.777842 
L 471.36 519.490765 
L 486.24 518.125191 
L 501.12 516.690013 
L 516 515.19939 
L 530.88 513.675316 
L 545.76 512.148678 
L 560.64 510.66072 
L 575.52 509.263322 
L 590.4 508.016431 
L 605.28 506.972637 
L 620.16 506.041907 
L 635.04 505.943991 
L 649.92 506.259224 
L 664.8 506.785956 
L 679.68 507.535184 
L 694.56 508.454788 
L 709.44 509.48978 
L 724.32 510.592023 
L 739.2 511.722257 
L 754.08 512.849837 
L 768.96 513.95175 
L 783.84 515.011342 
L 798.72 516.016906 
L 813.6 516.959411 
L 828.48 517.833928 
L 843.36 518.624091 
L 858.24 519.238261 
L 873.12 519.849707 
L 888 520.708696 
L 902.88 521.335171 
L 917.76 521.881971 
L 932.64 522.372508 
L 947.52 522.814387 
L 962.4 523.212677 
L 977.28 523.57132 
L 992.16 523.893598 
L 1007.04 524.182376 
L 1021.92 524.440009 
L 1036.8 524.668193 
L 1051.68 524.863327 
" clip-path="url(#p391e37da02)" style="fill: none; stroke: #0000ff; stroke-width: 1.5; stroke-linecap: square"/>
   </g>
   <g id="line2d_28">
    <path d="M 129.12 496.065291 
L 144 494.014127 
L 158.88 491.812226 
L 173.76 489.446148 
L 188.64 486.899546 
L 203.52 484.155046 
L 218.4 481.193569 
L 233.28 477.994078 
L 248.16 474.533391 
L 263.04 470.786301 
L 277.92 466.725166 
L 292.8 462.319948 
L 307.68 457.538514 
L 322.56 452.346336 
L 337.44 446.706691 
L 352.32 440.581858 
L 367.2 433.932218 
L 382.08 426.717855 
L 396.96 418.896757 
L 411.84 410.431501 
L 426.72 401.291552 
L 441.6 391.456152 
L 456.48 380.921011 
L 471.36 369.703791 
L 486.24 357.852194 
L 501.12 345.454036 
L 516 332.64683 
L 530.88 319.632058 
L 545.76 306.687538 
L 560.64 294.181804 
L 575.52 282.585275 
L 590.4 272.47425 
L 605.28 264.509551 
L 620.16 259.25191 
L 635.04 257.78866 
L 649.92 259.71255 
L 664.8 264.391697 
L 679.68 271.259482 
L 694.56 279.729228 
L 709.44 289.287805 
L 724.32 299.508901 
L 739.2 310.05003 
L 754.08 320.643849 
L 768.96 331.087481 
L 783.84 341.232635 
L 798.72 350.974928 
L 813.6 360.244508 
L 828.48 369.000258 
L 843.36 377.209746 
L 858.24 384.783859 
L 873.12 391.892642 
L 888 398.78817 
L 902.88 405.037444 
L 917.76 410.807318 
L 932.64 416.143994 
L 947.52 421.079607 
L 962.4 425.643594 
L 977.28 429.863798 
L 992.16 433.766264 
L 1007.04 437.375441 
L 1021.92 440.714182 
L 1036.8 443.802844 
L 1051.68 446.655398 
" clip-path="url(#p391e37da02)" style="fill: none; stroke: #ffa500; stroke-width: 1.5; stroke-linecap: square"/>
   </g>
   <g id="line2d_29">
    <path d="M 129.12 534.171046 
L 144 533.907735 
L 158.88 533.626372 
L 173.76 533.327016 
L 188.64 533.006404 
L 203.52 532.662471 
L 218.4 532.292981 
L 233.28 531.8953 
L 248.16 531.466444 
L 263.04 531.003229 
L 277.92 530.501904 
L 292.8 529.958387 
L 307.68 529.368407 
L 322.56 528.727093 
L 337.44 528.028519 
L 352.32 527.268025 
L 367.2 526.438893 
L 382.08 525.535516 
L 396.96 524.549501 
L 411.84 523.473943 
L 426.72 522.302973 
L 441.6 521.030316 
L 456.48 519.652169 
L 471.36 518.167084 
L 486.24 516.577268 
L 501.12 514.891082 
L 516 513.122848 
L 530.88 511.297193 
L 545.76 509.450422 
L 560.64 507.63312 
L 575.52 505.911648 
L 590.4 504.366319 
L 605.28 503.074232 
L 620.16 501.946842 
L 635.04 501.877377 
L 649.92 502.352786 
L 664.8 503.105657 
L 679.68 504.131309 
L 694.56 505.354719 
L 709.44 506.70239 
L 724.32 508.11285 
L 739.2 509.53792 
L 754.08 510.941455 
L 768.96 512.297528 
L 783.84 513.588447 
L 798.72 514.802706 
L 813.6 515.932122 
L 828.48 516.97415 
L 843.36 517.91476 
L 858.24 518.66307 
L 873.12 519.390973 
L 888 520.353696 
L 902.88 521.07142 
L 917.76 521.700419 
L 932.64 522.264903 
L 947.52 522.773373 
L 962.4 523.231767 
L 977.28 523.644856 
L 992.16 524.016641 
L 1007.04 524.350645 
L 1021.92 524.649742 
L 1036.8 524.916216 
L 1051.68 525.146876 
" clip-path="url(#p391e37da02)" style="fill: none; stroke: #008000; stroke-width: 1.5; stroke-linecap: square"/>
   </g>
   <g id="line2d_30">
    <path d="M 129.12 497.828427 
L 144 495.683527 
L 158.88 493.373492 
L 173.76 490.883891 
L 188.64 488.195435 
L 203.52 485.288244 
L 218.4 482.140336 
L 233.28 478.72725 
L 248.16 475.021873 
L 263.04 470.994268 
L 277.92 466.611503 
L 292.8 461.837454 
L 307.68 456.633002 
L 322.56 450.955336 
L 337.44 444.758153 
L 352.32 437.993952 
L 367.2 430.610541 
L 382.08 422.554133 
L 396.96 413.766949 
L 411.84 404.194301 
L 426.72 393.787592 
L 441.6 382.507704 
L 456.48 370.33278 
L 471.36 357.265517 
L 486.24 343.343036 
L 501.12 328.651059 
L 516 313.33618 
L 530.88 297.626824 
L 545.76 281.852004 
L 560.64 266.464477 
L 575.52 252.062994 
L 590.4 239.409867 
L 605.28 229.420489 
L 620.16 222.950973 
L 635.04 221.474052 
L 649.92 224.464319 
L 664.8 230.976146 
L 679.68 240.164395 
L 694.56 251.219053 
L 709.44 263.462833 
L 724.32 276.354263 
L 739.2 289.47252 
L 754.08 302.500465 
L 768.96 315.206881 
L 783.84 327.430004 
L 798.72 339.063256 
L 813.6 350.041674 
L 828.48 360.335119 
L 843.36 369.924032 
L 858.24 378.732273 
L 873.12 386.941263 
L 888 394.820739 
L 902.88 401.948383 
L 917.76 408.505016 
L 932.64 414.547622 
L 947.52 420.117612 
L 962.4 425.253208 
L 977.28 429.989735 
L 992.16 434.360126 
L 1007.04 438.394916 
L 1021.92 442.121848 
L 1036.8 445.566268 
L 1051.68 448.745641 
" clip-path="url(#p391e37da02)" style="fill: none; stroke: #ff0000; stroke-width: 1.5; stroke-linecap: square"/>
   </g>
   <g id="line2d_31">
    <path d="M 129.12 534.275848 
L 144 534.007697 
L 158.88 533.719917 
L 173.76 533.413914 
L 188.64 533.08501 
L 203.52 532.731048 
L 218.4 532.349643 
L 233.28 531.937851 
L 248.16 531.49232 
L 263.04 531.009536 
L 277.92 530.485149 
L 292.8 529.914438 
L 307.68 529.292575 
L 322.56 528.613839 
L 337.44 527.870938 
L 352.32 527.05901 
L 367.2 526.169155 
L 382.08 525.194377 
L 396.96 524.124417 
L 411.84 522.949985 
L 426.72 521.663386 
L 441.6 520.255152 
L 456.48 518.718894 
L 471.36 517.050471 
L 486.24 515.249525 
L 501.12 513.32328 
L 516 511.284998 
L 530.88 509.161026 
L 545.76 506.992206 
L 560.64 504.837966 
L 575.52 502.779387 
L 590.4 500.918745 
L 605.28 499.361761 
L 620.16 498.029667 
L 635.04 497.992435 
L 649.92 498.644296 
L 664.8 499.64491 
L 679.68 500.967164 
L 694.56 502.509839 
L 709.44 504.179678 
L 724.32 505.901799 
L 739.2 507.619618 
L 754.08 509.292382 
L 768.96 510.892207 
L 783.84 512.401272 
L 798.72 513.809177 
L 813.6 515.109208 
L 828.48 516.302031 
L 843.36 517.376532 
L 858.24 518.243994 
L 873.12 519.073545 
L 888 520.12162 
L 902.88 520.915445 
L 917.76 521.612562 
L 932.64 522.237719 
L 947.52 522.800307 
L 962.4 523.30711 
L 977.28 523.763649 
L 992.16 524.174622 
L 1007.04 524.544172 
L 1021.92 524.875671 
L 1036.8 525.171904 
L 1051.68 525.430006 
" clip-path="url(#p391e37da02)" style="fill: none; stroke: #800080; stroke-width: 1.5; stroke-linecap: square"/>
   </g>
   <g id="line2d_32">
    <path d="M 129.12 498.730985 
L 144 496.514805 
L 158.88 494.121972 
L 173.76 491.537958 
L 188.64 488.740329 
L 203.52 485.707161 
L 218.4 482.413995 
L 233.28 478.833349 
L 248.16 474.934555 
L 263.04 470.683615 
L 277.92 466.042689 
L 292.8 460.969762 
L 307.68 455.419231 
L 322.56 449.340701 
L 337.44 442.678487 
L 352.32 435.37531 
L 367.2 427.366303 
L 382.08 418.583709 
L 396.96 408.952883 
L 411.84 398.400378 
L 426.72 386.858036 
L 441.6 374.264685 
L 456.48 360.577414 
L 471.36 345.778659 
L 486.24 329.888979 
L 501.12 312.984912 
L 516 295.214652 
L 530.88 276.82588 
L 545.76 258.192219 
L 560.64 239.846956 
L 575.52 222.519473 
L 590.4 207.169767 
L 605.28 194.999633 
L 620.16 187.22414 
L 635.04 185.767177 
L 649.92 189.969717 
L 664.8 198.497243 
L 679.68 210.173905 
L 694.56 223.941209 
L 709.44 238.949128 
L 724.32 254.539632 
L 739.2 270.218053 
L 754.08 285.623642 
L 768.96 300.503628 
L 783.84 314.690358 
L 798.72 328.081845 
L 813.6 340.624203 
L 828.48 352.30296 
L 843.36 363.116222 
L 858.24 373.004611 
L 873.12 382.162124 
L 888 390.873866 
L 902.88 398.735679 
L 917.76 405.94116 
L 932.64 412.557869 
L 947.52 418.637098 
L 962.4 424.22535 
L 977.28 429.365636 
L 992.16 434.097274 
L 1007.04 438.456488 
L 1021.92 442.476109 
L 1036.8 446.185677 
L 1051.68 449.606048 
" clip-path="url(#p391e37da02)" style="fill: none; stroke: #a52a2a; stroke-width: 1.5; stroke-linecap: square"/>
   </g>
   <g id="patch_3">
    <path d="M 144 576.72 
L 144 77.76 
" style="fill: none; stroke: #000000; stroke-width: 0.8; stroke-linejoin: miter; stroke-linecap: square"/>
   </g>
   <g id="patch_4">
    <path d="M 1036.8 576.72 
L 1036.8 77.76 
" style="fill: none; stroke: #000000; stroke-width: 0.8; stroke-linejoin: miter; stroke-linecap: square"/>
   </g>
   <g id="patch_5">
    <path d="M 144 576.72 
L 1036.8 576.72 
" style="fill: none; stroke: #000000; stroke-width: 0.8; stroke-linejoin: miter; stroke-linecap: square"/>
   </g>
   <g id="patch_6">
    <path d="M 144 77.76 
L 1036.8 77.76 
" style="fill: none; stroke: #000000; stroke-width: 0.8; stroke-linejoin: miter; stroke-linecap: square"/>
   </g>
   <g id="text_16">
    <!-- ACT Data -->
    <g transform="translate(562.313437 71.76) scale(0.12 -0.12)">
     <defs>
      <path id="DejaVuSans-41" d="M 2188 4044 
L 1331 1722 
L 3047 1722 
L 2188 4044 
z
M 1831 4666 
L 2547 4666 
L 4325 0 
L 3669 0 
L 3244 1197 
L 1141 1197 
L 716 0 
L 50 0 
L 1831 4666 
z
" transform="scale(0.015625)"/>
      <path id="DejaVuSans-43" d="M 4122 4306 
L 4122 3641 
Q 3803 3938 3442 4084 
Q 3081 4231 2675 4231 
Q 1875 4231 1450 3742 
Q 1025 3253 1025 2328 
Q 1025 1406 1450 917 
Q 1875 428 2675 428 
Q 3081 428 3442 575 
Q 3803 722 4122 1019 
L 4122 359 
Q 3791 134 3420 21 
Q 3050 -91 2638 -91 
Q 1578 -91 968 557 
Q 359 1206 359 2328 
Q 359 3453 968 4101 
Q 1578 4750 2638 4750 
Q 3056 4750 3426 4639 
Q 3797 4528 4122 4306 
z
" transform="scale(0.015625)"/>
      <path id="DejaVuSans-44" d="M 1259 4147 
L 1259 519 
L 2022 519 
Q 2988 519 3436 956 
Q 3884 1394 3884 2338 
Q 3884 3275 3436 3711 
Q 2988 4147 2022 4147 
L 1259 4147 
z
M 628 4666 
L 1925 4666 
Q 3281 4666 3915 4102 
Q 4550 3538 4550 2338 
Q 4550 1131 3912 565 
Q 3275 0 1925 0 
L 628 0 
L 628 4666 
z
" transform="scale(0.015625)"/>
     </defs>
     <use xlink:href="#DejaVuSans-41"/>
     <use xlink:href="#DejaVuSans-43" x="66.658203"/>
     <use xlink:href="#DejaVuSans-54" x="136.482422"/>
     <use xlink:href="#DejaVuSans-20" x="197.566406"/>
     <use xlink:href="#DejaVuSans-44" x="229.353516"/>
     <use xlink:href="#DejaVuSans-61" x="306.355469"/>
     <use xlink:href="#DejaVuSans-74" x="367.634766"/>
     <use xlink:href="#DejaVuSans-61" x="406.84375"/>
    </g>
   </g>
   <g id="legend_1">
    <g id="patch_7">
     <path d="M 829.871875 173.82875 
L 1029.8 173.82875 
Q 1031.8 173.82875 1031.8 171.82875 
L 1031.8 84.76 
Q 1031.8 82.76 1029.8 82.76 
L 829.871875 82.76 
Q 827.871875 82.76 827.871875 84.76 
L 827.871875 171.82875 
Q 827.871875 173.82875 829.871875 173.82875 
z
" style="fill: #ffffff; opacity: 0.8; stroke: #cccccc; stroke-linejoin: miter"/>
    </g>
    <g id="line2d_33">
     <path d="M 831.871875 90.858438 
L 841.871875 90.858438 
L 851.871875 90.858438 
" style="fill: none; stroke: #0000ff; stroke-width: 1.5; stroke-linecap: square"/>
    </g>
    <g id="text_17">
     <!-- delta K = -20.00 (1.00 mm pwv) -->
     <g transform="translate(859.871875 94.358438) scale(0.1 -0.1)">
      <defs>
       <path id="DejaVuSans-64" d="M 2906 2969 
L 2906 4863 
L 3481 4863 
L 3481 0 
L 2906 0 
L 2906 525 
Q 2725 213 2448 61 
Q 2172 -91 1784 -91 
Q 1150 -91 751 415 
Q 353 922 353 1747 
Q 353 2572 751 3078 
Q 1150 3584 1784 3584 
Q 2172 3584 2448 3432 
Q 2725 3281 2906 2969 
z
M 947 1747 
Q 947 1113 1208 752 
Q 1469 391 1925 391 
Q 2381 391 2643 752 
Q 2906 1113 2906 1747 
Q 2906 2381 2643 2742 
Q 2381 3103 1925 3103 
Q 1469 3103 1208 2742 
Q 947 2381 947 1747 
z
" transform="scale(0.015625)"/>
       <path id="DejaVuSans-6c" d="M 603 4863 
L 1178 4863 
L 1178 0 
L 603 0 
L 603 4863 
z
" transform="scale(0.015625)"/>
       <path id="DejaVuSans-3d" d="M 678 2906 
L 4684 2906 
L 4684 2381 
L 678 2381 
L 678 2906 
z
M 678 1631 
L 4684 1631 
L 4684 1100 
L 678 1100 
L 678 1631 
z
" transform="scale(0.015625)"/>
       <path id="DejaVuSans-2d" d="M 313 2009 
L 1997 2009 
L 1997 1497 
L 313 1497 
L 313 2009 
z
" transform="scale(0.015625)"/>
       <path id="DejaVuSans-2e" d="M 684 794 
L 1344 794 
L 1344 0 
L 684 0 
L 684 794 
z
" transform="scale(0.015625)"/>
       <path id="DejaVuSans-77" d="M 269 3500 
L 844 3500 
L 1563 769 
L 2278 3500 
L 2956 3500 
L 3675 769 
L 4391 3500 
L 4966 3500 
L 4050 0 
L 3372 0 
L 2619 2869 
L 1863 0 
L 1184 0 
L 269 3500 
z
" transform="scale(0.015625)"/>
       <path id="DejaVuSans-76" d="M 191 3500 
L 800 3500 
L 1894 563 
L 2988 3500 
L 3597 3500 
L 2284 0 
L 1503 0 
L 191 3500 
z
" transform="scale(0.015625)"/>
      </defs>
      <use xlink:href="#DejaVuSans-64"/>
      <use xlink:href="#DejaVuSans-65" x="63.476562"/>
      <use xlink:href="#DejaVuSans-6c" x="125"/>
      <use xlink:href="#DejaVuSans-74" x="152.783203"/>
      <use xlink:href="#DejaVuSans-61" x="191.992188"/>
      <use xlink:href="#DejaVuSans-20" x="253.271484"/>
      <use xlink:href="#DejaVuSans-4b" x="285.058594"/>
      <use xlink:href="#DejaVuSans-20" x="350.634766"/>
      <use xlink:href="#DejaVuSans-3d" x="382.421875"/>
      <use xlink:href="#DejaVuSans-20" x="466.210938"/>
      <use xlink:href="#DejaVuSans-2d" x="497.998047"/>
      <use xlink:href="#DejaVuSans-32" x="534.082031"/>
      <use xlink:href="#DejaVuSans-30" x="597.705078"/>
      <use xlink:href="#DejaVuSans-2e" x="661.328125"/>
      <use xlink:href="#DejaVuSans-30" x="693.115234"/>
      <use xlink:href="#DejaVuSans-30" x="756.738281"/>
      <use xlink:href="#DejaVuSans-20" x="820.361328"/>
      <use xlink:href="#DejaVuSans-28" x="852.148438"/>
      <use xlink:href="#DejaVuSans-31" x="891.162109"/>
      <use xlink:href="#DejaVuSans-2e" x="954.785156"/>
      <use xlink:href="#DejaVuSans-30" x="986.572266"/>
      <use xlink:href="#DejaVuSans-30" x="1050.195312"/>
      <use xlink:href="#DejaVuSans-20" x="1113.818359"/>
      <use xlink:href="#DejaVuSans-6d" x="1145.605469"/>
      <use xlink:href="#DejaVuSans-6d" x="1243.017578"/>
      <use xlink:href="#DejaVuSans-20" x="1340.429688"/>
      <use xlink:href="#DejaVuSans-70" x="1372.216797"/>
      <use xlink:href="#DejaVuSans-77" x="1435.693359"/>
      <use xlink:href="#DejaVuSans-76" x="1517.480469"/>
      <use xlink:href="#DejaVuSans-29" x="1576.660156"/>
     </g>
    </g>
    <g id="line2d_34">
     <path d="M 831.871875 105.536563 
L 841.871875 105.536563 
L 851.871875 105.536563 
" style="fill: none; stroke: #ffa500; stroke-width: 1.5; stroke-linecap: square"/>
    </g>
    <g id="text_18">
     <!-- delta K = -20.00 (10.00 mm pwv) -->
     <g transform="translate(859.871875 109.036563) scale(0.1 -0.1)">
      <use xlink:href="#DejaVuSans-64"/>
      <use xlink:href="#DejaVuSans-65" x="63.476562"/>
      <use xlink:href="#DejaVuSans-6c" x="125"/>
      <use xlink:href="#DejaVuSans-74" x="152.783203"/>
      <use xlink:href="#DejaVuSans-61" x="191.992188"/>
      <use xlink:href="#DejaVuSans-20" x="253.271484"/>
      <use xlink:href="#DejaVuSans-4b" x="285.058594"/>
      <use xlink:href="#DejaVuSans-20" x="350.634766"/>
      <use xlink:href="#DejaVuSans-3d" x="382.421875"/>
      <use xlink:href="#DejaVuSans-20" x="466.210938"/>
      <use xlink:href="#DejaVuSans-2d" x="497.998047"/>
      <use xlink:href="#DejaVuSans-32" x="534.082031"/>
      <use xlink:href="#DejaVuSans-30" x="597.705078"/>
      <use xlink:href="#DejaVuSans-2e" x="661.328125"/>
      <use xlink:href="#DejaVuSans-30" x="693.115234"/>
      <use xlink:href="#DejaVuSans-30" x="756.738281"/>
      <use xlink:href="#DejaVuSans-20" x="820.361328"/>
      <use xlink:href="#DejaVuSans-28" x="852.148438"/>
      <use xlink:href="#DejaVuSans-31" x="891.162109"/>
      <use xlink:href="#DejaVuSans-30" x="954.785156"/>
      <use xlink:href="#DejaVuSans-2e" x="1018.408203"/>
      <use xlink:href="#DejaVuSans-30" x="1050.195312"/>
      <use xlink:href="#DejaVuSans-30" x="1113.818359"/>
      <use xlink:href="#DejaVuSans-20" x="1177.441406"/>
      <use xlink:href="#DejaVuSans-6d" x="1209.228516"/>
      <use xlink:href="#DejaVuSans-6d" x="1306.640625"/>
      <use xlink:href="#DejaVuSans-20" x="1404.052734"/>
      <use xlink:href="#DejaVuSans-70" x="1435.839844"/>
      <use xlink:href="#DejaVuSans-77" x="1499.316406"/>
      <use xlink:href="#DejaVuSans-76" x="1581.103516"/>
      <use xlink:href="#DejaVuSans-29" x="1640.283203"/>
     </g>
    </g>
    <g id="line2d_35">
     <path d="M 831.871875 120.214688 
L 841.871875 120.214688 
L 851.871875 120.214688 
" style="fill: none; stroke: #008000; stroke-width: 1.5; stroke-linecap: square"/>
    </g>
    <g id="text_19">
     <!-- delta K = 0.00 (1.00 mm pwv) -->
     <g transform="translate(859.871875 123.714688) scale(0.1 -0.1)">
      <use xlink:href="#DejaVuSans-64"/>
      <use xlink:href="#DejaVuSans-65" x="63.476562"/>
      <use xlink:href="#DejaVuSans-6c" x="125"/>
      <use xlink:href="#DejaVuSans-74" x="152.783203"/>
      <use xlink:href="#DejaVuSans-61" x="191.992188"/>
      <use xlink:href="#DejaVuSans-20" x="253.271484"/>
      <use xlink:href="#DejaVuSans-4b" x="285.058594"/>
      <use xlink:href="#DejaVuSans-20" x="350.634766"/>
      <use xlink:href="#DejaVuSans-3d" x="382.421875"/>
      <use xlink:href="#DejaVuSans-20" x="466.210938"/>
      <use xlink:href="#DejaVuSans-30" x="497.998047"/>
      <use xlink:href="#DejaVuSans-2e" x="561.621094"/>
      <use xlink:href="#DejaVuSans-30" x="593.408203"/>
      <use xlink:href="#DejaVuSans-30" x="657.03125"/>
      <use xlink:href="#DejaVuSans-20" x="720.654297"/>
      <use xlink:href="#DejaVuSans-28" x="752.441406"/>
      <use xlink:href="#DejaVuSans-31" x="791.455078"/>
      <use xlink:href="#DejaVuSans-2e" x="855.078125"/>
      <use xlink:href="#DejaVuSans-30" x="886.865234"/>
      <use xlink:href="#DejaVuSans-30" x="950.488281"/>
      <use xlink:href="#DejaVuSans-20" x="1014.111328"/>
      <use xlink:href="#DejaVuSans-6d" x="1045.898438"/>
      <use xlink:href="#DejaVuSans-6d" x="1143.310547"/>
      <use xlink:href="#DejaVuSans-20" x="1240.722656"/>
      <use xlink:href="#DejaVuSans-70" x="1272.509766"/>
      <use xlink:href="#DejaVuSans-77" x="1335.986328"/>
      <use xlink:href="#DejaVuSans-76" x="1417.773438"/>
      <use xlink:href="#DejaVuSans-29" x="1476.953125"/>
     </g>
    </g>
    <g id="line2d_36">
     <path d="M 831.871875 134.892813 
L 841.871875 134.892813 
L 851.871875 134.892813 
" style="fill: none; stroke: #ff0000; stroke-width: 1.5; stroke-linecap: square"/>
    </g>
    <g id="text_20">
     <!-- delta K = 0.00 (10.00 mm pwv) -->
     <g transform="translate(859.871875 138.392813) scale(0.1 -0.1)">
      <use xlink:href="#DejaVuSans-64"/>
      <use xlink:href="#DejaVuSans-65" x="63.476562"/>
      <use xlink:href="#DejaVuSans-6c" x="125"/>
      <use xlink:href="#DejaVuSans-74" x="152.783203"/>
      <use xlink:href="#DejaVuSans-61" x="191.992188"/>
      <use xlink:href="#DejaVuSans-20" x="253.271484"/>
      <use xlink:href="#DejaVuSans-4b" x="285.058594"/>
      <use xlink:href="#DejaVuSans-20" x="350.634766"/>
      <use xlink:href="#DejaVuSans-3d" x="382.421875"/>
      <use xlink:href="#DejaVuSans-20" x="466.210938"/>
      <use xlink:href="#DejaVuSans-30" x="497.998047"/>
      <use xlink:href="#DejaVuSans-2e" x="561.621094"/>
      <use xlink:href="#DejaVuSans-30" x="593.408203"/>
      <use xlink:href="#DejaVuSans-30" x="657.03125"/>
      <use xlink:href="#DejaVuSans-20" x="720.654297"/>
      <use xlink:href="#DejaVuSans-28" x="752.441406"/>
      <use xlink:href="#DejaVuSans-31" x="791.455078"/>
      <use xlink:href="#DejaVuSans-30" x="855.078125"/>
      <use xlink:href="#DejaVuSans-2e" x="918.701172"/>
      <use xlink:href="#DejaVuSans-30" x="950.488281"/>
      <use xlink:href="#DejaVuSans-30" x="1014.111328"/>
      <use xlink:href="#DejaVuSans-20" x="1077.734375"/>
      <use xlink:href="#DejaVuSans-6d" x="1109.521484"/>
      <use xlink:href="#DejaVuSans-6d" x="1206.933594"/>
      <use xlink:href="#DejaVuSans-20" x="1304.345703"/>
      <use xlink:href="#DejaVuSans-70" x="1336.132812"/>
      <use xlink:href="#DejaVuSans-77" x="1399.609375"/>
      <use xlink:href="#DejaVuSans-76" x="1481.396484"/>
      <use xlink:href="#DejaVuSans-29" x="1540.576172"/>
     </g>
    </g>
    <g id="line2d_37">
     <path d="M 831.871875 149.570938 
L 841.871875 149.570938 
L 851.871875 149.570938 
" style="fill: none; stroke: #800080; stroke-width: 1.5; stroke-linecap: square"/>
    </g>
    <g id="text_21">
     <!-- delta K = 20.00 (1.00 mm pwv) -->
     <g transform="translate(859.871875 153.070938) scale(0.1 -0.1)">
      <use xlink:href="#DejaVuSans-64"/>
      <use xlink:href="#DejaVuSans-65" x="63.476562"/>
      <use xlink:href="#DejaVuSans-6c" x="125"/>
      <use xlink:href="#DejaVuSans-74" x="152.783203"/>
      <use xlink:href="#DejaVuSans-61" x="191.992188"/>
      <use xlink:href="#DejaVuSans-20" x="253.271484"/>
      <use xlink:href="#DejaVuSans-4b" x="285.058594"/>
      <use xlink:href="#DejaVuSans-20" x="350.634766"/>
      <use xlink:href="#DejaVuSans-3d" x="382.421875"/>
      <use xlink:href="#DejaVuSans-20" x="466.210938"/>
      <use xlink:href="#DejaVuSans-32" x="497.998047"/>
      <use xlink:href="#DejaVuSans-30" x="561.621094"/>
      <use xlink:href="#DejaVuSans-2e" x="625.244141"/>
      <use xlink:href="#DejaVuSans-30" x="657.03125"/>
      <use xlink:href="#DejaVuSans-30" x="720.654297"/>
      <use xlink:href="#DejaVuSans-20" x="784.277344"/>
      <use xlink:href="#DejaVuSans-28" x="816.064453"/>
      <use xlink:href="#DejaVuSans-31" x="855.078125"/>
      <use xlink:href="#DejaVuSans-2e" x="918.701172"/>
      <use xlink:href="#DejaVuSans-30" x="950.488281"/>
      <use xlink:href="#DejaVuSans-30" x="1014.111328"/>
      <use xlink:href="#DejaVuSans-20" x="1077.734375"/>
      <use xlink:href="#DejaVuSans-6d" x="1109.521484"/>
      <use xlink:href="#DejaVuSans-6d" x="1206.933594"/>
      <use xlink:href="#DejaVuSans-20" x="1304.345703"/>
      <use xlink:href="#DejaVuSans-70" x="1336.132812"/>
      <use xlink:href="#DejaVuSans-77" x="1399.609375"/>
      <use xlink:href="#DejaVuSans-76" x="1481.396484"/>
      <use xlink:href="#DejaVuSans-29" x="1540.576172"/>
     </g>
    </g>
    <g id="line2d_38">
     <path d="M 831.871875 164.249063 
L 841.871875 164.249063 
L 851.871875 164.249063 
" style="fill: none; stroke: #a52a2a; stroke-width: 1.5; stroke-linecap: square"/>
    </g>
    <g id="text_22">
     <!-- delta K = 20.00 (10.00 mm pwv) -->
     <g transform="translate(859.871875 167.749063) scale(0.1 -0.1)">
      <use xlink:href="#DejaVuSans-64"/>
      <use xlink:href="#DejaVuSans-65" x="63.476562"/>
      <use xlink:href="#DejaVuSans-6c" x="125"/>
      <use xlink:href="#DejaVuSans-74" x="152.783203"/>
      <use xlink:href="#DejaVuSans-61" x="191.992188"/>
      <use xlink:href="#DejaVuSans-20" x="253.271484"/>
      <use xlink:href="#DejaVuSans-4b" x="285.058594"/>
      <use xlink:href="#DejaVuSans-20" x="350.634766"/>
      <use xlink:href="#DejaVuSans-3d" x="382.421875"/>
      <use xlink:href="#DejaVuSans-20" x="466.210938"/>
      <use xlink:href="#DejaVuSans-32" x="497.998047"/>
      <use xlink:href="#DejaVuSans-30" x="561.621094"/>
      <use xlink:href="#DejaVuSans-2e" x="625.244141"/>
      <use xlink:href="#DejaVuSans-30" x="657.03125"/>
      <use xlink:href="#DejaVuSans-30" x="720.654297"/>
      <use xlink:href="#DejaVuSans-20" x="784.277344"/>
      <use xlink:href="#DejaVuSans-28" x="816.064453"/>
      <use xlink:href="#DejaVuSans-31" x="855.078125"/>
      <use xlink:href="#DejaVuSans-30" x="918.701172"/>
      <use xlink:href="#DejaVuSans-2e" x="982.324219"/>
      <use xlink:href="#DejaVuSans-30" x="1014.111328"/>
      <use xlink:href="#DejaVuSans-30" x="1077.734375"/>
      <use xlink:href="#DejaVuSans-20" x="1141.357422"/>
      <use xlink:href="#DejaVuSans-6d" x="1173.144531"/>
      <use xlink:href="#DejaVuSans-6d" x="1270.556641"/>
      <use xlink:href="#DejaVuSans-20" x="1367.96875"/>
      <use xlink:href="#DejaVuSans-70" x="1399.755859"/>
      <use xlink:href="#DejaVuSans-77" x="1463.232422"/>
      <use xlink:href="#DejaVuSans-76" x="1545.019531"/>
      <use xlink:href="#DejaVuSans-29" x="1604.199219"/>
     </g>
    </g>
   </g>
  </g>
 </g>
 <defs>
  <clipPath id="p391e37da02">
   <rect x="144" y="77.76" width="892.8" height="498.96"/>
  </clipPath>
 </defs>
</svg>
