<?xml version="1.0" encoding="utf-8" standalone="no"?>
<!DOCTYPE svg PUBLIC "-//W3C//DTD SVG 1.1//EN"
  "http://www.w3.org/Graphics/SVG/1.1/DTD/svg11.dtd">
<svg xmlns:xlink="http://www.w3.org/1999/xlink" width="1152pt" height="648pt" viewBox="0 0 1152 648" xmlns="http://www.w3.org/2000/svg" version="1.1">
 <metadata>
  <rdf:RDF xmlns:dc="http://purl.org/dc/elements/1.1/" xmlns:cc="http://creativecommons.org/ns#" xmlns:rdf="http://www.w3.org/1999/02/22-rdf-syntax-ns#">
   <cc:Work>
    <dc:type rdf:resource="http://purl.org/dc/dcmitype/StillImage"/>
    <dc:date>2025-06-13T16:08:43.418902</dc:date>
    <dc:format>image/svg+xml</dc:format>
    <dc:creator>
     <cc:Agent>
      <dc:title>Matplotlib v3.8.4, https://matplotlib.org/</dc:title>
     </cc:Agent>
    </dc:creator>
   </cc:Work>
  </rdf:RDF>
 </metadata>
 <defs>
  <style type="text/css">*{stroke-linejoin: round; stroke-linecap: butt}</style>
 </defs>
 <g id="figure_1">
  <g id="patch_1">
   <path d="M 0 648 
L 1152 648 
L 1152 0 
L 0 0 
z
" style="fill: #ffffff"/>
  </g>
  <g id="axes_1">
   <g id="patch_2">
    <path d="M 144 576.72 
L 1036.8 576.72 
L 1036.8 77.76 
L 144 77.76 
z
" style="fill: #ffffff"/>
   </g>
   <g id="matplotlib.axis_1">
    <g id="xtick_1">
     <g id="line2d_1">
      <path d="M 203.52 576.72 
L 203.52 77.76 
" clip-path="url(#p8ee5eb5bf1)" style="fill: none; stroke: #b0b0b0; stroke-width: 0.8; stroke-linecap: square"/>
     </g>
     <g id="line2d_2">
      <defs>
       <path id="mec5a6d0b37" d="M 0 0 
L 0 3.5 
" style="stroke: #000000; stroke-width: 0.8"/>
      </defs>
      <g>
       <use xlink:href="#mec5a6d0b37" x="203.52" y="576.72" style="stroke: #000000; stroke-width: 0.8"/>
      </g>
     </g>
     <g id="text_1">
      <!-- 176 -->
      <g transform="translate(193.97625 591.318438) scale(0.1 -0.1)">
       <defs>
        <path id="DejaVuSans-31" d="M 794 531 
L 1825 531 
L 1825 4091 
L 703 3866 
L 703 4441 
L 1819 4666 
L 2450 4666 
L 2450 531 
L 3481 531 
L 3481 0 
L 794 0 
L 794 531 
z
" transform="scale(0.015625)"/>
        <path id="DejaVuSans-37" d="M 525 4666 
L 3525 4666 
L 3525 4397 
L 1831 0 
L 1172 0 
L 2766 4134 
L 525 4134 
L 525 4666 
z
" transform="scale(0.015625)"/>
        <path id="DejaVuSans-36" d="M 2113 2584 
Q 1688 2584 1439 2293 
Q 1191 2003 1191 1497 
Q 1191 994 1439 701 
Q 1688 409 2113 409 
Q 2538 409 2786 701 
Q 3034 994 3034 1497 
Q 3034 2003 2786 2293 
Q 2538 2584 2113 2584 
z
M 3366 4563 
L 3366 3988 
Q 3128 4100 2886 4159 
Q 2644 4219 2406 4219 
Q 1781 4219 1451 3797 
Q 1122 3375 1075 2522 
Q 1259 2794 1537 2939 
Q 1816 3084 2150 3084 
Q 2853 3084 3261 2657 
Q 3669 2231 3669 1497 
Q 3669 778 3244 343 
Q 2819 -91 2113 -91 
Q 1303 -91 875 529 
Q 447 1150 447 2328 
Q 447 3434 972 4092 
Q 1497 4750 2381 4750 
Q 2619 4750 2861 4703 
Q 3103 4656 3366 4563 
z
" transform="scale(0.015625)"/>
       </defs>
       <use xlink:href="#DejaVuSans-31"/>
       <use xlink:href="#DejaVuSans-37" x="63.623047"/>
       <use xlink:href="#DejaVuSans-36" x="127.246094"/>
      </g>
     </g>
    </g>
    <g id="xtick_2">
     <g id="line2d_3">
      <path d="M 322.56 576.72 
L 322.56 77.76 
" clip-path="url(#p8ee5eb5bf1)" style="fill: none; stroke: #b0b0b0; stroke-width: 0.8; stroke-linecap: square"/>
     </g>
     <g id="line2d_4">
      <g>
       <use xlink:href="#mec5a6d0b37" x="322.56" y="576.72" style="stroke: #000000; stroke-width: 0.8"/>
      </g>
     </g>
     <g id="text_2">
      <!-- 178 -->
      <g transform="translate(313.01625 591.318438) scale(0.1 -0.1)">
       <defs>
        <path id="DejaVuSans-38" d="M 2034 2216 
Q 1584 2216 1326 1975 
Q 1069 1734 1069 1313 
Q 1069 891 1326 650 
Q 1584 409 2034 409 
Q 2484 409 2743 651 
Q 3003 894 3003 1313 
Q 3003 1734 2745 1975 
Q 2488 2216 2034 2216 
z
M 1403 2484 
Q 997 2584 770 2862 
Q 544 3141 544 3541 
Q 544 4100 942 4425 
Q 1341 4750 2034 4750 
Q 2731 4750 3128 4425 
Q 3525 4100 3525 3541 
Q 3525 3141 3298 2862 
Q 3072 2584 2669 2484 
Q 3125 2378 3379 2068 
Q 3634 1759 3634 1313 
Q 3634 634 3220 271 
Q 2806 -91 2034 -91 
Q 1263 -91 848 271 
Q 434 634 434 1313 
Q 434 1759 690 2068 
Q 947 2378 1403 2484 
z
M 1172 3481 
Q 1172 3119 1398 2916 
Q 1625 2713 2034 2713 
Q 2441 2713 2670 2916 
Q 2900 3119 2900 3481 
Q 2900 3844 2670 4047 
Q 2441 4250 2034 4250 
Q 1625 4250 1398 4047 
Q 1172 3844 1172 3481 
z
" transform="scale(0.015625)"/>
       </defs>
       <use xlink:href="#DejaVuSans-31"/>
       <use xlink:href="#DejaVuSans-37" x="63.623047"/>
       <use xlink:href="#DejaVuSans-38" x="127.246094"/>
      </g>
     </g>
    </g>
    <g id="xtick_3">
     <g id="line2d_5">
      <path d="M 441.6 576.72 
L 441.6 77.76 
" clip-path="url(#p8ee5eb5bf1)" style="fill: none; stroke: #b0b0b0; stroke-width: 0.8; stroke-linecap: square"/>
     </g>
     <g id="line2d_6">
      <g>
       <use xlink:href="#mec5a6d0b37" x="441.6" y="576.72" style="stroke: #000000; stroke-width: 0.8"/>
      </g>
     </g>
     <g id="text_3">
      <!-- 180 -->
      <g transform="translate(432.05625 591.318438) scale(0.1 -0.1)">
       <defs>
        <path id="DejaVuSans-30" d="M 2034 4250 
Q 1547 4250 1301 3770 
Q 1056 3291 1056 2328 
Q 1056 1369 1301 889 
Q 1547 409 2034 409 
Q 2525 409 2770 889 
Q 3016 1369 3016 2328 
Q 3016 3291 2770 3770 
Q 2525 4250 2034 4250 
z
M 2034 4750 
Q 2819 4750 3233 4129 
Q 3647 3509 3647 2328 
Q 3647 1150 3233 529 
Q 2819 -91 2034 -91 
Q 1250 -91 836 529 
Q 422 1150 422 2328 
Q 422 3509 836 4129 
Q 1250 4750 2034 4750 
z
" transform="scale(0.015625)"/>
       </defs>
       <use xlink:href="#DejaVuSans-31"/>
       <use xlink:href="#DejaVuSans-38" x="63.623047"/>
       <use xlink:href="#DejaVuSans-30" x="127.246094"/>
      </g>
     </g>
    </g>
    <g id="xtick_4">
     <g id="line2d_7">
      <path d="M 560.64 576.72 
L 560.64 77.76 
" clip-path="url(#p8ee5eb5bf1)" style="fill: none; stroke: #b0b0b0; stroke-width: 0.8; stroke-linecap: square"/>
     </g>
     <g id="line2d_8">
      <g>
       <use xlink:href="#mec5a6d0b37" x="560.64" y="576.72" style="stroke: #000000; stroke-width: 0.8"/>
      </g>
     </g>
     <g id="text_4">
      <!-- 182 -->
      <g transform="translate(551.09625 591.318438) scale(0.1 -0.1)">
       <defs>
        <path id="DejaVuSans-32" d="M 1228 531 
L 3431 531 
L 3431 0 
L 469 0 
L 469 531 
Q 828 903 1448 1529 
Q 2069 2156 2228 2338 
Q 2531 2678 2651 2914 
Q 2772 3150 2772 3378 
Q 2772 3750 2511 3984 
Q 2250 4219 1831 4219 
Q 1534 4219 1204 4116 
Q 875 4013 500 3803 
L 500 4441 
Q 881 4594 1212 4672 
Q 1544 4750 1819 4750 
Q 2544 4750 2975 4387 
Q 3406 4025 3406 3419 
Q 3406 3131 3298 2873 
Q 3191 2616 2906 2266 
Q 2828 2175 2409 1742 
Q 1991 1309 1228 531 
z
" transform="scale(0.015625)"/>
       </defs>
       <use xlink:href="#DejaVuSans-31"/>
       <use xlink:href="#DejaVuSans-38" x="63.623047"/>
       <use xlink:href="#DejaVuSans-32" x="127.246094"/>
      </g>
     </g>
    </g>
    <g id="xtick_5">
     <g id="line2d_9">
      <path d="M 679.68 576.72 
L 679.68 77.76 
" clip-path="url(#p8ee5eb5bf1)" style="fill: none; stroke: #b0b0b0; stroke-width: 0.8; stroke-linecap: square"/>
     </g>
     <g id="line2d_10">
      <g>
       <use xlink:href="#mec5a6d0b37" x="679.68" y="576.72" style="stroke: #000000; stroke-width: 0.8"/>
      </g>
     </g>
     <g id="text_5">
      <!-- 184 -->
      <g transform="translate(670.13625 591.318438) scale(0.1 -0.1)">
       <defs>
        <path id="DejaVuSans-34" d="M 2419 4116 
L 825 1625 
L 2419 1625 
L 2419 4116 
z
M 2253 4666 
L 3047 4666 
L 3047 1625 
L 3713 1625 
L 3713 1100 
L 3047 1100 
L 3047 0 
L 2419 0 
L 2419 1100 
L 313 1100 
L 313 1709 
L 2253 4666 
z
" transform="scale(0.015625)"/>
       </defs>
       <use xlink:href="#DejaVuSans-31"/>
       <use xlink:href="#DejaVuSans-38" x="63.623047"/>
       <use xlink:href="#DejaVuSans-34" x="127.246094"/>
      </g>
     </g>
    </g>
    <g id="xtick_6">
     <g id="line2d_11">
      <path d="M 798.72 576.72 
L 798.72 77.76 
" clip-path="url(#p8ee5eb5bf1)" style="fill: none; stroke: #b0b0b0; stroke-width: 0.8; stroke-linecap: square"/>
     </g>
     <g id="line2d_12">
      <g>
       <use xlink:href="#mec5a6d0b37" x="798.72" y="576.72" style="stroke: #000000; stroke-width: 0.8"/>
      </g>
     </g>
     <g id="text_6">
      <!-- 186 -->
      <g transform="translate(789.17625 591.318438) scale(0.1 -0.1)">
       <use xlink:href="#DejaVuSans-31"/>
       <use xlink:href="#DejaVuSans-38" x="63.623047"/>
       <use xlink:href="#DejaVuSans-36" x="127.246094"/>
      </g>
     </g>
    </g>
    <g id="xtick_7">
     <g id="line2d_13">
      <path d="M 917.76 576.72 
L 917.76 77.76 
" clip-path="url(#p8ee5eb5bf1)" style="fill: none; stroke: #b0b0b0; stroke-width: 0.8; stroke-linecap: square"/>
     </g>
     <g id="line2d_14">
      <g>
       <use xlink:href="#mec5a6d0b37" x="917.76" y="576.72" style="stroke: #000000; stroke-width: 0.8"/>
      </g>
     </g>
     <g id="text_7">
      <!-- 188 -->
      <g transform="translate(908.21625 591.318438) scale(0.1 -0.1)">
       <use xlink:href="#DejaVuSans-31"/>
       <use xlink:href="#DejaVuSans-38" x="63.623047"/>
       <use xlink:href="#DejaVuSans-38" x="127.246094"/>
      </g>
     </g>
    </g>
    <g id="xtick_8">
     <g id="line2d_15">
      <path d="M 1036.8 576.72 
L 1036.8 77.76 
" clip-path="url(#p8ee5eb5bf1)" style="fill: none; stroke: #b0b0b0; stroke-width: 0.8; stroke-linecap: square"/>
     </g>
     <g id="line2d_16">
      <g>
       <use xlink:href="#mec5a6d0b37" x="1036.8" y="576.72" style="stroke: #000000; stroke-width: 0.8"/>
      </g>
     </g>
     <g id="text_8">
      <!-- 190 -->
      <g transform="translate(1027.25625 591.318438) scale(0.1 -0.1)">
       <defs>
        <path id="DejaVuSans-39" d="M 703 97 
L 703 672 
Q 941 559 1184 500 
Q 1428 441 1663 441 
Q 2288 441 2617 861 
Q 2947 1281 2994 2138 
Q 2813 1869 2534 1725 
Q 2256 1581 1919 1581 
Q 1219 1581 811 2004 
Q 403 2428 403 3163 
Q 403 3881 828 4315 
Q 1253 4750 1959 4750 
Q 2769 4750 3195 4129 
Q 3622 3509 3622 2328 
Q 3622 1225 3098 567 
Q 2575 -91 1691 -91 
Q 1453 -91 1209 -44 
Q 966 3 703 97 
z
M 1959 2075 
Q 2384 2075 2632 2365 
Q 2881 2656 2881 3163 
Q 2881 3666 2632 3958 
Q 2384 4250 1959 4250 
Q 1534 4250 1286 3958 
Q 1038 3666 1038 3163 
Q 1038 2656 1286 2365 
Q 1534 2075 1959 2075 
z
" transform="scale(0.015625)"/>
       </defs>
       <use xlink:href="#DejaVuSans-31"/>
       <use xlink:href="#DejaVuSans-39" x="63.623047"/>
       <use xlink:href="#DejaVuSans-30" x="127.246094"/>
      </g>
     </g>
    </g>
    <g id="text_9">
     <!-- Frequency (GHz) -->
     <g transform="translate(548.821094 604.996562) scale(0.1 -0.1)">
      <defs>
       <path id="DejaVuSans-46" d="M 628 4666 
L 3309 4666 
L 3309 4134 
L 1259 4134 
L 1259 2759 
L 3109 2759 
L 3109 2228 
L 1259 2228 
L 1259 0 
L 628 0 
L 628 4666 
z
" transform="scale(0.015625)"/>
       <path id="DejaVuSans-72" d="M 2631 2963 
Q 2534 3019 2420 3045 
Q 2306 3072 2169 3072 
Q 1681 3072 1420 2755 
Q 1159 2438 1159 1844 
L 1159 0 
L 581 0 
L 581 3500 
L 1159 3500 
L 1159 2956 
Q 1341 3275 1631 3429 
Q 1922 3584 2338 3584 
Q 2397 3584 2469 3576 
Q 2541 3569 2628 3553 
L 2631 2963 
z
" transform="scale(0.015625)"/>
       <path id="DejaVuSans-65" d="M 3597 1894 
L 3597 1613 
L 953 1613 
Q 991 1019 1311 708 
Q 1631 397 2203 397 
Q 2534 397 2845 478 
Q 3156 559 3463 722 
L 3463 178 
Q 3153 47 2828 -22 
Q 2503 -91 2169 -91 
Q 1331 -91 842 396 
Q 353 884 353 1716 
Q 353 2575 817 3079 
Q 1281 3584 2069 3584 
Q 2775 3584 3186 3129 
Q 3597 2675 3597 1894 
z
M 3022 2063 
Q 3016 2534 2758 2815 
Q 2500 3097 2075 3097 
Q 1594 3097 1305 2825 
Q 1016 2553 972 2059 
L 3022 2063 
z
" transform="scale(0.015625)"/>
       <path id="DejaVuSans-71" d="M 947 1747 
Q 947 1113 1208 752 
Q 1469 391 1925 391 
Q 2381 391 2643 752 
Q 2906 1113 2906 1747 
Q 2906 2381 2643 2742 
Q 2381 3103 1925 3103 
Q 1469 3103 1208 2742 
Q 947 2381 947 1747 
z
M 2906 525 
Q 2725 213 2448 61 
Q 2172 -91 1784 -91 
Q 1150 -91 751 415 
Q 353 922 353 1747 
Q 353 2572 751 3078 
Q 1150 3584 1784 3584 
Q 2172 3584 2448 3432 
Q 2725 3281 2906 2969 
L 2906 3500 
L 3481 3500 
L 3481 -1331 
L 2906 -1331 
L 2906 525 
z
" transform="scale(0.015625)"/>
       <path id="DejaVuSans-75" d="M 544 1381 
L 544 3500 
L 1119 3500 
L 1119 1403 
Q 1119 906 1312 657 
Q 1506 409 1894 409 
Q 2359 409 2629 706 
Q 2900 1003 2900 1516 
L 2900 3500 
L 3475 3500 
L 3475 0 
L 2900 0 
L 2900 538 
Q 2691 219 2414 64 
Q 2138 -91 1772 -91 
Q 1169 -91 856 284 
Q 544 659 544 1381 
z
M 1991 3584 
L 1991 3584 
z
" transform="scale(0.015625)"/>
       <path id="DejaVuSans-6e" d="M 3513 2113 
L 3513 0 
L 2938 0 
L 2938 2094 
Q 2938 2591 2744 2837 
Q 2550 3084 2163 3084 
Q 1697 3084 1428 2787 
Q 1159 2491 1159 1978 
L 1159 0 
L 581 0 
L 581 3500 
L 1159 3500 
L 1159 2956 
Q 1366 3272 1645 3428 
Q 1925 3584 2291 3584 
Q 2894 3584 3203 3211 
Q 3513 2838 3513 2113 
z
" transform="scale(0.015625)"/>
       <path id="DejaVuSans-63" d="M 3122 3366 
L 3122 2828 
Q 2878 2963 2633 3030 
Q 2388 3097 2138 3097 
Q 1578 3097 1268 2742 
Q 959 2388 959 1747 
Q 959 1106 1268 751 
Q 1578 397 2138 397 
Q 2388 397 2633 464 
Q 2878 531 3122 666 
L 3122 134 
Q 2881 22 2623 -34 
Q 2366 -91 2075 -91 
Q 1284 -91 818 406 
Q 353 903 353 1747 
Q 353 2603 823 3093 
Q 1294 3584 2113 3584 
Q 2378 3584 2631 3529 
Q 2884 3475 3122 3366 
z
" transform="scale(0.015625)"/>
       <path id="DejaVuSans-79" d="M 2059 -325 
Q 1816 -950 1584 -1140 
Q 1353 -1331 966 -1331 
L 506 -1331 
L 506 -850 
L 844 -850 
Q 1081 -850 1212 -737 
Q 1344 -625 1503 -206 
L 1606 56 
L 191 3500 
L 800 3500 
L 1894 763 
L 2988 3500 
L 3597 3500 
L 2059 -325 
z
" transform="scale(0.015625)"/>
       <path id="DejaVuSans-20" transform="scale(0.015625)"/>
       <path id="DejaVuSans-28" d="M 1984 4856 
Q 1566 4138 1362 3434 
Q 1159 2731 1159 2009 
Q 1159 1288 1364 580 
Q 1569 -128 1984 -844 
L 1484 -844 
Q 1016 -109 783 600 
Q 550 1309 550 2009 
Q 550 2706 781 3412 
Q 1013 4119 1484 4856 
L 1984 4856 
z
" transform="scale(0.015625)"/>
       <path id="DejaVuSans-47" d="M 3809 666 
L 3809 1919 
L 2778 1919 
L 2778 2438 
L 4434 2438 
L 4434 434 
Q 4069 175 3628 42 
Q 3188 -91 2688 -91 
Q 1594 -91 976 548 
Q 359 1188 359 2328 
Q 359 3472 976 4111 
Q 1594 4750 2688 4750 
Q 3144 4750 3555 4637 
Q 3966 4525 4313 4306 
L 4313 3634 
Q 3963 3931 3569 4081 
Q 3175 4231 2741 4231 
Q 1884 4231 1454 3753 
Q 1025 3275 1025 2328 
Q 1025 1384 1454 906 
Q 1884 428 2741 428 
Q 3075 428 3337 486 
Q 3600 544 3809 666 
z
" transform="scale(0.015625)"/>
       <path id="DejaVuSans-48" d="M 628 4666 
L 1259 4666 
L 1259 2753 
L 3553 2753 
L 3553 4666 
L 4184 4666 
L 4184 0 
L 3553 0 
L 3553 2222 
L 1259 2222 
L 1259 0 
L 628 0 
L 628 4666 
z
" transform="scale(0.015625)"/>
       <path id="DejaVuSans-7a" d="M 353 3500 
L 3084 3500 
L 3084 2975 
L 922 459 
L 3084 459 
L 3084 0 
L 275 0 
L 275 525 
L 2438 3041 
L 353 3041 
L 353 3500 
z
" transform="scale(0.015625)"/>
       <path id="DejaVuSans-29" d="M 513 4856 
L 1013 4856 
Q 1481 4119 1714 3412 
Q 1947 2706 1947 2009 
Q 1947 1309 1714 600 
Q 1481 -109 1013 -844 
L 513 -844 
Q 928 -128 1133 580 
Q 1338 1288 1338 2009 
Q 1338 2731 1133 3434 
Q 928 4138 513 4856 
z
" transform="scale(0.015625)"/>
      </defs>
      <use xlink:href="#DejaVuSans-46"/>
      <use xlink:href="#DejaVuSans-72" x="50.269531"/>
      <use xlink:href="#DejaVuSans-65" x="89.132812"/>
      <use xlink:href="#DejaVuSans-71" x="150.65625"/>
      <use xlink:href="#DejaVuSans-75" x="214.132812"/>
      <use xlink:href="#DejaVuSans-65" x="277.511719"/>
      <use xlink:href="#DejaVuSans-6e" x="339.035156"/>
      <use xlink:href="#DejaVuSans-63" x="402.414062"/>
      <use xlink:href="#DejaVuSans-79" x="457.394531"/>
      <use xlink:href="#DejaVuSans-20" x="516.574219"/>
      <use xlink:href="#DejaVuSans-28" x="548.361328"/>
      <use xlink:href="#DejaVuSans-47" x="587.375"/>
      <use xlink:href="#DejaVuSans-48" x="664.865234"/>
      <use xlink:href="#DejaVuSans-7a" x="740.060547"/>
      <use xlink:href="#DejaVuSans-29" x="792.550781"/>
     </g>
    </g>
   </g>
   <g id="matplotlib.axis_2">
    <g id="ytick_1">
     <g id="line2d_17">
      <path d="M 144 559.729416 
L 1036.8 559.729416 
" clip-path="url(#p8ee5eb5bf1)" style="fill: none; stroke: #b0b0b0; stroke-width: 0.8; stroke-linecap: square"/>
     </g>
     <g id="line2d_18">
      <defs>
       <path id="m8b430f6240" d="M 0 0 
L -3.5 0 
" style="stroke: #000000; stroke-width: 0.8"/>
      </defs>
      <g>
       <use xlink:href="#m8b430f6240" x="144" y="559.729416" style="stroke: #000000; stroke-width: 0.8"/>
      </g>
     </g>
     <g id="text_10">
      <!-- 0 -->
      <g transform="translate(130.6375 563.528634) scale(0.1 -0.1)">
       <use xlink:href="#DejaVuSans-30"/>
      </g>
     </g>
    </g>
    <g id="ytick_2">
     <g id="line2d_19">
      <path d="M 144 480.403092 
L 1036.8 480.403092 
" clip-path="url(#p8ee5eb5bf1)" style="fill: none; stroke: #b0b0b0; stroke-width: 0.8; stroke-linecap: square"/>
     </g>
     <g id="line2d_20">
      <g>
       <use xlink:href="#m8b430f6240" x="144" y="480.403092" style="stroke: #000000; stroke-width: 0.8"/>
      </g>
     </g>
     <g id="text_11">
      <!-- 50 -->
      <g transform="translate(124.275 484.202311) scale(0.1 -0.1)">
       <defs>
        <path id="DejaVuSans-35" d="M 691 4666 
L 3169 4666 
L 3169 4134 
L 1269 4134 
L 1269 2991 
Q 1406 3038 1543 3061 
Q 1681 3084 1819 3084 
Q 2600 3084 3056 2656 
Q 3513 2228 3513 1497 
Q 3513 744 3044 326 
Q 2575 -91 1722 -91 
Q 1428 -91 1123 -41 
Q 819 9 494 109 
L 494 744 
Q 775 591 1075 516 
Q 1375 441 1709 441 
Q 2250 441 2565 725 
Q 2881 1009 2881 1497 
Q 2881 1984 2565 2268 
Q 2250 2553 1709 2553 
Q 1456 2553 1204 2497 
Q 953 2441 691 2322 
L 691 4666 
z
" transform="scale(0.015625)"/>
       </defs>
       <use xlink:href="#DejaVuSans-35"/>
       <use xlink:href="#DejaVuSans-30" x="63.623047"/>
      </g>
     </g>
    </g>
    <g id="ytick_3">
     <g id="line2d_21">
      <path d="M 144 401.076769 
L 1036.8 401.076769 
" clip-path="url(#p8ee5eb5bf1)" style="fill: none; stroke: #b0b0b0; stroke-width: 0.8; stroke-linecap: square"/>
     </g>
     <g id="line2d_22">
      <g>
       <use xlink:href="#m8b430f6240" x="144" y="401.076769" style="stroke: #000000; stroke-width: 0.8"/>
      </g>
     </g>
     <g id="text_12">
      <!-- 100 -->
      <g transform="translate(117.9125 404.875988) scale(0.1 -0.1)">
       <use xlink:href="#DejaVuSans-31"/>
       <use xlink:href="#DejaVuSans-30" x="63.623047"/>
       <use xlink:href="#DejaVuSans-30" x="127.246094"/>
      </g>
     </g>
    </g>
    <g id="ytick_4">
     <g id="line2d_23">
      <path d="M 144 321.750446 
L 1036.8 321.750446 
" clip-path="url(#p8ee5eb5bf1)" style="fill: none; stroke: #b0b0b0; stroke-width: 0.8; stroke-linecap: square"/>
     </g>
     <g id="line2d_24">
      <g>
       <use xlink:href="#m8b430f6240" x="144" y="321.750446" style="stroke: #000000; stroke-width: 0.8"/>
      </g>
     </g>
     <g id="text_13">
      <!-- 150 -->
      <g transform="translate(117.9125 325.549665) scale(0.1 -0.1)">
       <use xlink:href="#DejaVuSans-31"/>
       <use xlink:href="#DejaVuSans-35" x="63.623047"/>
       <use xlink:href="#DejaVuSans-30" x="127.246094"/>
      </g>
     </g>
    </g>
    <g id="ytick_5">
     <g id="line2d_25">
      <path d="M 144 242.424123 
L 1036.8 242.424123 
" clip-path="url(#p8ee5eb5bf1)" style="fill: none; stroke: #b0b0b0; stroke-width: 0.8; stroke-linecap: square"/>
     </g>
     <g id="line2d_26">
      <g>
       <use xlink:href="#m8b430f6240" x="144" y="242.424123" style="stroke: #000000; stroke-width: 0.8"/>
      </g>
     </g>
     <g id="text_14">
      <!-- 200 -->
      <g transform="translate(117.9125 246.223342) scale(0.1 -0.1)">
       <use xlink:href="#DejaVuSans-32"/>
       <use xlink:href="#DejaVuSans-30" x="63.623047"/>
       <use xlink:href="#DejaVuSans-30" x="127.246094"/>
      </g>
     </g>
    </g>
    <g id="ytick_6">
     <g id="line2d_27">
      <path d="M 144 163.0978 
L 1036.8 163.0978 
" clip-path="url(#p8ee5eb5bf1)" style="fill: none; stroke: #b0b0b0; stroke-width: 0.8; stroke-linecap: square"/>
     </g>
     <g id="line2d_28">
      <g>
       <use xlink:href="#m8b430f6240" x="144" y="163.0978" style="stroke: #000000; stroke-width: 0.8"/>
      </g>
     </g>
     <g id="text_15">
      <!-- 250 -->
      <g transform="translate(117.9125 166.897019) scale(0.1 -0.1)">
       <use xlink:href="#DejaVuSans-32"/>
       <use xlink:href="#DejaVuSans-35" x="63.623047"/>
       <use xlink:href="#DejaVuSans-30" x="127.246094"/>
      </g>
     </g>
    </g>
    <g id="ytick_7">
     <g id="line2d_29">
      <path d="M 144 83.771477 
L 1036.8 83.771477 
" clip-path="url(#p8ee5eb5bf1)" style="fill: none; stroke: #b0b0b0; stroke-width: 0.8; stroke-linecap: square"/>
     </g>
     <g id="line2d_30">
      <g>
       <use xlink:href="#m8b430f6240" x="144" y="83.771477" style="stroke: #000000; stroke-width: 0.8"/>
      </g>
     </g>
     <g id="text_16">
      <!-- 300 -->
      <g transform="translate(117.9125 87.570696) scale(0.1 -0.1)">
       <defs>
        <path id="DejaVuSans-33" d="M 2597 2516 
Q 3050 2419 3304 2112 
Q 3559 1806 3559 1356 
Q 3559 666 3084 287 
Q 2609 -91 1734 -91 
Q 1441 -91 1130 -33 
Q 819 25 488 141 
L 488 750 
Q 750 597 1062 519 
Q 1375 441 1716 441 
Q 2309 441 2620 675 
Q 2931 909 2931 1356 
Q 2931 1769 2642 2001 
Q 2353 2234 1838 2234 
L 1294 2234 
L 1294 2753 
L 1863 2753 
Q 2328 2753 2575 2939 
Q 2822 3125 2822 3475 
Q 2822 3834 2567 4026 
Q 2313 4219 1838 4219 
Q 1578 4219 1281 4162 
Q 984 4106 628 3988 
L 628 4550 
Q 988 4650 1302 4700 
Q 1616 4750 1894 4750 
Q 2613 4750 3031 4423 
Q 3450 4097 3450 3541 
Q 3450 3153 3228 2886 
Q 3006 2619 2597 2516 
z
" transform="scale(0.015625)"/>
       </defs>
       <use xlink:href="#DejaVuSans-33"/>
       <use xlink:href="#DejaVuSans-30" x="63.623047"/>
       <use xlink:href="#DejaVuSans-30" x="127.246094"/>
      </g>
     </g>
    </g>
    <g id="text_17">
     <!-- Brightness Temperature (K) -->
     <g transform="translate(111.832812 395.900937) rotate(-90) scale(0.1 -0.1)">
      <defs>
       <path id="DejaVuSans-42" d="M 1259 2228 
L 1259 519 
L 2272 519 
Q 2781 519 3026 730 
Q 3272 941 3272 1375 
Q 3272 1813 3026 2020 
Q 2781 2228 2272 2228 
L 1259 2228 
z
M 1259 4147 
L 1259 2741 
L 2194 2741 
Q 2656 2741 2882 2914 
Q 3109 3088 3109 3444 
Q 3109 3797 2882 3972 
Q 2656 4147 2194 4147 
L 1259 4147 
z
M 628 4666 
L 2241 4666 
Q 2963 4666 3353 4366 
Q 3744 4066 3744 3513 
Q 3744 3084 3544 2831 
Q 3344 2578 2956 2516 
Q 3422 2416 3680 2098 
Q 3938 1781 3938 1306 
Q 3938 681 3513 340 
Q 3088 0 2303 0 
L 628 0 
L 628 4666 
z
" transform="scale(0.015625)"/>
       <path id="DejaVuSans-69" d="M 603 3500 
L 1178 3500 
L 1178 0 
L 603 0 
L 603 3500 
z
M 603 4863 
L 1178 4863 
L 1178 4134 
L 603 4134 
L 603 4863 
z
" transform="scale(0.015625)"/>
       <path id="DejaVuSans-67" d="M 2906 1791 
Q 2906 2416 2648 2759 
Q 2391 3103 1925 3103 
Q 1463 3103 1205 2759 
Q 947 2416 947 1791 
Q 947 1169 1205 825 
Q 1463 481 1925 481 
Q 2391 481 2648 825 
Q 2906 1169 2906 1791 
z
M 3481 434 
Q 3481 -459 3084 -895 
Q 2688 -1331 1869 -1331 
Q 1566 -1331 1297 -1286 
Q 1028 -1241 775 -1147 
L 775 -588 
Q 1028 -725 1275 -790 
Q 1522 -856 1778 -856 
Q 2344 -856 2625 -561 
Q 2906 -266 2906 331 
L 2906 616 
Q 2728 306 2450 153 
Q 2172 0 1784 0 
Q 1141 0 747 490 
Q 353 981 353 1791 
Q 353 2603 747 3093 
Q 1141 3584 1784 3584 
Q 2172 3584 2450 3431 
Q 2728 3278 2906 2969 
L 2906 3500 
L 3481 3500 
L 3481 434 
z
" transform="scale(0.015625)"/>
       <path id="DejaVuSans-68" d="M 3513 2113 
L 3513 0 
L 2938 0 
L 2938 2094 
Q 2938 2591 2744 2837 
Q 2550 3084 2163 3084 
Q 1697 3084 1428 2787 
Q 1159 2491 1159 1978 
L 1159 0 
L 581 0 
L 581 4863 
L 1159 4863 
L 1159 2956 
Q 1366 3272 1645 3428 
Q 1925 3584 2291 3584 
Q 2894 3584 3203 3211 
Q 3513 2838 3513 2113 
z
" transform="scale(0.015625)"/>
       <path id="DejaVuSans-74" d="M 1172 4494 
L 1172 3500 
L 2356 3500 
L 2356 3053 
L 1172 3053 
L 1172 1153 
Q 1172 725 1289 603 
Q 1406 481 1766 481 
L 2356 481 
L 2356 0 
L 1766 0 
Q 1100 0 847 248 
Q 594 497 594 1153 
L 594 3053 
L 172 3053 
L 172 3500 
L 594 3500 
L 594 4494 
L 1172 4494 
z
" transform="scale(0.015625)"/>
       <path id="DejaVuSans-73" d="M 2834 3397 
L 2834 2853 
Q 2591 2978 2328 3040 
Q 2066 3103 1784 3103 
Q 1356 3103 1142 2972 
Q 928 2841 928 2578 
Q 928 2378 1081 2264 
Q 1234 2150 1697 2047 
L 1894 2003 
Q 2506 1872 2764 1633 
Q 3022 1394 3022 966 
Q 3022 478 2636 193 
Q 2250 -91 1575 -91 
Q 1294 -91 989 -36 
Q 684 19 347 128 
L 347 722 
Q 666 556 975 473 
Q 1284 391 1588 391 
Q 1994 391 2212 530 
Q 2431 669 2431 922 
Q 2431 1156 2273 1281 
Q 2116 1406 1581 1522 
L 1381 1569 
Q 847 1681 609 1914 
Q 372 2147 372 2553 
Q 372 3047 722 3315 
Q 1072 3584 1716 3584 
Q 2034 3584 2315 3537 
Q 2597 3491 2834 3397 
z
" transform="scale(0.015625)"/>
       <path id="DejaVuSans-54" d="M -19 4666 
L 3928 4666 
L 3928 4134 
L 2272 4134 
L 2272 0 
L 1638 0 
L 1638 4134 
L -19 4134 
L -19 4666 
z
" transform="scale(0.015625)"/>
       <path id="DejaVuSans-6d" d="M 3328 2828 
Q 3544 3216 3844 3400 
Q 4144 3584 4550 3584 
Q 5097 3584 5394 3201 
Q 5691 2819 5691 2113 
L 5691 0 
L 5113 0 
L 5113 2094 
Q 5113 2597 4934 2840 
Q 4756 3084 4391 3084 
Q 3944 3084 3684 2787 
Q 3425 2491 3425 1978 
L 3425 0 
L 2847 0 
L 2847 2094 
Q 2847 2600 2669 2842 
Q 2491 3084 2119 3084 
Q 1678 3084 1418 2786 
Q 1159 2488 1159 1978 
L 1159 0 
L 581 0 
L 581 3500 
L 1159 3500 
L 1159 2956 
Q 1356 3278 1631 3431 
Q 1906 3584 2284 3584 
Q 2666 3584 2933 3390 
Q 3200 3197 3328 2828 
z
" transform="scale(0.015625)"/>
       <path id="DejaVuSans-70" d="M 1159 525 
L 1159 -1331 
L 581 -1331 
L 581 3500 
L 1159 3500 
L 1159 2969 
Q 1341 3281 1617 3432 
Q 1894 3584 2278 3584 
Q 2916 3584 3314 3078 
Q 3713 2572 3713 1747 
Q 3713 922 3314 415 
Q 2916 -91 2278 -91 
Q 1894 -91 1617 61 
Q 1341 213 1159 525 
z
M 3116 1747 
Q 3116 2381 2855 2742 
Q 2594 3103 2138 3103 
Q 1681 3103 1420 2742 
Q 1159 2381 1159 1747 
Q 1159 1113 1420 752 
Q 1681 391 2138 391 
Q 2594 391 2855 752 
Q 3116 1113 3116 1747 
z
" transform="scale(0.015625)"/>
       <path id="DejaVuSans-61" d="M 2194 1759 
Q 1497 1759 1228 1600 
Q 959 1441 959 1056 
Q 959 750 1161 570 
Q 1363 391 1709 391 
Q 2188 391 2477 730 
Q 2766 1069 2766 1631 
L 2766 1759 
L 2194 1759 
z
M 3341 1997 
L 3341 0 
L 2766 0 
L 2766 531 
Q 2569 213 2275 61 
Q 1981 -91 1556 -91 
Q 1019 -91 701 211 
Q 384 513 384 1019 
Q 384 1609 779 1909 
Q 1175 2209 1959 2209 
L 2766 2209 
L 2766 2266 
Q 2766 2663 2505 2880 
Q 2244 3097 1772 3097 
Q 1472 3097 1187 3025 
Q 903 2953 641 2809 
L 641 3341 
Q 956 3463 1253 3523 
Q 1550 3584 1831 3584 
Q 2591 3584 2966 3190 
Q 3341 2797 3341 1997 
z
" transform="scale(0.015625)"/>
       <path id="DejaVuSans-4b" d="M 628 4666 
L 1259 4666 
L 1259 2694 
L 3353 4666 
L 4166 4666 
L 1850 2491 
L 4331 0 
L 3500 0 
L 1259 2247 
L 1259 0 
L 628 0 
L 628 4666 
z
" transform="scale(0.015625)"/>
      </defs>
      <use xlink:href="#DejaVuSans-42"/>
      <use xlink:href="#DejaVuSans-72" x="68.603516"/>
      <use xlink:href="#DejaVuSans-69" x="109.716797"/>
      <use xlink:href="#DejaVuSans-67" x="137.5"/>
      <use xlink:href="#DejaVuSans-68" x="200.976562"/>
      <use xlink:href="#DejaVuSans-74" x="264.355469"/>
      <use xlink:href="#DejaVuSans-6e" x="303.564453"/>
      <use xlink:href="#DejaVuSans-65" x="366.943359"/>
      <use xlink:href="#DejaVuSans-73" x="428.466797"/>
      <use xlink:href="#DejaVuSans-73" x="480.566406"/>
      <use xlink:href="#DejaVuSans-20" x="532.666016"/>
      <use xlink:href="#DejaVuSans-54" x="564.453125"/>
      <use xlink:href="#DejaVuSans-65" x="608.537109"/>
      <use xlink:href="#DejaVuSans-6d" x="670.060547"/>
      <use xlink:href="#DejaVuSans-70" x="767.472656"/>
      <use xlink:href="#DejaVuSans-65" x="830.949219"/>
      <use xlink:href="#DejaVuSans-72" x="892.472656"/>
      <use xlink:href="#DejaVuSans-61" x="933.585938"/>
      <use xlink:href="#DejaVuSans-74" x="994.865234"/>
      <use xlink:href="#DejaVuSans-75" x="1034.074219"/>
      <use xlink:href="#DejaVuSans-72" x="1097.453125"/>
      <use xlink:href="#DejaVuSans-65" x="1136.316406"/>
      <use xlink:href="#DejaVuSans-20" x="1197.839844"/>
      <use xlink:href="#DejaVuSans-28" x="1229.626953"/>
      <use xlink:href="#DejaVuSans-4b" x="1268.640625"/>
      <use xlink:href="#DejaVuSans-29" x="1334.216797"/>
     </g>
    </g>
   </g>
   <g id="line2d_31">
    <path d="M 138.048 512.333207 
L 144 511.530107 
L 149.952 510.475384 
L 155.904 508.188993 
L 161.856 508.677469 
L 167.808 506.691265 
L 173.76 506.144421 
L 179.712 506.363584 
L 185.664 505.623755 
L 191.616 504.544552 
L 197.568 503.613435 
L 203.52 503.052059 
L 215.424 501.356062 
L 227.328 499.3413 
L 239.232 497.181498 
L 251.136 494.76552 
L 263.04 492.133742 
L 274.944 489.267603 
L 286.848 486.143113 
L 298.752 482.74352 
L 310.656 479.035792 
L 322.56 474.992609 
L 334.464 470.576338 
L 346.368 465.741875 
L 352.32 463.143747 
L 364.224 457.606484 
L 370.176 454.654054 
L 376.128 451.549554 
L 382.08 448.293796 
L 388.032 444.880495 
L 393.984 441.301799 
L 399.936 437.54941 
L 405.888 433.614507 
L 411.84 429.487952 
L 417.792 425.160527 
L 423.744 420.622458 
L 429.696 415.862895 
L 435.648 410.864813 
L 441.6 405.412921 
L 447.552 400.176574 
L 453.504 394.469045 
L 459.456 388.490538 
L 465.408 382.243272 
L 471.36 375.72487 
L 477.312 368.933109 
L 483.264 361.869417 
L 489.216 354.536809 
L 495.168 346.942265 
L 501.12 339.093243 
L 507.072 331.021631 
L 518.976 314.277113 
L 530.88 296.961288 
L 548.736 270.7955 
L 554.688 262.277281 
L 560.64 253.983555 
L 566.592 245.989207 
L 572.544 238.363409 
L 578.496 231.227847 
L 584.448 224.592994 
L 590.4 218.534049 
L 596.352 213.095119 
L 602.304 208.309521 
L 608.256 204.19772 
L 614.208 200.769554 
L 620.16 198.02518 
L 626.112 195.950321 
L 632.064 194.473741 
L 638.016 192.614808 
L 643.968 194.491034 
L 649.92 196.142291 
L 655.872 198.347245 
L 661.824 201.202834 
L 667.776 204.717625 
L 673.728 208.890983 
L 679.68 213.692922 
L 685.632 219.072199 
L 697.536 230.69525 
L 703.488 235.550021 
L 709.44 245.452009 
L 715.392 253.605327 
L 721.344 261.395965 
L 727.296 269.699369 
L 733.248 278.53061 
L 745.152 295.54801 
L 757.056 312.207172 
L 763.008 320.324318 
L 774.912 335.904959 
L 780.864 343.525522 
L 786.816 350.823068 
L 792.768 357.864072 
L 798.72 364.646156 
L 804.672 371.17027 
L 810.624 377.436732 
L 816.576 383.447922 
L 822.528 389.207172 
L 828.48 394.72162 
L 834.432 400.00158 
L 840.384 405.047306 
L 846.336 409.86876 
L 852.288 414.47351 
L 858.24 418.866062 
L 870.144 427.0467 
L 876.096 430.91562 
L 882.048 434.580591 
L 888 438.075883 
L 893.952 441.406764 
L 899.904 444.595047 
L 905.856 447.623013 
L 923.712 456.007757 
L 935.616 460.996685 
L 947.52 465.567261 
L 959.424 469.757405 
L 965.376 471.718574 
L 983.232 477.143812 
L 995.136 480.407916 
L 1007.04 483.429614 
L 1018.944 486.209922 
L 1030.848 488.792343 
L 1042.752 491.182017 
L 1042.752 491.182017 
" clip-path="url(#p8ee5eb5bf1)" style="fill: none; stroke: #0000ff; stroke-width: 1.5; stroke-linecap: square"/>
   </g>
   <g id="line2d_32">
    <path d="M 138.048 281.251027 
L 149.952 276.562524 
L 155.904 273.777218 
L 161.856 271.806435 
L 167.808 269.082527 
L 173.76 266.758583 
L 179.712 264.62185 
L 191.616 259.653166 
L 221.376 247.026795 
L 245.184 236.46862 
L 304.704 209.780072 
L 322.56 202.144437 
L 334.464 197.276181 
L 346.368 192.63924 
L 358.272 188.277244 
L 370.176 184.246674 
L 382.08 180.576721 
L 393.984 177.305145 
L 405.888 174.455584 
L 417.792 172.03867 
L 429.696 170.04869 
L 441.6 168.461211 
L 453.504 167.244346 
L 465.408 166.338598 
L 477.312 165.685742 
L 489.216 165.223587 
L 507.072 164.766985 
L 536.832 164.321805 
L 578.496 163.960236 
L 626.112 163.78318 
L 673.728 163.845847 
L 721.344 164.140941 
L 763.008 164.626101 
L 786.816 165.128713 
L 804.672 165.768241 
L 816.576 166.397934 
L 828.48 167.244346 
L 840.384 168.350631 
L 852.288 169.751851 
L 864.192 171.471487 
L 876.096 173.524769 
L 888 175.908684 
L 899.904 178.612601 
L 911.808 181.610977 
L 923.712 184.895404 
L 935.616 188.415272 
L 947.52 192.142499 
L 965.376 198.044377 
L 983.232 204.21771 
L 1012.992 214.824433 
L 1042.752 225.476213 
L 1042.752 225.476213 
" clip-path="url(#p8ee5eb5bf1)" style="fill: none; stroke: #ffa500; stroke-width: 1.5; stroke-linecap: square"/>
   </g>
   <g id="line2d_33">
    <path d="M 138.048 516.165382 
L 144 515.410116 
L 149.952 514.380429 
L 155.904 511.923851 
L 161.856 512.71675 
L 167.808 510.769955 
L 173.76 510.300248 
L 179.712 510.608906 
L 185.664 509.929334 
L 191.616 508.911022 
L 197.568 508.041732 
L 203.52 507.551559 
L 215.424 505.997302 
L 227.328 504.115174 
L 239.232 502.137315 
L 251.136 499.889461 
L 263.04 497.432947 
L 274.944 494.753907 
L 286.848 491.822323 
L 298.752 488.626932 
L 310.656 485.129831 
L 322.56 481.304858 
L 334.464 477.113144 
L 346.368 472.504729 
L 352.32 470.014501 
L 364.224 464.705048 
L 370.176 461.871178 
L 376.128 458.877895 
L 382.08 455.729084 
L 388.032 452.418114 
L 393.984 448.936022 
L 399.936 445.273272 
L 405.888 441.419313 
L 411.84 437.363089 
L 417.792 433.093159 
L 423.744 428.59707 
L 429.696 423.860463 
L 435.648 418.859082 
L 441.6 413.273747 
L 447.552 408.099751 
L 453.504 402.314482 
L 459.456 396.215018 
L 465.408 389.80085 
L 471.36 383.065252 
L 477.312 375.998387 
L 483.264 368.594861 
L 489.216 360.849756 
L 495.168 352.761644 
L 501.12 344.329415 
L 507.072 335.577183 
L 513.024 326.511295 
L 518.976 317.149044 
L 524.928 307.522477 
L 536.832 287.6598 
L 560.64 247.250971 
L 566.592 237.491136 
L 572.544 228.049559 
L 578.496 219.114876 
L 584.448 210.690104 
L 590.4 202.900259 
L 596.352 195.822605 
L 602.304 189.524571 
L 608.256 184.056608 
L 614.208 179.454095 
L 620.16 175.738926 
L 626.112 172.914909 
L 632.064 170.91414 
L 638.016 168.515629 
L 643.968 170.971096 
L 649.92 173.228089 
L 655.872 176.252008 
L 661.824 180.142013 
L 667.776 184.885727 
L 673.728 190.459511 
L 679.68 196.806728 
L 685.632 203.842655 
L 697.536 218.886893 
L 703.488 225.18572 
L 709.44 237.263311 
L 715.392 247.167679 
L 721.344 256.523108 
L 727.296 266.394 
L 733.248 276.78083 
L 745.152 296.392677 
L 751.104 305.894066 
L 757.056 315.14653 
L 763.008 324.141659 
L 768.96 332.75856 
L 780.864 349.364098 
L 786.816 357.162669 
L 792.768 364.623944 
L 798.72 371.755381 
L 804.672 378.565863 
L 810.624 385.063482 
L 816.576 391.256329 
L 822.528 397.153131 
L 828.48 402.768038 
L 834.432 408.119614 
L 840.384 413.205844 
L 846.336 418.042496 
L 852.288 422.640377 
L 858.24 427.004911 
L 870.144 435.069765 
L 876.096 438.900671 
L 882.048 442.496834 
L 888 445.912927 
L 893.952 449.154613 
L 899.904 452.253893 
L 905.856 455.185064 
L 911.808 457.870054 
L 917.76 460.698101 
L 923.712 463.274985 
L 935.616 468.059552 
L 947.52 472.424752 
L 959.424 476.411535 
L 965.376 478.270912 
L 983.232 483.407751 
L 995.136 486.487025 
L 1007.04 489.330715 
L 1018.944 491.94071 
L 1030.848 494.360083 
L 1042.752 496.594182 
L 1042.752 496.594182 
" clip-path="url(#p8ee5eb5bf1)" style="fill: none; stroke: #008000; stroke-width: 1.5; stroke-linecap: square"/>
   </g>
   <g id="line2d_34">
    <path d="M 138.048 296.671429 
L 144 293.966402 
L 149.952 291.115096 
L 155.904 287.669954 
L 161.856 285.463889 
L 167.808 282.160741 
L 173.76 279.386382 
L 179.712 276.855079 
L 185.664 273.916832 
L 197.568 267.742706 
L 209.472 261.652665 
L 221.376 255.251983 
L 239.232 245.296212 
L 257.088 234.973478 
L 274.944 224.372942 
L 304.704 206.37142 
L 328.512 192.055081 
L 340.416 185.074841 
L 352.32 178.297993 
L 364.224 171.802436 
L 376.128 165.662103 
L 388.032 159.947593 
L 393.984 157.273344 
L 399.936 154.732205 
L 405.888 152.33179 
L 411.84 150.078288 
L 417.792 147.977251 
L 423.744 146.032487 
L 429.696 144.246693 
L 435.648 142.620503 
L 441.6 141.146303 
L 447.552 139.842971 
L 453.504 138.683855 
L 459.456 137.669113 
L 465.408 136.79097 
L 471.36 136.039433 
L 483.264 134.870639 
L 495.168 134.065318 
L 507.072 133.524312 
L 524.928 133.021859 
L 548.736 132.63316 
L 584.448 132.289677 
L 626.112 132.115477 
L 667.776 132.167832 
L 709.44 132.442619 
L 745.152 132.893192 
L 763.008 133.281732 
L 774.912 133.676936 
L 786.816 134.251576 
L 798.72 135.079108 
L 810.624 136.237748 
L 822.528 137.799525 
L 828.48 138.750172 
L 834.432 139.821712 
L 840.384 141.017953 
L 846.336 142.341274 
L 852.288 143.792787 
L 858.24 145.372016 
L 864.192 147.074676 
L 870.144 148.905052 
L 882.048 152.922454 
L 893.952 157.374247 
L 905.856 162.212836 
L 917.76 167.385388 
L 929.664 172.831775 
L 941.568 178.490597 
L 959.424 187.260757 
L 989.184 202.221543 
L 1018.944 217.085392 
L 1036.8 225.770196 
L 1042.752 228.60992 
L 1042.752 228.60992 
" clip-path="url(#p8ee5eb5bf1)" style="fill: none; stroke: #ff0000; stroke-width: 1.5; stroke-linecap: square"/>
   </g>
   <g id="line2d_35">
    <path d="M 138.048 519.449428 
L 144 518.741647 
L 149.952 517.742913 
L 155.904 515.143389 
L 161.856 516.210313 
L 167.808 514.321775 
L 173.76 513.919686 
L 179.712 514.292646 
L 185.664 513.667158 
L 191.616 512.707706 
L 197.568 511.896817 
L 203.52 511.471739 
L 215.424 510.050132 
L 221.376 509.229088 
L 245.184 505.482744 
L 257.088 503.299747 
L 268.992 500.914896 
L 280.896 498.30468 
L 292.8 495.446616 
L 304.704 492.318493 
L 316.608 488.88057 
L 328.512 485.121866 
L 340.416 480.975908 
L 346.368 478.742317 
L 352.32 476.374743 
L 370.176 468.639665 
L 376.128 465.783822 
L 382.08 462.771421 
L 388.032 459.595925 
L 393.984 456.24764 
L 399.936 452.716286 
L 405.888 448.98998 
L 411.84 445.056156 
L 417.792 440.901725 
L 423.744 436.51206 
L 429.696 431.869741 
L 435.648 426.943021 
L 441.6 421.291829 
L 447.552 416.296365 
L 453.504 410.539384 
L 459.456 404.434129 
L 465.408 397.978283 
L 471.36 391.161455 
L 477.312 383.965764 
L 483.264 376.379947 
L 489.216 368.389882 
L 495.168 359.985099 
L 501.12 351.154969 
L 507.072 341.913611 
L 513.024 332.258011 
L 518.976 322.193722 
L 524.928 311.743748 
L 530.88 300.945056 
L 536.832 289.837625 
L 548.736 266.938178 
L 566.592 232.172307 
L 572.544 220.88306 
L 578.496 210.083892 
L 584.448 199.75497 
L 590.4 190.084298 
L 596.352 181.188009 
L 602.304 173.178907 
L 608.256 166.149008 
L 614.208 160.171928 
L 620.16 155.304306 
L 626.112 151.58057 
L 632.064 148.949792 
L 638.016 145.937771 
L 643.968 149.063228 
L 649.92 152.052244 
L 655.872 156.063618 
L 661.824 161.184132 
L 667.776 167.36746 
L 673.728 174.552521 
L 679.68 182.646503 
L 685.632 191.519311 
L 697.536 210.25603 
L 703.488 218.093788 
L 709.44 232.329531 
L 715.392 243.951472 
L 721.344 254.808073 
L 727.296 266.145708 
L 733.248 277.9501 
L 739.2 289.062607 
L 745.152 299.825285 
L 751.104 310.251461 
L 757.056 320.29465 
L 763.008 329.976745 
L 768.96 339.141156 
L 780.864 356.659105 
L 786.816 364.784977 
L 792.768 372.501365 
L 798.72 379.826358 
L 804.672 386.777882 
L 810.624 393.37101 
L 816.576 399.619703 
L 822.528 405.537225 
L 828.48 411.14512 
L 834.432 416.472406 
L 840.384 421.509993 
L 846.336 426.280376 
L 852.288 430.797059 
L 858.24 435.065481 
L 870.144 442.889325 
L 876.096 446.640984 
L 882.048 450.124124 
L 888 453.420577 
L 893.952 456.535928 
L 899.904 459.514092 
L 905.856 462.319911 
L 911.808 464.86121 
L 917.76 467.587179 
L 923.712 470.043122 
L 935.616 474.587489 
L 947.52 478.719201 
L 959.424 482.480744 
L 965.376 484.228953 
L 971.328 485.808531 
L 977.28 487.508795 
L 989.184 490.535491 
L 1001.088 493.302441 
L 1012.992 495.84696 
L 1024.896 498.187673 
L 1036.8 500.351521 
L 1042.752 501.369516 
L 1042.752 501.369516 
" clip-path="url(#p8ee5eb5bf1)" style="fill: none; stroke: #800080; stroke-width: 1.5; stroke-linecap: square"/>
   </g>
   <g id="line2d_36">
    <path d="M 138.048 311.683301 
L 144 308.743309 
L 149.952 305.616583 
L 155.904 301.692786 
L 161.856 299.440553 
L 167.808 295.765999 
L 173.76 292.723675 
L 179.712 289.967562 
L 185.664 286.708836 
L 197.568 279.808557 
L 203.52 276.470822 
L 215.424 269.390472 
L 227.328 261.961245 
L 239.232 254.311966 
L 251.136 246.359661 
L 263.04 238.157319 
L 274.944 229.726041 
L 286.848 221.084549 
L 304.704 207.80802 
L 328.512 189.740022 
L 352.32 171.691062 
L 364.224 162.876004 
L 376.128 154.329068 
L 388.032 146.147034 
L 393.984 142.229424 
L 399.936 138.446193 
L 405.888 134.81162 
L 411.84 131.338713 
L 417.792 128.040801 
L 423.744 124.929147 
L 429.696 122.01438 
L 435.648 119.304434 
L 441.6 116.789948 
L 447.552 114.529466 
L 453.504 112.469837 
L 459.456 110.626928 
L 465.408 108.997248 
L 471.36 107.573816 
L 477.312 106.346479 
L 483.264 105.302545 
L 489.216 104.426465 
L 495.168 103.701422 
L 501.12 103.108855 
L 513.024 102.246895 
L 524.928 101.69764 
L 542.784 101.210735 
L 566.592 100.842184 
L 602.304 100.535668 
L 638.016 100.44 
L 673.728 100.544711 
L 709.44 100.852656 
L 733.248 101.212004 
L 751.104 101.672572 
L 763.008 102.17566 
L 774.912 102.944808 
L 786.816 104.097261 
L 792.768 104.853875 
L 798.72 105.749311 
L 804.672 106.795942 
L 810.624 108.004082 
L 816.576 109.382298 
L 822.528 110.936142 
L 828.48 112.669739 
L 834.432 114.584359 
L 840.384 116.678574 
L 846.336 118.949528 
L 852.288 121.391986 
L 858.24 123.999125 
L 864.192 126.75619 
L 870.144 129.671115 
L 882.048 135.910765 
L 893.952 142.608128 
L 905.856 149.681498 
L 917.76 157.047581 
L 935.616 168.457245 
L 989.184 203.149819 
L 1007.04 214.320393 
L 1018.944 221.560507 
L 1030.848 228.615632 
L 1042.752 235.467839 
L 1042.752 235.467839 
" clip-path="url(#p8ee5eb5bf1)" style="fill: none; stroke: #a52a2a; stroke-width: 1.5; stroke-linecap: square"/>
   </g>
   <g id="patch_3">
    <path d="M 144 576.72 
L 144 77.76 
" style="fill: none; stroke: #000000; stroke-width: 0.8; stroke-linejoin: miter; stroke-linecap: square"/>
   </g>
   <g id="patch_4">
    <path d="M 1036.8 576.72 
L 1036.8 77.76 
" style="fill: none; stroke: #000000; stroke-width: 0.8; stroke-linejoin: miter; stroke-linecap: square"/>
   </g>
   <g id="patch_5">
    <path d="M 144 576.72 
L 1036.8 576.72 
" style="fill: none; stroke: #000000; stroke-width: 0.8; stroke-linejoin: miter; stroke-linecap: square"/>
   </g>
   <g id="patch_6">
    <path d="M 144 77.76 
L 1036.8 77.76 
" style="fill: none; stroke: #000000; stroke-width: 0.8; stroke-linejoin: miter; stroke-linecap: square"/>
   </g>
   <g id="text_18">
    <!-- ACT Data -->
    <g transform="translate(562.313437 71.76) scale(0.12 -0.12)">
     <defs>
      <path id="DejaVuSans-41" d="M 2188 4044 
L 1331 1722 
L 3047 1722 
L 2188 4044 
z
M 1831 4666 
L 2547 4666 
L 4325 0 
L 3669 0 
L 3244 1197 
L 1141 1197 
L 716 0 
L 50 0 
L 1831 4666 
z
" transform="scale(0.015625)"/>
      <path id="DejaVuSans-43" d="M 4122 4306 
L 4122 3641 
Q 3803 3938 3442 4084 
Q 3081 4231 2675 4231 
Q 1875 4231 1450 3742 
Q 1025 3253 1025 2328 
Q 1025 1406 1450 917 
Q 1875 428 2675 428 
Q 3081 428 3442 575 
Q 3803 722 4122 1019 
L 4122 359 
Q 3791 134 3420 21 
Q 3050 -91 2638 -91 
Q 1578 -91 968 557 
Q 359 1206 359 2328 
Q 359 3453 968 4101 
Q 1578 4750 2638 4750 
Q 3056 4750 3426 4639 
Q 3797 4528 4122 4306 
z
" transform="scale(0.015625)"/>
      <path id="DejaVuSans-44" d="M 1259 4147 
L 1259 519 
L 2022 519 
Q 2988 519 3436 956 
Q 3884 1394 3884 2338 
Q 3884 3275 3436 3711 
Q 2988 4147 2022 4147 
L 1259 4147 
z
M 628 4666 
L 1925 4666 
Q 3281 4666 3915 4102 
Q 4550 3538 4550 2338 
Q 4550 1131 3912 565 
Q 3275 0 1925 0 
L 628 0 
L 628 4666 
z
" transform="scale(0.015625)"/>
     </defs>
     <use xlink:href="#DejaVuSans-41"/>
     <use xlink:href="#DejaVuSans-43" x="66.658203"/>
     <use xlink:href="#DejaVuSans-54" x="136.482422"/>
     <use xlink:href="#DejaVuSans-20" x="197.566406"/>
     <use xlink:href="#DejaVuSans-44" x="229.353516"/>
     <use xlink:href="#DejaVuSans-61" x="306.355469"/>
     <use xlink:href="#DejaVuSans-74" x="367.634766"/>
     <use xlink:href="#DejaVuSans-61" x="406.84375"/>
    </g>
   </g>
   <g id="legend_1">
    <g id="patch_7">
     <path d="M 829.871875 372.774375 
L 1029.8 372.774375 
Q 1031.8 372.774375 1031.8 370.774375 
L 1031.8 283.705625 
Q 1031.8 281.705625 1029.8 281.705625 
L 829.871875 281.705625 
Q 827.871875 281.705625 827.871875 283.705625 
L 827.871875 370.774375 
Q 827.871875 372.774375 829.871875 372.774375 
z
" style="fill: #ffffff; opacity: 0.8; stroke: #cccccc; stroke-linejoin: miter"/>
    </g>
    <g id="line2d_37">
     <path d="M 831.871875 289.804063 
L 841.871875 289.804063 
L 851.871875 289.804063 
" style="fill: none; stroke: #0000ff; stroke-width: 1.5; stroke-linecap: square"/>
    </g>
    <g id="text_19">
     <!-- delta K = -20.00 (1.00 mm pwv) -->
     <g transform="translate(859.871875 293.304063) scale(0.1 -0.1)">
      <defs>
       <path id="DejaVuSans-64" d="M 2906 2969 
L 2906 4863 
L 3481 4863 
L 3481 0 
L 2906 0 
L 2906 525 
Q 2725 213 2448 61 
Q 2172 -91 1784 -91 
Q 1150 -91 751 415 
Q 353 922 353 1747 
Q 353 2572 751 3078 
Q 1150 3584 1784 3584 
Q 2172 3584 2448 3432 
Q 2725 3281 2906 2969 
z
M 947 1747 
Q 947 1113 1208 752 
Q 1469 391 1925 391 
Q 2381 391 2643 752 
Q 2906 1113 2906 1747 
Q 2906 2381 2643 2742 
Q 2381 3103 1925 3103 
Q 1469 3103 1208 2742 
Q 947 2381 947 1747 
z
" transform="scale(0.015625)"/>
       <path id="DejaVuSans-6c" d="M 603 4863 
L 1178 4863 
L 1178 0 
L 603 0 
L 603 4863 
z
" transform="scale(0.015625)"/>
       <path id="DejaVuSans-3d" d="M 678 2906 
L 4684 2906 
L 4684 2381 
L 678 2381 
L 678 2906 
z
M 678 1631 
L 4684 1631 
L 4684 1100 
L 678 1100 
L 678 1631 
z
" transform="scale(0.015625)"/>
       <path id="DejaVuSans-2d" d="M 313 2009 
L 1997 2009 
L 1997 1497 
L 313 1497 
L 313 2009 
z
" transform="scale(0.015625)"/>
       <path id="DejaVuSans-2e" d="M 684 794 
L 1344 794 
L 1344 0 
L 684 0 
L 684 794 
z
" transform="scale(0.015625)"/>
       <path id="DejaVuSans-77" d="M 269 3500 
L 844 3500 
L 1563 769 
L 2278 3500 
L 2956 3500 
L 3675 769 
L 4391 3500 
L 4966 3500 
L 4050 0 
L 3372 0 
L 2619 2869 
L 1863 0 
L 1184 0 
L 269 3500 
z
" transform="scale(0.015625)"/>
       <path id="DejaVuSans-76" d="M 191 3500 
L 800 3500 
L 1894 563 
L 2988 3500 
L 3597 3500 
L 2284 0 
L 1503 0 
L 191 3500 
z
" transform="scale(0.015625)"/>
      </defs>
      <use xlink:href="#DejaVuSans-64"/>
      <use xlink:href="#DejaVuSans-65" x="63.476562"/>
      <use xlink:href="#DejaVuSans-6c" x="125"/>
      <use xlink:href="#DejaVuSans-74" x="152.783203"/>
      <use xlink:href="#DejaVuSans-61" x="191.992188"/>
      <use xlink:href="#DejaVuSans-20" x="253.271484"/>
      <use xlink:href="#DejaVuSans-4b" x="285.058594"/>
      <use xlink:href="#DejaVuSans-20" x="350.634766"/>
      <use xlink:href="#DejaVuSans-3d" x="382.421875"/>
      <use xlink:href="#DejaVuSans-20" x="466.210938"/>
      <use xlink:href="#DejaVuSans-2d" x="497.998047"/>
      <use xlink:href="#DejaVuSans-32" x="534.082031"/>
      <use xlink:href="#DejaVuSans-30" x="597.705078"/>
      <use xlink:href="#DejaVuSans-2e" x="661.328125"/>
      <use xlink:href="#DejaVuSans-30" x="693.115234"/>
      <use xlink:href="#DejaVuSans-30" x="756.738281"/>
      <use xlink:href="#DejaVuSans-20" x="820.361328"/>
      <use xlink:href="#DejaVuSans-28" x="852.148438"/>
      <use xlink:href="#DejaVuSans-31" x="891.162109"/>
      <use xlink:href="#DejaVuSans-2e" x="954.785156"/>
      <use xlink:href="#DejaVuSans-30" x="986.572266"/>
      <use xlink:href="#DejaVuSans-30" x="1050.195312"/>
      <use xlink:href="#DejaVuSans-20" x="1113.818359"/>
      <use xlink:href="#DejaVuSans-6d" x="1145.605469"/>
      <use xlink:href="#DejaVuSans-6d" x="1243.017578"/>
      <use xlink:href="#DejaVuSans-20" x="1340.429688"/>
      <use xlink:href="#DejaVuSans-70" x="1372.216797"/>
      <use xlink:href="#DejaVuSans-77" x="1435.693359"/>
      <use xlink:href="#DejaVuSans-76" x="1517.480469"/>
      <use xlink:href="#DejaVuSans-29" x="1576.660156"/>
     </g>
    </g>
    <g id="line2d_38">
     <path d="M 831.871875 304.482188 
L 841.871875 304.482188 
L 851.871875 304.482188 
" style="fill: none; stroke: #ffa500; stroke-width: 1.5; stroke-linecap: square"/>
    </g>
    <g id="text_20">
     <!-- delta K = -20.00 (10.00 mm pwv) -->
     <g transform="translate(859.871875 307.982188) scale(0.1 -0.1)">
      <use xlink:href="#DejaVuSans-64"/>
      <use xlink:href="#DejaVuSans-65" x="63.476562"/>
      <use xlink:href="#DejaVuSans-6c" x="125"/>
      <use xlink:href="#DejaVuSans-74" x="152.783203"/>
      <use xlink:href="#DejaVuSans-61" x="191.992188"/>
      <use xlink:href="#DejaVuSans-20" x="253.271484"/>
      <use xlink:href="#DejaVuSans-4b" x="285.058594"/>
      <use xlink:href="#DejaVuSans-20" x="350.634766"/>
      <use xlink:href="#DejaVuSans-3d" x="382.421875"/>
      <use xlink:href="#DejaVuSans-20" x="466.210938"/>
      <use xlink:href="#DejaVuSans-2d" x="497.998047"/>
      <use xlink:href="#DejaVuSans-32" x="534.082031"/>
      <use xlink:href="#DejaVuSans-30" x="597.705078"/>
      <use xlink:href="#DejaVuSans-2e" x="661.328125"/>
      <use xlink:href="#DejaVuSans-30" x="693.115234"/>
      <use xlink:href="#DejaVuSans-30" x="756.738281"/>
      <use xlink:href="#DejaVuSans-20" x="820.361328"/>
      <use xlink:href="#DejaVuSans-28" x="852.148438"/>
      <use xlink:href="#DejaVuSans-31" x="891.162109"/>
      <use xlink:href="#DejaVuSans-30" x="954.785156"/>
      <use xlink:href="#DejaVuSans-2e" x="1018.408203"/>
      <use xlink:href="#DejaVuSans-30" x="1050.195312"/>
      <use xlink:href="#DejaVuSans-30" x="1113.818359"/>
      <use xlink:href="#DejaVuSans-20" x="1177.441406"/>
      <use xlink:href="#DejaVuSans-6d" x="1209.228516"/>
      <use xlink:href="#DejaVuSans-6d" x="1306.640625"/>
      <use xlink:href="#DejaVuSans-20" x="1404.052734"/>
      <use xlink:href="#DejaVuSans-70" x="1435.839844"/>
      <use xlink:href="#DejaVuSans-77" x="1499.316406"/>
      <use xlink:href="#DejaVuSans-76" x="1581.103516"/>
      <use xlink:href="#DejaVuSans-29" x="1640.283203"/>
     </g>
    </g>
    <g id="line2d_39">
     <path d="M 831.871875 319.160313 
L 841.871875 319.160313 
L 851.871875 319.160313 
" style="fill: none; stroke: #008000; stroke-width: 1.5; stroke-linecap: square"/>
    </g>
    <g id="text_21">
     <!-- delta K = 0.00 (1.00 mm pwv) -->
     <g transform="translate(859.871875 322.660313) scale(0.1 -0.1)">
      <use xlink:href="#DejaVuSans-64"/>
      <use xlink:href="#DejaVuSans-65" x="63.476562"/>
      <use xlink:href="#DejaVuSans-6c" x="125"/>
      <use xlink:href="#DejaVuSans-74" x="152.783203"/>
      <use xlink:href="#DejaVuSans-61" x="191.992188"/>
      <use xlink:href="#DejaVuSans-20" x="253.271484"/>
      <use xlink:href="#DejaVuSans-4b" x="285.058594"/>
      <use xlink:href="#DejaVuSans-20" x="350.634766"/>
      <use xlink:href="#DejaVuSans-3d" x="382.421875"/>
      <use xlink:href="#DejaVuSans-20" x="466.210938"/>
      <use xlink:href="#DejaVuSans-30" x="497.998047"/>
      <use xlink:href="#DejaVuSans-2e" x="561.621094"/>
      <use xlink:href="#DejaVuSans-30" x="593.408203"/>
      <use xlink:href="#DejaVuSans-30" x="657.03125"/>
      <use xlink:href="#DejaVuSans-20" x="720.654297"/>
      <use xlink:href="#DejaVuSans-28" x="752.441406"/>
      <use xlink:href="#DejaVuSans-31" x="791.455078"/>
      <use xlink:href="#DejaVuSans-2e" x="855.078125"/>
      <use xlink:href="#DejaVuSans-30" x="886.865234"/>
      <use xlink:href="#DejaVuSans-30" x="950.488281"/>
      <use xlink:href="#DejaVuSans-20" x="1014.111328"/>
      <use xlink:href="#DejaVuSans-6d" x="1045.898438"/>
      <use xlink:href="#DejaVuSans-6d" x="1143.310547"/>
      <use xlink:href="#DejaVuSans-20" x="1240.722656"/>
      <use xlink:href="#DejaVuSans-70" x="1272.509766"/>
      <use xlink:href="#DejaVuSans-77" x="1335.986328"/>
      <use xlink:href="#DejaVuSans-76" x="1417.773438"/>
      <use xlink:href="#DejaVuSans-29" x="1476.953125"/>
     </g>
    </g>
    <g id="line2d_40">
     <path d="M 831.871875 333.838438 
L 841.871875 333.838438 
L 851.871875 333.838438 
" style="fill: none; stroke: #ff0000; stroke-width: 1.5; stroke-linecap: square"/>
    </g>
    <g id="text_22">
     <!-- delta K = 0.00 (10.00 mm pwv) -->
     <g transform="translate(859.871875 337.338438) scale(0.1 -0.1)">
      <use xlink:href="#DejaVuSans-64"/>
      <use xlink:href="#DejaVuSans-65" x="63.476562"/>
      <use xlink:href="#DejaVuSans-6c" x="125"/>
      <use xlink:href="#DejaVuSans-74" x="152.783203"/>
      <use xlink:href="#DejaVuSans-61" x="191.992188"/>
      <use xlink:href="#DejaVuSans-20" x="253.271484"/>
      <use xlink:href="#DejaVuSans-4b" x="285.058594"/>
      <use xlink:href="#DejaVuSans-20" x="350.634766"/>
      <use xlink:href="#DejaVuSans-3d" x="382.421875"/>
      <use xlink:href="#DejaVuSans-20" x="466.210938"/>
      <use xlink:href="#DejaVuSans-30" x="497.998047"/>
      <use xlink:href="#DejaVuSans-2e" x="561.621094"/>
      <use xlink:href="#DejaVuSans-30" x="593.408203"/>
      <use xlink:href="#DejaVuSans-30" x="657.03125"/>
      <use xlink:href="#DejaVuSans-20" x="720.654297"/>
      <use xlink:href="#DejaVuSans-28" x="752.441406"/>
      <use xlink:href="#DejaVuSans-31" x="791.455078"/>
      <use xlink:href="#DejaVuSans-30" x="855.078125"/>
      <use xlink:href="#DejaVuSans-2e" x="918.701172"/>
      <use xlink:href="#DejaVuSans-30" x="950.488281"/>
      <use xlink:href="#DejaVuSans-30" x="1014.111328"/>
      <use xlink:href="#DejaVuSans-20" x="1077.734375"/>
      <use xlink:href="#DejaVuSans-6d" x="1109.521484"/>
      <use xlink:href="#DejaVuSans-6d" x="1206.933594"/>
      <use xlink:href="#DejaVuSans-20" x="1304.345703"/>
      <use xlink:href="#DejaVuSans-70" x="1336.132812"/>
      <use xlink:href="#DejaVuSans-77" x="1399.609375"/>
      <use xlink:href="#DejaVuSans-76" x="1481.396484"/>
      <use xlink:href="#DejaVuSans-29" x="1540.576172"/>
     </g>
    </g>
    <g id="line2d_41">
     <path d="M 831.871875 348.516563 
L 841.871875 348.516563 
L 851.871875 348.516563 
" style="fill: none; stroke: #800080; stroke-width: 1.5; stroke-linecap: square"/>
    </g>
    <g id="text_23">
     <!-- delta K = 20.00 (1.00 mm pwv) -->
     <g transform="translate(859.871875 352.016563) scale(0.1 -0.1)">
      <use xlink:href="#DejaVuSans-64"/>
      <use xlink:href="#DejaVuSans-65" x="63.476562"/>
      <use xlink:href="#DejaVuSans-6c" x="125"/>
      <use xlink:href="#DejaVuSans-74" x="152.783203"/>
      <use xlink:href="#DejaVuSans-61" x="191.992188"/>
      <use xlink:href="#DejaVuSans-20" x="253.271484"/>
      <use xlink:href="#DejaVuSans-4b" x="285.058594"/>
      <use xlink:href="#DejaVuSans-20" x="350.634766"/>
      <use xlink:href="#DejaVuSans-3d" x="382.421875"/>
      <use xlink:href="#DejaVuSans-20" x="466.210938"/>
      <use xlink:href="#DejaVuSans-32" x="497.998047"/>
      <use xlink:href="#DejaVuSans-30" x="561.621094"/>
      <use xlink:href="#DejaVuSans-2e" x="625.244141"/>
      <use xlink:href="#DejaVuSans-30" x="657.03125"/>
      <use xlink:href="#DejaVuSans-30" x="720.654297"/>
      <use xlink:href="#DejaVuSans-20" x="784.277344"/>
      <use xlink:href="#DejaVuSans-28" x="816.064453"/>
      <use xlink:href="#DejaVuSans-31" x="855.078125"/>
      <use xlink:href="#DejaVuSans-2e" x="918.701172"/>
      <use xlink:href="#DejaVuSans-30" x="950.488281"/>
      <use xlink:href="#DejaVuSans-30" x="1014.111328"/>
      <use xlink:href="#DejaVuSans-20" x="1077.734375"/>
      <use xlink:href="#DejaVuSans-6d" x="1109.521484"/>
      <use xlink:href="#DejaVuSans-6d" x="1206.933594"/>
      <use xlink:href="#DejaVuSans-20" x="1304.345703"/>
      <use xlink:href="#DejaVuSans-70" x="1336.132812"/>
      <use xlink:href="#DejaVuSans-77" x="1399.609375"/>
      <use xlink:href="#DejaVuSans-76" x="1481.396484"/>
      <use xlink:href="#DejaVuSans-29" x="1540.576172"/>
     </g>
    </g>
    <g id="line2d_42">
     <path d="M 831.871875 363.194688 
L 841.871875 363.194688 
L 851.871875 363.194688 
" style="fill: none; stroke: #a52a2a; stroke-width: 1.5; stroke-linecap: square"/>
    </g>
    <g id="text_24">
     <!-- delta K = 20.00 (10.00 mm pwv) -->
     <g transform="translate(859.871875 366.694688) scale(0.1 -0.1)">
      <use xlink:href="#DejaVuSans-64"/>
      <use xlink:href="#DejaVuSans-65" x="63.476562"/>
      <use xlink:href="#DejaVuSans-6c" x="125"/>
      <use xlink:href="#DejaVuSans-74" x="152.783203"/>
      <use xlink:href="#DejaVuSans-61" x="191.992188"/>
      <use xlink:href="#DejaVuSans-20" x="253.271484"/>
      <use xlink:href="#DejaVuSans-4b" x="285.058594"/>
      <use xlink:href="#DejaVuSans-20" x="350.634766"/>
      <use xlink:href="#DejaVuSans-3d" x="382.421875"/>
      <use xlink:href="#DejaVuSans-20" x="466.210938"/>
      <use xlink:href="#DejaVuSans-32" x="497.998047"/>
      <use xlink:href="#DejaVuSans-30" x="561.621094"/>
      <use xlink:href="#DejaVuSans-2e" x="625.244141"/>
      <use xlink:href="#DejaVuSans-30" x="657.03125"/>
      <use xlink:href="#DejaVuSans-30" x="720.654297"/>
      <use xlink:href="#DejaVuSans-20" x="784.277344"/>
      <use xlink:href="#DejaVuSans-28" x="816.064453"/>
      <use xlink:href="#DejaVuSans-31" x="855.078125"/>
      <use xlink:href="#DejaVuSans-30" x="918.701172"/>
      <use xlink:href="#DejaVuSans-2e" x="982.324219"/>
      <use xlink:href="#DejaVuSans-30" x="1014.111328"/>
      <use xlink:href="#DejaVuSans-30" x="1077.734375"/>
      <use xlink:href="#DejaVuSans-20" x="1141.357422"/>
      <use xlink:href="#DejaVuSans-6d" x="1173.144531"/>
      <use xlink:href="#DejaVuSans-6d" x="1270.556641"/>
      <use xlink:href="#DejaVuSans-20" x="1367.96875"/>
      <use xlink:href="#DejaVuSans-70" x="1399.755859"/>
      <use xlink:href="#DejaVuSans-77" x="1463.232422"/>
      <use xlink:href="#DejaVuSans-76" x="1545.019531"/>
      <use xlink:href="#DejaVuSans-29" x="1604.199219"/>
     </g>
    </g>
   </g>
  </g>
 </g>
 <defs>
  <clipPath id="p8ee5eb5bf1">
   <rect x="144" y="77.76" width="892.8" height="498.96"/>
  </clipPath>
 </defs>
</svg>
