<?xml version="1.0" encoding="utf-8" standalone="no"?>
<!DOCTYPE svg PUBLIC "-//W3C//DTD SVG 1.1//EN"
  "http://www.w3.org/Graphics/SVG/1.1/DTD/svg11.dtd">
<svg xmlns:xlink="http://www.w3.org/1999/xlink" width="1152pt" height="648pt" viewBox="0 0 1152 648" xmlns="http://www.w3.org/2000/svg" version="1.1">
 <metadata>
  <rdf:RDF xmlns:dc="http://purl.org/dc/elements/1.1/" xmlns:cc="http://creativecommons.org/ns#" xmlns:rdf="http://www.w3.org/1999/02/22-rdf-syntax-ns#">
   <cc:Work>
    <dc:type rdf:resource="http://purl.org/dc/dcmitype/StillImage"/>
    <dc:date>2025-06-13T16:08:44.289977</dc:date>
    <dc:format>image/svg+xml</dc:format>
    <dc:creator>
     <cc:Agent>
      <dc:title>Matplotlib v3.8.4, https://matplotlib.org/</dc:title>
     </cc:Agent>
    </dc:creator>
   </cc:Work>
  </rdf:RDF>
 </metadata>
 <defs>
  <style type="text/css">*{stroke-linejoin: round; stroke-linecap: butt}</style>
 </defs>
 <g id="figure_1">
  <g id="patch_1">
   <path d="M 0 648 
L 1152 648 
L 1152 0 
L 0 0 
z
" style="fill: #ffffff"/>
  </g>
  <g id="axes_1">
   <g id="patch_2">
    <path d="M 144 576.72 
L 1036.8 576.72 
L 1036.8 77.76 
L 144 77.76 
z
" style="fill: #ffffff"/>
   </g>
   <g id="matplotlib.axis_1">
    <g id="xtick_1">
     <g id="line2d_1">
      <path d="M 144 576.72 
L 144 77.76 
" clip-path="url(#p9a1eff08e9)" style="fill: none; stroke: #b0b0b0; stroke-width: 0.8; stroke-linecap: square"/>
     </g>
     <g id="line2d_2">
      <defs>
       <path id="m46860a1539" d="M 0 0 
L 0 3.5 
" style="stroke: #000000; stroke-width: 0.8"/>
      </defs>
      <g>
       <use xlink:href="#m46860a1539" x="144" y="576.72" style="stroke: #000000; stroke-width: 0.8"/>
      </g>
     </g>
     <g id="text_1">
      <!-- 50.0 -->
      <g transform="translate(132.867188 591.318438) scale(0.1 -0.1)">
       <defs>
        <path id="DejaVuSans-35" d="M 691 4666 
L 3169 4666 
L 3169 4134 
L 1269 4134 
L 1269 2991 
Q 1406 3038 1543 3061 
Q 1681 3084 1819 3084 
Q 2600 3084 3056 2656 
Q 3513 2228 3513 1497 
Q 3513 744 3044 326 
Q 2575 -91 1722 -91 
Q 1428 -91 1123 -41 
Q 819 9 494 109 
L 494 744 
Q 775 591 1075 516 
Q 1375 441 1709 441 
Q 2250 441 2565 725 
Q 2881 1009 2881 1497 
Q 2881 1984 2565 2268 
Q 2250 2553 1709 2553 
Q 1456 2553 1204 2497 
Q 953 2441 691 2322 
L 691 4666 
z
" transform="scale(0.015625)"/>
        <path id="DejaVuSans-30" d="M 2034 4250 
Q 1547 4250 1301 3770 
Q 1056 3291 1056 2328 
Q 1056 1369 1301 889 
Q 1547 409 2034 409 
Q 2525 409 2770 889 
Q 3016 1369 3016 2328 
Q 3016 3291 2770 3770 
Q 2525 4250 2034 4250 
z
M 2034 4750 
Q 2819 4750 3233 4129 
Q 3647 3509 3647 2328 
Q 3647 1150 3233 529 
Q 2819 -91 2034 -91 
Q 1250 -91 836 529 
Q 422 1150 422 2328 
Q 422 3509 836 4129 
Q 1250 4750 2034 4750 
z
" transform="scale(0.015625)"/>
        <path id="DejaVuSans-2e" d="M 684 794 
L 1344 794 
L 1344 0 
L 684 0 
L 684 794 
z
" transform="scale(0.015625)"/>
       </defs>
       <use xlink:href="#DejaVuSans-35"/>
       <use xlink:href="#DejaVuSans-30" x="63.623047"/>
       <use xlink:href="#DejaVuSans-2e" x="127.246094"/>
       <use xlink:href="#DejaVuSans-30" x="159.033203"/>
      </g>
     </g>
    </g>
    <g id="xtick_2">
     <g id="line2d_3">
      <path d="M 255.6 576.72 
L 255.6 77.76 
" clip-path="url(#p9a1eff08e9)" style="fill: none; stroke: #b0b0b0; stroke-width: 0.8; stroke-linecap: square"/>
     </g>
     <g id="line2d_4">
      <g>
       <use xlink:href="#m46860a1539" x="255.6" y="576.72" style="stroke: #000000; stroke-width: 0.8"/>
      </g>
     </g>
     <g id="text_2">
      <!-- 52.5 -->
      <g transform="translate(244.467187 591.318438) scale(0.1 -0.1)">
       <defs>
        <path id="DejaVuSans-32" d="M 1228 531 
L 3431 531 
L 3431 0 
L 469 0 
L 469 531 
Q 828 903 1448 1529 
Q 2069 2156 2228 2338 
Q 2531 2678 2651 2914 
Q 2772 3150 2772 3378 
Q 2772 3750 2511 3984 
Q 2250 4219 1831 4219 
Q 1534 4219 1204 4116 
Q 875 4013 500 3803 
L 500 4441 
Q 881 4594 1212 4672 
Q 1544 4750 1819 4750 
Q 2544 4750 2975 4387 
Q 3406 4025 3406 3419 
Q 3406 3131 3298 2873 
Q 3191 2616 2906 2266 
Q 2828 2175 2409 1742 
Q 1991 1309 1228 531 
z
" transform="scale(0.015625)"/>
       </defs>
       <use xlink:href="#DejaVuSans-35"/>
       <use xlink:href="#DejaVuSans-32" x="63.623047"/>
       <use xlink:href="#DejaVuSans-2e" x="127.246094"/>
       <use xlink:href="#DejaVuSans-35" x="159.033203"/>
      </g>
     </g>
    </g>
    <g id="xtick_3">
     <g id="line2d_5">
      <path d="M 367.2 576.72 
L 367.2 77.76 
" clip-path="url(#p9a1eff08e9)" style="fill: none; stroke: #b0b0b0; stroke-width: 0.8; stroke-linecap: square"/>
     </g>
     <g id="line2d_6">
      <g>
       <use xlink:href="#m46860a1539" x="367.2" y="576.72" style="stroke: #000000; stroke-width: 0.8"/>
      </g>
     </g>
     <g id="text_3">
      <!-- 55.0 -->
      <g transform="translate(356.067187 591.318438) scale(0.1 -0.1)">
       <use xlink:href="#DejaVuSans-35"/>
       <use xlink:href="#DejaVuSans-35" x="63.623047"/>
       <use xlink:href="#DejaVuSans-2e" x="127.246094"/>
       <use xlink:href="#DejaVuSans-30" x="159.033203"/>
      </g>
     </g>
    </g>
    <g id="xtick_4">
     <g id="line2d_7">
      <path d="M 478.8 576.72 
L 478.8 77.76 
" clip-path="url(#p9a1eff08e9)" style="fill: none; stroke: #b0b0b0; stroke-width: 0.8; stroke-linecap: square"/>
     </g>
     <g id="line2d_8">
      <g>
       <use xlink:href="#m46860a1539" x="478.8" y="576.72" style="stroke: #000000; stroke-width: 0.8"/>
      </g>
     </g>
     <g id="text_4">
      <!-- 57.5 -->
      <g transform="translate(467.667188 591.318438) scale(0.1 -0.1)">
       <defs>
        <path id="DejaVuSans-37" d="M 525 4666 
L 3525 4666 
L 3525 4397 
L 1831 0 
L 1172 0 
L 2766 4134 
L 525 4134 
L 525 4666 
z
" transform="scale(0.015625)"/>
       </defs>
       <use xlink:href="#DejaVuSans-35"/>
       <use xlink:href="#DejaVuSans-37" x="63.623047"/>
       <use xlink:href="#DejaVuSans-2e" x="127.246094"/>
       <use xlink:href="#DejaVuSans-35" x="159.033203"/>
      </g>
     </g>
    </g>
    <g id="xtick_5">
     <g id="line2d_9">
      <path d="M 590.4 576.72 
L 590.4 77.76 
" clip-path="url(#p9a1eff08e9)" style="fill: none; stroke: #b0b0b0; stroke-width: 0.8; stroke-linecap: square"/>
     </g>
     <g id="line2d_10">
      <g>
       <use xlink:href="#m46860a1539" x="590.4" y="576.72" style="stroke: #000000; stroke-width: 0.8"/>
      </g>
     </g>
     <g id="text_5">
      <!-- 60.0 -->
      <g transform="translate(579.267188 591.318438) scale(0.1 -0.1)">
       <defs>
        <path id="DejaVuSans-36" d="M 2113 2584 
Q 1688 2584 1439 2293 
Q 1191 2003 1191 1497 
Q 1191 994 1439 701 
Q 1688 409 2113 409 
Q 2538 409 2786 701 
Q 3034 994 3034 1497 
Q 3034 2003 2786 2293 
Q 2538 2584 2113 2584 
z
M 3366 4563 
L 3366 3988 
Q 3128 4100 2886 4159 
Q 2644 4219 2406 4219 
Q 1781 4219 1451 3797 
Q 1122 3375 1075 2522 
Q 1259 2794 1537 2939 
Q 1816 3084 2150 3084 
Q 2853 3084 3261 2657 
Q 3669 2231 3669 1497 
Q 3669 778 3244 343 
Q 2819 -91 2113 -91 
Q 1303 -91 875 529 
Q 447 1150 447 2328 
Q 447 3434 972 4092 
Q 1497 4750 2381 4750 
Q 2619 4750 2861 4703 
Q 3103 4656 3366 4563 
z
" transform="scale(0.015625)"/>
       </defs>
       <use xlink:href="#DejaVuSans-36"/>
       <use xlink:href="#DejaVuSans-30" x="63.623047"/>
       <use xlink:href="#DejaVuSans-2e" x="127.246094"/>
       <use xlink:href="#DejaVuSans-30" x="159.033203"/>
      </g>
     </g>
    </g>
    <g id="xtick_6">
     <g id="line2d_11">
      <path d="M 702 576.72 
L 702 77.76 
" clip-path="url(#p9a1eff08e9)" style="fill: none; stroke: #b0b0b0; stroke-width: 0.8; stroke-linecap: square"/>
     </g>
     <g id="line2d_12">
      <g>
       <use xlink:href="#m46860a1539" x="702" y="576.72" style="stroke: #000000; stroke-width: 0.8"/>
      </g>
     </g>
     <g id="text_6">
      <!-- 62.5 -->
      <g transform="translate(690.867188 591.318438) scale(0.1 -0.1)">
       <use xlink:href="#DejaVuSans-36"/>
       <use xlink:href="#DejaVuSans-32" x="63.623047"/>
       <use xlink:href="#DejaVuSans-2e" x="127.246094"/>
       <use xlink:href="#DejaVuSans-35" x="159.033203"/>
      </g>
     </g>
    </g>
    <g id="xtick_7">
     <g id="line2d_13">
      <path d="M 813.6 576.72 
L 813.6 77.76 
" clip-path="url(#p9a1eff08e9)" style="fill: none; stroke: #b0b0b0; stroke-width: 0.8; stroke-linecap: square"/>
     </g>
     <g id="line2d_14">
      <g>
       <use xlink:href="#m46860a1539" x="813.6" y="576.72" style="stroke: #000000; stroke-width: 0.8"/>
      </g>
     </g>
     <g id="text_7">
      <!-- 65.0 -->
      <g transform="translate(802.467187 591.318438) scale(0.1 -0.1)">
       <use xlink:href="#DejaVuSans-36"/>
       <use xlink:href="#DejaVuSans-35" x="63.623047"/>
       <use xlink:href="#DejaVuSans-2e" x="127.246094"/>
       <use xlink:href="#DejaVuSans-30" x="159.033203"/>
      </g>
     </g>
    </g>
    <g id="xtick_8">
     <g id="line2d_15">
      <path d="M 925.2 576.72 
L 925.2 77.76 
" clip-path="url(#p9a1eff08e9)" style="fill: none; stroke: #b0b0b0; stroke-width: 0.8; stroke-linecap: square"/>
     </g>
     <g id="line2d_16">
      <g>
       <use xlink:href="#m46860a1539" x="925.2" y="576.72" style="stroke: #000000; stroke-width: 0.8"/>
      </g>
     </g>
     <g id="text_8">
      <!-- 67.5 -->
      <g transform="translate(914.067187 591.318438) scale(0.1 -0.1)">
       <use xlink:href="#DejaVuSans-36"/>
       <use xlink:href="#DejaVuSans-37" x="63.623047"/>
       <use xlink:href="#DejaVuSans-2e" x="127.246094"/>
       <use xlink:href="#DejaVuSans-35" x="159.033203"/>
      </g>
     </g>
    </g>
    <g id="xtick_9">
     <g id="line2d_17">
      <path d="M 1036.8 576.72 
L 1036.8 77.76 
" clip-path="url(#p9a1eff08e9)" style="fill: none; stroke: #b0b0b0; stroke-width: 0.8; stroke-linecap: square"/>
     </g>
     <g id="line2d_18">
      <g>
       <use xlink:href="#m46860a1539" x="1036.8" y="576.72" style="stroke: #000000; stroke-width: 0.8"/>
      </g>
     </g>
     <g id="text_9">
      <!-- 70.0 -->
      <g transform="translate(1025.667188 591.318438) scale(0.1 -0.1)">
       <use xlink:href="#DejaVuSans-37"/>
       <use xlink:href="#DejaVuSans-30" x="63.623047"/>
       <use xlink:href="#DejaVuSans-2e" x="127.246094"/>
       <use xlink:href="#DejaVuSans-30" x="159.033203"/>
      </g>
     </g>
    </g>
    <g id="text_10">
     <!-- Frequency (GHz) -->
     <g transform="translate(548.821094 604.996562) scale(0.1 -0.1)">
      <defs>
       <path id="DejaVuSans-46" d="M 628 4666 
L 3309 4666 
L 3309 4134 
L 1259 4134 
L 1259 2759 
L 3109 2759 
L 3109 2228 
L 1259 2228 
L 1259 0 
L 628 0 
L 628 4666 
z
" transform="scale(0.015625)"/>
       <path id="DejaVuSans-72" d="M 2631 2963 
Q 2534 3019 2420 3045 
Q 2306 3072 2169 3072 
Q 1681 3072 1420 2755 
Q 1159 2438 1159 1844 
L 1159 0 
L 581 0 
L 581 3500 
L 1159 3500 
L 1159 2956 
Q 1341 3275 1631 3429 
Q 1922 3584 2338 3584 
Q 2397 3584 2469 3576 
Q 2541 3569 2628 3553 
L 2631 2963 
z
" transform="scale(0.015625)"/>
       <path id="DejaVuSans-65" d="M 3597 1894 
L 3597 1613 
L 953 1613 
Q 991 1019 1311 708 
Q 1631 397 2203 397 
Q 2534 397 2845 478 
Q 3156 559 3463 722 
L 3463 178 
Q 3153 47 2828 -22 
Q 2503 -91 2169 -91 
Q 1331 -91 842 396 
Q 353 884 353 1716 
Q 353 2575 817 3079 
Q 1281 3584 2069 3584 
Q 2775 3584 3186 3129 
Q 3597 2675 3597 1894 
z
M 3022 2063 
Q 3016 2534 2758 2815 
Q 2500 3097 2075 3097 
Q 1594 3097 1305 2825 
Q 1016 2553 972 2059 
L 3022 2063 
z
" transform="scale(0.015625)"/>
       <path id="DejaVuSans-71" d="M 947 1747 
Q 947 1113 1208 752 
Q 1469 391 1925 391 
Q 2381 391 2643 752 
Q 2906 1113 2906 1747 
Q 2906 2381 2643 2742 
Q 2381 3103 1925 3103 
Q 1469 3103 1208 2742 
Q 947 2381 947 1747 
z
M 2906 525 
Q 2725 213 2448 61 
Q 2172 -91 1784 -91 
Q 1150 -91 751 415 
Q 353 922 353 1747 
Q 353 2572 751 3078 
Q 1150 3584 1784 3584 
Q 2172 3584 2448 3432 
Q 2725 3281 2906 2969 
L 2906 3500 
L 3481 3500 
L 3481 -1331 
L 2906 -1331 
L 2906 525 
z
" transform="scale(0.015625)"/>
       <path id="DejaVuSans-75" d="M 544 1381 
L 544 3500 
L 1119 3500 
L 1119 1403 
Q 1119 906 1312 657 
Q 1506 409 1894 409 
Q 2359 409 2629 706 
Q 2900 1003 2900 1516 
L 2900 3500 
L 3475 3500 
L 3475 0 
L 2900 0 
L 2900 538 
Q 2691 219 2414 64 
Q 2138 -91 1772 -91 
Q 1169 -91 856 284 
Q 544 659 544 1381 
z
M 1991 3584 
L 1991 3584 
z
" transform="scale(0.015625)"/>
       <path id="DejaVuSans-6e" d="M 3513 2113 
L 3513 0 
L 2938 0 
L 2938 2094 
Q 2938 2591 2744 2837 
Q 2550 3084 2163 3084 
Q 1697 3084 1428 2787 
Q 1159 2491 1159 1978 
L 1159 0 
L 581 0 
L 581 3500 
L 1159 3500 
L 1159 2956 
Q 1366 3272 1645 3428 
Q 1925 3584 2291 3584 
Q 2894 3584 3203 3211 
Q 3513 2838 3513 2113 
z
" transform="scale(0.015625)"/>
       <path id="DejaVuSans-63" d="M 3122 3366 
L 3122 2828 
Q 2878 2963 2633 3030 
Q 2388 3097 2138 3097 
Q 1578 3097 1268 2742 
Q 959 2388 959 1747 
Q 959 1106 1268 751 
Q 1578 397 2138 397 
Q 2388 397 2633 464 
Q 2878 531 3122 666 
L 3122 134 
Q 2881 22 2623 -34 
Q 2366 -91 2075 -91 
Q 1284 -91 818 406 
Q 353 903 353 1747 
Q 353 2603 823 3093 
Q 1294 3584 2113 3584 
Q 2378 3584 2631 3529 
Q 2884 3475 3122 3366 
z
" transform="scale(0.015625)"/>
       <path id="DejaVuSans-79" d="M 2059 -325 
Q 1816 -950 1584 -1140 
Q 1353 -1331 966 -1331 
L 506 -1331 
L 506 -850 
L 844 -850 
Q 1081 -850 1212 -737 
Q 1344 -625 1503 -206 
L 1606 56 
L 191 3500 
L 800 3500 
L 1894 763 
L 2988 3500 
L 3597 3500 
L 2059 -325 
z
" transform="scale(0.015625)"/>
       <path id="DejaVuSans-20" transform="scale(0.015625)"/>
       <path id="DejaVuSans-28" d="M 1984 4856 
Q 1566 4138 1362 3434 
Q 1159 2731 1159 2009 
Q 1159 1288 1364 580 
Q 1569 -128 1984 -844 
L 1484 -844 
Q 1016 -109 783 600 
Q 550 1309 550 2009 
Q 550 2706 781 3412 
Q 1013 4119 1484 4856 
L 1984 4856 
z
" transform="scale(0.015625)"/>
       <path id="DejaVuSans-47" d="M 3809 666 
L 3809 1919 
L 2778 1919 
L 2778 2438 
L 4434 2438 
L 4434 434 
Q 4069 175 3628 42 
Q 3188 -91 2688 -91 
Q 1594 -91 976 548 
Q 359 1188 359 2328 
Q 359 3472 976 4111 
Q 1594 4750 2688 4750 
Q 3144 4750 3555 4637 
Q 3966 4525 4313 4306 
L 4313 3634 
Q 3963 3931 3569 4081 
Q 3175 4231 2741 4231 
Q 1884 4231 1454 3753 
Q 1025 3275 1025 2328 
Q 1025 1384 1454 906 
Q 1884 428 2741 428 
Q 3075 428 3337 486 
Q 3600 544 3809 666 
z
" transform="scale(0.015625)"/>
       <path id="DejaVuSans-48" d="M 628 4666 
L 1259 4666 
L 1259 2753 
L 3553 2753 
L 3553 4666 
L 4184 4666 
L 4184 0 
L 3553 0 
L 3553 2222 
L 1259 2222 
L 1259 0 
L 628 0 
L 628 4666 
z
" transform="scale(0.015625)"/>
       <path id="DejaVuSans-7a" d="M 353 3500 
L 3084 3500 
L 3084 2975 
L 922 459 
L 3084 459 
L 3084 0 
L 275 0 
L 275 525 
L 2438 3041 
L 353 3041 
L 353 3500 
z
" transform="scale(0.015625)"/>
       <path id="DejaVuSans-29" d="M 513 4856 
L 1013 4856 
Q 1481 4119 1714 3412 
Q 1947 2706 1947 2009 
Q 1947 1309 1714 600 
Q 1481 -109 1013 -844 
L 513 -844 
Q 928 -128 1133 580 
Q 1338 1288 1338 2009 
Q 1338 2731 1133 3434 
Q 928 4138 513 4856 
z
" transform="scale(0.015625)"/>
      </defs>
      <use xlink:href="#DejaVuSans-46"/>
      <use xlink:href="#DejaVuSans-72" x="50.269531"/>
      <use xlink:href="#DejaVuSans-65" x="89.132812"/>
      <use xlink:href="#DejaVuSans-71" x="150.65625"/>
      <use xlink:href="#DejaVuSans-75" x="214.132812"/>
      <use xlink:href="#DejaVuSans-65" x="277.511719"/>
      <use xlink:href="#DejaVuSans-6e" x="339.035156"/>
      <use xlink:href="#DejaVuSans-63" x="402.414062"/>
      <use xlink:href="#DejaVuSans-79" x="457.394531"/>
      <use xlink:href="#DejaVuSans-20" x="516.574219"/>
      <use xlink:href="#DejaVuSans-28" x="548.361328"/>
      <use xlink:href="#DejaVuSans-47" x="587.375"/>
      <use xlink:href="#DejaVuSans-48" x="664.865234"/>
      <use xlink:href="#DejaVuSans-7a" x="740.060547"/>
      <use xlink:href="#DejaVuSans-29" x="792.550781"/>
     </g>
    </g>
   </g>
   <g id="matplotlib.axis_2">
    <g id="ytick_1">
     <g id="line2d_19">
      <path d="M 144 559.729416 
L 1036.8 559.729416 
" clip-path="url(#p9a1eff08e9)" style="fill: none; stroke: #b0b0b0; stroke-width: 0.8; stroke-linecap: square"/>
     </g>
     <g id="line2d_20">
      <defs>
       <path id="m0e84c0e119" d="M 0 0 
L -3.5 0 
" style="stroke: #000000; stroke-width: 0.8"/>
      </defs>
      <g>
       <use xlink:href="#m0e84c0e119" x="144" y="559.729416" style="stroke: #000000; stroke-width: 0.8"/>
      </g>
     </g>
     <g id="text_11">
      <!-- 0 -->
      <g transform="translate(130.6375 563.528634) scale(0.1 -0.1)">
       <use xlink:href="#DejaVuSans-30"/>
      </g>
     </g>
    </g>
    <g id="ytick_2">
     <g id="line2d_21">
      <path d="M 144 480.403092 
L 1036.8 480.403092 
" clip-path="url(#p9a1eff08e9)" style="fill: none; stroke: #b0b0b0; stroke-width: 0.8; stroke-linecap: square"/>
     </g>
     <g id="line2d_22">
      <g>
       <use xlink:href="#m0e84c0e119" x="144" y="480.403092" style="stroke: #000000; stroke-width: 0.8"/>
      </g>
     </g>
     <g id="text_12">
      <!-- 50 -->
      <g transform="translate(124.275 484.202311) scale(0.1 -0.1)">
       <use xlink:href="#DejaVuSans-35"/>
       <use xlink:href="#DejaVuSans-30" x="63.623047"/>
      </g>
     </g>
    </g>
    <g id="ytick_3">
     <g id="line2d_23">
      <path d="M 144 401.076769 
L 1036.8 401.076769 
" clip-path="url(#p9a1eff08e9)" style="fill: none; stroke: #b0b0b0; stroke-width: 0.8; stroke-linecap: square"/>
     </g>
     <g id="line2d_24">
      <g>
       <use xlink:href="#m0e84c0e119" x="144" y="401.076769" style="stroke: #000000; stroke-width: 0.8"/>
      </g>
     </g>
     <g id="text_13">
      <!-- 100 -->
      <g transform="translate(117.9125 404.875988) scale(0.1 -0.1)">
       <defs>
        <path id="DejaVuSans-31" d="M 794 531 
L 1825 531 
L 1825 4091 
L 703 3866 
L 703 4441 
L 1819 4666 
L 2450 4666 
L 2450 531 
L 3481 531 
L 3481 0 
L 794 0 
L 794 531 
z
" transform="scale(0.015625)"/>
       </defs>
       <use xlink:href="#DejaVuSans-31"/>
       <use xlink:href="#DejaVuSans-30" x="63.623047"/>
       <use xlink:href="#DejaVuSans-30" x="127.246094"/>
      </g>
     </g>
    </g>
    <g id="ytick_4">
     <g id="line2d_25">
      <path d="M 144 321.750446 
L 1036.8 321.750446 
" clip-path="url(#p9a1eff08e9)" style="fill: none; stroke: #b0b0b0; stroke-width: 0.8; stroke-linecap: square"/>
     </g>
     <g id="line2d_26">
      <g>
       <use xlink:href="#m0e84c0e119" x="144" y="321.750446" style="stroke: #000000; stroke-width: 0.8"/>
      </g>
     </g>
     <g id="text_14">
      <!-- 150 -->
      <g transform="translate(117.9125 325.549665) scale(0.1 -0.1)">
       <use xlink:href="#DejaVuSans-31"/>
       <use xlink:href="#DejaVuSans-35" x="63.623047"/>
       <use xlink:href="#DejaVuSans-30" x="127.246094"/>
      </g>
     </g>
    </g>
    <g id="ytick_5">
     <g id="line2d_27">
      <path d="M 144 242.424123 
L 1036.8 242.424123 
" clip-path="url(#p9a1eff08e9)" style="fill: none; stroke: #b0b0b0; stroke-width: 0.8; stroke-linecap: square"/>
     </g>
     <g id="line2d_28">
      <g>
       <use xlink:href="#m0e84c0e119" x="144" y="242.424123" style="stroke: #000000; stroke-width: 0.8"/>
      </g>
     </g>
     <g id="text_15">
      <!-- 200 -->
      <g transform="translate(117.9125 246.223342) scale(0.1 -0.1)">
       <use xlink:href="#DejaVuSans-32"/>
       <use xlink:href="#DejaVuSans-30" x="63.623047"/>
       <use xlink:href="#DejaVuSans-30" x="127.246094"/>
      </g>
     </g>
    </g>
    <g id="ytick_6">
     <g id="line2d_29">
      <path d="M 144 163.0978 
L 1036.8 163.0978 
" clip-path="url(#p9a1eff08e9)" style="fill: none; stroke: #b0b0b0; stroke-width: 0.8; stroke-linecap: square"/>
     </g>
     <g id="line2d_30">
      <g>
       <use xlink:href="#m0e84c0e119" x="144" y="163.0978" style="stroke: #000000; stroke-width: 0.8"/>
      </g>
     </g>
     <g id="text_16">
      <!-- 250 -->
      <g transform="translate(117.9125 166.897019) scale(0.1 -0.1)">
       <use xlink:href="#DejaVuSans-32"/>
       <use xlink:href="#DejaVuSans-35" x="63.623047"/>
       <use xlink:href="#DejaVuSans-30" x="127.246094"/>
      </g>
     </g>
    </g>
    <g id="ytick_7">
     <g id="line2d_31">
      <path d="M 144 83.771477 
L 1036.8 83.771477 
" clip-path="url(#p9a1eff08e9)" style="fill: none; stroke: #b0b0b0; stroke-width: 0.8; stroke-linecap: square"/>
     </g>
     <g id="line2d_32">
      <g>
       <use xlink:href="#m0e84c0e119" x="144" y="83.771477" style="stroke: #000000; stroke-width: 0.8"/>
      </g>
     </g>
     <g id="text_17">
      <!-- 300 -->
      <g transform="translate(117.9125 87.570696) scale(0.1 -0.1)">
       <defs>
        <path id="DejaVuSans-33" d="M 2597 2516 
Q 3050 2419 3304 2112 
Q 3559 1806 3559 1356 
Q 3559 666 3084 287 
Q 2609 -91 1734 -91 
Q 1441 -91 1130 -33 
Q 819 25 488 141 
L 488 750 
Q 750 597 1062 519 
Q 1375 441 1716 441 
Q 2309 441 2620 675 
Q 2931 909 2931 1356 
Q 2931 1769 2642 2001 
Q 2353 2234 1838 2234 
L 1294 2234 
L 1294 2753 
L 1863 2753 
Q 2328 2753 2575 2939 
Q 2822 3125 2822 3475 
Q 2822 3834 2567 4026 
Q 2313 4219 1838 4219 
Q 1578 4219 1281 4162 
Q 984 4106 628 3988 
L 628 4550 
Q 988 4650 1302 4700 
Q 1616 4750 1894 4750 
Q 2613 4750 3031 4423 
Q 3450 4097 3450 3541 
Q 3450 3153 3228 2886 
Q 3006 2619 2597 2516 
z
" transform="scale(0.015625)"/>
       </defs>
       <use xlink:href="#DejaVuSans-33"/>
       <use xlink:href="#DejaVuSans-30" x="63.623047"/>
       <use xlink:href="#DejaVuSans-30" x="127.246094"/>
      </g>
     </g>
    </g>
    <g id="text_18">
     <!-- Brightness Temperature (K) -->
     <g transform="translate(111.832812 395.900937) rotate(-90) scale(0.1 -0.1)">
      <defs>
       <path id="DejaVuSans-42" d="M 1259 2228 
L 1259 519 
L 2272 519 
Q 2781 519 3026 730 
Q 3272 941 3272 1375 
Q 3272 1813 3026 2020 
Q 2781 2228 2272 2228 
L 1259 2228 
z
M 1259 4147 
L 1259 2741 
L 2194 2741 
Q 2656 2741 2882 2914 
Q 3109 3088 3109 3444 
Q 3109 3797 2882 3972 
Q 2656 4147 2194 4147 
L 1259 4147 
z
M 628 4666 
L 2241 4666 
Q 2963 4666 3353 4366 
Q 3744 4066 3744 3513 
Q 3744 3084 3544 2831 
Q 3344 2578 2956 2516 
Q 3422 2416 3680 2098 
Q 3938 1781 3938 1306 
Q 3938 681 3513 340 
Q 3088 0 2303 0 
L 628 0 
L 628 4666 
z
" transform="scale(0.015625)"/>
       <path id="DejaVuSans-69" d="M 603 3500 
L 1178 3500 
L 1178 0 
L 603 0 
L 603 3500 
z
M 603 4863 
L 1178 4863 
L 1178 4134 
L 603 4134 
L 603 4863 
z
" transform="scale(0.015625)"/>
       <path id="DejaVuSans-67" d="M 2906 1791 
Q 2906 2416 2648 2759 
Q 2391 3103 1925 3103 
Q 1463 3103 1205 2759 
Q 947 2416 947 1791 
Q 947 1169 1205 825 
Q 1463 481 1925 481 
Q 2391 481 2648 825 
Q 2906 1169 2906 1791 
z
M 3481 434 
Q 3481 -459 3084 -895 
Q 2688 -1331 1869 -1331 
Q 1566 -1331 1297 -1286 
Q 1028 -1241 775 -1147 
L 775 -588 
Q 1028 -725 1275 -790 
Q 1522 -856 1778 -856 
Q 2344 -856 2625 -561 
Q 2906 -266 2906 331 
L 2906 616 
Q 2728 306 2450 153 
Q 2172 0 1784 0 
Q 1141 0 747 490 
Q 353 981 353 1791 
Q 353 2603 747 3093 
Q 1141 3584 1784 3584 
Q 2172 3584 2450 3431 
Q 2728 3278 2906 2969 
L 2906 3500 
L 3481 3500 
L 3481 434 
z
" transform="scale(0.015625)"/>
       <path id="DejaVuSans-68" d="M 3513 2113 
L 3513 0 
L 2938 0 
L 2938 2094 
Q 2938 2591 2744 2837 
Q 2550 3084 2163 3084 
Q 1697 3084 1428 2787 
Q 1159 2491 1159 1978 
L 1159 0 
L 581 0 
L 581 4863 
L 1159 4863 
L 1159 2956 
Q 1366 3272 1645 3428 
Q 1925 3584 2291 3584 
Q 2894 3584 3203 3211 
Q 3513 2838 3513 2113 
z
" transform="scale(0.015625)"/>
       <path id="DejaVuSans-74" d="M 1172 4494 
L 1172 3500 
L 2356 3500 
L 2356 3053 
L 1172 3053 
L 1172 1153 
Q 1172 725 1289 603 
Q 1406 481 1766 481 
L 2356 481 
L 2356 0 
L 1766 0 
Q 1100 0 847 248 
Q 594 497 594 1153 
L 594 3053 
L 172 3053 
L 172 3500 
L 594 3500 
L 594 4494 
L 1172 4494 
z
" transform="scale(0.015625)"/>
       <path id="DejaVuSans-73" d="M 2834 3397 
L 2834 2853 
Q 2591 2978 2328 3040 
Q 2066 3103 1784 3103 
Q 1356 3103 1142 2972 
Q 928 2841 928 2578 
Q 928 2378 1081 2264 
Q 1234 2150 1697 2047 
L 1894 2003 
Q 2506 1872 2764 1633 
Q 3022 1394 3022 966 
Q 3022 478 2636 193 
Q 2250 -91 1575 -91 
Q 1294 -91 989 -36 
Q 684 19 347 128 
L 347 722 
Q 666 556 975 473 
Q 1284 391 1588 391 
Q 1994 391 2212 530 
Q 2431 669 2431 922 
Q 2431 1156 2273 1281 
Q 2116 1406 1581 1522 
L 1381 1569 
Q 847 1681 609 1914 
Q 372 2147 372 2553 
Q 372 3047 722 3315 
Q 1072 3584 1716 3584 
Q 2034 3584 2315 3537 
Q 2597 3491 2834 3397 
z
" transform="scale(0.015625)"/>
       <path id="DejaVuSans-54" d="M -19 4666 
L 3928 4666 
L 3928 4134 
L 2272 4134 
L 2272 0 
L 1638 0 
L 1638 4134 
L -19 4134 
L -19 4666 
z
" transform="scale(0.015625)"/>
       <path id="DejaVuSans-6d" d="M 3328 2828 
Q 3544 3216 3844 3400 
Q 4144 3584 4550 3584 
Q 5097 3584 5394 3201 
Q 5691 2819 5691 2113 
L 5691 0 
L 5113 0 
L 5113 2094 
Q 5113 2597 4934 2840 
Q 4756 3084 4391 3084 
Q 3944 3084 3684 2787 
Q 3425 2491 3425 1978 
L 3425 0 
L 2847 0 
L 2847 2094 
Q 2847 2600 2669 2842 
Q 2491 3084 2119 3084 
Q 1678 3084 1418 2786 
Q 1159 2488 1159 1978 
L 1159 0 
L 581 0 
L 581 3500 
L 1159 3500 
L 1159 2956 
Q 1356 3278 1631 3431 
Q 1906 3584 2284 3584 
Q 2666 3584 2933 3390 
Q 3200 3197 3328 2828 
z
" transform="scale(0.015625)"/>
       <path id="DejaVuSans-70" d="M 1159 525 
L 1159 -1331 
L 581 -1331 
L 581 3500 
L 1159 3500 
L 1159 2969 
Q 1341 3281 1617 3432 
Q 1894 3584 2278 3584 
Q 2916 3584 3314 3078 
Q 3713 2572 3713 1747 
Q 3713 922 3314 415 
Q 2916 -91 2278 -91 
Q 1894 -91 1617 61 
Q 1341 213 1159 525 
z
M 3116 1747 
Q 3116 2381 2855 2742 
Q 2594 3103 2138 3103 
Q 1681 3103 1420 2742 
Q 1159 2381 1159 1747 
Q 1159 1113 1420 752 
Q 1681 391 2138 391 
Q 2594 391 2855 752 
Q 3116 1113 3116 1747 
z
" transform="scale(0.015625)"/>
       <path id="DejaVuSans-61" d="M 2194 1759 
Q 1497 1759 1228 1600 
Q 959 1441 959 1056 
Q 959 750 1161 570 
Q 1363 391 1709 391 
Q 2188 391 2477 730 
Q 2766 1069 2766 1631 
L 2766 1759 
L 2194 1759 
z
M 3341 1997 
L 3341 0 
L 2766 0 
L 2766 531 
Q 2569 213 2275 61 
Q 1981 -91 1556 -91 
Q 1019 -91 701 211 
Q 384 513 384 1019 
Q 384 1609 779 1909 
Q 1175 2209 1959 2209 
L 2766 2209 
L 2766 2266 
Q 2766 2663 2505 2880 
Q 2244 3097 1772 3097 
Q 1472 3097 1187 3025 
Q 903 2953 641 2809 
L 641 3341 
Q 956 3463 1253 3523 
Q 1550 3584 1831 3584 
Q 2591 3584 2966 3190 
Q 3341 2797 3341 1997 
z
" transform="scale(0.015625)"/>
       <path id="DejaVuSans-4b" d="M 628 4666 
L 1259 4666 
L 1259 2694 
L 3353 4666 
L 4166 4666 
L 1850 2491 
L 4331 0 
L 3500 0 
L 1259 2247 
L 1259 0 
L 628 0 
L 628 4666 
z
" transform="scale(0.015625)"/>
      </defs>
      <use xlink:href="#DejaVuSans-42"/>
      <use xlink:href="#DejaVuSans-72" x="68.603516"/>
      <use xlink:href="#DejaVuSans-69" x="109.716797"/>
      <use xlink:href="#DejaVuSans-67" x="137.5"/>
      <use xlink:href="#DejaVuSans-68" x="200.976562"/>
      <use xlink:href="#DejaVuSans-74" x="264.355469"/>
      <use xlink:href="#DejaVuSans-6e" x="303.564453"/>
      <use xlink:href="#DejaVuSans-65" x="366.943359"/>
      <use xlink:href="#DejaVuSans-73" x="428.466797"/>
      <use xlink:href="#DejaVuSans-73" x="480.566406"/>
      <use xlink:href="#DejaVuSans-20" x="532.666016"/>
      <use xlink:href="#DejaVuSans-54" x="564.453125"/>
      <use xlink:href="#DejaVuSans-65" x="608.537109"/>
      <use xlink:href="#DejaVuSans-6d" x="670.060547"/>
      <use xlink:href="#DejaVuSans-70" x="767.472656"/>
      <use xlink:href="#DejaVuSans-65" x="830.949219"/>
      <use xlink:href="#DejaVuSans-72" x="892.472656"/>
      <use xlink:href="#DejaVuSans-61" x="933.585938"/>
      <use xlink:href="#DejaVuSans-74" x="994.865234"/>
      <use xlink:href="#DejaVuSans-75" x="1034.074219"/>
      <use xlink:href="#DejaVuSans-72" x="1097.453125"/>
      <use xlink:href="#DejaVuSans-65" x="1136.316406"/>
      <use xlink:href="#DejaVuSans-20" x="1197.839844"/>
      <use xlink:href="#DejaVuSans-28" x="1229.626953"/>
      <use xlink:href="#DejaVuSans-4b" x="1268.640625"/>
      <use xlink:href="#DejaVuSans-29" x="1334.216797"/>
     </g>
    </g>
   </g>
   <g id="line2d_33">
    <path d="M 139.536 509.557817 
L 152.928 506.060097 
L 161.856 503.493462 
L 170.784 500.683502 
L 179.712 497.580986 
L 184.176 495.89711 
L 197.568 490.303303 
L 202.032 488.203853 
L 206.496 485.947812 
L 210.96 482.941027 
L 215.424 481.040321 
L 219.888 478.361645 
L 224.352 475.432822 
L 228.816 472.1912 
L 233.28 468.262088 
L 237.744 465.158969 
L 242.208 461.424524 
L 246.672 457.199461 
L 251.136 452.416782 
L 255.6 446.654168 
L 264.528 436.413442 
L 268.992 430.246137 
L 273.456 423.024872 
L 277.92 414.266643 
L 282.384 404.700729 
L 286.848 399.144222 
L 291.312 390.688353 
L 295.776 380.399411 
L 300.24 367.868708 
L 304.704 335.556082 
L 309.168 345.95973 
L 313.632 336.454532 
L 318.096 323.995223 
L 322.56 308.824698 
L 327.024 286.227643 
L 331.488 280.334173 
L 335.952 272.954128 
L 340.416 261.642829 
L 344.88 248.04122 
L 349.344 231.85167 
L 353.808 217.236746 
L 358.272 216.857408 
L 362.736 210.659801 
L 367.2 203.083502 
L 371.664 195.069164 
L 376.128 186.636776 
L 380.592 185.449261 
L 385.056 183.403435 
L 393.984 178.283555 
L 398.448 176.208696 
L 402.912 174.77289 
L 411.84 173.06071 
L 420.768 171.665202 
L 429.696 170.667118 
L 443.088 169.620328 
L 456.48 168.807868 
L 474.336 168.025393 
L 492.192 167.419974 
L 514.512 166.87056 
L 532.368 166.725869 
L 581.472 166.43014 
L 612.72 166.204695 
L 652.896 166.458698 
L 688.608 166.879286 
L 702 167.244028 
L 710.928 167.665093 
L 719.856 168.244333 
L 728.784 169.023476 
L 737.712 170.044724 
L 746.64 171.286339 
L 751.104 172.028834 
L 755.568 173.024538 
L 760.032 174.271547 
L 768.96 177.062247 
L 773.424 178.00512 
L 777.888 180.805498 
L 782.352 185.060562 
L 786.816 189.698931 
L 791.28 194.010475 
L 795.744 197.124826 
L 800.208 197.99218 
L 804.672 211.927436 
L 809.136 222.937771 
L 813.6 232.775345 
L 818.064 240.65467 
L 822.528 240.846164 
L 826.992 259.066468 
L 831.456 275.290447 
L 835.92 288.683586 
L 840.384 299.715498 
L 844.848 307.387622 
L 849.312 315.314067 
L 853.776 332.977342 
L 858.24 345.541204 
L 862.704 356.022432 
L 867.168 364.570796 
L 871.632 352.987249 
L 876.096 382.559626 
L 880.56 392.170962 
L 885.024 400.286679 
L 889.488 407.18542 
L 893.952 412.512944 
L 898.416 419.467181 
L 902.88 426.091104 
L 907.344 431.718005 
L 911.808 436.578218 
L 916.272 440.593986 
L 920.736 444.453847 
L 925.2 449.545073 
L 929.664 453.543787 
L 934.128 457.104412 
L 938.592 460.348525 
L 943.056 461.269092 
L 947.52 466.286323 
L 951.984 469.033504 
L 956.448 471.579705 
L 960.912 473.95061 
L 974.304 480.359003 
L 983.232 484.108251 
L 992.16 487.486029 
L 1001.088 490.586482 
L 1010.016 493.41491 
L 1018.944 496.02243 
L 1027.872 498.435394 
L 1036.8 500.673681 
L 1041.264 501.735638 
L 1041.264 501.735638 
" clip-path="url(#p9a1eff08e9)" style="fill: none; stroke: #0000ff; stroke-width: 1.5; stroke-linecap: square"/>
   </g>
   <g id="line2d_34">
    <path d="M 139.536 498.031432 
L 157.392 493.240265 
L 166.32 490.59386 
L 175.248 487.725102 
L 184.176 484.543466 
L 197.568 479.118498 
L 202.032 477.08281 
L 206.496 474.895323 
L 210.96 471.982968 
L 215.424 470.136648 
L 219.888 467.539314 
L 224.352 464.700177 
L 228.816 461.559013 
L 233.28 457.75465 
L 237.744 454.746659 
L 242.208 451.129966 
L 246.672 447.040535 
L 251.136 442.41405 
L 255.6 436.84347 
L 264.528 426.943116 
L 268.992 420.985408 
L 273.456 414.013322 
L 277.92 405.561356 
L 282.384 396.332262 
L 286.848 390.969327 
L 291.312 382.813629 
L 295.776 372.893237 
L 300.24 360.813901 
L 304.704 329.667372 
L 309.168 339.69771 
L 313.632 330.538216 
L 318.096 318.532495 
L 322.56 303.913764 
L 327.024 282.132342 
L 331.488 276.45702 
L 335.952 269.347636 
L 340.416 258.445978 
L 344.88 245.332544 
L 349.344 229.716998 
L 353.808 215.614047 
L 358.272 215.254223 
L 362.736 209.273811 
L 367.2 201.958179 
L 371.664 194.214502 
L 376.128 186.059756 
L 380.592 184.911746 
L 385.056 182.932237 
L 393.984 177.971486 
L 398.448 175.958501 
L 402.912 174.564103 
L 411.84 172.899361 
L 420.768 171.540501 
L 429.696 170.567008 
L 443.088 169.544492 
L 456.48 168.749642 
L 478.8 167.811688 
L 496.656 167.267033 
L 514.512 166.847714 
L 532.368 166.704768 
L 581.472 166.412213 
L 612.72 166.189306 
L 652.896 166.437438 
L 688.608 166.848666 
L 702 167.204841 
L 710.928 167.615593 
L 719.856 168.179603 
L 728.784 168.936218 
L 737.712 169.925258 
L 746.64 171.124513 
L 751.104 171.840196 
L 755.568 172.798458 
L 760.032 173.996444 
L 768.96 176.671803 
L 773.424 177.573902 
L 777.888 180.250848 
L 782.352 184.312515 
L 786.816 188.734005 
L 791.28 192.838191 
L 795.744 195.79738 
L 800.208 196.615234 
L 804.672 209.862254 
L 809.136 220.31318 
L 813.6 229.640052 
L 818.064 237.09974 
L 822.528 237.25871 
L 826.992 254.518532 
L 831.456 269.871031 
L 835.92 282.52945 
L 840.384 292.943568 
L 844.848 300.170672 
L 849.312 307.634327 
L 853.776 324.306975 
L 858.24 336.14627 
L 862.704 346.010657 
L 867.168 354.043716 
L 871.632 343.049247 
L 876.096 370.941651 
L 880.56 379.967242 
L 885.024 387.577174 
L 889.488 394.035448 
L 893.952 399.008732 
L 898.416 405.514823 
L 902.88 411.706798 
L 907.344 416.956535 
L 911.808 421.482086 
L 916.272 425.210788 
L 920.736 428.792022 
L 925.2 433.532881 
L 929.664 437.244194 
L 934.128 440.543091 
L 938.592 443.544402 
L 943.056 444.359274 
L 947.52 449.030515 
L 951.984 451.565658 
L 956.448 453.912067 
L 960.912 456.093779 
L 974.304 461.975968 
L 983.232 465.403722 
L 992.16 468.47987 
L 1001.088 471.292559 
L 1010.016 473.846819 
L 1018.944 476.190833 
L 1027.872 478.349572 
L 1041.264 481.283393 
L 1041.264 481.283393 
" clip-path="url(#p9a1eff08e9)" style="fill: none; stroke: #ffa500; stroke-width: 1.5; stroke-linecap: square"/>
   </g>
   <g id="line2d_35">
    <path d="M 139.536 511.55446 
L 152.928 508.049538 
L 161.856 505.430294 
L 170.784 502.543022 
L 179.712 499.30013 
L 184.176 497.49782 
L 188.64 495.421215 
L 193.104 493.611576 
L 197.568 491.510142 
L 202.032 489.198208 
L 206.496 486.642758 
L 210.96 482.455534 
L 215.424 481.133022 
L 219.888 478.157444 
L 224.352 474.776349 
L 228.816 470.876778 
L 233.28 465.62609 
L 237.744 462.491177 
L 242.208 458.311632 
L 246.672 453.282644 
L 251.136 447.263284 
L 255.6 439.372678 
L 260.064 433.436436 
L 264.528 428.016036 
L 268.992 420.713556 
L 273.456 411.534771 
L 277.92 399.575122 
L 282.384 386.76757 
L 286.848 382.478713 
L 291.312 373.020477 
L 295.776 360.392519 
L 300.24 343.961341 
L 304.704 298.278105 
L 309.168 318.961491 
L 313.632 309.644615 
L 318.096 295.564192 
L 322.56 277.170957 
L 327.024 248.537644 
L 331.488 244.793125 
L 335.952 239.596616 
L 340.416 228.407321 
L 344.88 213.60963 
L 349.344 195.43232 
L 353.808 180.383641 
L 358.272 182.362991 
L 362.736 177.313236 
L 367.2 169.993003 
L 376.128 153.58118 
L 380.592 152.827262 
L 385.056 151.361947 
L 389.52 149.041334 
L 393.984 146.541445 
L 398.448 144.459129 
L 402.912 143.094081 
L 416.304 140.802502 
L 425.232 139.638309 
L 434.16 138.853931 
L 452.016 137.695132 
L 465.408 137.098598 
L 487.728 136.280902 
L 518.976 135.51699 
L 563.616 135.301222 
L 590.4 135.028022 
L 608.256 134.850966 
L 635.04 135.001686 
L 679.68 135.323116 
L 697.536 135.613609 
L 706.464 135.944558 
L 715.392 136.435906 
L 724.32 137.092252 
L 733.248 137.979437 
L 746.64 139.659886 
L 751.104 140.347804 
L 755.568 141.283855 
L 768.96 144.902245 
L 773.424 145.632365 
L 777.888 148.044202 
L 782.352 152.071124 
L 786.816 156.478177 
L 791.28 160.210005 
L 795.744 162.203792 
L 800.208 162.162067 
L 804.672 176.115567 
L 809.136 187.693085 
L 813.6 197.518602 
L 818.064 204.205018 
L 822.528 200.915514 
L 826.992 221.472296 
L 831.456 240.846957 
L 835.92 256.195808 
L 840.384 267.688605 
L 844.848 273.6568 
L 849.312 280.750795 
L 853.776 304.69608 
L 858.24 320.659392 
L 862.704 333.03414 
L 867.168 341.948039 
L 871.632 318.199959 
L 876.096 363.48815 
L 880.56 376.464032 
L 885.024 386.708551 
L 889.488 394.73225 
L 893.952 399.756303 
L 902.88 418.105497 
L 907.344 425.327731 
L 911.808 431.20432 
L 916.272 435.785272 
L 920.736 440.014 
L 925.2 446.757324 
L 929.664 451.698498 
L 934.128 455.910694 
L 938.592 459.601589 
L 943.056 458.181759 
L 947.52 466.459381 
L 951.984 469.699623 
L 956.448 472.603411 
L 960.912 475.233237 
L 965.376 477.504604 
L 969.84 479.99453 
L 974.304 482.278763 
L 978.768 484.372883 
L 983.232 486.319266 
L 992.16 489.860012 
L 1001.088 493.119419 
L 1010.016 496.020938 
L 1023.408 499.90888 
L 1032.336 502.23844 
L 1041.264 504.389389 
L 1041.264 504.389389 
" clip-path="url(#p9a1eff08e9)" style="fill: none; stroke: #008000; stroke-width: 1.5; stroke-linecap: square"/>
   </g>
   <g id="line2d_36">
    <path d="M 139.536 502.814921 
L 157.392 497.983329 
L 166.32 495.252314 
L 175.248 492.300074 
L 179.712 490.66876 
L 184.176 488.914791 
L 188.64 486.893334 
L 193.104 485.131909 
L 197.568 483.084989 
L 202.032 480.831677 
L 206.496 478.339656 
L 210.96 474.254192 
L 215.424 472.963045 
L 219.888 470.057877 
L 224.352 466.7563 
L 228.816 462.948303 
L 233.28 457.821458 
L 237.744 454.758875 
L 242.208 450.676838 
L 246.672 445.766269 
L 251.136 439.889902 
L 255.6 432.188125 
L 260.064 426.393813 
L 264.528 421.103493 
L 268.992 413.977911 
L 273.456 405.023064 
L 277.92 393.355938 
L 282.384 380.861725 
L 286.848 376.681545 
L 291.312 367.458274 
L 295.776 355.143338 
L 300.24 339.117517 
L 304.704 294.534854 
L 309.168 314.738793 
L 313.632 305.656881 
L 318.096 291.924859 
L 322.56 273.98061 
L 327.024 246.029029 
L 331.488 242.386364 
L 335.952 237.324551 
L 340.416 226.4056 
L 344.88 211.95631 
L 349.344 194.194829 
L 353.808 179.483128 
L 358.272 181.430272 
L 362.736 176.496809 
L 367.2 169.33745 
L 376.128 153.264509 
L 380.592 152.529154 
L 385.056 151.095093 
L 389.52 148.820014 
L 393.984 146.366451 
L 398.448 144.321418 
L 402.912 142.98001 
L 416.304 140.726984 
L 425.232 139.580718 
L 434.16 138.807604 
L 452.016 137.664194 
L 465.408 137.0748 
L 487.728 136.266147 
L 518.976 135.509216 
L 563.616 135.294241 
L 590.4 135.022628 
L 608.256 134.846682 
L 635.04 134.995181 
L 679.68 135.31201 
L 697.536 135.598537 
L 706.464 135.924727 
L 719.856 136.707202 
L 728.784 137.459215 
L 737.712 138.440799 
L 746.64 139.570565 
L 751.104 140.242935 
L 755.568 141.157091 
L 768.96 144.683305 
L 773.424 145.392165 
L 777.888 147.737368 
L 782.352 151.649584 
L 786.816 155.925431 
L 791.28 159.540966 
L 795.744 161.46701 
L 800.208 161.418145 
L 804.672 174.929004 
L 809.136 186.123693 
L 813.6 195.613184 
L 818.064 202.059876 
L 822.528 198.858107 
L 826.992 218.702697 
L 831.456 237.388488 
L 835.92 252.174598 
L 840.384 263.231418 
L 844.848 268.953225 
L 849.312 275.757996 
L 853.776 298.805307 
L 858.24 314.146542 
L 862.704 326.023755 
L 867.168 334.563234 
L 871.632 311.646335 
L 876.096 355.205054 
L 880.56 367.641676 
L 885.024 377.445616 
L 889.488 385.110284 
L 893.952 389.887474 
L 902.88 407.416831 
L 907.344 414.300912 
L 911.808 419.890895 
L 916.272 424.235899 
L 920.736 428.242973 
L 925.2 434.665724 
L 929.664 439.359113 
L 934.128 443.355034 
L 938.592 446.853595 
L 943.056 445.450883 
L 947.52 453.35729 
L 951.984 456.432359 
L 956.448 459.186918 
L 960.912 461.680462 
L 965.376 463.831363 
L 969.84 466.192527 
L 974.304 468.356581 
L 978.768 470.338121 
L 983.232 472.177572 
L 992.16 475.516797 
L 1001.088 478.582601 
L 1010.016 481.301415 
L 1023.408 484.927596 
L 1032.336 487.089334 
L 1041.264 489.076744 
L 1041.264 489.076744 
" clip-path="url(#p9a1eff08e9)" style="fill: none; stroke: #ff0000; stroke-width: 1.5; stroke-linecap: square"/>
   </g>
   <g id="line2d_37">
    <path d="M 139.536 513.127501 
L 152.928 509.557642 
L 161.856 506.80091 
L 175.248 502.095732 
L 179.712 500.269323 
L 184.176 498.245042 
L 188.64 495.698159 
L 193.104 493.969702 
L 197.568 491.663385 
L 202.032 489.020977 
L 206.496 485.964026 
L 210.96 479.628138 
L 215.424 479.577242 
L 219.888 476.260386 
L 224.352 472.2519 
L 228.816 467.344996 
L 233.28 459.885688 
L 237.744 457.051343 
L 242.208 452.520826 
L 246.672 446.510508 
L 251.136 438.758962 
L 255.6 427.636571 
L 260.064 420.873002 
L 264.528 415.703052 
L 268.992 407.26995 
L 273.456 395.649104 
L 277.92 379.343578 
L 282.384 362.452624 
L 286.848 360.903064 
L 291.312 350.920322 
L 295.776 335.821508 
L 300.24 314.780677 
L 304.704 255.080162 
L 309.168 287.304101 
L 313.632 279.160778 
L 318.096 263.878879 
L 322.56 242.308148 
L 327.024 208.046951 
L 331.488 206.823104 
L 335.952 204.532477 
L 340.416 194.003336 
L 344.88 178.349238 
L 349.344 158.647752 
L 353.808 143.818172 
L 358.272 147.774652 
L 362.736 143.993007 
L 367.2 137.015781 
L 371.664 128.69207 
L 376.128 120.815442 
L 380.592 120.36233 
L 385.056 119.44151 
L 389.52 117.38791 
L 393.984 114.889131 
L 398.448 112.769849 
L 402.912 111.461123 
L 420.768 108.701678 
L 429.696 107.771973 
L 443.088 106.901288 
L 456.48 106.150702 
L 487.728 105.042355 
L 523.44 104.231798 
L 550.224 104.1539 
L 585.936 103.838974 
L 608.256 103.52627 
L 630.576 103.694124 
L 688.608 104.007305 
L 697.536 104.148823 
L 706.464 104.468825 
L 719.856 105.251141 
L 728.784 106.004424 
L 742.176 107.516543 
L 751.104 108.693428 
L 755.568 109.583469 
L 764.496 111.909793 
L 768.96 112.843305 
L 773.424 113.409695 
L 777.888 115.488838 
L 782.352 119.28254 
L 786.816 123.453518 
L 791.28 126.601028 
L 795.744 127.600857 
L 800.208 127.059852 
L 804.672 140.316708 
L 809.136 152.107297 
L 813.6 161.5741 
L 818.064 166.662884 
L 822.528 160.287586 
L 831.456 203.863439 
L 835.92 220.74059 
L 840.384 231.948448 
L 844.848 235.043126 
L 849.312 240.528224 
L 853.776 271.1723 
L 858.24 290.778435 
L 862.704 304.766205 
L 867.168 313.093089 
L 871.632 274.622519 
L 876.096 337.997112 
L 880.56 355.295645 
L 885.024 367.98976 
L 889.488 376.871294 
L 893.952 380.454622 
L 898.416 392.742746 
L 902.88 405.519043 
L 907.344 414.891306 
L 911.808 421.915668 
L 916.272 426.819716 
L 920.736 431.175762 
L 925.2 440.664238 
L 929.664 447.034713 
L 934.128 452.125702 
L 938.592 456.30888 
L 943.056 450.41265 
L 947.52 464.4582 
L 951.984 468.514393 
L 956.448 471.962502 
L 960.912 474.944616 
L 965.376 477.306542 
L 969.84 480.284849 
L 974.304 482.982816 
L 978.768 485.361464 
L 983.232 487.504575 
L 992.16 491.29071 
L 996.624 493.170442 
L 1001.088 494.87426 
L 1010.016 497.918646 
L 1027.872 503.163671 
L 1036.8 505.415142 
L 1041.264 506.49398 
L 1041.264 506.49398 
" clip-path="url(#p9a1eff08e9)" style="fill: none; stroke: #800080; stroke-width: 1.5; stroke-linecap: square"/>
   </g>
   <g id="line2d_38">
    <path d="M 139.536 505.990766 
L 157.392 501.032204 
L 166.32 498.105698 
L 170.784 496.648997 
L 175.248 495.024314 
L 179.712 493.244644 
L 184.176 491.271386 
L 188.64 488.784728 
L 193.104 487.100836 
L 197.568 484.848365 
L 202.032 482.264596 
L 206.496 479.272391 
L 210.96 473.058474 
L 215.424 473.015733 
L 219.888 469.764354 
L 224.352 465.83302 
L 228.816 461.018896 
L 233.28 453.697267 
L 237.744 450.917831 
L 242.208 446.472226 
L 246.672 440.5736 
L 251.136 432.965539 
L 255.6 422.046699 
L 260.064 415.409513 
L 264.528 410.338086 
L 268.992 402.06251 
L 273.456 390.657257 
L 277.92 374.650474 
L 282.384 358.067465 
L 286.848 356.558361 
L 291.312 346.764098 
L 295.776 331.944672 
L 300.24 311.285559 
L 304.704 252.617556 
L 309.168 284.315403 
L 313.632 276.329146 
L 318.096 261.324572 
L 322.56 240.133338 
L 327.024 206.448366 
L 331.488 205.262914 
L 335.952 203.027181 
L 340.416 192.681759 
L 344.88 177.286741 
L 349.344 157.895263 
L 353.808 143.291604 
L 358.272 147.203502 
L 362.736 143.485319 
L 367.2 136.612645 
L 371.664 128.405385 
L 376.128 120.631564 
L 380.592 120.189081 
L 385.056 119.283809 
L 389.52 117.25718 
L 393.984 114.788069 
L 398.448 112.692585 
L 402.912 111.398138 
L 420.768 108.668678 
L 429.696 107.747858 
L 443.088 106.884946 
L 456.48 106.14039 
L 487.728 105.03934 
L 523.44 104.233067 
L 550.224 104.15501 
L 585.936 103.841037 
L 608.256 103.529284 
L 630.576 103.695711 
L 688.608 104.005401 
L 697.536 104.14565 
L 706.464 104.462955 
L 719.856 105.237339 
L 728.784 105.982054 
L 742.176 107.474658 
L 751.104 108.633616 
L 755.568 109.510013 
L 764.496 111.797943 
L 768.96 112.713686 
L 773.424 113.267384 
L 777.888 115.307815 
L 782.352 119.029172 
L 786.816 123.115429 
L 791.28 126.194084 
L 795.744 127.165514 
L 800.208 126.627523 
L 804.672 139.59468 
L 809.136 151.112862 
L 813.6 160.349143 
L 818.064 165.30212 
L 822.528 159.055489 
L 831.456 201.541875 
L 835.92 217.970674 
L 840.384 228.863764 
L 844.848 231.844372 
L 849.312 237.152096 
L 853.776 266.961183 
L 858.24 286.004577 
L 862.704 299.570965 
L 867.168 307.624015 
L 871.632 270.146452 
L 876.096 331.740962 
L 880.56 348.501186 
L 885.024 360.77868 
L 889.488 369.347033 
L 893.952 372.764729 
L 898.416 384.63512 
L 902.88 396.973377 
L 907.344 406.002775 
L 911.808 412.751859 
L 916.272 417.443678 
L 920.736 421.605232 
L 925.2 430.747369 
L 929.664 436.868838 
L 934.128 441.755879 
L 938.592 445.770584 
L 943.056 440.023202 
L 947.52 453.61353 
L 951.984 457.52765 
L 956.448 460.858054 
L 960.912 463.741185 
L 965.376 466.026101 
L 969.84 468.909851 
L 974.304 471.522463 
L 978.768 473.825465 
L 983.232 475.899483 
L 992.16 479.558997 
L 996.624 481.373349 
L 1001.088 483.015451 
L 1010.016 485.942481 
L 1027.872 490.959633 
L 1036.8 493.100318 
L 1041.264 494.123342 
L 1041.264 494.123342 
" clip-path="url(#p9a1eff08e9)" style="fill: none; stroke: #a52a2a; stroke-width: 1.5; stroke-linecap: square"/>
   </g>
   <g id="patch_3">
    <path d="M 144 576.72 
L 144 77.76 
" style="fill: none; stroke: #000000; stroke-width: 0.8; stroke-linejoin: miter; stroke-linecap: square"/>
   </g>
   <g id="patch_4">
    <path d="M 1036.8 576.72 
L 1036.8 77.76 
" style="fill: none; stroke: #000000; stroke-width: 0.8; stroke-linejoin: miter; stroke-linecap: square"/>
   </g>
   <g id="patch_5">
    <path d="M 144 576.72 
L 1036.8 576.72 
" style="fill: none; stroke: #000000; stroke-width: 0.8; stroke-linejoin: miter; stroke-linecap: square"/>
   </g>
   <g id="patch_6">
    <path d="M 144 77.76 
L 1036.8 77.76 
" style="fill: none; stroke: #000000; stroke-width: 0.8; stroke-linejoin: miter; stroke-linecap: square"/>
   </g>
   <g id="text_19">
    <!-- ACT Data -->
    <g transform="translate(562.313437 71.76) scale(0.12 -0.12)">
     <defs>
      <path id="DejaVuSans-41" d="M 2188 4044 
L 1331 1722 
L 3047 1722 
L 2188 4044 
z
M 1831 4666 
L 2547 4666 
L 4325 0 
L 3669 0 
L 3244 1197 
L 1141 1197 
L 716 0 
L 50 0 
L 1831 4666 
z
" transform="scale(0.015625)"/>
      <path id="DejaVuSans-43" d="M 4122 4306 
L 4122 3641 
Q 3803 3938 3442 4084 
Q 3081 4231 2675 4231 
Q 1875 4231 1450 3742 
Q 1025 3253 1025 2328 
Q 1025 1406 1450 917 
Q 1875 428 2675 428 
Q 3081 428 3442 575 
Q 3803 722 4122 1019 
L 4122 359 
Q 3791 134 3420 21 
Q 3050 -91 2638 -91 
Q 1578 -91 968 557 
Q 359 1206 359 2328 
Q 359 3453 968 4101 
Q 1578 4750 2638 4750 
Q 3056 4750 3426 4639 
Q 3797 4528 4122 4306 
z
" transform="scale(0.015625)"/>
      <path id="DejaVuSans-44" d="M 1259 4147 
L 1259 519 
L 2022 519 
Q 2988 519 3436 956 
Q 3884 1394 3884 2338 
Q 3884 3275 3436 3711 
Q 2988 4147 2022 4147 
L 1259 4147 
z
M 628 4666 
L 1925 4666 
Q 3281 4666 3915 4102 
Q 4550 3538 4550 2338 
Q 4550 1131 3912 565 
Q 3275 0 1925 0 
L 628 0 
L 628 4666 
z
" transform="scale(0.015625)"/>
     </defs>
     <use xlink:href="#DejaVuSans-41"/>
     <use xlink:href="#DejaVuSans-43" x="66.658203"/>
     <use xlink:href="#DejaVuSans-54" x="136.482422"/>
     <use xlink:href="#DejaVuSans-20" x="197.566406"/>
     <use xlink:href="#DejaVuSans-44" x="229.353516"/>
     <use xlink:href="#DejaVuSans-61" x="306.355469"/>
     <use xlink:href="#DejaVuSans-74" x="367.634766"/>
     <use xlink:href="#DejaVuSans-61" x="406.84375"/>
    </g>
   </g>
   <g id="legend_1">
    <g id="patch_7">
     <path d="M 829.871875 173.82875 
L 1029.8 173.82875 
Q 1031.8 173.82875 1031.8 171.82875 
L 1031.8 84.76 
Q 1031.8 82.76 1029.8 82.76 
L 829.871875 82.76 
Q 827.871875 82.76 827.871875 84.76 
L 827.871875 171.82875 
Q 827.871875 173.82875 829.871875 173.82875 
z
" style="fill: #ffffff; opacity: 0.8; stroke: #cccccc; stroke-linejoin: miter"/>
    </g>
    <g id="line2d_39">
     <path d="M 831.871875 90.858438 
L 841.871875 90.858438 
L 851.871875 90.858438 
" style="fill: none; stroke: #0000ff; stroke-width: 1.5; stroke-linecap: square"/>
    </g>
    <g id="text_20">
     <!-- delta K = -20.00 (1.00 mm pwv) -->
     <g transform="translate(859.871875 94.358438) scale(0.1 -0.1)">
      <defs>
       <path id="DejaVuSans-64" d="M 2906 2969 
L 2906 4863 
L 3481 4863 
L 3481 0 
L 2906 0 
L 2906 525 
Q 2725 213 2448 61 
Q 2172 -91 1784 -91 
Q 1150 -91 751 415 
Q 353 922 353 1747 
Q 353 2572 751 3078 
Q 1150 3584 1784 3584 
Q 2172 3584 2448 3432 
Q 2725 3281 2906 2969 
z
M 947 1747 
Q 947 1113 1208 752 
Q 1469 391 1925 391 
Q 2381 391 2643 752 
Q 2906 1113 2906 1747 
Q 2906 2381 2643 2742 
Q 2381 3103 1925 3103 
Q 1469 3103 1208 2742 
Q 947 2381 947 1747 
z
" transform="scale(0.015625)"/>
       <path id="DejaVuSans-6c" d="M 603 4863 
L 1178 4863 
L 1178 0 
L 603 0 
L 603 4863 
z
" transform="scale(0.015625)"/>
       <path id="DejaVuSans-3d" d="M 678 2906 
L 4684 2906 
L 4684 2381 
L 678 2381 
L 678 2906 
z
M 678 1631 
L 4684 1631 
L 4684 1100 
L 678 1100 
L 678 1631 
z
" transform="scale(0.015625)"/>
       <path id="DejaVuSans-2d" d="M 313 2009 
L 1997 2009 
L 1997 1497 
L 313 1497 
L 313 2009 
z
" transform="scale(0.015625)"/>
       <path id="DejaVuSans-77" d="M 269 3500 
L 844 3500 
L 1563 769 
L 2278 3500 
L 2956 3500 
L 3675 769 
L 4391 3500 
L 4966 3500 
L 4050 0 
L 3372 0 
L 2619 2869 
L 1863 0 
L 1184 0 
L 269 3500 
z
" transform="scale(0.015625)"/>
       <path id="DejaVuSans-76" d="M 191 3500 
L 800 3500 
L 1894 563 
L 2988 3500 
L 3597 3500 
L 2284 0 
L 1503 0 
L 191 3500 
z
" transform="scale(0.015625)"/>
      </defs>
      <use xlink:href="#DejaVuSans-64"/>
      <use xlink:href="#DejaVuSans-65" x="63.476562"/>
      <use xlink:href="#DejaVuSans-6c" x="125"/>
      <use xlink:href="#DejaVuSans-74" x="152.783203"/>
      <use xlink:href="#DejaVuSans-61" x="191.992188"/>
      <use xlink:href="#DejaVuSans-20" x="253.271484"/>
      <use xlink:href="#DejaVuSans-4b" x="285.058594"/>
      <use xlink:href="#DejaVuSans-20" x="350.634766"/>
      <use xlink:href="#DejaVuSans-3d" x="382.421875"/>
      <use xlink:href="#DejaVuSans-20" x="466.210938"/>
      <use xlink:href="#DejaVuSans-2d" x="497.998047"/>
      <use xlink:href="#DejaVuSans-32" x="534.082031"/>
      <use xlink:href="#DejaVuSans-30" x="597.705078"/>
      <use xlink:href="#DejaVuSans-2e" x="661.328125"/>
      <use xlink:href="#DejaVuSans-30" x="693.115234"/>
      <use xlink:href="#DejaVuSans-30" x="756.738281"/>
      <use xlink:href="#DejaVuSans-20" x="820.361328"/>
      <use xlink:href="#DejaVuSans-28" x="852.148438"/>
      <use xlink:href="#DejaVuSans-31" x="891.162109"/>
      <use xlink:href="#DejaVuSans-2e" x="954.785156"/>
      <use xlink:href="#DejaVuSans-30" x="986.572266"/>
      <use xlink:href="#DejaVuSans-30" x="1050.195312"/>
      <use xlink:href="#DejaVuSans-20" x="1113.818359"/>
      <use xlink:href="#DejaVuSans-6d" x="1145.605469"/>
      <use xlink:href="#DejaVuSans-6d" x="1243.017578"/>
      <use xlink:href="#DejaVuSans-20" x="1340.429688"/>
      <use xlink:href="#DejaVuSans-70" x="1372.216797"/>
      <use xlink:href="#DejaVuSans-77" x="1435.693359"/>
      <use xlink:href="#DejaVuSans-76" x="1517.480469"/>
      <use xlink:href="#DejaVuSans-29" x="1576.660156"/>
     </g>
    </g>
    <g id="line2d_40">
     <path d="M 831.871875 105.536563 
L 841.871875 105.536563 
L 851.871875 105.536563 
" style="fill: none; stroke: #ffa500; stroke-width: 1.5; stroke-linecap: square"/>
    </g>
    <g id="text_21">
     <!-- delta K = -20.00 (10.00 mm pwv) -->
     <g transform="translate(859.871875 109.036563) scale(0.1 -0.1)">
      <use xlink:href="#DejaVuSans-64"/>
      <use xlink:href="#DejaVuSans-65" x="63.476562"/>
      <use xlink:href="#DejaVuSans-6c" x="125"/>
      <use xlink:href="#DejaVuSans-74" x="152.783203"/>
      <use xlink:href="#DejaVuSans-61" x="191.992188"/>
      <use xlink:href="#DejaVuSans-20" x="253.271484"/>
      <use xlink:href="#DejaVuSans-4b" x="285.058594"/>
      <use xlink:href="#DejaVuSans-20" x="350.634766"/>
      <use xlink:href="#DejaVuSans-3d" x="382.421875"/>
      <use xlink:href="#DejaVuSans-20" x="466.210938"/>
      <use xlink:href="#DejaVuSans-2d" x="497.998047"/>
      <use xlink:href="#DejaVuSans-32" x="534.082031"/>
      <use xlink:href="#DejaVuSans-30" x="597.705078"/>
      <use xlink:href="#DejaVuSans-2e" x="661.328125"/>
      <use xlink:href="#DejaVuSans-30" x="693.115234"/>
      <use xlink:href="#DejaVuSans-30" x="756.738281"/>
      <use xlink:href="#DejaVuSans-20" x="820.361328"/>
      <use xlink:href="#DejaVuSans-28" x="852.148438"/>
      <use xlink:href="#DejaVuSans-31" x="891.162109"/>
      <use xlink:href="#DejaVuSans-30" x="954.785156"/>
      <use xlink:href="#DejaVuSans-2e" x="1018.408203"/>
      <use xlink:href="#DejaVuSans-30" x="1050.195312"/>
      <use xlink:href="#DejaVuSans-30" x="1113.818359"/>
      <use xlink:href="#DejaVuSans-20" x="1177.441406"/>
      <use xlink:href="#DejaVuSans-6d" x="1209.228516"/>
      <use xlink:href="#DejaVuSans-6d" x="1306.640625"/>
      <use xlink:href="#DejaVuSans-20" x="1404.052734"/>
      <use xlink:href="#DejaVuSans-70" x="1435.839844"/>
      <use xlink:href="#DejaVuSans-77" x="1499.316406"/>
      <use xlink:href="#DejaVuSans-76" x="1581.103516"/>
      <use xlink:href="#DejaVuSans-29" x="1640.283203"/>
     </g>
    </g>
    <g id="line2d_41">
     <path d="M 831.871875 120.214688 
L 841.871875 120.214688 
L 851.871875 120.214688 
" style="fill: none; stroke: #008000; stroke-width: 1.5; stroke-linecap: square"/>
    </g>
    <g id="text_22">
     <!-- delta K = 0.00 (1.00 mm pwv) -->
     <g transform="translate(859.871875 123.714688) scale(0.1 -0.1)">
      <use xlink:href="#DejaVuSans-64"/>
      <use xlink:href="#DejaVuSans-65" x="63.476562"/>
      <use xlink:href="#DejaVuSans-6c" x="125"/>
      <use xlink:href="#DejaVuSans-74" x="152.783203"/>
      <use xlink:href="#DejaVuSans-61" x="191.992188"/>
      <use xlink:href="#DejaVuSans-20" x="253.271484"/>
      <use xlink:href="#DejaVuSans-4b" x="285.058594"/>
      <use xlink:href="#DejaVuSans-20" x="350.634766"/>
      <use xlink:href="#DejaVuSans-3d" x="382.421875"/>
      <use xlink:href="#DejaVuSans-20" x="466.210938"/>
      <use xlink:href="#DejaVuSans-30" x="497.998047"/>
      <use xlink:href="#DejaVuSans-2e" x="561.621094"/>
      <use xlink:href="#DejaVuSans-30" x="593.408203"/>
      <use xlink:href="#DejaVuSans-30" x="657.03125"/>
      <use xlink:href="#DejaVuSans-20" x="720.654297"/>
      <use xlink:href="#DejaVuSans-28" x="752.441406"/>
      <use xlink:href="#DejaVuSans-31" x="791.455078"/>
      <use xlink:href="#DejaVuSans-2e" x="855.078125"/>
      <use xlink:href="#DejaVuSans-30" x="886.865234"/>
      <use xlink:href="#DejaVuSans-30" x="950.488281"/>
      <use xlink:href="#DejaVuSans-20" x="1014.111328"/>
      <use xlink:href="#DejaVuSans-6d" x="1045.898438"/>
      <use xlink:href="#DejaVuSans-6d" x="1143.310547"/>
      <use xlink:href="#DejaVuSans-20" x="1240.722656"/>
      <use xlink:href="#DejaVuSans-70" x="1272.509766"/>
      <use xlink:href="#DejaVuSans-77" x="1335.986328"/>
      <use xlink:href="#DejaVuSans-76" x="1417.773438"/>
      <use xlink:href="#DejaVuSans-29" x="1476.953125"/>
     </g>
    </g>
    <g id="line2d_42">
     <path d="M 831.871875 134.892813 
L 841.871875 134.892813 
L 851.871875 134.892813 
" style="fill: none; stroke: #ff0000; stroke-width: 1.5; stroke-linecap: square"/>
    </g>
    <g id="text_23">
     <!-- delta K = 0.00 (10.00 mm pwv) -->
     <g transform="translate(859.871875 138.392813) scale(0.1 -0.1)">
      <use xlink:href="#DejaVuSans-64"/>
      <use xlink:href="#DejaVuSans-65" x="63.476562"/>
      <use xlink:href="#DejaVuSans-6c" x="125"/>
      <use xlink:href="#DejaVuSans-74" x="152.783203"/>
      <use xlink:href="#DejaVuSans-61" x="191.992188"/>
      <use xlink:href="#DejaVuSans-20" x="253.271484"/>
      <use xlink:href="#DejaVuSans-4b" x="285.058594"/>
      <use xlink:href="#DejaVuSans-20" x="350.634766"/>
      <use xlink:href="#DejaVuSans-3d" x="382.421875"/>
      <use xlink:href="#DejaVuSans-20" x="466.210938"/>
      <use xlink:href="#DejaVuSans-30" x="497.998047"/>
      <use xlink:href="#DejaVuSans-2e" x="561.621094"/>
      <use xlink:href="#DejaVuSans-30" x="593.408203"/>
      <use xlink:href="#DejaVuSans-30" x="657.03125"/>
      <use xlink:href="#DejaVuSans-20" x="720.654297"/>
      <use xlink:href="#DejaVuSans-28" x="752.441406"/>
      <use xlink:href="#DejaVuSans-31" x="791.455078"/>
      <use xlink:href="#DejaVuSans-30" x="855.078125"/>
      <use xlink:href="#DejaVuSans-2e" x="918.701172"/>
      <use xlink:href="#DejaVuSans-30" x="950.488281"/>
      <use xlink:href="#DejaVuSans-30" x="1014.111328"/>
      <use xlink:href="#DejaVuSans-20" x="1077.734375"/>
      <use xlink:href="#DejaVuSans-6d" x="1109.521484"/>
      <use xlink:href="#DejaVuSans-6d" x="1206.933594"/>
      <use xlink:href="#DejaVuSans-20" x="1304.345703"/>
      <use xlink:href="#DejaVuSans-70" x="1336.132812"/>
      <use xlink:href="#DejaVuSans-77" x="1399.609375"/>
      <use xlink:href="#DejaVuSans-76" x="1481.396484"/>
      <use xlink:href="#DejaVuSans-29" x="1540.576172"/>
     </g>
    </g>
    <g id="line2d_43">
     <path d="M 831.871875 149.570938 
L 841.871875 149.570938 
L 851.871875 149.570938 
" style="fill: none; stroke: #800080; stroke-width: 1.5; stroke-linecap: square"/>
    </g>
    <g id="text_24">
     <!-- delta K = 20.00 (1.00 mm pwv) -->
     <g transform="translate(859.871875 153.070938) scale(0.1 -0.1)">
      <use xlink:href="#DejaVuSans-64"/>
      <use xlink:href="#DejaVuSans-65" x="63.476562"/>
      <use xlink:href="#DejaVuSans-6c" x="125"/>
      <use xlink:href="#DejaVuSans-74" x="152.783203"/>
      <use xlink:href="#DejaVuSans-61" x="191.992188"/>
      <use xlink:href="#DejaVuSans-20" x="253.271484"/>
      <use xlink:href="#DejaVuSans-4b" x="285.058594"/>
      <use xlink:href="#DejaVuSans-20" x="350.634766"/>
      <use xlink:href="#DejaVuSans-3d" x="382.421875"/>
      <use xlink:href="#DejaVuSans-20" x="466.210938"/>
      <use xlink:href="#DejaVuSans-32" x="497.998047"/>
      <use xlink:href="#DejaVuSans-30" x="561.621094"/>
      <use xlink:href="#DejaVuSans-2e" x="625.244141"/>
      <use xlink:href="#DejaVuSans-30" x="657.03125"/>
      <use xlink:href="#DejaVuSans-30" x="720.654297"/>
      <use xlink:href="#DejaVuSans-20" x="784.277344"/>
      <use xlink:href="#DejaVuSans-28" x="816.064453"/>
      <use xlink:href="#DejaVuSans-31" x="855.078125"/>
      <use xlink:href="#DejaVuSans-2e" x="918.701172"/>
      <use xlink:href="#DejaVuSans-30" x="950.488281"/>
      <use xlink:href="#DejaVuSans-30" x="1014.111328"/>
      <use xlink:href="#DejaVuSans-20" x="1077.734375"/>
      <use xlink:href="#DejaVuSans-6d" x="1109.521484"/>
      <use xlink:href="#DejaVuSans-6d" x="1206.933594"/>
      <use xlink:href="#DejaVuSans-20" x="1304.345703"/>
      <use xlink:href="#DejaVuSans-70" x="1336.132812"/>
      <use xlink:href="#DejaVuSans-77" x="1399.609375"/>
      <use xlink:href="#DejaVuSans-76" x="1481.396484"/>
      <use xlink:href="#DejaVuSans-29" x="1540.576172"/>
     </g>
    </g>
    <g id="line2d_44">
     <path d="M 831.871875 164.249063 
L 841.871875 164.249063 
L 851.871875 164.249063 
" style="fill: none; stroke: #a52a2a; stroke-width: 1.5; stroke-linecap: square"/>
    </g>
    <g id="text_25">
     <!-- delta K = 20.00 (10.00 mm pwv) -->
     <g transform="translate(859.871875 167.749063) scale(0.1 -0.1)">
      <use xlink:href="#DejaVuSans-64"/>
      <use xlink:href="#DejaVuSans-65" x="63.476562"/>
      <use xlink:href="#DejaVuSans-6c" x="125"/>
      <use xlink:href="#DejaVuSans-74" x="152.783203"/>
      <use xlink:href="#DejaVuSans-61" x="191.992188"/>
      <use xlink:href="#DejaVuSans-20" x="253.271484"/>
      <use xlink:href="#DejaVuSans-4b" x="285.058594"/>
      <use xlink:href="#DejaVuSans-20" x="350.634766"/>
      <use xlink:href="#DejaVuSans-3d" x="382.421875"/>
      <use xlink:href="#DejaVuSans-20" x="466.210938"/>
      <use xlink:href="#DejaVuSans-32" x="497.998047"/>
      <use xlink:href="#DejaVuSans-30" x="561.621094"/>
      <use xlink:href="#DejaVuSans-2e" x="625.244141"/>
      <use xlink:href="#DejaVuSans-30" x="657.03125"/>
      <use xlink:href="#DejaVuSans-30" x="720.654297"/>
      <use xlink:href="#DejaVuSans-20" x="784.277344"/>
      <use xlink:href="#DejaVuSans-28" x="816.064453"/>
      <use xlink:href="#DejaVuSans-31" x="855.078125"/>
      <use xlink:href="#DejaVuSans-30" x="918.701172"/>
      <use xlink:href="#DejaVuSans-2e" x="982.324219"/>
      <use xlink:href="#DejaVuSans-30" x="1014.111328"/>
      <use xlink:href="#DejaVuSans-30" x="1077.734375"/>
      <use xlink:href="#DejaVuSans-20" x="1141.357422"/>
      <use xlink:href="#DejaVuSans-6d" x="1173.144531"/>
      <use xlink:href="#DejaVuSans-6d" x="1270.556641"/>
      <use xlink:href="#DejaVuSans-20" x="1367.96875"/>
      <use xlink:href="#DejaVuSans-70" x="1399.755859"/>
      <use xlink:href="#DejaVuSans-77" x="1463.232422"/>
      <use xlink:href="#DejaVuSans-76" x="1545.019531"/>
      <use xlink:href="#DejaVuSans-29" x="1604.199219"/>
     </g>
    </g>
   </g>
  </g>
 </g>
 <defs>
  <clipPath id="p9a1eff08e9">
   <rect x="144" y="77.76" width="892.8" height="498.96"/>
  </clipPath>
 </defs>
</svg>
