<?xml version="1.0" encoding="utf-8" standalone="no"?>
<!DOCTYPE svg PUBLIC "-//W3C//DTD SVG 1.1//EN"
  "http://www.w3.org/Graphics/SVG/1.1/DTD/svg11.dtd">
<svg xmlns:xlink="http://www.w3.org/1999/xlink" width="864pt" height="576pt" viewBox="0 0 864 576" xmlns="http://www.w3.org/2000/svg" version="1.1">
 <metadata>
  <rdf:RDF xmlns:dc="http://purl.org/dc/elements/1.1/" xmlns:cc="http://creativecommons.org/ns#" xmlns:rdf="http://www.w3.org/1999/02/22-rdf-syntax-ns#">
   <cc:Work>
    <dc:type rdf:resource="http://purl.org/dc/dcmitype/StillImage"/>
    <dc:date>2025-06-09T16:25:24.969732</dc:date>
    <dc:format>image/svg+xml</dc:format>
    <dc:creator>
     <cc:Agent>
      <dc:title>Matplotlib v3.10.3, https://matplotlib.org/</dc:title>
     </cc:Agent>
    </dc:creator>
   </cc:Work>
  </rdf:RDF>
 </metadata>
 <defs>
  <style type="text/css">*{stroke-linejoin: round; stroke-linecap: butt}</style>
 </defs>
 <g id="figure_1">
  <g id="patch_1">
   <path d="M 0 576 
L 864 576 
L 864 0 
L 0 0 
z
" style="fill: #ffffff"/>
  </g>
  <g id="axes_1">
   <g id="patch_2">
    <path d="M 108 512.64 
L 777.6 512.64 
L 777.6 69.12 
L 108 69.12 
z
" style="fill: #ffffff"/>
   </g>
   <g id="matplotlib.axis_1">
    <g id="xtick_1">
     <g id="line2d_1">
      <defs>
       <path id="ma1642b239e" d="M 0 0 
L 0 3.5 
" style="stroke: #000000; stroke-width: 0.8"/>
      </defs>
      <g>
       <use xlink:href="#ma1642b239e" x="186.49378" y="512.64" style="stroke: #000000; stroke-width: 0.8"/>
      </g>
     </g>
     <g id="text_1">
      <!-- 25 -->
      <g transform="translate(180.13128 527.238438) scale(0.1 -0.1)">
       <defs>
        <path id="DejaVuSans-32" d="M 1228 531 
L 3431 531 
L 3431 0 
L 469 0 
L 469 531 
Q 828 903 1448 1529 
Q 2069 2156 2228 2338 
Q 2531 2678 2651 2914 
Q 2772 3150 2772 3378 
Q 2772 3750 2511 3984 
Q 2250 4219 1831 4219 
Q 1534 4219 1204 4116 
Q 875 4013 500 3803 
L 500 4441 
Q 881 4594 1212 4672 
Q 1544 4750 1819 4750 
Q 2544 4750 2975 4387 
Q 3406 4025 3406 3419 
Q 3406 3131 3298 2873 
Q 3191 2616 2906 2266 
Q 2828 2175 2409 1742 
Q 1991 1309 1228 531 
z
" transform="scale(0.015625)"/>
        <path id="DejaVuSans-35" d="M 691 4666 
L 3169 4666 
L 3169 4134 
L 1269 4134 
L 1269 2991 
Q 1406 3038 1543 3061 
Q 1681 3084 1819 3084 
Q 2600 3084 3056 2656 
Q 3513 2228 3513 1497 
Q 3513 744 3044 326 
Q 2575 -91 1722 -91 
Q 1428 -91 1123 -41 
Q 819 9 494 109 
L 494 744 
Q 775 591 1075 516 
Q 1375 441 1709 441 
Q 2250 441 2565 725 
Q 2881 1009 2881 1497 
Q 2881 1984 2565 2268 
Q 2250 2553 1709 2553 
Q 1456 2553 1204 2497 
Q 953 2441 691 2322 
L 691 4666 
z
" transform="scale(0.015625)"/>
       </defs>
       <use xlink:href="#DejaVuSans-32"/>
       <use xlink:href="#DejaVuSans-35" transform="translate(63.623047 0)"/>
      </g>
     </g>
    </g>
    <g id="xtick_2">
     <g id="line2d_2">
      <g>
       <use xlink:href="#ma1642b239e" x="266.589474" y="512.64" style="stroke: #000000; stroke-width: 0.8"/>
      </g>
     </g>
     <g id="text_2">
      <!-- 50 -->
      <g transform="translate(260.226974 527.238438) scale(0.1 -0.1)">
       <defs>
        <path id="DejaVuSans-30" d="M 2034 4250 
Q 1547 4250 1301 3770 
Q 1056 3291 1056 2328 
Q 1056 1369 1301 889 
Q 1547 409 2034 409 
Q 2525 409 2770 889 
Q 3016 1369 3016 2328 
Q 3016 3291 2770 3770 
Q 2525 4250 2034 4250 
z
M 2034 4750 
Q 2819 4750 3233 4129 
Q 3647 3509 3647 2328 
Q 3647 1150 3233 529 
Q 2819 -91 2034 -91 
Q 1250 -91 836 529 
Q 422 1150 422 2328 
Q 422 3509 836 4129 
Q 1250 4750 2034 4750 
z
" transform="scale(0.015625)"/>
       </defs>
       <use xlink:href="#DejaVuSans-35"/>
       <use xlink:href="#DejaVuSans-30" transform="translate(63.623047 0)"/>
      </g>
     </g>
    </g>
    <g id="xtick_3">
     <g id="line2d_3">
      <g>
       <use xlink:href="#ma1642b239e" x="346.685167" y="512.64" style="stroke: #000000; stroke-width: 0.8"/>
      </g>
     </g>
     <g id="text_3">
      <!-- 75 -->
      <g transform="translate(340.322667 527.238438) scale(0.1 -0.1)">
       <defs>
        <path id="DejaVuSans-37" d="M 525 4666 
L 3525 4666 
L 3525 4397 
L 1831 0 
L 1172 0 
L 2766 4134 
L 525 4134 
L 525 4666 
z
" transform="scale(0.015625)"/>
       </defs>
       <use xlink:href="#DejaVuSans-37"/>
       <use xlink:href="#DejaVuSans-35" transform="translate(63.623047 0)"/>
      </g>
     </g>
    </g>
    <g id="xtick_4">
     <g id="line2d_4">
      <g>
       <use xlink:href="#ma1642b239e" x="426.780861" y="512.64" style="stroke: #000000; stroke-width: 0.8"/>
      </g>
     </g>
     <g id="text_4">
      <!-- 100 -->
      <g transform="translate(417.237111 527.238438) scale(0.1 -0.1)">
       <defs>
        <path id="DejaVuSans-31" d="M 794 531 
L 1825 531 
L 1825 4091 
L 703 3866 
L 703 4441 
L 1819 4666 
L 2450 4666 
L 2450 531 
L 3481 531 
L 3481 0 
L 794 0 
L 794 531 
z
" transform="scale(0.015625)"/>
       </defs>
       <use xlink:href="#DejaVuSans-31"/>
       <use xlink:href="#DejaVuSans-30" transform="translate(63.623047 0)"/>
       <use xlink:href="#DejaVuSans-30" transform="translate(127.246094 0)"/>
      </g>
     </g>
    </g>
    <g id="xtick_5">
     <g id="line2d_5">
      <g>
       <use xlink:href="#ma1642b239e" x="506.876555" y="512.64" style="stroke: #000000; stroke-width: 0.8"/>
      </g>
     </g>
     <g id="text_5">
      <!-- 125 -->
      <g transform="translate(497.332805 527.238438) scale(0.1 -0.1)">
       <use xlink:href="#DejaVuSans-31"/>
       <use xlink:href="#DejaVuSans-32" transform="translate(63.623047 0)"/>
       <use xlink:href="#DejaVuSans-35" transform="translate(127.246094 0)"/>
      </g>
     </g>
    </g>
    <g id="xtick_6">
     <g id="line2d_6">
      <g>
       <use xlink:href="#ma1642b239e" x="586.972249" y="512.64" style="stroke: #000000; stroke-width: 0.8"/>
      </g>
     </g>
     <g id="text_6">
      <!-- 150 -->
      <g transform="translate(577.428499 527.238438) scale(0.1 -0.1)">
       <use xlink:href="#DejaVuSans-31"/>
       <use xlink:href="#DejaVuSans-35" transform="translate(63.623047 0)"/>
       <use xlink:href="#DejaVuSans-30" transform="translate(127.246094 0)"/>
      </g>
     </g>
    </g>
    <g id="xtick_7">
     <g id="line2d_7">
      <g>
       <use xlink:href="#ma1642b239e" x="667.067943" y="512.64" style="stroke: #000000; stroke-width: 0.8"/>
      </g>
     </g>
     <g id="text_7">
      <!-- 175 -->
      <g transform="translate(657.524193 527.238438) scale(0.1 -0.1)">
       <use xlink:href="#DejaVuSans-31"/>
       <use xlink:href="#DejaVuSans-37" transform="translate(63.623047 0)"/>
       <use xlink:href="#DejaVuSans-35" transform="translate(127.246094 0)"/>
      </g>
     </g>
    </g>
    <g id="xtick_8">
     <g id="line2d_8">
      <g>
       <use xlink:href="#ma1642b239e" x="747.163636" y="512.64" style="stroke: #000000; stroke-width: 0.8"/>
      </g>
     </g>
     <g id="text_8">
      <!-- 200 -->
      <g transform="translate(737.619886 527.238438) scale(0.1 -0.1)">
       <use xlink:href="#DejaVuSans-32"/>
       <use xlink:href="#DejaVuSans-30" transform="translate(63.623047 0)"/>
       <use xlink:href="#DejaVuSans-30" transform="translate(127.246094 0)"/>
      </g>
     </g>
    </g>
    <g id="text_9">
     <!-- frequency (GHz) -->
     <g transform="translate(401.974219 540.916563) scale(0.1 -0.1)">
      <defs>
       <path id="DejaVuSans-66" d="M 2375 4863 
L 2375 4384 
L 1825 4384 
Q 1516 4384 1395 4259 
Q 1275 4134 1275 3809 
L 1275 3500 
L 2222 3500 
L 2222 3053 
L 1275 3053 
L 1275 0 
L 697 0 
L 697 3053 
L 147 3053 
L 147 3500 
L 697 3500 
L 697 3744 
Q 697 4328 969 4595 
Q 1241 4863 1831 4863 
L 2375 4863 
z
" transform="scale(0.015625)"/>
       <path id="DejaVuSans-72" d="M 2631 2963 
Q 2534 3019 2420 3045 
Q 2306 3072 2169 3072 
Q 1681 3072 1420 2755 
Q 1159 2438 1159 1844 
L 1159 0 
L 581 0 
L 581 3500 
L 1159 3500 
L 1159 2956 
Q 1341 3275 1631 3429 
Q 1922 3584 2338 3584 
Q 2397 3584 2469 3576 
Q 2541 3569 2628 3553 
L 2631 2963 
z
" transform="scale(0.015625)"/>
       <path id="DejaVuSans-65" d="M 3597 1894 
L 3597 1613 
L 953 1613 
Q 991 1019 1311 708 
Q 1631 397 2203 397 
Q 2534 397 2845 478 
Q 3156 559 3463 722 
L 3463 178 
Q 3153 47 2828 -22 
Q 2503 -91 2169 -91 
Q 1331 -91 842 396 
Q 353 884 353 1716 
Q 353 2575 817 3079 
Q 1281 3584 2069 3584 
Q 2775 3584 3186 3129 
Q 3597 2675 3597 1894 
z
M 3022 2063 
Q 3016 2534 2758 2815 
Q 2500 3097 2075 3097 
Q 1594 3097 1305 2825 
Q 1016 2553 972 2059 
L 3022 2063 
z
" transform="scale(0.015625)"/>
       <path id="DejaVuSans-71" d="M 947 1747 
Q 947 1113 1208 752 
Q 1469 391 1925 391 
Q 2381 391 2643 752 
Q 2906 1113 2906 1747 
Q 2906 2381 2643 2742 
Q 2381 3103 1925 3103 
Q 1469 3103 1208 2742 
Q 947 2381 947 1747 
z
M 2906 525 
Q 2725 213 2448 61 
Q 2172 -91 1784 -91 
Q 1150 -91 751 415 
Q 353 922 353 1747 
Q 353 2572 751 3078 
Q 1150 3584 1784 3584 
Q 2172 3584 2448 3432 
Q 2725 3281 2906 2969 
L 2906 3500 
L 3481 3500 
L 3481 -1331 
L 2906 -1331 
L 2906 525 
z
" transform="scale(0.015625)"/>
       <path id="DejaVuSans-75" d="M 544 1381 
L 544 3500 
L 1119 3500 
L 1119 1403 
Q 1119 906 1312 657 
Q 1506 409 1894 409 
Q 2359 409 2629 706 
Q 2900 1003 2900 1516 
L 2900 3500 
L 3475 3500 
L 3475 0 
L 2900 0 
L 2900 538 
Q 2691 219 2414 64 
Q 2138 -91 1772 -91 
Q 1169 -91 856 284 
Q 544 659 544 1381 
z
M 1991 3584 
L 1991 3584 
z
" transform="scale(0.015625)"/>
       <path id="DejaVuSans-6e" d="M 3513 2113 
L 3513 0 
L 2938 0 
L 2938 2094 
Q 2938 2591 2744 2837 
Q 2550 3084 2163 3084 
Q 1697 3084 1428 2787 
Q 1159 2491 1159 1978 
L 1159 0 
L 581 0 
L 581 3500 
L 1159 3500 
L 1159 2956 
Q 1366 3272 1645 3428 
Q 1925 3584 2291 3584 
Q 2894 3584 3203 3211 
Q 3513 2838 3513 2113 
z
" transform="scale(0.015625)"/>
       <path id="DejaVuSans-63" d="M 3122 3366 
L 3122 2828 
Q 2878 2963 2633 3030 
Q 2388 3097 2138 3097 
Q 1578 3097 1268 2742 
Q 959 2388 959 1747 
Q 959 1106 1268 751 
Q 1578 397 2138 397 
Q 2388 397 2633 464 
Q 2878 531 3122 666 
L 3122 134 
Q 2881 22 2623 -34 
Q 2366 -91 2075 -91 
Q 1284 -91 818 406 
Q 353 903 353 1747 
Q 353 2603 823 3093 
Q 1294 3584 2113 3584 
Q 2378 3584 2631 3529 
Q 2884 3475 3122 3366 
z
" transform="scale(0.015625)"/>
       <path id="DejaVuSans-79" d="M 2059 -325 
Q 1816 -950 1584 -1140 
Q 1353 -1331 966 -1331 
L 506 -1331 
L 506 -850 
L 844 -850 
Q 1081 -850 1212 -737 
Q 1344 -625 1503 -206 
L 1606 56 
L 191 3500 
L 800 3500 
L 1894 763 
L 2988 3500 
L 3597 3500 
L 2059 -325 
z
" transform="scale(0.015625)"/>
       <path id="DejaVuSans-20" transform="scale(0.015625)"/>
       <path id="DejaVuSans-28" d="M 1984 4856 
Q 1566 4138 1362 3434 
Q 1159 2731 1159 2009 
Q 1159 1288 1364 580 
Q 1569 -128 1984 -844 
L 1484 -844 
Q 1016 -109 783 600 
Q 550 1309 550 2009 
Q 550 2706 781 3412 
Q 1013 4119 1484 4856 
L 1984 4856 
z
" transform="scale(0.015625)"/>
       <path id="DejaVuSans-47" d="M 3809 666 
L 3809 1919 
L 2778 1919 
L 2778 2438 
L 4434 2438 
L 4434 434 
Q 4069 175 3628 42 
Q 3188 -91 2688 -91 
Q 1594 -91 976 548 
Q 359 1188 359 2328 
Q 359 3472 976 4111 
Q 1594 4750 2688 4750 
Q 3144 4750 3555 4637 
Q 3966 4525 4313 4306 
L 4313 3634 
Q 3963 3931 3569 4081 
Q 3175 4231 2741 4231 
Q 1884 4231 1454 3753 
Q 1025 3275 1025 2328 
Q 1025 1384 1454 906 
Q 1884 428 2741 428 
Q 3075 428 3337 486 
Q 3600 544 3809 666 
z
" transform="scale(0.015625)"/>
       <path id="DejaVuSans-48" d="M 628 4666 
L 1259 4666 
L 1259 2753 
L 3553 2753 
L 3553 4666 
L 4184 4666 
L 4184 0 
L 3553 0 
L 3553 2222 
L 1259 2222 
L 1259 0 
L 628 0 
L 628 4666 
z
" transform="scale(0.015625)"/>
       <path id="DejaVuSans-7a" d="M 353 3500 
L 3084 3500 
L 3084 2975 
L 922 459 
L 3084 459 
L 3084 0 
L 275 0 
L 275 525 
L 2438 3041 
L 353 3041 
L 353 3500 
z
" transform="scale(0.015625)"/>
       <path id="DejaVuSans-29" d="M 513 4856 
L 1013 4856 
Q 1481 4119 1714 3412 
Q 1947 2706 1947 2009 
Q 1947 1309 1714 600 
Q 1481 -109 1013 -844 
L 513 -844 
Q 928 -128 1133 580 
Q 1338 1288 1338 2009 
Q 1338 2731 1133 3434 
Q 928 4138 513 4856 
z
" transform="scale(0.015625)"/>
      </defs>
      <use xlink:href="#DejaVuSans-66"/>
      <use xlink:href="#DejaVuSans-72" transform="translate(35.205078 0)"/>
      <use xlink:href="#DejaVuSans-65" transform="translate(74.068359 0)"/>
      <use xlink:href="#DejaVuSans-71" transform="translate(135.591797 0)"/>
      <use xlink:href="#DejaVuSans-75" transform="translate(199.068359 0)"/>
      <use xlink:href="#DejaVuSans-65" transform="translate(262.447266 0)"/>
      <use xlink:href="#DejaVuSans-6e" transform="translate(323.970703 0)"/>
      <use xlink:href="#DejaVuSans-63" transform="translate(387.349609 0)"/>
      <use xlink:href="#DejaVuSans-79" transform="translate(442.330078 0)"/>
      <use xlink:href="#DejaVuSans-20" transform="translate(501.509766 0)"/>
      <use xlink:href="#DejaVuSans-28" transform="translate(533.296875 0)"/>
      <use xlink:href="#DejaVuSans-47" transform="translate(572.310547 0)"/>
      <use xlink:href="#DejaVuSans-48" transform="translate(649.800781 0)"/>
      <use xlink:href="#DejaVuSans-7a" transform="translate(724.996094 0)"/>
      <use xlink:href="#DejaVuSans-29" transform="translate(777.486328 0)"/>
     </g>
    </g>
   </g>
   <g id="matplotlib.axis_2">
    <g id="ytick_1">
     <g id="line2d_9">
      <defs>
       <path id="m2468a33dc5" d="M 0 0 
L -3.5 0 
" style="stroke: #000000; stroke-width: 0.8"/>
      </defs>
      <g>
       <use xlink:href="#m2468a33dc5" x="108" y="501.46143" style="stroke: #000000; stroke-width: 0.8"/>
      </g>
     </g>
     <g id="text_10">
      <!-- 0 -->
      <g transform="translate(94.6375 505.260649) scale(0.1 -0.1)">
       <use xlink:href="#DejaVuSans-30"/>
      </g>
     </g>
    </g>
    <g id="ytick_2">
     <g id="line2d_10">
      <g>
       <use xlink:href="#m2468a33dc5" x="108" y="425.532696" style="stroke: #000000; stroke-width: 0.8"/>
      </g>
     </g>
     <g id="text_11">
      <!-- 50 -->
      <g transform="translate(88.275 429.331915) scale(0.1 -0.1)">
       <use xlink:href="#DejaVuSans-35"/>
       <use xlink:href="#DejaVuSans-30" transform="translate(63.623047 0)"/>
      </g>
     </g>
    </g>
    <g id="ytick_3">
     <g id="line2d_11">
      <g>
       <use xlink:href="#m2468a33dc5" x="108" y="349.603962" style="stroke: #000000; stroke-width: 0.8"/>
      </g>
     </g>
     <g id="text_12">
      <!-- 100 -->
      <g transform="translate(81.9125 353.403181) scale(0.1 -0.1)">
       <use xlink:href="#DejaVuSans-31"/>
       <use xlink:href="#DejaVuSans-30" transform="translate(63.623047 0)"/>
       <use xlink:href="#DejaVuSans-30" transform="translate(127.246094 0)"/>
      </g>
     </g>
    </g>
    <g id="ytick_4">
     <g id="line2d_12">
      <g>
       <use xlink:href="#m2468a33dc5" x="108" y="273.675229" style="stroke: #000000; stroke-width: 0.8"/>
      </g>
     </g>
     <g id="text_13">
      <!-- 150 -->
      <g transform="translate(81.9125 277.474447) scale(0.1 -0.1)">
       <use xlink:href="#DejaVuSans-31"/>
       <use xlink:href="#DejaVuSans-35" transform="translate(63.623047 0)"/>
       <use xlink:href="#DejaVuSans-30" transform="translate(127.246094 0)"/>
      </g>
     </g>
    </g>
    <g id="ytick_5">
     <g id="line2d_13">
      <g>
       <use xlink:href="#m2468a33dc5" x="108" y="197.746495" style="stroke: #000000; stroke-width: 0.8"/>
      </g>
     </g>
     <g id="text_14">
      <!-- 200 -->
      <g transform="translate(81.9125 201.545714) scale(0.1 -0.1)">
       <use xlink:href="#DejaVuSans-32"/>
       <use xlink:href="#DejaVuSans-30" transform="translate(63.623047 0)"/>
       <use xlink:href="#DejaVuSans-30" transform="translate(127.246094 0)"/>
      </g>
     </g>
    </g>
    <g id="ytick_6">
     <g id="line2d_14">
      <g>
       <use xlink:href="#m2468a33dc5" x="108" y="121.817761" style="stroke: #000000; stroke-width: 0.8"/>
      </g>
     </g>
     <g id="text_15">
      <!-- 250 -->
      <g transform="translate(81.9125 125.61698) scale(0.1 -0.1)">
       <use xlink:href="#DejaVuSans-32"/>
       <use xlink:href="#DejaVuSans-35" transform="translate(63.623047 0)"/>
       <use xlink:href="#DejaVuSans-30" transform="translate(127.246094 0)"/>
      </g>
     </g>
    </g>
    <g id="text_16">
     <!-- T_b (K) -->
     <g transform="translate(75.554688 308.377656) rotate(-90) scale(0.1 -0.1)">
      <defs>
       <path id="DejaVuSans-54" d="M -19 4666 
L 3928 4666 
L 3928 4134 
L 2272 4134 
L 2272 0 
L 1638 0 
L 1638 4134 
L -19 4134 
L -19 4666 
z
" transform="scale(0.015625)"/>
       <path id="DejaVuSans-5f" d="M 3263 -1063 
L 3263 -1509 
L -63 -1509 
L -63 -1063 
L 3263 -1063 
z
" transform="scale(0.015625)"/>
       <path id="DejaVuSans-62" d="M 3116 1747 
Q 3116 2381 2855 2742 
Q 2594 3103 2138 3103 
Q 1681 3103 1420 2742 
Q 1159 2381 1159 1747 
Q 1159 1113 1420 752 
Q 1681 391 2138 391 
Q 2594 391 2855 752 
Q 3116 1113 3116 1747 
z
M 1159 2969 
Q 1341 3281 1617 3432 
Q 1894 3584 2278 3584 
Q 2916 3584 3314 3078 
Q 3713 2572 3713 1747 
Q 3713 922 3314 415 
Q 2916 -91 2278 -91 
Q 1894 -91 1617 61 
Q 1341 213 1159 525 
L 1159 0 
L 581 0 
L 581 4863 
L 1159 4863 
L 1159 2969 
z
" transform="scale(0.015625)"/>
       <path id="DejaVuSans-4b" d="M 628 4666 
L 1259 4666 
L 1259 2694 
L 3353 4666 
L 4166 4666 
L 1850 2491 
L 4331 0 
L 3500 0 
L 1259 2247 
L 1259 0 
L 628 0 
L 628 4666 
z
" transform="scale(0.015625)"/>
      </defs>
      <use xlink:href="#DejaVuSans-54"/>
      <use xlink:href="#DejaVuSans-5f" transform="translate(61.083984 0)"/>
      <use xlink:href="#DejaVuSans-62" transform="translate(111.083984 0)"/>
      <use xlink:href="#DejaVuSans-20" transform="translate(174.560547 0)"/>
      <use xlink:href="#DejaVuSans-28" transform="translate(206.347656 0)"/>
      <use xlink:href="#DejaVuSans-4b" transform="translate(245.361328 0)"/>
      <use xlink:href="#DejaVuSans-29" transform="translate(310.9375 0)"/>
     </g>
    </g>
   </g>
   <g id="line2d_15">
    <path d="M 138.436364 492.020874 
L 144.844019 491.359282 
L 149.649761 490.683975 
L 152.853589 490.090833 
L 156.057416 489.31823 
L 159.261244 488.263816 
L 160.863158 487.577679 
L 162.465072 486.740611 
L 164.066986 485.702485 
L 165.6689 484.394144 
L 167.270813 482.721793 
L 168.872727 480.563817 
L 170.474641 477.778878 
L 172.076555 474.247265 
L 176.882297 461.72241 
L 178.484211 460.489654 
L 180.086124 461.926755 
L 184.891866 470.301108 
L 186.49378 472.442395 
L 188.095694 474.103316 
L 189.697608 475.350398 
L 191.299522 476.261523 
L 192.901435 476.906172 
L 194.503349 477.339636 
L 196.105263 477.602764 
L 197.707177 477.72618 
L 200.911005 477.641809 
L 204.114833 477.213858 
L 207.31866 476.514046 
L 210.522488 475.580255 
L 213.726316 474.428682 
L 216.930144 473.060713 
L 220.133971 471.466291 
L 223.337799 469.625211 
L 226.541627 467.507106 
L 229.745455 465.070354 
L 232.949282 462.259687 
L 236.15311 459.002713 
L 239.356938 455.204773 
L 242.560766 450.741203 
L 244.162679 448.20995 
L 245.764593 445.445963 
L 247.366507 442.41923 
L 248.968421 439.094558 
L 250.570335 435.430452 
L 252.172249 431.3777 
L 253.774163 426.877538 
L 255.376077 421.859238 
L 256.97799 416.236906 
L 258.579904 409.905181 
L 260.181818 402.733414 
L 261.783732 394.556751 
L 263.385646 385.163545 
L 264.98756 374.272707 
L 266.589474 361.48669 
L 268.191388 346.193478 
L 269.793301 327.388792 
L 271.395215 303.205494 
L 272.997129 273.428176 
L 274.599043 235.747825 
L 277.802871 149.034448 
L 279.404785 116.679204 
L 281.006699 99.961681 
L 282.608612 93.995589 
L 284.210526 91.910301 
L 285.81244 90.902896 
L 287.414354 90.314969 
L 289.016268 89.947598 
L 292.220096 89.561111 
L 297.025837 89.375048 
L 301.831579 89.28 
L 305.035407 89.400471 
L 306.637321 89.568462 
L 308.239234 89.865725 
L 309.841148 90.355526 
L 311.443062 91.153924 
L 313.044976 92.607821 
L 314.64689 96.29476 
L 316.248804 107.173493 
L 317.850718 130.711276 
L 319.452632 165.322296 
L 321.054545 203.473729 
L 322.656459 238.548767 
L 324.258373 267.892594 
L 325.860287 291.607447 
L 327.462201 310.78253 
L 329.064115 326.513747 
L 330.666029 339.691896 
L 332.267943 350.908219 
L 333.869856 360.572819 
L 335.47177 368.973491 
L 337.073684 376.324358 
L 338.675598 382.791372 
L 340.277512 388.506324 
L 341.879426 393.575605 
L 343.48134 398.085633 
L 345.083254 402.10697 
L 346.685167 405.693946 
L 348.287081 408.900718 
L 349.888995 411.83415 
L 351.490909 414.447741 
L 353.092823 416.787742 
L 354.694737 418.880937 
L 356.296651 420.748213 
L 357.898565 422.407174 
L 359.500478 423.875578 
L 362.704306 426.353058 
L 369.111962 430.679053 
L 372.315789 432.450659 
L 375.519617 433.843891 
L 378.723445 434.910252 
L 381.927273 435.699396 
L 385.1311 436.248543 
L 389.936842 436.77948 
L 394.742584 437.065134 
L 399.548325 437.016429 
L 404.354067 436.674317 
L 409.159809 436.068448 
L 413.96555 435.212066 
L 418.771292 434.130616 
L 423.577033 432.777782 
L 426.780861 431.67137 
L 428.382775 430.87527 
L 429.984689 430.478705 
L 433.188517 429.178823 
L 436.392344 427.648056 
L 439.596172 425.87414 
L 442.8 423.809782 
L 446.003828 421.381931 
L 449.207656 418.484207 
L 450.809569 416.813043 
L 452.411483 414.960827 
L 454.013397 412.895849 
L 455.615311 410.579139 
L 457.217225 407.962022 
L 458.819139 404.982518 
L 460.421053 401.562597 
L 462.022967 397.601958 
L 463.62488 392.970699 
L 465.226794 387.498925 
L 466.828708 380.961928 
L 468.430622 373.059674 
L 470.032536 363.388387 
L 471.63445 351.402525 
L 473.236364 336.367636 
L 474.838278 317.313687 
L 476.440191 293.043061 
L 478.042105 262.271315 
L 479.644019 224.268589 
L 482.847847 138.338162 
L 484.449761 110.130072 
L 486.051675 101.444882 
L 487.653589 101.47794 
L 489.255502 110.417702 
L 490.857416 139.347757 
L 494.061244 225.932042 
L 495.663158 263.440711 
L 497.265072 293.370367 
L 498.866986 316.583957 
L 500.4689 334.457191 
L 502.070813 348.251159 
L 503.672727 358.965181 
L 505.274641 367.34814 
L 506.876555 373.944312 
L 508.478469 379.085356 
L 510.080383 383.433135 
L 511.682297 386.930677 
L 513.284211 389.7351 
L 514.886124 391.999778 
L 516.488038 393.831217 
L 518.089952 395.309382 
L 519.691866 396.496106 
L 521.29378 397.440058 
L 522.895694 398.179981 
L 524.497608 398.746947 
L 526.099522 399.165977 
L 529.303349 399.637778 
L 532.507177 399.716726 
L 535.711005 399.483176 
L 538.914833 398.993193 
L 542.11866 398.277463 
L 545.322488 397.336799 
L 556.535885 393.477987 
L 559.739713 392.114132 
L 562.943541 390.488643 
L 566.147368 388.770706 
L 569.351196 387.41784 
L 574.156938 385.534315 
L 577.360766 384.025052 
L 580.564593 382.312756 
L 583.768421 380.407968 
L 586.972249 378.267987 
L 588.574163 377.0235 
L 590.176077 375.930163 
L 593.379904 373.933738 
L 596.583732 371.728635 
L 599.78756 369.320924 
L 602.991388 366.700684 
L 606.195215 363.868168 
L 609.399043 360.812445 
L 612.602871 357.511784 
L 615.806699 353.935387 
L 619.010526 350.046319 
L 622.214354 345.8103 
L 625.418182 341.167759 
L 628.62201 336.045025 
L 631.825837 330.363233 
L 635.029665 324.026939 
L 638.233493 316.918711 
L 641.437321 308.905326 
L 644.641148 299.81272 
L 647.844976 289.446286 
L 651.048804 277.586303 
L 652.650718 271.017008 
L 654.252632 263.97319 
L 655.854545 256.421472 
L 659.058373 239.668329 
L 662.262201 220.556007 
L 665.466029 199.054143 
L 668.669856 175.490923 
L 673.475598 139.16376 
L 675.077512 127.83813 
L 676.679426 117.558233 
L 678.28134 108.74496 
L 679.883254 101.729707 
L 681.485167 96.651254 
L 683.087081 93.377589 
L 684.688995 91.518924 
L 686.290909 90.565155 
L 687.892823 90.078904 
L 691.096651 89.641574 
L 694.300478 89.554616 
L 697.504306 89.766692 
L 699.10622 90.004705 
L 700.708134 90.403447 
L 702.310048 91.135666 
L 703.911962 92.50547 
L 705.513876 94.882237 
L 707.115789 98.569327 
L 708.717703 103.698994 
L 710.319617 110.208566 
L 711.921531 117.884622 
L 715.125359 135.541319 
L 721.533014 172.51898 
L 724.736842 189.144194 
L 727.94067 203.902409 
L 731.144498 216.949772 
L 732.746411 222.815868 
L 734.348325 228.241643 
L 735.950239 233.239439 
L 737.552153 237.827971 
L 739.154067 242.02762 
L 740.755981 245.857388 
L 742.357895 249.332827 
L 743.959809 252.464199 
L 745.561722 255.254055 
L 747.163636 257.6926 
L 747.163636 257.6926 
" clip-path="url(#p1ca86d0ebf)" style="fill: none; stroke: #ff0000; stroke-width: 1.5; stroke-linecap: square"/>
   </g>
   <g id="line2d_16">
    <path d="M 138.436364 492.48 
L 146.445933 491.911664 
L 152.853589 491.252715 
L 157.65933 490.531748 
L 160.863158 489.85175 
L 164.066986 488.885097 
L 165.6689 488.230494 
L 167.270813 487.407039 
L 168.872727 486.356103 
L 170.474641 485.006347 
L 172.076555 483.29027 
L 173.678469 481.20039 
L 175.280383 478.91875 
L 176.882297 476.994854 
L 178.484211 476.315573 
L 180.086124 476.97282 
L 184.891866 480.654382 
L 186.49378 481.507481 
L 188.095694 482.121651 
L 189.697608 482.532673 
L 191.299522 482.77975 
L 194.503349 482.908303 
L 197.707177 482.687219 
L 200.911005 482.213142 
L 204.114833 481.537793 
L 207.31866 480.686184 
L 210.522488 479.666665 
L 213.726316 478.476242 
L 216.930144 477.103279 
L 220.133971 475.528486 
L 223.337799 473.724817 
L 226.541627 471.656572 
L 229.745455 469.277706 
L 232.949282 466.529145 
L 236.15311 463.335016 
L 239.356938 459.597285 
L 240.958852 457.486018 
L 242.560766 455.187954 
L 244.162679 452.680559 
L 245.764593 449.937734 
L 247.366507 446.929117 
L 248.968421 443.619224 
L 250.570335 439.96637 
L 252.172249 435.921309 
L 253.774163 431.425501 
L 255.376077 426.408854 
L 256.97799 420.786765 
L 258.579904 414.456154 
L 260.181818 407.290165 
L 261.783732 399.130036 
L 263.385646 389.773911 
L 264.98756 378.956852 
L 266.589474 366.311684 
L 268.191388 351.295309 
L 269.793301 333.03423 
L 271.395215 309.954491 
L 272.997129 281.633434 
L 274.599043 246.1498 
L 277.802871 164.010853 
L 279.404785 132.815423 
L 281.006699 116.761292 
L 282.608612 111.552058 
L 284.210526 110.297165 
L 285.81244 110.023512 
L 289.016268 110.078753 
L 295.423923 110.26173 
L 303.433493 110.299993 
L 308.239234 110.092185 
L 309.841148 110.01263 
L 311.443062 110.081514 
L 313.044976 110.701709 
L 314.64689 113.619143 
L 316.248804 123.965151 
L 317.850718 146.807095 
L 319.452632 179.982038 
L 321.054545 216.136832 
L 322.656459 249.30341 
L 324.258373 277.248396 
L 325.860287 300.138412 
L 327.462201 318.94285 
L 329.064115 334.612842 
L 330.666029 347.909406 
L 332.267943 359.345283 
L 333.869856 369.284946 
L 335.47177 377.991059 
L 337.073684 385.663151 
L 338.675598 392.458492 
L 340.277512 398.503734 
L 341.879426 403.902293 
L 343.48134 408.738972 
L 345.083254 413.083625 
L 346.685167 416.990385 
L 348.287081 420.513722 
L 349.888995 423.763315 
L 351.490909 426.691543 
L 353.092823 429.346825 
L 354.694737 431.757929 
L 356.296651 433.947893 
L 357.898565 435.93617 
L 361.102392 439.381663 
L 364.30622 442.291798 
L 367.510048 444.939341 
L 370.713876 447.2693 
L 373.917703 449.235538 
L 377.121531 450.877639 
L 380.325359 452.244626 
L 383.529187 453.374034 
L 386.733014 454.299315 
L 391.538756 455.421835 
L 396.344498 456.233937 
L 401.150239 456.738687 
L 405.955981 456.970863 
L 410.761722 456.946967 
L 415.567464 456.67339 
L 420.373206 456.142415 
L 423.577033 455.61951 
L 426.780861 454.917757 
L 428.382775 454.305496 
L 429.984689 454.123708 
L 433.188517 453.212584 
L 436.392344 452.05042 
L 439.596172 450.62042 
L 442.8 448.867992 
L 446.003828 446.709794 
L 447.605742 445.442618 
L 449.207656 444.024854 
L 450.809569 442.432557 
L 452.411483 440.636526 
L 454.013397 438.600922 
L 455.615311 436.28156 
L 457.217225 433.623386 
L 458.819139 430.55697 
L 460.421053 426.99478 
L 462.022967 422.824533 
L 463.62488 417.90133 
L 465.226794 412.036481 
L 466.828708 404.981758 
L 468.430622 396.407981 
L 470.032536 385.876078 
L 471.63445 372.799886 
L 473.236364 356.403456 
L 474.838278 335.687536 
L 476.440191 309.470768 
L 478.042105 276.599733 
L 479.644019 236.713532 
L 482.847847 150.579173 
L 484.449761 124.33744 
L 486.051675 116.746986 
L 487.653589 116.784377 
L 489.255502 124.656141 
L 490.857416 151.82858 
L 495.663158 280.044285 
L 497.265072 312.8092 
L 498.866986 338.660873 
L 500.4689 358.853396 
L 502.070813 374.64278 
L 503.672727 387.065243 
L 505.274641 396.915953 
L 506.876555 404.782035 
L 508.478469 411.023846 
L 510.080383 416.371279 
L 511.682297 420.762039 
L 513.284211 424.372372 
L 514.886124 427.373158 
L 516.488038 429.883694 
L 518.089952 431.994224 
L 519.691866 433.77492 
L 521.29378 435.281152 
L 522.895694 436.557069 
L 524.497608 437.638264 
L 526.099522 438.553502 
L 529.303349 439.97587 
L 532.507177 440.966181 
L 535.711005 441.621116 
L 538.914833 442.008567 
L 542.11866 442.17237 
L 545.322488 442.132704 
L 551.730144 441.683848 
L 556.535885 441.242823 
L 559.739713 440.753888 
L 564.545455 439.708516 
L 567.749282 439.031551 
L 574.156938 437.998133 
L 578.962679 436.908284 
L 583.768421 435.517122 
L 586.972249 434.367407 
L 588.574163 433.618287 
L 590.176077 433.066304 
L 593.379904 432.197838 
L 598.185646 430.486641 
L 602.991388 428.446203 
L 607.797129 426.095743 
L 612.602871 423.409952 
L 615.806699 421.403911 
L 619.010526 419.197209 
L 622.214354 416.76457 
L 625.418182 414.065419 
L 628.62201 411.048758 
L 631.825837 407.656488 
L 635.029665 403.815826 
L 638.233493 399.432914 
L 641.437321 394.400896 
L 644.641148 388.56368 
L 646.243062 385.287201 
L 647.844976 381.736433 
L 649.44689 377.880763 
L 651.048804 373.683703 
L 652.650718 369.10624 
L 654.252632 364.097632 
L 655.854545 358.606037 
L 657.456459 352.572141 
L 659.058373 345.929026 
L 660.660287 338.601684 
L 662.262201 330.506773 
L 663.864115 321.552788 
L 665.466029 311.640718 
L 667.067943 300.664112 
L 668.669856 288.494285 
L 671.873684 260.830952 
L 673.475598 245.138129 
L 676.679426 210.389335 
L 681.485167 156.420433 
L 683.087081 141.140221 
L 684.688995 128.845639 
L 686.290909 120.103264 
L 687.892823 114.781119 
L 689.494737 112.071618 
L 691.096651 110.920945 
L 692.698565 110.520974 
L 694.300478 110.494191 
L 695.902392 110.819276 
L 697.504306 111.77032 
L 699.10622 114.001383 
L 700.708134 118.38448 
L 702.310048 125.623004 
L 703.911962 135.8918 
L 705.513876 148.787599 
L 708.717703 179.313664 
L 711.921531 211.039754 
L 715.125359 240.09218 
L 716.727273 253.096042 
L 718.329187 265.012275 
L 719.9311 275.85917 
L 721.533014 285.686147 
L 723.134928 294.561014 
L 724.736842 302.564437 
L 726.338756 309.788101 
L 727.94067 316.327946 
L 729.542584 322.322213 
L 731.144498 327.77042 
L 732.746411 332.711525 
L 734.348325 337.179137 
L 735.950239 341.211516 
L 737.552153 344.846703 
L 739.154067 348.119112 
L 740.755981 351.057775 
L 742.357895 353.685262 
L 743.959809 356.016466 
L 745.561722 358.056129 
L 747.163636 359.792594 
L 747.163636 359.792594 
" clip-path="url(#p1ca86d0ebf)" style="fill: none; stroke: #0000ff; stroke-width: 1.5; stroke-linecap: square"/>
   </g>
   <g id="patch_3">
    <path d="M 108 512.64 
L 108 69.12 
" style="fill: none; stroke: #000000; stroke-width: 0.8; stroke-linejoin: miter; stroke-linecap: square"/>
   </g>
   <g id="patch_4">
    <path d="M 777.6 512.64 
L 777.6 69.12 
" style="fill: none; stroke: #000000; stroke-width: 0.8; stroke-linejoin: miter; stroke-linecap: square"/>
   </g>
   <g id="patch_5">
    <path d="M 108 512.64 
L 777.6 512.64 
" style="fill: none; stroke: #000000; stroke-width: 0.8; stroke-linejoin: miter; stroke-linecap: square"/>
   </g>
   <g id="patch_6">
    <path d="M 108 69.12 
L 777.6 69.12 
" style="fill: none; stroke: #000000; stroke-width: 0.8; stroke-linejoin: miter; stroke-linecap: square"/>
   </g>
   <g id="text_17">
    <!-- All Model -->
    <g transform="translate(415.439063 63.12) scale(0.12 -0.12)">
     <defs>
      <path id="DejaVuSans-41" d="M 2188 4044 
L 1331 1722 
L 3047 1722 
L 2188 4044 
z
M 1831 4666 
L 2547 4666 
L 4325 0 
L 3669 0 
L 3244 1197 
L 1141 1197 
L 716 0 
L 50 0 
L 1831 4666 
z
" transform="scale(0.015625)"/>
      <path id="DejaVuSans-6c" d="M 603 4863 
L 1178 4863 
L 1178 0 
L 603 0 
L 603 4863 
z
" transform="scale(0.015625)"/>
      <path id="DejaVuSans-4d" d="M 628 4666 
L 1569 4666 
L 2759 1491 
L 3956 4666 
L 4897 4666 
L 4897 0 
L 4281 0 
L 4281 4097 
L 3078 897 
L 2444 897 
L 1241 4097 
L 1241 0 
L 628 0 
L 628 4666 
z
" transform="scale(0.015625)"/>
      <path id="DejaVuSans-6f" d="M 1959 3097 
Q 1497 3097 1228 2736 
Q 959 2375 959 1747 
Q 959 1119 1226 758 
Q 1494 397 1959 397 
Q 2419 397 2687 759 
Q 2956 1122 2956 1747 
Q 2956 2369 2687 2733 
Q 2419 3097 1959 3097 
z
M 1959 3584 
Q 2709 3584 3137 3096 
Q 3566 2609 3566 1747 
Q 3566 888 3137 398 
Q 2709 -91 1959 -91 
Q 1206 -91 779 398 
Q 353 888 353 1747 
Q 353 2609 779 3096 
Q 1206 3584 1959 3584 
z
" transform="scale(0.015625)"/>
      <path id="DejaVuSans-64" d="M 2906 2969 
L 2906 4863 
L 3481 4863 
L 3481 0 
L 2906 0 
L 2906 525 
Q 2725 213 2448 61 
Q 2172 -91 1784 -91 
Q 1150 -91 751 415 
Q 353 922 353 1747 
Q 353 2572 751 3078 
Q 1150 3584 1784 3584 
Q 2172 3584 2448 3432 
Q 2725 3281 2906 2969 
z
M 947 1747 
Q 947 1113 1208 752 
Q 1469 391 1925 391 
Q 2381 391 2643 752 
Q 2906 1113 2906 1747 
Q 2906 2381 2643 2742 
Q 2381 3103 1925 3103 
Q 1469 3103 1208 2742 
Q 947 2381 947 1747 
z
" transform="scale(0.015625)"/>
     </defs>
     <use xlink:href="#DejaVuSans-41"/>
     <use xlink:href="#DejaVuSans-6c" transform="translate(68.408203 0)"/>
     <use xlink:href="#DejaVuSans-6c" transform="translate(96.191406 0)"/>
     <use xlink:href="#DejaVuSans-20" transform="translate(123.974609 0)"/>
     <use xlink:href="#DejaVuSans-4d" transform="translate(155.761719 0)"/>
     <use xlink:href="#DejaVuSans-6f" transform="translate(242.041016 0)"/>
     <use xlink:href="#DejaVuSans-64" transform="translate(303.222656 0)"/>
     <use xlink:href="#DejaVuSans-65" transform="translate(366.699219 0)"/>
     <use xlink:href="#DejaVuSans-6c" transform="translate(428.222656 0)"/>
    </g>
   </g>
   <g id="legend_1">
    <g id="patch_7">
     <path d="M 515.992188 507.64 
L 770.6 507.64 
Q 772.6 507.64 772.6 505.64 
L 772.6 476.7275 
Q 772.6 474.7275 770.6 474.7275 
L 515.992188 474.7275 
Q 513.992188 474.7275 513.992188 476.7275 
L 513.992188 505.64 
Q 513.992188 507.64 515.992188 507.64 
z
" style="fill: #ffffff; opacity: 0.8; stroke: #cccccc; stroke-linejoin: miter"/>
    </g>
    <g id="line2d_17">
     <path d="M 517.992188 482.825938 
L 527.992188 482.825938 
L 537.992188 482.825938 
" style="fill: none; stroke: #ff0000; stroke-width: 1.5; stroke-linecap: square"/>
    </g>
    <g id="text_18">
     <!-- midlatitude_winter:(PWV:8.65 mm;30.0 deg) -->
     <g transform="translate(545.992188 486.325938) scale(0.1 -0.1)">
      <defs>
       <path id="DejaVuSans-6d" d="M 3328 2828 
Q 3544 3216 3844 3400 
Q 4144 3584 4550 3584 
Q 5097 3584 5394 3201 
Q 5691 2819 5691 2113 
L 5691 0 
L 5113 0 
L 5113 2094 
Q 5113 2597 4934 2840 
Q 4756 3084 4391 3084 
Q 3944 3084 3684 2787 
Q 3425 2491 3425 1978 
L 3425 0 
L 2847 0 
L 2847 2094 
Q 2847 2600 2669 2842 
Q 2491 3084 2119 3084 
Q 1678 3084 1418 2786 
Q 1159 2488 1159 1978 
L 1159 0 
L 581 0 
L 581 3500 
L 1159 3500 
L 1159 2956 
Q 1356 3278 1631 3431 
Q 1906 3584 2284 3584 
Q 2666 3584 2933 3390 
Q 3200 3197 3328 2828 
z
" transform="scale(0.015625)"/>
       <path id="DejaVuSans-69" d="M 603 3500 
L 1178 3500 
L 1178 0 
L 603 0 
L 603 3500 
z
M 603 4863 
L 1178 4863 
L 1178 4134 
L 603 4134 
L 603 4863 
z
" transform="scale(0.015625)"/>
       <path id="DejaVuSans-61" d="M 2194 1759 
Q 1497 1759 1228 1600 
Q 959 1441 959 1056 
Q 959 750 1161 570 
Q 1363 391 1709 391 
Q 2188 391 2477 730 
Q 2766 1069 2766 1631 
L 2766 1759 
L 2194 1759 
z
M 3341 1997 
L 3341 0 
L 2766 0 
L 2766 531 
Q 2569 213 2275 61 
Q 1981 -91 1556 -91 
Q 1019 -91 701 211 
Q 384 513 384 1019 
Q 384 1609 779 1909 
Q 1175 2209 1959 2209 
L 2766 2209 
L 2766 2266 
Q 2766 2663 2505 2880 
Q 2244 3097 1772 3097 
Q 1472 3097 1187 3025 
Q 903 2953 641 2809 
L 641 3341 
Q 956 3463 1253 3523 
Q 1550 3584 1831 3584 
Q 2591 3584 2966 3190 
Q 3341 2797 3341 1997 
z
" transform="scale(0.015625)"/>
       <path id="DejaVuSans-74" d="M 1172 4494 
L 1172 3500 
L 2356 3500 
L 2356 3053 
L 1172 3053 
L 1172 1153 
Q 1172 725 1289 603 
Q 1406 481 1766 481 
L 2356 481 
L 2356 0 
L 1766 0 
Q 1100 0 847 248 
Q 594 497 594 1153 
L 594 3053 
L 172 3053 
L 172 3500 
L 594 3500 
L 594 4494 
L 1172 4494 
z
" transform="scale(0.015625)"/>
       <path id="DejaVuSans-77" d="M 269 3500 
L 844 3500 
L 1563 769 
L 2278 3500 
L 2956 3500 
L 3675 769 
L 4391 3500 
L 4966 3500 
L 4050 0 
L 3372 0 
L 2619 2869 
L 1863 0 
L 1184 0 
L 269 3500 
z
" transform="scale(0.015625)"/>
       <path id="DejaVuSans-3a" d="M 750 794 
L 1409 794 
L 1409 0 
L 750 0 
L 750 794 
z
M 750 3309 
L 1409 3309 
L 1409 2516 
L 750 2516 
L 750 3309 
z
" transform="scale(0.015625)"/>
       <path id="DejaVuSans-50" d="M 1259 4147 
L 1259 2394 
L 2053 2394 
Q 2494 2394 2734 2622 
Q 2975 2850 2975 3272 
Q 2975 3691 2734 3919 
Q 2494 4147 2053 4147 
L 1259 4147 
z
M 628 4666 
L 2053 4666 
Q 2838 4666 3239 4311 
Q 3641 3956 3641 3272 
Q 3641 2581 3239 2228 
Q 2838 1875 2053 1875 
L 1259 1875 
L 1259 0 
L 628 0 
L 628 4666 
z
" transform="scale(0.015625)"/>
       <path id="DejaVuSans-57" d="M 213 4666 
L 850 4666 
L 1831 722 
L 2809 4666 
L 3519 4666 
L 4500 722 
L 5478 4666 
L 6119 4666 
L 4947 0 
L 4153 0 
L 3169 4050 
L 2175 0 
L 1381 0 
L 213 4666 
z
" transform="scale(0.015625)"/>
       <path id="DejaVuSans-56" d="M 1831 0 
L 50 4666 
L 709 4666 
L 2188 738 
L 3669 4666 
L 4325 4666 
L 2547 0 
L 1831 0 
z
" transform="scale(0.015625)"/>
       <path id="DejaVuSans-38" d="M 2034 2216 
Q 1584 2216 1326 1975 
Q 1069 1734 1069 1313 
Q 1069 891 1326 650 
Q 1584 409 2034 409 
Q 2484 409 2743 651 
Q 3003 894 3003 1313 
Q 3003 1734 2745 1975 
Q 2488 2216 2034 2216 
z
M 1403 2484 
Q 997 2584 770 2862 
Q 544 3141 544 3541 
Q 544 4100 942 4425 
Q 1341 4750 2034 4750 
Q 2731 4750 3128 4425 
Q 3525 4100 3525 3541 
Q 3525 3141 3298 2862 
Q 3072 2584 2669 2484 
Q 3125 2378 3379 2068 
Q 3634 1759 3634 1313 
Q 3634 634 3220 271 
Q 2806 -91 2034 -91 
Q 1263 -91 848 271 
Q 434 634 434 1313 
Q 434 1759 690 2068 
Q 947 2378 1403 2484 
z
M 1172 3481 
Q 1172 3119 1398 2916 
Q 1625 2713 2034 2713 
Q 2441 2713 2670 2916 
Q 2900 3119 2900 3481 
Q 2900 3844 2670 4047 
Q 2441 4250 2034 4250 
Q 1625 4250 1398 4047 
Q 1172 3844 1172 3481 
z
" transform="scale(0.015625)"/>
       <path id="DejaVuSans-2e" d="M 684 794 
L 1344 794 
L 1344 0 
L 684 0 
L 684 794 
z
" transform="scale(0.015625)"/>
       <path id="DejaVuSans-36" d="M 2113 2584 
Q 1688 2584 1439 2293 
Q 1191 2003 1191 1497 
Q 1191 994 1439 701 
Q 1688 409 2113 409 
Q 2538 409 2786 701 
Q 3034 994 3034 1497 
Q 3034 2003 2786 2293 
Q 2538 2584 2113 2584 
z
M 3366 4563 
L 3366 3988 
Q 3128 4100 2886 4159 
Q 2644 4219 2406 4219 
Q 1781 4219 1451 3797 
Q 1122 3375 1075 2522 
Q 1259 2794 1537 2939 
Q 1816 3084 2150 3084 
Q 2853 3084 3261 2657 
Q 3669 2231 3669 1497 
Q 3669 778 3244 343 
Q 2819 -91 2113 -91 
Q 1303 -91 875 529 
Q 447 1150 447 2328 
Q 447 3434 972 4092 
Q 1497 4750 2381 4750 
Q 2619 4750 2861 4703 
Q 3103 4656 3366 4563 
z
" transform="scale(0.015625)"/>
       <path id="DejaVuSans-3b" d="M 750 3309 
L 1409 3309 
L 1409 2516 
L 750 2516 
L 750 3309 
z
M 750 794 
L 1409 794 
L 1409 256 
L 897 -744 
L 494 -744 
L 750 256 
L 750 794 
z
" transform="scale(0.015625)"/>
       <path id="DejaVuSans-33" d="M 2597 2516 
Q 3050 2419 3304 2112 
Q 3559 1806 3559 1356 
Q 3559 666 3084 287 
Q 2609 -91 1734 -91 
Q 1441 -91 1130 -33 
Q 819 25 488 141 
L 488 750 
Q 750 597 1062 519 
Q 1375 441 1716 441 
Q 2309 441 2620 675 
Q 2931 909 2931 1356 
Q 2931 1769 2642 2001 
Q 2353 2234 1838 2234 
L 1294 2234 
L 1294 2753 
L 1863 2753 
Q 2328 2753 2575 2939 
Q 2822 3125 2822 3475 
Q 2822 3834 2567 4026 
Q 2313 4219 1838 4219 
Q 1578 4219 1281 4162 
Q 984 4106 628 3988 
L 628 4550 
Q 988 4650 1302 4700 
Q 1616 4750 1894 4750 
Q 2613 4750 3031 4423 
Q 3450 4097 3450 3541 
Q 3450 3153 3228 2886 
Q 3006 2619 2597 2516 
z
" transform="scale(0.015625)"/>
       <path id="DejaVuSans-67" d="M 2906 1791 
Q 2906 2416 2648 2759 
Q 2391 3103 1925 3103 
Q 1463 3103 1205 2759 
Q 947 2416 947 1791 
Q 947 1169 1205 825 
Q 1463 481 1925 481 
Q 2391 481 2648 825 
Q 2906 1169 2906 1791 
z
M 3481 434 
Q 3481 -459 3084 -895 
Q 2688 -1331 1869 -1331 
Q 1566 -1331 1297 -1286 
Q 1028 -1241 775 -1147 
L 775 -588 
Q 1028 -725 1275 -790 
Q 1522 -856 1778 -856 
Q 2344 -856 2625 -561 
Q 2906 -266 2906 331 
L 2906 616 
Q 2728 306 2450 153 
Q 2172 0 1784 0 
Q 1141 0 747 490 
Q 353 981 353 1791 
Q 353 2603 747 3093 
Q 1141 3584 1784 3584 
Q 2172 3584 2450 3431 
Q 2728 3278 2906 2969 
L 2906 3500 
L 3481 3500 
L 3481 434 
z
" transform="scale(0.015625)"/>
      </defs>
      <use xlink:href="#DejaVuSans-6d"/>
      <use xlink:href="#DejaVuSans-69" transform="translate(97.412109 0)"/>
      <use xlink:href="#DejaVuSans-64" transform="translate(125.195312 0)"/>
      <use xlink:href="#DejaVuSans-6c" transform="translate(188.671875 0)"/>
      <use xlink:href="#DejaVuSans-61" transform="translate(216.455078 0)"/>
      <use xlink:href="#DejaVuSans-74" transform="translate(277.734375 0)"/>
      <use xlink:href="#DejaVuSans-69" transform="translate(316.943359 0)"/>
      <use xlink:href="#DejaVuSans-74" transform="translate(344.726562 0)"/>
      <use xlink:href="#DejaVuSans-75" transform="translate(383.935547 0)"/>
      <use xlink:href="#DejaVuSans-64" transform="translate(447.314453 0)"/>
      <use xlink:href="#DejaVuSans-65" transform="translate(510.791016 0)"/>
      <use xlink:href="#DejaVuSans-5f" transform="translate(572.314453 0)"/>
      <use xlink:href="#DejaVuSans-77" transform="translate(622.314453 0)"/>
      <use xlink:href="#DejaVuSans-69" transform="translate(704.101562 0)"/>
      <use xlink:href="#DejaVuSans-6e" transform="translate(731.884766 0)"/>
      <use xlink:href="#DejaVuSans-74" transform="translate(795.263672 0)"/>
      <use xlink:href="#DejaVuSans-65" transform="translate(834.472656 0)"/>
      <use xlink:href="#DejaVuSans-72" transform="translate(895.996094 0)"/>
      <use xlink:href="#DejaVuSans-3a" transform="translate(935.359375 0)"/>
      <use xlink:href="#DejaVuSans-28" transform="translate(969.050781 0)"/>
      <use xlink:href="#DejaVuSans-50" transform="translate(1008.064453 0)"/>
      <use xlink:href="#DejaVuSans-57" transform="translate(1068.367188 0)"/>
      <use xlink:href="#DejaVuSans-56" transform="translate(1167.244141 0)"/>
      <use xlink:href="#DejaVuSans-3a" transform="translate(1227.527344 0)"/>
      <use xlink:href="#DejaVuSans-38" transform="translate(1261.21875 0)"/>
      <use xlink:href="#DejaVuSans-2e" transform="translate(1324.841797 0)"/>
      <use xlink:href="#DejaVuSans-36" transform="translate(1356.628906 0)"/>
      <use xlink:href="#DejaVuSans-35" transform="translate(1420.251953 0)"/>
      <use xlink:href="#DejaVuSans-20" transform="translate(1483.875 0)"/>
      <use xlink:href="#DejaVuSans-6d" transform="translate(1515.662109 0)"/>
      <use xlink:href="#DejaVuSans-6d" transform="translate(1613.074219 0)"/>
      <use xlink:href="#DejaVuSans-3b" transform="translate(1710.486328 0)"/>
      <use xlink:href="#DejaVuSans-33" transform="translate(1744.177734 0)"/>
      <use xlink:href="#DejaVuSans-30" transform="translate(1807.800781 0)"/>
      <use xlink:href="#DejaVuSans-2e" transform="translate(1871.423828 0)"/>
      <use xlink:href="#DejaVuSans-30" transform="translate(1903.210938 0)"/>
      <use xlink:href="#DejaVuSans-20" transform="translate(1966.833984 0)"/>
      <use xlink:href="#DejaVuSans-64" transform="translate(1998.621094 0)"/>
      <use xlink:href="#DejaVuSans-65" transform="translate(2062.097656 0)"/>
      <use xlink:href="#DejaVuSans-67" transform="translate(2123.621094 0)"/>
      <use xlink:href="#DejaVuSans-29" transform="translate(2187.097656 0)"/>
     </g>
    </g>
    <g id="line2d_18">
     <path d="M 517.992188 497.782188 
L 527.992188 497.782188 
L 537.992188 497.782188 
" style="fill: none; stroke: #0000ff; stroke-width: 1.5; stroke-linecap: square"/>
    </g>
    <g id="text_19">
     <!-- subarctic_winter:(PWV:4.21 mm;30.0 deg) -->
     <g transform="translate(545.992188 501.282188) scale(0.1 -0.1)">
      <defs>
       <path id="DejaVuSans-73" d="M 2834 3397 
L 2834 2853 
Q 2591 2978 2328 3040 
Q 2066 3103 1784 3103 
Q 1356 3103 1142 2972 
Q 928 2841 928 2578 
Q 928 2378 1081 2264 
Q 1234 2150 1697 2047 
L 1894 2003 
Q 2506 1872 2764 1633 
Q 3022 1394 3022 966 
Q 3022 478 2636 193 
Q 2250 -91 1575 -91 
Q 1294 -91 989 -36 
Q 684 19 347 128 
L 347 722 
Q 666 556 975 473 
Q 1284 391 1588 391 
Q 1994 391 2212 530 
Q 2431 669 2431 922 
Q 2431 1156 2273 1281 
Q 2116 1406 1581 1522 
L 1381 1569 
Q 847 1681 609 1914 
Q 372 2147 372 2553 
Q 372 3047 722 3315 
Q 1072 3584 1716 3584 
Q 2034 3584 2315 3537 
Q 2597 3491 2834 3397 
z
" transform="scale(0.015625)"/>
       <path id="DejaVuSans-34" d="M 2419 4116 
L 825 1625 
L 2419 1625 
L 2419 4116 
z
M 2253 4666 
L 3047 4666 
L 3047 1625 
L 3713 1625 
L 3713 1100 
L 3047 1100 
L 3047 0 
L 2419 0 
L 2419 1100 
L 313 1100 
L 313 1709 
L 2253 4666 
z
" transform="scale(0.015625)"/>
      </defs>
      <use xlink:href="#DejaVuSans-73"/>
      <use xlink:href="#DejaVuSans-75" transform="translate(52.099609 0)"/>
      <use xlink:href="#DejaVuSans-62" transform="translate(115.478516 0)"/>
      <use xlink:href="#DejaVuSans-61" transform="translate(178.955078 0)"/>
      <use xlink:href="#DejaVuSans-72" transform="translate(240.234375 0)"/>
      <use xlink:href="#DejaVuSans-63" transform="translate(279.097656 0)"/>
      <use xlink:href="#DejaVuSans-74" transform="translate(334.078125 0)"/>
      <use xlink:href="#DejaVuSans-69" transform="translate(373.287109 0)"/>
      <use xlink:href="#DejaVuSans-63" transform="translate(401.070312 0)"/>
      <use xlink:href="#DejaVuSans-5f" transform="translate(456.050781 0)"/>
      <use xlink:href="#DejaVuSans-77" transform="translate(506.050781 0)"/>
      <use xlink:href="#DejaVuSans-69" transform="translate(587.837891 0)"/>
      <use xlink:href="#DejaVuSans-6e" transform="translate(615.621094 0)"/>
      <use xlink:href="#DejaVuSans-74" transform="translate(679 0)"/>
      <use xlink:href="#DejaVuSans-65" transform="translate(718.208984 0)"/>
      <use xlink:href="#DejaVuSans-72" transform="translate(779.732422 0)"/>
      <use xlink:href="#DejaVuSans-3a" transform="translate(819.095703 0)"/>
      <use xlink:href="#DejaVuSans-28" transform="translate(852.787109 0)"/>
      <use xlink:href="#DejaVuSans-50" transform="translate(891.800781 0)"/>
      <use xlink:href="#DejaVuSans-57" transform="translate(952.103516 0)"/>
      <use xlink:href="#DejaVuSans-56" transform="translate(1050.980469 0)"/>
      <use xlink:href="#DejaVuSans-3a" transform="translate(1111.263672 0)"/>
      <use xlink:href="#DejaVuSans-34" transform="translate(1144.955078 0)"/>
      <use xlink:href="#DejaVuSans-2e" transform="translate(1208.578125 0)"/>
      <use xlink:href="#DejaVuSans-32" transform="translate(1240.365234 0)"/>
      <use xlink:href="#DejaVuSans-31" transform="translate(1303.988281 0)"/>
      <use xlink:href="#DejaVuSans-20" transform="translate(1367.611328 0)"/>
      <use xlink:href="#DejaVuSans-6d" transform="translate(1399.398438 0)"/>
      <use xlink:href="#DejaVuSans-6d" transform="translate(1496.810547 0)"/>
      <use xlink:href="#DejaVuSans-3b" transform="translate(1594.222656 0)"/>
      <use xlink:href="#DejaVuSans-33" transform="translate(1627.914062 0)"/>
      <use xlink:href="#DejaVuSans-30" transform="translate(1691.537109 0)"/>
      <use xlink:href="#DejaVuSans-2e" transform="translate(1755.160156 0)"/>
      <use xlink:href="#DejaVuSans-30" transform="translate(1786.947266 0)"/>
      <use xlink:href="#DejaVuSans-20" transform="translate(1850.570312 0)"/>
      <use xlink:href="#DejaVuSans-64" transform="translate(1882.357422 0)"/>
      <use xlink:href="#DejaVuSans-65" transform="translate(1945.833984 0)"/>
      <use xlink:href="#DejaVuSans-67" transform="translate(2007.357422 0)"/>
      <use xlink:href="#DejaVuSans-29" transform="translate(2070.833984 0)"/>
     </g>
    </g>
   </g>
  </g>
 </g>
 <defs>
  <clipPath id="p1ca86d0ebf">
   <rect x="108" y="69.12" width="669.6" height="443.52"/>
  </clipPath>
 </defs>
</svg>
