<?xml version="1.0" encoding="utf-8" standalone="no"?>
<!DOCTYPE svg PUBLIC "-//W3C//DTD SVG 1.1//EN"
  "http://www.w3.org/Graphics/SVG/1.1/DTD/svg11.dtd">
<svg xmlns:xlink="http://www.w3.org/1999/xlink" width="864pt" height="576pt" viewBox="0 0 864 576" xmlns="http://www.w3.org/2000/svg" version="1.1">
 <metadata>
  <rdf:RDF xmlns:dc="http://purl.org/dc/elements/1.1/" xmlns:cc="http://creativecommons.org/ns#" xmlns:rdf="http://www.w3.org/1999/02/22-rdf-syntax-ns#">
   <cc:Work>
    <dc:type rdf:resource="http://purl.org/dc/dcmitype/StillImage"/>
    <dc:date>2025-06-09T16:25:24.940165</dc:date>
    <dc:format>image/svg+xml</dc:format>
    <dc:creator>
     <cc:Agent>
      <dc:title>Matplotlib v3.10.3, https://matplotlib.org/</dc:title>
     </cc:Agent>
    </dc:creator>
   </cc:Work>
  </rdf:RDF>
 </metadata>
 <defs>
  <style type="text/css">*{stroke-linejoin: round; stroke-linecap: butt}</style>
 </defs>
 <g id="figure_1">
  <g id="patch_1">
   <path d="M 0 576 
L 864 576 
L 864 0 
L 0 0 
z
" style="fill: #ffffff"/>
  </g>
  <g id="axes_1">
   <g id="patch_2">
    <path d="M 108 512.64 
L 777.6 512.64 
L 777.6 69.12 
L 108 69.12 
z
" style="fill: #ffffff"/>
   </g>
   <g id="matplotlib.axis_1">
    <g id="xtick_1">
     <g id="line2d_1">
      <defs>
       <path id="m4f4c2ccaae" d="M 0 0 
L 0 3.5 
" style="stroke: #000000; stroke-width: 0.8"/>
      </defs>
      <g>
       <use xlink:href="#m4f4c2ccaae" x="186.49378" y="512.64" style="stroke: #000000; stroke-width: 0.8"/>
      </g>
     </g>
     <g id="text_1">
      <!-- 25 -->
      <g transform="translate(180.13128 527.238438) scale(0.1 -0.1)">
       <defs>
        <path id="DejaVuSans-32" d="M 1228 531 
L 3431 531 
L 3431 0 
L 469 0 
L 469 531 
Q 828 903 1448 1529 
Q 2069 2156 2228 2338 
Q 2531 2678 2651 2914 
Q 2772 3150 2772 3378 
Q 2772 3750 2511 3984 
Q 2250 4219 1831 4219 
Q 1534 4219 1204 4116 
Q 875 4013 500 3803 
L 500 4441 
Q 881 4594 1212 4672 
Q 1544 4750 1819 4750 
Q 2544 4750 2975 4387 
Q 3406 4025 3406 3419 
Q 3406 3131 3298 2873 
Q 3191 2616 2906 2266 
Q 2828 2175 2409 1742 
Q 1991 1309 1228 531 
z
" transform="scale(0.015625)"/>
        <path id="DejaVuSans-35" d="M 691 4666 
L 3169 4666 
L 3169 4134 
L 1269 4134 
L 1269 2991 
Q 1406 3038 1543 3061 
Q 1681 3084 1819 3084 
Q 2600 3084 3056 2656 
Q 3513 2228 3513 1497 
Q 3513 744 3044 326 
Q 2575 -91 1722 -91 
Q 1428 -91 1123 -41 
Q 819 9 494 109 
L 494 744 
Q 775 591 1075 516 
Q 1375 441 1709 441 
Q 2250 441 2565 725 
Q 2881 1009 2881 1497 
Q 2881 1984 2565 2268 
Q 2250 2553 1709 2553 
Q 1456 2553 1204 2497 
Q 953 2441 691 2322 
L 691 4666 
z
" transform="scale(0.015625)"/>
       </defs>
       <use xlink:href="#DejaVuSans-32"/>
       <use xlink:href="#DejaVuSans-35" transform="translate(63.623047 0)"/>
      </g>
     </g>
    </g>
    <g id="xtick_2">
     <g id="line2d_2">
      <g>
       <use xlink:href="#m4f4c2ccaae" x="266.589474" y="512.64" style="stroke: #000000; stroke-width: 0.8"/>
      </g>
     </g>
     <g id="text_2">
      <!-- 50 -->
      <g transform="translate(260.226974 527.238438) scale(0.1 -0.1)">
       <defs>
        <path id="DejaVuSans-30" d="M 2034 4250 
Q 1547 4250 1301 3770 
Q 1056 3291 1056 2328 
Q 1056 1369 1301 889 
Q 1547 409 2034 409 
Q 2525 409 2770 889 
Q 3016 1369 3016 2328 
Q 3016 3291 2770 3770 
Q 2525 4250 2034 4250 
z
M 2034 4750 
Q 2819 4750 3233 4129 
Q 3647 3509 3647 2328 
Q 3647 1150 3233 529 
Q 2819 -91 2034 -91 
Q 1250 -91 836 529 
Q 422 1150 422 2328 
Q 422 3509 836 4129 
Q 1250 4750 2034 4750 
z
" transform="scale(0.015625)"/>
       </defs>
       <use xlink:href="#DejaVuSans-35"/>
       <use xlink:href="#DejaVuSans-30" transform="translate(63.623047 0)"/>
      </g>
     </g>
    </g>
    <g id="xtick_3">
     <g id="line2d_3">
      <g>
       <use xlink:href="#m4f4c2ccaae" x="346.685167" y="512.64" style="stroke: #000000; stroke-width: 0.8"/>
      </g>
     </g>
     <g id="text_3">
      <!-- 75 -->
      <g transform="translate(340.322667 527.238438) scale(0.1 -0.1)">
       <defs>
        <path id="DejaVuSans-37" d="M 525 4666 
L 3525 4666 
L 3525 4397 
L 1831 0 
L 1172 0 
L 2766 4134 
L 525 4134 
L 525 4666 
z
" transform="scale(0.015625)"/>
       </defs>
       <use xlink:href="#DejaVuSans-37"/>
       <use xlink:href="#DejaVuSans-35" transform="translate(63.623047 0)"/>
      </g>
     </g>
    </g>
    <g id="xtick_4">
     <g id="line2d_4">
      <g>
       <use xlink:href="#m4f4c2ccaae" x="426.780861" y="512.64" style="stroke: #000000; stroke-width: 0.8"/>
      </g>
     </g>
     <g id="text_4">
      <!-- 100 -->
      <g transform="translate(417.237111 527.238438) scale(0.1 -0.1)">
       <defs>
        <path id="DejaVuSans-31" d="M 794 531 
L 1825 531 
L 1825 4091 
L 703 3866 
L 703 4441 
L 1819 4666 
L 2450 4666 
L 2450 531 
L 3481 531 
L 3481 0 
L 794 0 
L 794 531 
z
" transform="scale(0.015625)"/>
       </defs>
       <use xlink:href="#DejaVuSans-31"/>
       <use xlink:href="#DejaVuSans-30" transform="translate(63.623047 0)"/>
       <use xlink:href="#DejaVuSans-30" transform="translate(127.246094 0)"/>
      </g>
     </g>
    </g>
    <g id="xtick_5">
     <g id="line2d_5">
      <g>
       <use xlink:href="#m4f4c2ccaae" x="506.876555" y="512.64" style="stroke: #000000; stroke-width: 0.8"/>
      </g>
     </g>
     <g id="text_5">
      <!-- 125 -->
      <g transform="translate(497.332805 527.238438) scale(0.1 -0.1)">
       <use xlink:href="#DejaVuSans-31"/>
       <use xlink:href="#DejaVuSans-32" transform="translate(63.623047 0)"/>
       <use xlink:href="#DejaVuSans-35" transform="translate(127.246094 0)"/>
      </g>
     </g>
    </g>
    <g id="xtick_6">
     <g id="line2d_6">
      <g>
       <use xlink:href="#m4f4c2ccaae" x="586.972249" y="512.64" style="stroke: #000000; stroke-width: 0.8"/>
      </g>
     </g>
     <g id="text_6">
      <!-- 150 -->
      <g transform="translate(577.428499 527.238438) scale(0.1 -0.1)">
       <use xlink:href="#DejaVuSans-31"/>
       <use xlink:href="#DejaVuSans-35" transform="translate(63.623047 0)"/>
       <use xlink:href="#DejaVuSans-30" transform="translate(127.246094 0)"/>
      </g>
     </g>
    </g>
    <g id="xtick_7">
     <g id="line2d_7">
      <g>
       <use xlink:href="#m4f4c2ccaae" x="667.067943" y="512.64" style="stroke: #000000; stroke-width: 0.8"/>
      </g>
     </g>
     <g id="text_7">
      <!-- 175 -->
      <g transform="translate(657.524193 527.238438) scale(0.1 -0.1)">
       <use xlink:href="#DejaVuSans-31"/>
       <use xlink:href="#DejaVuSans-37" transform="translate(63.623047 0)"/>
       <use xlink:href="#DejaVuSans-35" transform="translate(127.246094 0)"/>
      </g>
     </g>
    </g>
    <g id="xtick_8">
     <g id="line2d_8">
      <g>
       <use xlink:href="#m4f4c2ccaae" x="747.163636" y="512.64" style="stroke: #000000; stroke-width: 0.8"/>
      </g>
     </g>
     <g id="text_8">
      <!-- 200 -->
      <g transform="translate(737.619886 527.238438) scale(0.1 -0.1)">
       <use xlink:href="#DejaVuSans-32"/>
       <use xlink:href="#DejaVuSans-30" transform="translate(63.623047 0)"/>
       <use xlink:href="#DejaVuSans-30" transform="translate(127.246094 0)"/>
      </g>
     </g>
    </g>
    <g id="text_9">
     <!-- frequency (GHz) -->
     <g transform="translate(401.974219 540.916563) scale(0.1 -0.1)">
      <defs>
       <path id="DejaVuSans-66" d="M 2375 4863 
L 2375 4384 
L 1825 4384 
Q 1516 4384 1395 4259 
Q 1275 4134 1275 3809 
L 1275 3500 
L 2222 3500 
L 2222 3053 
L 1275 3053 
L 1275 0 
L 697 0 
L 697 3053 
L 147 3053 
L 147 3500 
L 697 3500 
L 697 3744 
Q 697 4328 969 4595 
Q 1241 4863 1831 4863 
L 2375 4863 
z
" transform="scale(0.015625)"/>
       <path id="DejaVuSans-72" d="M 2631 2963 
Q 2534 3019 2420 3045 
Q 2306 3072 2169 3072 
Q 1681 3072 1420 2755 
Q 1159 2438 1159 1844 
L 1159 0 
L 581 0 
L 581 3500 
L 1159 3500 
L 1159 2956 
Q 1341 3275 1631 3429 
Q 1922 3584 2338 3584 
Q 2397 3584 2469 3576 
Q 2541 3569 2628 3553 
L 2631 2963 
z
" transform="scale(0.015625)"/>
       <path id="DejaVuSans-65" d="M 3597 1894 
L 3597 1613 
L 953 1613 
Q 991 1019 1311 708 
Q 1631 397 2203 397 
Q 2534 397 2845 478 
Q 3156 559 3463 722 
L 3463 178 
Q 3153 47 2828 -22 
Q 2503 -91 2169 -91 
Q 1331 -91 842 396 
Q 353 884 353 1716 
Q 353 2575 817 3079 
Q 1281 3584 2069 3584 
Q 2775 3584 3186 3129 
Q 3597 2675 3597 1894 
z
M 3022 2063 
Q 3016 2534 2758 2815 
Q 2500 3097 2075 3097 
Q 1594 3097 1305 2825 
Q 1016 2553 972 2059 
L 3022 2063 
z
" transform="scale(0.015625)"/>
       <path id="DejaVuSans-71" d="M 947 1747 
Q 947 1113 1208 752 
Q 1469 391 1925 391 
Q 2381 391 2643 752 
Q 2906 1113 2906 1747 
Q 2906 2381 2643 2742 
Q 2381 3103 1925 3103 
Q 1469 3103 1208 2742 
Q 947 2381 947 1747 
z
M 2906 525 
Q 2725 213 2448 61 
Q 2172 -91 1784 -91 
Q 1150 -91 751 415 
Q 353 922 353 1747 
Q 353 2572 751 3078 
Q 1150 3584 1784 3584 
Q 2172 3584 2448 3432 
Q 2725 3281 2906 2969 
L 2906 3500 
L 3481 3500 
L 3481 -1331 
L 2906 -1331 
L 2906 525 
z
" transform="scale(0.015625)"/>
       <path id="DejaVuSans-75" d="M 544 1381 
L 544 3500 
L 1119 3500 
L 1119 1403 
Q 1119 906 1312 657 
Q 1506 409 1894 409 
Q 2359 409 2629 706 
Q 2900 1003 2900 1516 
L 2900 3500 
L 3475 3500 
L 3475 0 
L 2900 0 
L 2900 538 
Q 2691 219 2414 64 
Q 2138 -91 1772 -91 
Q 1169 -91 856 284 
Q 544 659 544 1381 
z
M 1991 3584 
L 1991 3584 
z
" transform="scale(0.015625)"/>
       <path id="DejaVuSans-6e" d="M 3513 2113 
L 3513 0 
L 2938 0 
L 2938 2094 
Q 2938 2591 2744 2837 
Q 2550 3084 2163 3084 
Q 1697 3084 1428 2787 
Q 1159 2491 1159 1978 
L 1159 0 
L 581 0 
L 581 3500 
L 1159 3500 
L 1159 2956 
Q 1366 3272 1645 3428 
Q 1925 3584 2291 3584 
Q 2894 3584 3203 3211 
Q 3513 2838 3513 2113 
z
" transform="scale(0.015625)"/>
       <path id="DejaVuSans-63" d="M 3122 3366 
L 3122 2828 
Q 2878 2963 2633 3030 
Q 2388 3097 2138 3097 
Q 1578 3097 1268 2742 
Q 959 2388 959 1747 
Q 959 1106 1268 751 
Q 1578 397 2138 397 
Q 2388 397 2633 464 
Q 2878 531 3122 666 
L 3122 134 
Q 2881 22 2623 -34 
Q 2366 -91 2075 -91 
Q 1284 -91 818 406 
Q 353 903 353 1747 
Q 353 2603 823 3093 
Q 1294 3584 2113 3584 
Q 2378 3584 2631 3529 
Q 2884 3475 3122 3366 
z
" transform="scale(0.015625)"/>
       <path id="DejaVuSans-79" d="M 2059 -325 
Q 1816 -950 1584 -1140 
Q 1353 -1331 966 -1331 
L 506 -1331 
L 506 -850 
L 844 -850 
Q 1081 -850 1212 -737 
Q 1344 -625 1503 -206 
L 1606 56 
L 191 3500 
L 800 3500 
L 1894 763 
L 2988 3500 
L 3597 3500 
L 2059 -325 
z
" transform="scale(0.015625)"/>
       <path id="DejaVuSans-20" transform="scale(0.015625)"/>
       <path id="DejaVuSans-28" d="M 1984 4856 
Q 1566 4138 1362 3434 
Q 1159 2731 1159 2009 
Q 1159 1288 1364 580 
Q 1569 -128 1984 -844 
L 1484 -844 
Q 1016 -109 783 600 
Q 550 1309 550 2009 
Q 550 2706 781 3412 
Q 1013 4119 1484 4856 
L 1984 4856 
z
" transform="scale(0.015625)"/>
       <path id="DejaVuSans-47" d="M 3809 666 
L 3809 1919 
L 2778 1919 
L 2778 2438 
L 4434 2438 
L 4434 434 
Q 4069 175 3628 42 
Q 3188 -91 2688 -91 
Q 1594 -91 976 548 
Q 359 1188 359 2328 
Q 359 3472 976 4111 
Q 1594 4750 2688 4750 
Q 3144 4750 3555 4637 
Q 3966 4525 4313 4306 
L 4313 3634 
Q 3963 3931 3569 4081 
Q 3175 4231 2741 4231 
Q 1884 4231 1454 3753 
Q 1025 3275 1025 2328 
Q 1025 1384 1454 906 
Q 1884 428 2741 428 
Q 3075 428 3337 486 
Q 3600 544 3809 666 
z
" transform="scale(0.015625)"/>
       <path id="DejaVuSans-48" d="M 628 4666 
L 1259 4666 
L 1259 2753 
L 3553 2753 
L 3553 4666 
L 4184 4666 
L 4184 0 
L 3553 0 
L 3553 2222 
L 1259 2222 
L 1259 0 
L 628 0 
L 628 4666 
z
" transform="scale(0.015625)"/>
       <path id="DejaVuSans-7a" d="M 353 3500 
L 3084 3500 
L 3084 2975 
L 922 459 
L 3084 459 
L 3084 0 
L 275 0 
L 275 525 
L 2438 3041 
L 353 3041 
L 353 3500 
z
" transform="scale(0.015625)"/>
       <path id="DejaVuSans-29" d="M 513 4856 
L 1013 4856 
Q 1481 4119 1714 3412 
Q 1947 2706 1947 2009 
Q 1947 1309 1714 600 
Q 1481 -109 1013 -844 
L 513 -844 
Q 928 -128 1133 580 
Q 1338 1288 1338 2009 
Q 1338 2731 1133 3434 
Q 928 4138 513 4856 
z
" transform="scale(0.015625)"/>
      </defs>
      <use xlink:href="#DejaVuSans-66"/>
      <use xlink:href="#DejaVuSans-72" transform="translate(35.205078 0)"/>
      <use xlink:href="#DejaVuSans-65" transform="translate(74.068359 0)"/>
      <use xlink:href="#DejaVuSans-71" transform="translate(135.591797 0)"/>
      <use xlink:href="#DejaVuSans-75" transform="translate(199.068359 0)"/>
      <use xlink:href="#DejaVuSans-65" transform="translate(262.447266 0)"/>
      <use xlink:href="#DejaVuSans-6e" transform="translate(323.970703 0)"/>
      <use xlink:href="#DejaVuSans-63" transform="translate(387.349609 0)"/>
      <use xlink:href="#DejaVuSans-79" transform="translate(442.330078 0)"/>
      <use xlink:href="#DejaVuSans-20" transform="translate(501.509766 0)"/>
      <use xlink:href="#DejaVuSans-28" transform="translate(533.296875 0)"/>
      <use xlink:href="#DejaVuSans-47" transform="translate(572.310547 0)"/>
      <use xlink:href="#DejaVuSans-48" transform="translate(649.800781 0)"/>
      <use xlink:href="#DejaVuSans-7a" transform="translate(724.996094 0)"/>
      <use xlink:href="#DejaVuSans-29" transform="translate(777.486328 0)"/>
     </g>
    </g>
   </g>
   <g id="matplotlib.axis_2">
    <g id="ytick_1">
     <g id="line2d_9">
      <defs>
       <path id="mc8c032e2f2" d="M 0 0 
L -3.5 0 
" style="stroke: #000000; stroke-width: 0.8"/>
      </defs>
      <g>
       <use xlink:href="#mc8c032e2f2" x="108" y="501.948292" style="stroke: #000000; stroke-width: 0.8"/>
      </g>
     </g>
     <g id="text_10">
      <!-- 0 -->
      <g transform="translate(94.6375 505.74751) scale(0.1 -0.1)">
       <use xlink:href="#DejaVuSans-30"/>
      </g>
     </g>
    </g>
    <g id="ytick_2">
     <g id="line2d_10">
      <g>
       <use xlink:href="#mc8c032e2f2" x="108" y="421.903645" style="stroke: #000000; stroke-width: 0.8"/>
      </g>
     </g>
     <g id="text_11">
      <!-- 50 -->
      <g transform="translate(88.275 425.702864) scale(0.1 -0.1)">
       <use xlink:href="#DejaVuSans-35"/>
       <use xlink:href="#DejaVuSans-30" transform="translate(63.623047 0)"/>
      </g>
     </g>
    </g>
    <g id="ytick_3">
     <g id="line2d_11">
      <g>
       <use xlink:href="#mc8c032e2f2" x="108" y="341.858999" style="stroke: #000000; stroke-width: 0.8"/>
      </g>
     </g>
     <g id="text_12">
      <!-- 100 -->
      <g transform="translate(81.9125 345.658217) scale(0.1 -0.1)">
       <use xlink:href="#DejaVuSans-31"/>
       <use xlink:href="#DejaVuSans-30" transform="translate(63.623047 0)"/>
       <use xlink:href="#DejaVuSans-30" transform="translate(127.246094 0)"/>
      </g>
     </g>
    </g>
    <g id="ytick_4">
     <g id="line2d_12">
      <g>
       <use xlink:href="#mc8c032e2f2" x="108" y="261.814352" style="stroke: #000000; stroke-width: 0.8"/>
      </g>
     </g>
     <g id="text_13">
      <!-- 150 -->
      <g transform="translate(81.9125 265.613571) scale(0.1 -0.1)">
       <use xlink:href="#DejaVuSans-31"/>
       <use xlink:href="#DejaVuSans-35" transform="translate(63.623047 0)"/>
       <use xlink:href="#DejaVuSans-30" transform="translate(127.246094 0)"/>
      </g>
     </g>
    </g>
    <g id="ytick_5">
     <g id="line2d_13">
      <g>
       <use xlink:href="#mc8c032e2f2" x="108" y="181.769705" style="stroke: #000000; stroke-width: 0.8"/>
      </g>
     </g>
     <g id="text_14">
      <!-- 200 -->
      <g transform="translate(81.9125 185.568924) scale(0.1 -0.1)">
       <use xlink:href="#DejaVuSans-32"/>
       <use xlink:href="#DejaVuSans-30" transform="translate(63.623047 0)"/>
       <use xlink:href="#DejaVuSans-30" transform="translate(127.246094 0)"/>
      </g>
     </g>
    </g>
    <g id="ytick_6">
     <g id="line2d_14">
      <g>
       <use xlink:href="#mc8c032e2f2" x="108" y="101.725059" style="stroke: #000000; stroke-width: 0.8"/>
      </g>
     </g>
     <g id="text_15">
      <!-- 250 -->
      <g transform="translate(81.9125 105.524278) scale(0.1 -0.1)">
       <use xlink:href="#DejaVuSans-32"/>
       <use xlink:href="#DejaVuSans-35" transform="translate(63.623047 0)"/>
       <use xlink:href="#DejaVuSans-30" transform="translate(127.246094 0)"/>
      </g>
     </g>
    </g>
    <g id="text_16">
     <!-- T_b (K) -->
     <g transform="translate(75.554688 308.377656) rotate(-90) scale(0.1 -0.1)">
      <defs>
       <path id="DejaVuSans-54" d="M -19 4666 
L 3928 4666 
L 3928 4134 
L 2272 4134 
L 2272 0 
L 1638 0 
L 1638 4134 
L -19 4134 
L -19 4666 
z
" transform="scale(0.015625)"/>
       <path id="DejaVuSans-5f" d="M 3263 -1063 
L 3263 -1509 
L -63 -1509 
L -63 -1063 
L 3263 -1063 
z
" transform="scale(0.015625)"/>
       <path id="DejaVuSans-62" d="M 3116 1747 
Q 3116 2381 2855 2742 
Q 2594 3103 2138 3103 
Q 1681 3103 1420 2742 
Q 1159 2381 1159 1747 
Q 1159 1113 1420 752 
Q 1681 391 2138 391 
Q 2594 391 2855 752 
Q 3116 1113 3116 1747 
z
M 1159 2969 
Q 1341 3281 1617 3432 
Q 1894 3584 2278 3584 
Q 2916 3584 3314 3078 
Q 3713 2572 3713 1747 
Q 3713 922 3314 415 
Q 2916 -91 2278 -91 
Q 1894 -91 1617 61 
Q 1341 213 1159 525 
L 1159 0 
L 581 0 
L 581 4863 
L 1159 4863 
L 1159 2969 
z
" transform="scale(0.015625)"/>
       <path id="DejaVuSans-4b" d="M 628 4666 
L 1259 4666 
L 1259 2694 
L 3353 4666 
L 4166 4666 
L 1850 2491 
L 4331 0 
L 3500 0 
L 1259 2247 
L 1259 0 
L 628 0 
L 628 4666 
z
" transform="scale(0.015625)"/>
      </defs>
      <use xlink:href="#DejaVuSans-54"/>
      <use xlink:href="#DejaVuSans-5f" transform="translate(61.083984 0)"/>
      <use xlink:href="#DejaVuSans-62" transform="translate(111.083984 0)"/>
      <use xlink:href="#DejaVuSans-20" transform="translate(174.560547 0)"/>
      <use xlink:href="#DejaVuSans-28" transform="translate(206.347656 0)"/>
      <use xlink:href="#DejaVuSans-4b" transform="translate(245.361328 0)"/>
      <use xlink:href="#DejaVuSans-29" transform="translate(310.9375 0)"/>
     </g>
    </g>
   </g>
   <g id="line2d_15">
    <path d="M 138.436364 492.48 
L 146.445933 491.880856 
L 152.853589 491.186187 
L 157.65933 490.426138 
L 160.863158 489.709279 
L 164.066986 488.690226 
L 165.6689 488.000138 
L 167.270813 487.132046 
L 168.872727 486.024141 
L 170.474641 484.601219 
L 172.076555 482.792117 
L 173.678469 480.588949 
L 175.280383 478.183627 
L 176.882297 476.155442 
L 178.484211 475.439339 
L 180.086124 476.132213 
L 184.891866 480.013344 
L 186.49378 480.912688 
L 188.095694 481.56015 
L 189.697608 481.993452 
L 191.299522 482.253923 
L 194.503349 482.389445 
L 197.707177 482.156376 
L 200.911005 481.6566 
L 204.114833 480.944642 
L 207.31866 480.04687 
L 210.522488 478.972085 
L 213.726316 477.717132 
L 216.930144 476.269744 
L 220.133971 474.609586 
L 223.337799 472.708144 
L 226.541627 470.527784 
L 229.745455 468.019966 
L 232.949282 465.122412 
L 236.15311 461.755137 
L 239.356938 457.814793 
L 240.958852 455.589079 
L 242.560766 453.166443 
L 244.162679 450.523128 
L 245.764593 447.631621 
L 247.366507 444.459914 
L 248.968421 440.9706 
L 250.570335 437.119734 
L 252.172249 432.8554 
L 253.774163 428.115884 
L 255.376077 422.827297 
L 256.97799 416.900448 
L 258.579904 410.226671 
L 260.181818 402.67223 
L 261.783732 394.069761 
L 263.385646 384.206463 
L 264.98756 372.803037 
L 266.589474 359.472405 
L 268.191388 343.642029 
L 269.793301 324.391061 
L 271.395215 300.060226 
L 272.997129 270.203952 
L 274.599043 232.796837 
L 277.802871 146.205336 
L 279.404785 113.318878 
L 281.006699 96.394491 
L 282.608612 90.902877 
L 284.210526 89.57996 
L 285.81244 89.291473 
L 289.016268 89.349708 
L 295.423923 89.542603 
L 303.433493 89.582941 
L 308.239234 89.363868 
L 309.841148 89.28 
L 311.443062 89.352619 
L 313.044976 90.006433 
L 314.64689 93.082014 
L 316.248804 103.988854 
L 317.850718 128.069004 
L 319.452632 163.04228 
L 321.054545 201.156938 
L 322.656459 236.121396 
L 324.258373 265.581212 
L 325.860287 289.712041 
L 327.462201 309.535822 
L 329.064115 326.055245 
L 330.666029 340.072584 
L 332.267943 352.128373 
L 333.869856 362.60684 
L 335.47177 371.784891 
L 337.073684 379.872869 
L 338.675598 387.036568 
L 340.277512 393.409508 
L 341.879426 399.10071 
L 343.48134 404.199574 
L 345.083254 408.77974 
L 346.685167 412.898276 
L 348.287081 416.612605 
L 349.888995 420.03835 
L 351.490909 423.12531 
L 353.092823 425.924528 
L 354.694737 428.466333 
L 356.296651 430.775009 
L 357.898565 432.871066 
L 359.500478 434.773462 
L 362.704306 438.089879 
L 365.908134 441.000367 
L 369.111962 443.638681 
L 372.315789 445.901115 
L 375.519617 447.796171 
L 378.723445 449.376498 
L 381.927273 450.688151 
L 385.1311 451.765918 
L 389.936842 453.050989 
L 393.14067 453.736935 
L 397.946411 454.480335 
L 402.752153 454.913493 
L 407.557895 455.067268 
L 412.363636 454.953852 
L 417.169378 454.577617 
L 421.97512 453.916855 
L 425.178947 453.280715 
L 426.780861 452.881599 
L 428.382775 452.236148 
L 429.984689 452.044507 
L 433.188517 451.083992 
L 436.392344 449.85883 
L 439.596172 448.351314 
L 442.8 446.503891 
L 446.003828 444.228702 
L 447.605742 442.892835 
L 449.207656 441.398218 
L 450.809569 439.719607 
L 452.411483 437.826216 
L 454.013397 435.680268 
L 455.615311 433.235179 
L 457.217225 430.432911 
L 458.819139 427.200273 
L 460.421053 423.444985 
L 462.022967 419.048679 
L 463.62488 413.8586 
L 465.226794 407.675832 
L 466.828708 400.23869 
L 468.430622 391.200149 
L 470.032536 380.097338 
L 471.63445 366.312317 
L 473.236364 349.027076 
L 474.838278 327.188197 
L 476.440191 299.550281 
L 478.042105 264.897387 
L 479.644019 222.849051 
L 482.847847 132.045557 
L 484.449761 104.381324 
L 486.051675 96.379409 
L 487.653589 96.418828 
L 489.255502 104.7173 
L 490.857416 133.362692 
L 495.663158 268.528659 
L 497.265072 303.069682 
L 498.866986 330.322711 
L 500.4689 351.609821 
L 502.070813 368.255109 
L 503.672727 381.350965 
L 505.274641 391.735658 
L 506.876555 400.028141 
L 508.478469 406.608306 
L 510.080383 412.245609 
L 511.682297 416.874382 
L 513.284211 420.680423 
L 514.886124 423.843873 
L 516.488038 426.4905 
L 518.089952 428.715436 
L 519.691866 430.592659 
L 521.29378 432.180541 
L 522.895694 433.525623 
L 524.497608 434.665426 
L 526.099522 435.630277 
L 527.701435 436.444947 
L 530.905263 437.701401 
L 534.109091 438.558149 
L 537.312919 439.099998 
L 540.516746 439.386886 
L 543.720574 439.449971 
L 546.924402 439.311425 
L 556.535885 438.465379 
L 559.739713 437.949941 
L 562.943541 437.247438 
L 567.749282 436.13424 
L 574.156938 435.044803 
L 578.962679 433.895876 
L 583.768421 432.429302 
L 586.972249 431.217264 
L 588.574163 430.427536 
L 590.176077 429.845632 
L 591.77799 429.445385 
L 594.981818 428.369146 
L 598.185646 427.126131 
L 602.991388 424.975086 
L 607.797129 422.497213 
L 612.602871 419.665832 
L 615.806699 417.551049 
L 619.010526 415.224727 
L 622.214354 412.66022 
L 625.418182 409.814754 
L 628.62201 406.634568 
L 631.825837 403.058411 
L 635.029665 399.009556 
L 638.233493 394.389057 
L 641.437321 389.084265 
L 643.039234 386.124526 
L 644.641148 382.930628 
L 646.243062 379.476539 
L 647.844976 375.733292 
L 649.44689 371.668616 
L 651.048804 367.244044 
L 652.650718 362.418447 
L 654.252632 357.138335 
L 655.854545 351.349054 
L 657.456459 344.988074 
L 659.058373 337.984852 
L 660.660287 330.260313 
L 662.262201 321.726596 
L 663.864115 312.287238 
L 665.466029 301.837858 
L 667.067943 290.266237 
L 668.669856 277.436714 
L 671.873684 248.273818 
L 673.475598 231.730325 
L 676.679426 195.097883 
L 681.485167 138.203458 
L 683.087081 122.094943 
L 684.688995 109.133902 
L 686.290909 99.917623 
L 687.892823 94.306977 
L 689.494737 91.450601 
L 691.096651 90.237553 
L 692.698565 89.815901 
L 694.300478 89.787665 
L 695.902392 90.130373 
L 697.504306 91.132971 
L 699.10622 93.484974 
L 700.708134 98.105668 
L 702.310048 105.736574 
L 703.911962 116.562017 
L 705.513876 130.156867 
L 708.717703 162.337676 
L 711.921531 195.78356 
L 715.125359 226.410848 
L 716.727273 240.119617 
L 718.329187 252.681801 
L 719.9311 264.116679 
L 721.533014 274.476353 
L 723.134928 283.832306 
L 724.736842 292.269574 
L 726.338756 299.884816 
L 727.94067 306.77917 
L 729.542584 313.098371 
L 731.144498 318.841912 
L 732.746411 324.050863 
L 734.348325 328.760654 
L 735.950239 333.011618 
L 737.552153 336.84386 
L 739.154067 340.293658 
L 740.755981 343.391619 
L 742.357895 346.161535 
L 743.959809 348.619108 
L 745.561722 350.769337 
L 747.163636 352.599931 
L 747.163636 352.599931 
" clip-path="url(#p239e90e66a)" style="fill: none; stroke: #0000ff; stroke-width: 1.5; stroke-linecap: square"/>
   </g>
   <g id="patch_3">
    <path d="M 108 512.64 
L 108 69.12 
" style="fill: none; stroke: #000000; stroke-width: 0.8; stroke-linejoin: miter; stroke-linecap: square"/>
   </g>
   <g id="patch_4">
    <path d="M 777.6 512.64 
L 777.6 69.12 
" style="fill: none; stroke: #000000; stroke-width: 0.8; stroke-linejoin: miter; stroke-linecap: square"/>
   </g>
   <g id="patch_5">
    <path d="M 108 512.64 
L 777.6 512.64 
" style="fill: none; stroke: #000000; stroke-width: 0.8; stroke-linejoin: miter; stroke-linecap: square"/>
   </g>
   <g id="patch_6">
    <path d="M 108 69.12 
L 777.6 69.12 
" style="fill: none; stroke: #000000; stroke-width: 0.8; stroke-linejoin: miter; stroke-linecap: square"/>
   </g>
   <g id="text_17">
    <!-- subarctic_winter -->
    <g transform="translate(393.550313 63.12) scale(0.12 -0.12)">
     <defs>
      <path id="DejaVuSans-73" d="M 2834 3397 
L 2834 2853 
Q 2591 2978 2328 3040 
Q 2066 3103 1784 3103 
Q 1356 3103 1142 2972 
Q 928 2841 928 2578 
Q 928 2378 1081 2264 
Q 1234 2150 1697 2047 
L 1894 2003 
Q 2506 1872 2764 1633 
Q 3022 1394 3022 966 
Q 3022 478 2636 193 
Q 2250 -91 1575 -91 
Q 1294 -91 989 -36 
Q 684 19 347 128 
L 347 722 
Q 666 556 975 473 
Q 1284 391 1588 391 
Q 1994 391 2212 530 
Q 2431 669 2431 922 
Q 2431 1156 2273 1281 
Q 2116 1406 1581 1522 
L 1381 1569 
Q 847 1681 609 1914 
Q 372 2147 372 2553 
Q 372 3047 722 3315 
Q 1072 3584 1716 3584 
Q 2034 3584 2315 3537 
Q 2597 3491 2834 3397 
z
" transform="scale(0.015625)"/>
      <path id="DejaVuSans-61" d="M 2194 1759 
Q 1497 1759 1228 1600 
Q 959 1441 959 1056 
Q 959 750 1161 570 
Q 1363 391 1709 391 
Q 2188 391 2477 730 
Q 2766 1069 2766 1631 
L 2766 1759 
L 2194 1759 
z
M 3341 1997 
L 3341 0 
L 2766 0 
L 2766 531 
Q 2569 213 2275 61 
Q 1981 -91 1556 -91 
Q 1019 -91 701 211 
Q 384 513 384 1019 
Q 384 1609 779 1909 
Q 1175 2209 1959 2209 
L 2766 2209 
L 2766 2266 
Q 2766 2663 2505 2880 
Q 2244 3097 1772 3097 
Q 1472 3097 1187 3025 
Q 903 2953 641 2809 
L 641 3341 
Q 956 3463 1253 3523 
Q 1550 3584 1831 3584 
Q 2591 3584 2966 3190 
Q 3341 2797 3341 1997 
z
" transform="scale(0.015625)"/>
      <path id="DejaVuSans-74" d="M 1172 4494 
L 1172 3500 
L 2356 3500 
L 2356 3053 
L 1172 3053 
L 1172 1153 
Q 1172 725 1289 603 
Q 1406 481 1766 481 
L 2356 481 
L 2356 0 
L 1766 0 
Q 1100 0 847 248 
Q 594 497 594 1153 
L 594 3053 
L 172 3053 
L 172 3500 
L 594 3500 
L 594 4494 
L 1172 4494 
z
" transform="scale(0.015625)"/>
      <path id="DejaVuSans-69" d="M 603 3500 
L 1178 3500 
L 1178 0 
L 603 0 
L 603 3500 
z
M 603 4863 
L 1178 4863 
L 1178 4134 
L 603 4134 
L 603 4863 
z
" transform="scale(0.015625)"/>
      <path id="DejaVuSans-77" d="M 269 3500 
L 844 3500 
L 1563 769 
L 2278 3500 
L 2956 3500 
L 3675 769 
L 4391 3500 
L 4966 3500 
L 4050 0 
L 3372 0 
L 2619 2869 
L 1863 0 
L 1184 0 
L 269 3500 
z
" transform="scale(0.015625)"/>
     </defs>
     <use xlink:href="#DejaVuSans-73"/>
     <use xlink:href="#DejaVuSans-75" transform="translate(52.099609 0)"/>
     <use xlink:href="#DejaVuSans-62" transform="translate(115.478516 0)"/>
     <use xlink:href="#DejaVuSans-61" transform="translate(178.955078 0)"/>
     <use xlink:href="#DejaVuSans-72" transform="translate(240.234375 0)"/>
     <use xlink:href="#DejaVuSans-63" transform="translate(279.097656 0)"/>
     <use xlink:href="#DejaVuSans-74" transform="translate(334.078125 0)"/>
     <use xlink:href="#DejaVuSans-69" transform="translate(373.287109 0)"/>
     <use xlink:href="#DejaVuSans-63" transform="translate(401.070312 0)"/>
     <use xlink:href="#DejaVuSans-5f" transform="translate(456.050781 0)"/>
     <use xlink:href="#DejaVuSans-77" transform="translate(506.050781 0)"/>
     <use xlink:href="#DejaVuSans-69" transform="translate(587.837891 0)"/>
     <use xlink:href="#DejaVuSans-6e" transform="translate(615.621094 0)"/>
     <use xlink:href="#DejaVuSans-74" transform="translate(679 0)"/>
     <use xlink:href="#DejaVuSans-65" transform="translate(718.208984 0)"/>
     <use xlink:href="#DejaVuSans-72" transform="translate(779.732422 0)"/>
    </g>
   </g>
   <g id="legend_1">
    <g id="patch_7">
     <path d="M 494.109375 507.64 
L 770.6 507.64 
Q 772.6 507.64 772.6 505.64 
L 772.6 491.961875 
Q 772.6 489.961875 770.6 489.961875 
L 494.109375 489.961875 
Q 492.109375 489.961875 492.109375 491.961875 
L 492.109375 505.64 
Q 492.109375 507.64 494.109375 507.64 
z
" style="fill: #ffffff; opacity: 0.8; stroke: #cccccc; stroke-linejoin: miter"/>
    </g>
    <g id="line2d_16">
     <path d="M 496.109375 498.060313 
L 506.109375 498.060313 
L 516.109375 498.060313 
" style="fill: none; stroke: #0000ff; stroke-width: 1.5; stroke-linecap: square"/>
    </g>
    <g id="text_18">
     <!-- PWV: 4.21 mm (30.0 deg),time of calculate: 0.03 -->
     <g transform="translate(524.109375 501.560313) scale(0.1 -0.1)">
      <defs>
       <path id="DejaVuSans-50" d="M 1259 4147 
L 1259 2394 
L 2053 2394 
Q 2494 2394 2734 2622 
Q 2975 2850 2975 3272 
Q 2975 3691 2734 3919 
Q 2494 4147 2053 4147 
L 1259 4147 
z
M 628 4666 
L 2053 4666 
Q 2838 4666 3239 4311 
Q 3641 3956 3641 3272 
Q 3641 2581 3239 2228 
Q 2838 1875 2053 1875 
L 1259 1875 
L 1259 0 
L 628 0 
L 628 4666 
z
" transform="scale(0.015625)"/>
       <path id="DejaVuSans-57" d="M 213 4666 
L 850 4666 
L 1831 722 
L 2809 4666 
L 3519 4666 
L 4500 722 
L 5478 4666 
L 6119 4666 
L 4947 0 
L 4153 0 
L 3169 4050 
L 2175 0 
L 1381 0 
L 213 4666 
z
" transform="scale(0.015625)"/>
       <path id="DejaVuSans-56" d="M 1831 0 
L 50 4666 
L 709 4666 
L 2188 738 
L 3669 4666 
L 4325 4666 
L 2547 0 
L 1831 0 
z
" transform="scale(0.015625)"/>
       <path id="DejaVuSans-3a" d="M 750 794 
L 1409 794 
L 1409 0 
L 750 0 
L 750 794 
z
M 750 3309 
L 1409 3309 
L 1409 2516 
L 750 2516 
L 750 3309 
z
" transform="scale(0.015625)"/>
       <path id="DejaVuSans-34" d="M 2419 4116 
L 825 1625 
L 2419 1625 
L 2419 4116 
z
M 2253 4666 
L 3047 4666 
L 3047 1625 
L 3713 1625 
L 3713 1100 
L 3047 1100 
L 3047 0 
L 2419 0 
L 2419 1100 
L 313 1100 
L 313 1709 
L 2253 4666 
z
" transform="scale(0.015625)"/>
       <path id="DejaVuSans-2e" d="M 684 794 
L 1344 794 
L 1344 0 
L 684 0 
L 684 794 
z
" transform="scale(0.015625)"/>
       <path id="DejaVuSans-6d" d="M 3328 2828 
Q 3544 3216 3844 3400 
Q 4144 3584 4550 3584 
Q 5097 3584 5394 3201 
Q 5691 2819 5691 2113 
L 5691 0 
L 5113 0 
L 5113 2094 
Q 5113 2597 4934 2840 
Q 4756 3084 4391 3084 
Q 3944 3084 3684 2787 
Q 3425 2491 3425 1978 
L 3425 0 
L 2847 0 
L 2847 2094 
Q 2847 2600 2669 2842 
Q 2491 3084 2119 3084 
Q 1678 3084 1418 2786 
Q 1159 2488 1159 1978 
L 1159 0 
L 581 0 
L 581 3500 
L 1159 3500 
L 1159 2956 
Q 1356 3278 1631 3431 
Q 1906 3584 2284 3584 
Q 2666 3584 2933 3390 
Q 3200 3197 3328 2828 
z
" transform="scale(0.015625)"/>
       <path id="DejaVuSans-33" d="M 2597 2516 
Q 3050 2419 3304 2112 
Q 3559 1806 3559 1356 
Q 3559 666 3084 287 
Q 2609 -91 1734 -91 
Q 1441 -91 1130 -33 
Q 819 25 488 141 
L 488 750 
Q 750 597 1062 519 
Q 1375 441 1716 441 
Q 2309 441 2620 675 
Q 2931 909 2931 1356 
Q 2931 1769 2642 2001 
Q 2353 2234 1838 2234 
L 1294 2234 
L 1294 2753 
L 1863 2753 
Q 2328 2753 2575 2939 
Q 2822 3125 2822 3475 
Q 2822 3834 2567 4026 
Q 2313 4219 1838 4219 
Q 1578 4219 1281 4162 
Q 984 4106 628 3988 
L 628 4550 
Q 988 4650 1302 4700 
Q 1616 4750 1894 4750 
Q 2613 4750 3031 4423 
Q 3450 4097 3450 3541 
Q 3450 3153 3228 2886 
Q 3006 2619 2597 2516 
z
" transform="scale(0.015625)"/>
       <path id="DejaVuSans-64" d="M 2906 2969 
L 2906 4863 
L 3481 4863 
L 3481 0 
L 2906 0 
L 2906 525 
Q 2725 213 2448 61 
Q 2172 -91 1784 -91 
Q 1150 -91 751 415 
Q 353 922 353 1747 
Q 353 2572 751 3078 
Q 1150 3584 1784 3584 
Q 2172 3584 2448 3432 
Q 2725 3281 2906 2969 
z
M 947 1747 
Q 947 1113 1208 752 
Q 1469 391 1925 391 
Q 2381 391 2643 752 
Q 2906 1113 2906 1747 
Q 2906 2381 2643 2742 
Q 2381 3103 1925 3103 
Q 1469 3103 1208 2742 
Q 947 2381 947 1747 
z
" transform="scale(0.015625)"/>
       <path id="DejaVuSans-67" d="M 2906 1791 
Q 2906 2416 2648 2759 
Q 2391 3103 1925 3103 
Q 1463 3103 1205 2759 
Q 947 2416 947 1791 
Q 947 1169 1205 825 
Q 1463 481 1925 481 
Q 2391 481 2648 825 
Q 2906 1169 2906 1791 
z
M 3481 434 
Q 3481 -459 3084 -895 
Q 2688 -1331 1869 -1331 
Q 1566 -1331 1297 -1286 
Q 1028 -1241 775 -1147 
L 775 -588 
Q 1028 -725 1275 -790 
Q 1522 -856 1778 -856 
Q 2344 -856 2625 -561 
Q 2906 -266 2906 331 
L 2906 616 
Q 2728 306 2450 153 
Q 2172 0 1784 0 
Q 1141 0 747 490 
Q 353 981 353 1791 
Q 353 2603 747 3093 
Q 1141 3584 1784 3584 
Q 2172 3584 2450 3431 
Q 2728 3278 2906 2969 
L 2906 3500 
L 3481 3500 
L 3481 434 
z
" transform="scale(0.015625)"/>
       <path id="DejaVuSans-2c" d="M 750 794 
L 1409 794 
L 1409 256 
L 897 -744 
L 494 -744 
L 750 256 
L 750 794 
z
" transform="scale(0.015625)"/>
       <path id="DejaVuSans-6f" d="M 1959 3097 
Q 1497 3097 1228 2736 
Q 959 2375 959 1747 
Q 959 1119 1226 758 
Q 1494 397 1959 397 
Q 2419 397 2687 759 
Q 2956 1122 2956 1747 
Q 2956 2369 2687 2733 
Q 2419 3097 1959 3097 
z
M 1959 3584 
Q 2709 3584 3137 3096 
Q 3566 2609 3566 1747 
Q 3566 888 3137 398 
Q 2709 -91 1959 -91 
Q 1206 -91 779 398 
Q 353 888 353 1747 
Q 353 2609 779 3096 
Q 1206 3584 1959 3584 
z
" transform="scale(0.015625)"/>
       <path id="DejaVuSans-6c" d="M 603 4863 
L 1178 4863 
L 1178 0 
L 603 0 
L 603 4863 
z
" transform="scale(0.015625)"/>
      </defs>
      <use xlink:href="#DejaVuSans-50"/>
      <use xlink:href="#DejaVuSans-57" transform="translate(60.302734 0)"/>
      <use xlink:href="#DejaVuSans-56" transform="translate(159.179688 0)"/>
      <use xlink:href="#DejaVuSans-3a" transform="translate(219.462891 0)"/>
      <use xlink:href="#DejaVuSans-20" transform="translate(253.154297 0)"/>
      <use xlink:href="#DejaVuSans-34" transform="translate(284.941406 0)"/>
      <use xlink:href="#DejaVuSans-2e" transform="translate(348.564453 0)"/>
      <use xlink:href="#DejaVuSans-32" transform="translate(380.351562 0)"/>
      <use xlink:href="#DejaVuSans-31" transform="translate(443.974609 0)"/>
      <use xlink:href="#DejaVuSans-20" transform="translate(507.597656 0)"/>
      <use xlink:href="#DejaVuSans-6d" transform="translate(539.384766 0)"/>
      <use xlink:href="#DejaVuSans-6d" transform="translate(636.796875 0)"/>
      <use xlink:href="#DejaVuSans-20" transform="translate(734.208984 0)"/>
      <use xlink:href="#DejaVuSans-28" transform="translate(765.996094 0)"/>
      <use xlink:href="#DejaVuSans-33" transform="translate(805.009766 0)"/>
      <use xlink:href="#DejaVuSans-30" transform="translate(868.632812 0)"/>
      <use xlink:href="#DejaVuSans-2e" transform="translate(932.255859 0)"/>
      <use xlink:href="#DejaVuSans-30" transform="translate(964.042969 0)"/>
      <use xlink:href="#DejaVuSans-20" transform="translate(1027.666016 0)"/>
      <use xlink:href="#DejaVuSans-64" transform="translate(1059.453125 0)"/>
      <use xlink:href="#DejaVuSans-65" transform="translate(1122.929688 0)"/>
      <use xlink:href="#DejaVuSans-67" transform="translate(1184.453125 0)"/>
      <use xlink:href="#DejaVuSans-29" transform="translate(1247.929688 0)"/>
      <use xlink:href="#DejaVuSans-2c" transform="translate(1286.943359 0)"/>
      <use xlink:href="#DejaVuSans-74" transform="translate(1318.730469 0)"/>
      <use xlink:href="#DejaVuSans-69" transform="translate(1357.939453 0)"/>
      <use xlink:href="#DejaVuSans-6d" transform="translate(1385.722656 0)"/>
      <use xlink:href="#DejaVuSans-65" transform="translate(1483.134766 0)"/>
      <use xlink:href="#DejaVuSans-20" transform="translate(1544.658203 0)"/>
      <use xlink:href="#DejaVuSans-6f" transform="translate(1576.445312 0)"/>
      <use xlink:href="#DejaVuSans-66" transform="translate(1637.626953 0)"/>
      <use xlink:href="#DejaVuSans-20" transform="translate(1672.832031 0)"/>
      <use xlink:href="#DejaVuSans-63" transform="translate(1704.619141 0)"/>
      <use xlink:href="#DejaVuSans-61" transform="translate(1759.599609 0)"/>
      <use xlink:href="#DejaVuSans-6c" transform="translate(1820.878906 0)"/>
      <use xlink:href="#DejaVuSans-63" transform="translate(1848.662109 0)"/>
      <use xlink:href="#DejaVuSans-75" transform="translate(1903.642578 0)"/>
      <use xlink:href="#DejaVuSans-6c" transform="translate(1967.021484 0)"/>
      <use xlink:href="#DejaVuSans-61" transform="translate(1994.804688 0)"/>
      <use xlink:href="#DejaVuSans-74" transform="translate(2056.083984 0)"/>
      <use xlink:href="#DejaVuSans-65" transform="translate(2095.292969 0)"/>
      <use xlink:href="#DejaVuSans-3a" transform="translate(2156.816406 0)"/>
      <use xlink:href="#DejaVuSans-20" transform="translate(2190.507812 0)"/>
      <use xlink:href="#DejaVuSans-30" transform="translate(2222.294922 0)"/>
      <use xlink:href="#DejaVuSans-2e" transform="translate(2285.917969 0)"/>
      <use xlink:href="#DejaVuSans-30" transform="translate(2317.705078 0)"/>
      <use xlink:href="#DejaVuSans-33" transform="translate(2381.328125 0)"/>
     </g>
    </g>
   </g>
  </g>
 </g>
 <defs>
  <clipPath id="p239e90e66a">
   <rect x="108" y="69.12" width="669.6" height="443.52"/>
  </clipPath>
 </defs>
</svg>
